<svg width="374" height="114" viewBox="0 0 374 114" fill="none" xmlns="http://www.w3.org/2000/svg">
<path d="M113.925 50.2365C113.792 49.4726 113.611 48.718 113.381 47.9773C112.725 45.821 111.608 43.8315 110.108 42.1452C109.769 41.7524 109.405 41.381 109.02 41.033C108.566 40.6229 108.071 40.2476 107.624 39.9139C108.354 39.3265 109.024 38.6701 109.627 37.9537L109.878 37.6548C111.169 36.0763 112.156 34.2734 112.787 32.3371C113.198 31.0885 113.488 29.8036 113.653 28.5V28.2915C113.771 27.3088 113.829 26.3199 113.827 25.3302V19.7693C113.827 13.2282 112.243 8.2511 109.068 4.92146L108.908 4.76854C105.754 1.62659 100.528 0 93.4176 0H33.6058C33.55 7.59073 33.5151 15.4943 33.5012 22.3551V23.5438C33.5012 24.0165 33.5012 24.4891 33.5012 24.934V25.8168H50.7707V25.3094V18.1427C50.7707 17.3224 51.1126 17.3224 51.4685 17.3224H90.194C92.678 17.3224 94.534 17.8368 95.5528 18.7613L95.7133 18.9212C96.5959 19.8963 97.1095 21.1476 97.1646 22.4594V25.0661C97.1646 27.3391 96.6413 28.9657 95.6086 29.932C94.5759 30.8982 92.7478 31.4126 90.1661 31.4126H80.2299V48.7906H90.2847H90.6684C92.9641 48.8323 94.6945 49.3467 95.6644 50.2226L95.8249 50.3824C96.7285 51.3936 97.2407 52.6924 97.2693 54.0457V58.4528C97.2693 60.7189 96.7459 62.3524 95.7133 63.3187C94.6806 64.2849 92.8315 64.8132 90.2637 64.8201L50.7568 65.0634V56.3813H33.55L33.2639 82.2051H50.7707H94.848H95.2597C98.3145 82.3052 101.36 81.8339 104.24 80.8149C106.557 79.9724 108.608 78.5335 110.185 76.6441C111.722 74.7207 112.813 72.4818 113.381 70.0891C114.066 67.2892 114.392 64.4139 114.35 61.5322V54.8451C114.359 53.2988 114.216 51.7554 113.925 50.2365Z" fill="#97BC50"/>
<path d="M56.7995 96.177H56.9809L36.983 96.2257L17.4806 96.2744L17.4178 62.7208V57.0695V53.5939C17.4107 53.492 17.4107 53.3899 17.4178 53.288C17.4178 52.1008 17.8913 50.9621 18.734 50.1226C19.5767 49.2831 20.7196 48.8114 21.9114 48.8114H56.9948L56.9599 59.0853H74.2229V31.4681H57.0646H18.618C12.3381 31.5724 7.78174 33.3519 4.71163 36.9109C1.64148 40.47 0.0854688 45.1203 0.0784912 50.9594V59.3634C0.0784912 59.5302 0.0784912 59.704 0.0784912 59.8778L0.176177 96.1909V113.569H55.3691C55.8435 113.569 56.318 113.569 56.7646 113.569C62.6048 113.319 66.8751 111.539 69.7991 108.154C71.5679 106.095 72.8532 103.668 73.56 101.05C73.8447 99.9627 73.9857 98.8435 73.9787 97.7202V88.1553H56.7995V96.177Z" fill="white"/>
<path d="M143.294 78.4508L143.25 36.0308L158.136 36.0153C161.103 36.0122 163.55 36.5205 165.478 37.5404C167.405 38.5464 168.841 39.9051 169.785 41.6163C170.73 43.3138 171.203 45.1982 171.205 47.2695C171.208 49.0922 170.883 50.5977 170.233 51.786C169.596 52.9741 168.752 53.914 167.699 54.6056C166.661 55.2971 165.531 55.8092 164.312 56.1419V56.5561C165.616 56.6376 166.926 57.0919 168.243 57.9191C169.562 58.7462 170.665 59.9326 171.553 61.4782C172.442 63.0239 172.888 64.9152 172.89 67.1522C172.892 69.2787 172.409 71.1916 171.441 72.8912C170.472 74.5908 168.942 75.9386 166.85 76.9347C164.757 77.9315 162.035 78.4313 158.68 78.4348L143.294 78.4508ZM148.446 73.8887L158.675 73.8783C162.044 73.8748 164.434 73.2228 165.847 71.9236C167.273 70.6105 167.985 69.0215 167.983 67.1573C167.981 65.7212 167.613 64.396 166.877 63.1816C166.141 61.9534 165.093 60.9741 163.735 60.2436C162.375 59.4994 160.767 59.1282 158.909 59.1301L148.431 59.141L148.446 73.8887ZM148.426 54.6671L157.99 54.6571C159.542 54.6555 160.942 54.3503 162.189 53.7413C163.45 53.1325 164.447 52.2753 165.18 51.1698C165.928 50.0643 166.3 48.7659 166.299 47.2746C166.297 45.4104 165.644 43.8301 164.339 42.5334C163.035 41.223 160.969 40.5692 158.141 40.5721L148.411 40.5823L148.426 54.6671ZM186.486 35.9857L186.53 78.4056L181.374 78.4111L181.329 35.991L186.486 35.9857ZM196.824 35.9749L202.979 35.9685L217.487 71.1652H217.985L232.42 35.9378L238.574 35.9313L238.619 78.3514L233.795 78.3562L233.761 46.1272L233.345 46.1276L220.072 78.3708L215.415 78.3757L202.074 46.1602L201.659 46.1607L201.693 78.3903L196.869 78.3952L196.824 35.9749Z" fill="#97BC50"/>
<path d="M261.267 78.9909C258.273 78.9937 255.694 78.2923 253.53 76.886C251.366 75.4798 249.701 73.5411 248.533 71.0706C247.367 68.6003 246.781 65.7771 246.779 62.6011C246.775 59.3699 247.368 56.5178 248.557 54.0448C249.761 51.558 251.436 49.6161 253.583 48.2192C255.743 46.8085 258.266 46.1016 261.149 46.0986C263.394 46.0962 265.419 46.5084 267.222 47.335C269.024 48.1617 270.502 49.3201 271.654 50.8102C272.806 52.3003 273.521 54.0395 273.801 56.0276L268.893 56.0327C268.518 54.5832 267.685 53.2999 266.395 52.1827C265.119 51.0518 263.399 50.4874 261.237 50.4896C259.324 50.4916 257.647 50.9905 256.207 51.9862C254.78 52.9681 253.665 54.3571 252.864 56.153C252.075 57.9351 251.682 60.0276 251.685 62.4303C251.687 64.8882 252.078 67.0282 252.856 68.8501C253.648 70.6716 254.758 72.0862 256.187 73.0928C257.63 74.0993 259.322 74.6019 261.262 74.5998C262.538 74.5984 263.694 74.376 264.733 73.9332C265.772 73.4904 266.652 72.8543 267.372 72.0251C268.092 71.1958 268.604 70.2004 268.907 69.0405L273.814 69.0353C273.539 70.9136 272.855 72.6062 271.761 74.1125C270.682 75.6049 269.249 76.7936 267.461 77.6792C265.688 78.5509 263.623 78.9881 261.267 78.9909ZM280.997 78.3076L280.964 46.4922L285.704 46.4872L285.709 51.2926L286.042 51.2923C286.622 49.7175 287.674 48.4391 289.198 47.4571C290.721 46.4751 292.44 45.9831 294.353 45.9811C294.713 45.9807 295.164 45.9872 295.704 46.0004C296.245 46.0137 296.654 46.034 296.931 46.0613L296.936 51.0324C296.77 50.9911 296.389 50.9293 295.793 50.8471C295.21 50.7511 294.593 50.7034 293.942 50.7041C292.39 50.7057 291.004 51.0317 289.785 51.6819C288.579 52.3184 287.624 53.2031 286.918 54.3361C286.227 55.4554 285.881 56.7331 285.883 58.1692L285.904 78.302L280.997 78.3076ZM312.18 79.0201C310.156 79.0228 308.319 78.6447 306.669 77.887C305.019 77.1154 303.708 76.0053 302.736 74.556C301.764 73.0935 301.277 71.3265 301.275 69.2553C301.273 67.4325 301.632 65.9546 302.352 64.8216C303.071 63.6747 304.033 62.7761 305.238 62.1258C306.444 61.4756 307.774 60.9909 309.229 60.6718C310.698 60.3389 312.174 60.0749 313.657 59.8801C315.597 59.6295 317.17 59.4414 318.376 59.3159C319.596 59.1766 320.482 58.9478 321.036 58.6296C321.604 58.3114 321.888 57.7588 321.888 56.9717L321.887 56.806C321.885 54.7623 321.322 53.1749 320.198 52.0438C319.088 50.9126 317.403 50.3482 315.144 50.3505C312.801 50.353 310.966 50.8658 309.636 51.889C308.306 52.9123 307.371 54.0042 306.832 55.1647L302.173 53.5124C303.003 51.5784 304.11 50.0721 305.495 48.9936C306.894 47.9012 308.418 47.1402 310.067 46.7104C311.73 46.2668 313.365 46.0441 314.973 46.0424C315.999 46.0414 317.177 46.1644 318.508 46.4115C319.853 46.6449 321.149 47.1338 322.398 47.8781C323.66 48.6225 324.707 49.7468 325.54 51.2511C326.374 52.7554 326.792 54.7709 326.794 57.298L326.817 78.2596L321.91 78.2645L321.905 73.9561L321.656 73.9568C321.324 74.647 320.77 75.3867 319.995 76.1742C319.219 76.9625 318.187 77.6333 316.899 78.1866C315.611 78.7406 314.037 79.0187 312.18 79.0201ZM312.924 74.6283C314.865 74.6262 316.5 74.2453 317.83 73.4841C319.173 72.723 320.184 71.7421 320.862 70.5396C321.554 69.3376 321.899 68.0738 321.897 66.7482L321.893 62.2742C321.685 62.5229 321.228 62.7513 320.521 62.9591C319.829 63.1532 319.025 63.3266 318.11 63.4795C317.209 63.6185 316.329 63.7437 315.47 63.8551C314.625 63.9526 313.939 64.0362 313.412 64.1057C312.137 64.2728 310.945 64.5433 309.837 64.9173C308.742 65.2775 307.856 65.8239 307.177 66.5564C306.513 67.2751 306.181 68.2559 306.182 69.4987C306.184 71.1972 306.816 72.4804 308.078 73.3493C309.354 74.2043 310.97 74.6304 312.924 74.6283ZM349.961 46.4202L349.965 50.5628L332.75 50.5807L332.745 46.4382L349.961 46.4202ZM337.935 78.2478L337.897 42.0417C337.895 40.2189 338.323 38.6995 339.181 37.4834C340.039 36.2674 341.154 35.3549 342.525 34.7458C343.897 34.1368 345.346 33.8315 346.87 33.8299C348.076 33.8287 349.061 33.9243 349.823 34.1169C350.585 34.3093 351.154 34.4883 351.529 34.6536L350.119 38.8805C349.869 38.7979 349.523 38.6947 349.079 38.5709C348.649 38.447 348.081 38.3855 347.374 38.3862C345.753 38.388 344.582 38.7966 343.862 39.612C343.155 40.4274 342.803 41.6222 342.805 43.1964L342.841 78.2429L337.935 78.2478ZM370.726 46.3985L370.73 50.5411L354.18 50.5584L354.176 46.4158L370.726 46.3985ZM358.992 38.7884L363.899 38.7833L363.931 69.107C363.932 70.4881 364.134 71.5232 364.536 72.2134C364.953 72.8898 365.48 73.3444 366.118 73.5786C366.77 73.799 367.456 73.9088 368.177 73.9081C368.717 73.9074 369.161 73.8796 369.508 73.824C369.854 73.7545 370.131 73.6989 370.339 73.6572L371.342 78.0476C371.009 78.172 370.545 78.2964 369.949 78.4216C369.353 78.5606 368.598 78.6301 367.683 78.6308C366.297 78.6322 364.938 78.3368 363.607 77.7445C362.289 77.1523 361.193 76.2486 360.319 75.0349C359.458 73.8206 359.027 72.2878 359.025 70.4381L358.992 38.7884Z" fill="white"/>
</svg>
