<svg width="50" height="50" viewBox="0 0 50 50" fill="none" xmlns="http://www.w3.org/2000/svg">
<g clip-path="url(#clip0_422_8)">
<path d="M25.0253 0C20.3794 0 15.9237 1.84559 12.6386 5.13076C9.3534 8.41593 7.50781 12.8716 7.50781 17.5175C7.50781 27.1922 25.0253 50.0501 25.0253 50.0501C25.0253 50.0501 42.5428 27.1922 42.5428 17.5175C42.5428 15.2171 42.0897 12.9392 41.2094 10.8139C40.3291 8.68853 39.0387 6.75741 37.4121 5.13076C35.7854 3.50411 33.8543 2.21378 31.729 1.33344C29.6037 0.453104 27.3258 -1.54047e-08 25.0253 0ZM25.0253 24.8699C23.0342 24.8699 21.1247 24.0789 19.7167 22.671C18.3088 21.263 17.5178 19.3535 17.5178 17.3624C17.5178 15.3712 18.3088 13.4617 19.7167 12.0538C21.1247 10.6458 23.0342 9.85485 25.0253 9.85485C27.0164 9.85485 28.926 10.6458 30.3339 12.0538C31.7419 13.4617 32.5328 15.3712 32.5328 17.3624C32.5328 19.3535 31.7419 21.263 30.3339 22.671C28.926 24.0789 27.0164 24.8699 25.0253 24.8699Z" fill="white"/>
</g>
<defs>
<clipPath id="clip0_422_8">
<rect width="50" height="50" fill="white"/>
</clipPath>
</defs>
</svg>
