<svg width="50" height="50" viewBox="0 0 50 50" fill="none" xmlns="http://www.w3.org/2000/svg">
<path d="M0 0H25C38.8071 0 50 11.1929 50 25V50H0V0Z" fill="#97BC50"/>
<g clip-path="url(#clip0_355_33)">
<path d="M36.4875 23.0009H18.6636C18.6108 23.0004 18.5595 22.984 18.5163 22.9538C18.4731 22.9236 18.44 22.881 18.4214 22.8317C18.4028 22.7823 18.3996 22.7285 18.4121 22.6773C18.4247 22.6261 18.4524 22.5799 18.4917 22.5447L27.4886 14.628C27.7714 14.3613 27.9397 13.9953 27.9579 13.607C27.9761 13.2187 27.8429 12.8384 27.5863 12.5464C27.3297 12.2544 26.9697 12.0735 26.5823 12.0417C26.1948 12.0098 25.8102 12.1297 25.5094 12.3759L13.8625 22.6249C13.5965 22.8595 13.3835 23.148 13.2375 23.4713C13.0916 23.7946 13.0161 24.1452 13.0161 24.4999C13.0161 24.8546 13.0916 25.2052 13.2375 25.5285C13.3835 25.8518 13.5965 26.1403 13.8625 26.3749L25.5073 36.6218C25.8083 36.8649 26.1917 36.9823 26.5773 36.9494C26.9629 36.9166 27.3208 36.7359 27.5763 36.4453C27.8318 36.1547 27.9652 35.7766 27.9484 35.39C27.9317 35.0033 27.7662 34.6382 27.4865 34.3707L18.4896 26.4541C18.4503 26.4189 18.4226 26.3727 18.41 26.3215C18.3975 26.2702 18.4007 26.2164 18.4193 26.1671C18.4379 26.1177 18.471 26.0752 18.5142 26.045C18.5574 26.0148 18.6088 25.9983 18.6615 25.9978H36.4875C36.8784 25.9875 37.2497 25.825 37.5225 25.5449C37.7953 25.2648 37.948 24.8893 37.948 24.4983C37.948 24.1074 37.7953 23.7318 37.5225 23.4517C37.2497 23.1717 36.8784 23.0092 36.4875 22.9989V23.0009Z" fill="white"/>
</g>
<defs>
<clipPath id="clip0_355_33">
<rect width="25" height="25" fill="white" transform="translate(13 12)"/>
</clipPath>
</defs>
</svg>
