<svg width="341" height="41" viewBox="0 0 341 41" fill="none" xmlns="http://www.w3.org/2000/svg">
<g clip-path="url(#clip0_4_539)">
<path fill-rule="evenodd" clip-rule="evenodd" d="M133.379 27.2905C133.379 24.8912 132.593 23.0163 131.016 21.6599C129.494 20.3879 127.451 19.7549 124.884 19.7549C121.988 19.7549 119.791 20.3698 118.298 21.5996C116.8 22.8294 116.051 24.6982 116.051 27.2121C116.051 29.4909 116.867 31.2874 118.493 32.5956C120.1 33.8254 122.213 34.4403 124.842 34.4403C127.613 34.4403 129.726 33.8315 131.187 32.6137C132.651 31.3959 133.379 29.6236 133.379 27.2905ZM144.546 27.0494C144.546 29.8405 143.664 32.2941 141.904 34.4101C140.302 36.3212 137.993 37.8103 134.973 38.8894C133.529 39.3776 131.977 39.7514 130.317 40.0167C128.657 40.2759 126.955 40.4086 125.212 40.4086C122.126 40.4086 119.396 40.0951 117.029 39.4741C114.662 38.8532 112.511 37.8887 110.58 36.5805C106.802 34.0183 104.914 30.6544 104.914 26.4887C104.914 22.6063 106.802 19.4836 110.58 17.1264C114.129 14.9501 118.706 13.859 124.31 13.859C125.141 13.859 125.957 13.8831 126.756 13.9374C127.55 13.9855 128.329 14.07 129.09 14.1845C130.587 14.4136 132.106 14.7753 133.645 15.2636C136.849 16.2764 139.416 17.7293 141.346 19.6283C143.48 21.7563 144.546 24.228 144.546 27.0494ZM171.116 22.4435C171.116 21.5393 170.792 20.846 170.135 20.3577C169.656 19.9839 168.894 19.7187 167.851 19.562C167.355 19.4956 166.486 19.4655 165.238 19.4655H157.096V25.3976L164.572 25.3614H166.286C166.419 25.3614 166.615 25.3552 166.881 25.3373C167.148 25.3192 167.339 25.3071 167.455 25.3071C167.958 25.3071 168.429 25.2408 168.861 25.1142C169.294 24.9876 169.677 24.8067 170.001 24.5716C170.746 24.0954 171.116 23.384 171.116 22.4435ZM182.524 21.274C182.524 22.3773 182.208 23.366 181.58 24.2401C181.446 24.4029 181.305 24.5656 181.151 24.7283C180.993 24.8912 180.814 25.0539 180.61 25.2167C180.24 25.5121 179.82 25.7713 179.35 25.9883C178.88 26.2053 178.451 26.3802 178.064 26.5068L176.55 26.8746L172.327 27.5859C173.301 27.5859 174.153 27.7185 174.89 27.9717C175.622 28.2309 176.475 28.7193 177.44 29.4366C178.048 29.8768 178.555 30.4193 178.951 31.0764C179.254 31.6069 179.541 32.3545 179.816 33.3311L180.61 36.2067C180.798 36.8758 181.155 37.6717 181.688 38.6L182.433 39.7937H171.025L170.347 38.7326C170.135 38.395 169.948 38.0092 169.777 37.5691C169.581 37.0808 169.307 35.845 168.953 33.8616C168.749 32.7161 168.329 31.9445 167.693 31.5466C167.276 31.2995 166.681 31.1006 165.912 30.9438C165.779 30.9197 165.575 30.8895 165.304 30.8473C165.03 30.8112 164.838 30.7931 164.731 30.7931L163.549 30.7328L160.441 30.6786H157.27V39.7937H146.953V14.2568H165.712C166.157 14.2568 166.794 14.2749 167.617 14.3111C168.445 14.3412 168.966 14.3593 169.178 14.3593L173.109 14.5341C174.42 14.5341 175.68 14.7211 176.895 15.0948C177.382 15.2455 177.844 15.4204 178.289 15.6193C178.73 15.8182 179.191 16.0654 179.67 16.3608C181.572 17.5062 182.524 19.14 182.524 21.274ZM220.299 39.7937H207.818L194.143 23.8482V39.7937H184.091V14.2568H198.773L210.435 28.0501V14.2568H220.299V39.7937ZM244.448 30.4253L239.909 18.6336L235.94 30.4253H244.448ZM259.031 39.7937H248.471L246.549 34.9829H234.451L232.633 39.7937H222.635L233.694 14.2568H247.319L259.031 39.7937ZM286.841 26.8565C286.654 24.2581 285.664 22.3531 283.867 21.1354C283.097 20.6351 282.111 20.2251 280.904 19.9056C279.773 19.6343 278.437 19.5017 276.898 19.5017H271.585V34.3318H278.703C281.241 34.3318 283.28 33.5963 284.811 32.1254C286.171 30.7931 286.854 29.1955 286.854 27.3387V27.0313L286.841 26.8565ZM298.552 27.5015C298.552 31.0945 297.4 33.8918 295.1 35.9053C293.231 37.5209 290.527 38.6241 286.987 39.2149C285.863 39.3957 284.503 39.5344 282.905 39.6369C281.307 39.7394 279.523 39.7937 277.559 39.7937H261.097V14.2568H277.359C277.971 14.2568 278.812 14.293 279.885 14.3593C280.954 14.4257 281.72 14.4557 282.182 14.4557C282.855 14.4557 283.562 14.5221 284.303 14.6487C284.632 14.7029 285.306 14.8416 286.325 15.0707C289.907 15.7881 292.732 17.0481 294.795 18.8445C297.3 21.0088 298.552 23.8965 298.552 27.5015ZM329.317 27.2905C329.317 24.8912 328.531 23.0163 326.954 21.6599C325.431 20.3879 323.388 19.7549 320.822 19.7549C317.926 19.7549 315.729 20.3698 314.236 21.5996C312.738 22.8294 311.989 24.6982 311.989 27.2121C311.989 29.4909 312.805 31.2874 314.431 32.5956C316.037 33.8254 318.15 34.4403 320.78 34.4403C323.551 34.4403 325.664 33.8315 327.124 32.6137C328.589 31.3959 329.317 29.6236 329.317 27.2905ZM340.483 27.0494C340.483 29.8405 339.601 32.2941 337.842 34.4101C336.24 36.3212 333.931 37.8103 330.91 38.8894C329.467 39.3776 327.915 39.7514 326.255 40.0167C324.595 40.2759 322.893 40.4086 321.15 40.4086C318.063 40.4086 315.334 40.0951 312.967 39.4741C310.599 38.8532 308.449 37.8887 306.518 36.5805C302.74 34.0183 300.851 30.6544 300.851 26.4887C300.851 22.6063 302.74 19.4836 306.518 17.1264C310.067 14.9501 314.644 13.859 320.247 13.859C321.079 13.859 321.895 13.8831 322.694 13.9374C323.488 13.9855 324.266 14.07 325.027 14.1845C326.525 14.4136 328.044 14.7753 329.583 15.2636C332.787 16.2764 335.354 17.7293 337.284 19.6283C339.418 21.7563 340.483 24.228 340.483 27.0494ZM106.495 10.0856H89.1706V39.8062H72.9947V10.2507H55.2494V0.949265H106.495V10.0856Z" fill="white"/>
<path fill-rule="evenodd" clip-rule="evenodd" d="M52.5041 1.0332H17.1958L39.3697 3.02742L16.4476 3.97048L37.0961 4.46863L15.9399 5.96426L34.7339 6.37506L15.4009 8.07948L31.8064 8.58453L14.9892 9.69643L30.7556 10.5587L14.4539 11.7979L29.0964 12.0231L13.9219 13.8866L26.5047 14.0442L13.4621 15.6916L24.521 16.1161L12.968 17.6315L22.7605 17.9851L12.5391 19.3159L21.2379 19.885L12.062 21.1885L19.8478 21.2016L11.5508 23.1959L16.6247 22.98L11.1697 24.6916L16.094 24.5533L10.7845 26.2038L14.6365 26.0821L10.4663 27.4535L8.43666 35.4218L8.22893 35.6501C4.81182 36.3291 2.0282 37.4181 0.325073 39.1515C3.28364 39.9059 5.72445 39.9348 8.45906 39.133C8.63307 39.0204 9.17535 39.0998 9.3207 39.1688C10.4006 39.6818 11.2853 39.6626 11.8047 39.3817C12.427 39.0613 12.9692 39.0053 13.5657 39.3312C14.1621 39.6572 15.0207 39.5817 15.6815 39.3187C16.3424 39.0558 16.8235 39.0716 17.4369 39.3625C18.0503 39.6535 18.681 39.6839 19.3338 39.3601C19.9863 39.0363 20.4379 39.0667 20.9523 39.2444C21.4666 39.4222 22.0902 39.3894 22.5219 39.1829C22.0527 39.1235 21.57 39.0184 21.1093 38.6605C20.6485 38.3028 20.124 38.2347 19.4426 38.5442C18.761 38.8536 17.9578 38.772 17.3492 38.5023C16.7405 38.2324 16.1967 38.2433 15.5785 38.5486C14.9601 38.8539 14.2984 38.9105 13.6406 38.6012C12.9829 38.292 12.2719 38.2318 11.5685 38.5877C10.8653 38.9437 10.2383 38.7354 9.54676 38.4928C10.7979 37.9654 11.8237 37.7352 12.6713 38.1273C13.5189 38.5195 13.9773 38.4547 14.5942 38.1699C15.2109 37.8854 15.7177 37.8199 16.3996 38.1056C17.0817 38.3913 17.8284 38.4682 18.3313 38.1593C19.0764 37.8064 19.7857 37.9313 20.4544 38.217C21.1232 38.503 21.6566 38.4377 22.1846 38.1493C22.7127 37.8608 23.263 37.8232 23.8368 38.0753C24.4104 38.3272 24.9327 38.2104 25.3728 38.0176C24.9809 37.9759 24.5262 37.8785 24.0717 37.496C23.6174 37.1134 22.8575 36.9864 22.228 37.3345C21.5983 37.6828 21.061 37.7378 20.4213 37.3957C19.7817 37.0536 19.1184 37.0421 18.4769 37.3463C17.8353 37.6505 17.1035 37.6913 16.4667 37.3591C15.8302 37.027 15.4145 37.0447 14.6617 37.377C13.909 37.7094 13.1091 37.6469 12.6967 37.2402C13.1179 37.2548 13.4101 37.3256 13.9605 37.0391C14.5108 36.7526 15.261 36.689 15.9114 36.9834C16.5618 37.2779 17.2291 37.3549 17.8901 37.0352C18.5513 36.7156 19.0616 36.752 19.7156 37.0296C20.3695 37.3071 21.0801 37.3858 21.6378 37.0716C22.1957 36.7574 22.6883 36.6118 23.3207 36.9262C23.9532 37.2407 24.8692 37.3414 25.5898 36.9806C26.3105 36.6199 26.8927 36.7692 27.5763 36.9958C27.6721 37.0276 27.7631 37.0485 27.8493 37.06C27.83 36.9482 27.8198 36.8336 27.8198 36.7166C27.8198 36.6802 27.8207 36.6441 27.8227 36.6082C27.6691 36.5498 27.5173 36.4738 27.3705 36.3522C26.9849 36.0325 26.122 35.8892 25.3824 36.2377C24.6427 36.5863 24.2425 36.5185 23.503 36.2207C22.7636 35.9228 22.6283 35.8385 21.7611 36.1929C21.0743 36.4734 20.3953 36.5256 19.7422 36.2687C18.6677 35.846 18.724 35.8587 17.6461 36.2743C16.9298 36.5504 15.6465 36.3351 15.0019 36.0743C14.6999 35.9632 14.7159 35.868 15.0499 35.7885C18.1396 35.8278 24.1314 35.7195 23.6097 30.7492C25.3129 30.9663 25.817 27.7091 24.0167 27.6507C23.13 27.6218 22.2993 28.4423 22.3491 29.3915C22.3797 29.9756 21.4347 30.1708 20.9191 29.7748C20.0543 29.1108 18.8923 28.8648 17.8693 28.2887L52.5041 1.0332ZM8.60773 35.5769L13.9114 31.4031C15.1985 31.4062 16.1718 31.1776 16.9811 30.6641C17.3983 30.3996 17.9459 31.6872 19.1357 32.0943C19.2113 32.2043 19.1141 32.2361 18.9643 32.1927C17.6423 31.8096 16.1508 31.5981 14.7005 31.7091C14.1075 31.633 13.8108 31.8018 13.8098 32.2155L13.7934 34.9082C11.9612 35.06 10.2178 35.275 8.60773 35.5769ZM9.42888 39.3934L10.5137 39.7661L9.42888 40.0976V39.3934ZM8.92457 40.267L10.3321 39.1196L10.4655 40.0316C9.937 40.3588 9.4529 40.3711 8.92457 40.267ZM39.3515 8.72915C39.2702 8.60615 39.1439 8.55986 38.9715 8.58962C38.8066 8.62087 38.6216 8.7174 38.4161 8.87973C38.1841 9.0628 38.029 9.23301 37.9509 9.39043C37.8728 9.54834 37.8764 9.69171 37.9614 9.82049C38.0383 9.93715 38.1644 9.9776 38.3392 9.94225C38.5092 9.90367 38.6994 9.80161 38.9099 9.63549C39.1318 9.46037 39.2804 9.29557 39.3565 9.14064C39.4324 8.98602 39.4304 8.84892 39.3515 8.72915ZM40.2373 8.01078C40.3319 8.15409 40.3441 8.33548 40.2748 8.55502C40.2112 8.75424 40.0768 8.97664 39.8714 9.22282C39.7723 9.33911 39.6607 9.45615 39.5367 9.5748C39.4128 9.69265 39.2808 9.80726 39.1412 9.9174C38.894 10.1125 38.6647 10.2689 38.4542 10.3867C38.2436 10.5045 38.0388 10.5909 37.84 10.646C37.4507 10.7532 37.1855 10.7003 37.0445 10.4865C36.9131 10.2875 36.9588 10.0082 37.1815 9.64873C37.3923 9.31234 37.7218 8.96726 38.1704 8.61348C38.237 8.56086 38.3031 8.5106 38.3689 8.46277C38.4342 8.41506 38.4993 8.37027 38.5641 8.32797C38.6919 8.24528 38.8256 8.16751 38.9655 8.09532C39.2562 7.94468 39.5111 7.8574 39.7299 7.83255C39.9728 7.80665 40.1417 7.86597 40.2373 8.01078ZM35.8504 11.4586C35.7473 11.3369 35.6035 11.3018 35.4183 11.353C35.3399 11.3759 35.2471 11.4172 35.1395 11.4771C35.0397 11.5347 34.9283 11.6123 34.8051 11.7097L34.3796 12.0454L34.8813 12.8053L35.4519 12.3563C35.6551 12.1959 35.7936 12.0295 35.8662 11.857C35.9301 11.7028 35.9306 11.5778 35.8677 11.4826L35.8573 11.4666L35.8504 11.4586ZM36.8099 10.7513C36.9313 10.9352 36.9337 11.1514 36.8175 11.3998C36.7225 11.6007 36.5433 11.8281 36.2798 12.0821C36.1959 12.1623 36.0916 12.2555 35.9672 12.3616C35.8427 12.4677 35.7019 12.583 35.5444 12.7074L34.2261 13.7478L33.3628 12.4402L34.6651 11.4125C34.714 11.3738 34.7824 11.3222 34.8707 11.2579C34.9585 11.1936 35.0208 11.1468 35.0578 11.1175C35.1117 11.075 35.1706 11.0336 35.2341 10.9933C35.2623 10.9754 35.321 10.94 35.4104 10.8871C35.7215 10.6975 35.9904 10.5836 36.2163 10.5452C36.4901 10.4977 36.688 10.5666 36.8099 10.7513ZM32.4133 14.4504L31.6509 14.133L31.7319 14.988L32.4133 14.4504ZM33.8957 14.0056L33.0501 14.673L32.7349 14.5502L31.7662 15.3147L31.7818 15.6739L30.9812 16.3057L31.0047 14.301L32.0958 13.44L33.8957 14.0056ZM30.629 16.5864L29.6295 17.3752L27.9952 17.4226L28.5343 18.2395L27.7295 18.8747L26.8655 17.5661L28.0415 16.638L29.4416 16.6077L28.9751 15.9014L29.7652 15.2778L30.629 16.5864ZM25.9391 18.9358C25.9085 18.8894 25.859 18.8742 25.7897 18.8909C25.7389 18.9018 25.6689 18.9365 25.5799 18.9942C25.5382 19.0223 25.4674 19.0756 25.3674 19.1545L24.7155 19.6691L24.9159 19.9725L25.5139 19.4992L25.6512 19.3908C25.6619 19.3824 25.6772 19.3694 25.6979 19.3517C25.7185 19.3339 25.7336 19.3212 25.7429 19.314C25.7831 19.282 25.8185 19.249 25.8489 19.2152C25.8793 19.1814 25.9039 19.1479 25.9218 19.1153C25.9653 19.0439 25.971 18.9841 25.9391 18.9358ZM26.8129 18.1548C26.8502 18.2113 26.8584 18.2818 26.8375 18.3663C26.8325 18.383 26.8266 18.4004 26.8199 18.4184C26.8126 18.4367 26.8038 18.4563 26.793 18.4776C26.7733 18.5162 26.7484 18.556 26.7181 18.5968C26.6879 18.6376 26.6594 18.6736 26.6327 18.7046L26.5239 18.8191L26.2098 19.1225C26.2878 19.0609 26.3603 19.0135 26.4281 18.9803C26.4953 18.9468 26.5801 18.918 26.6817 18.8938C26.7451 18.8778 26.8041 18.8736 26.858 18.8823C26.9002 18.8901 26.9483 18.9102 27.0033 18.9427L27.1637 19.0393C27.2015 19.0617 27.257 19.0797 27.3308 19.0934L27.4308 19.1074L26.5174 19.8283L26.4271 19.817C26.3989 19.8133 26.3705 19.8057 26.3425 19.7939C26.3104 19.7813 26.2467 19.7358 26.1516 19.6567C26.0967 19.6114 26.037 19.5984 25.9727 19.6182C25.9312 19.6321 25.8767 19.6596 25.8098 19.7002C25.7984 19.7073 25.7809 19.7188 25.7578 19.7336C25.7347 19.7491 25.7186 19.7603 25.71 19.767L25.6136 19.8387L25.3628 20.0323L25.1087 20.2326L25.4158 20.6977L24.5895 21.3498L23.7275 20.0438L25.2298 18.8583C25.2654 18.8302 25.3166 18.7914 25.3841 18.7405C25.4515 18.6899 25.4935 18.6577 25.5104 18.6444L25.8314 18.4048C25.9362 18.3221 26.0436 18.2518 26.1535 18.1944C26.1976 18.1712 26.2404 18.151 26.2828 18.133C26.3249 18.1153 26.3703 18.0988 26.4185 18.0837C26.6095 18.0222 26.741 18.0458 26.8129 18.1548ZM22.9751 21.6525C22.8939 21.5298 22.7676 21.4834 22.5951 21.5132C22.4304 21.5443 22.2452 21.6409 22.0397 21.8031C21.8077 21.9862 21.6526 22.1565 21.5747 22.3139C21.4964 22.4718 21.5 22.6152 21.585 22.7439C21.662 22.8607 21.7881 22.9012 21.9628 22.8658C22.133 22.8271 22.323 22.7252 22.5335 22.5589C22.7554 22.3838 22.9041 22.2191 22.9801 22.0642C23.056 21.9097 23.0541 21.7724 22.9751 21.6525ZM23.8609 20.9343C23.9555 21.0775 23.9679 21.2589 23.8984 21.4785C23.8348 21.6776 23.7004 21.9001 23.495 22.1463C23.3959 22.2624 23.2844 22.3797 23.1604 22.4982C23.0365 22.6162 22.9044 22.7307 22.7647 22.8409C22.5176 23.036 22.2885 23.1924 22.0778 23.3102C21.8672 23.428 21.6624 23.5145 21.4636 23.5695C21.0742 23.6767 20.8093 23.6237 20.6681 23.4101C20.5367 23.211 20.5824 22.9317 20.8052 22.5721C21.0161 22.2358 21.3456 21.8908 21.794 21.5369C21.8606 21.4844 21.9268 21.4341 21.9926 21.3862C22.0578 21.3386 22.123 21.2937 22.1878 21.2515C22.3157 21.1688 22.4493 21.091 22.5891 21.0188C22.88 20.8682 23.1348 20.7807 23.3536 20.7561C23.5965 20.7302 23.7653 20.7894 23.8609 20.9343ZM20.2811 23.2327L19.4017 23.9269L20.06 24.9242L19.2395 25.5718L18.5844 24.5794L17.6835 25.2903L17.4765 24.9769L20.0775 22.9242L20.2811 23.2327Z" fill="white"/>
<path fill-rule="evenodd" clip-rule="evenodd" d="M111.944 2.23979H114.538C115.052 2.23979 115.434 2.26079 115.687 2.30266C115.94 2.3462 116.165 2.4346 116.364 2.56804C116.564 2.70297 116.73 2.88131 116.862 3.10457C116.996 3.3279 117.062 3.57968 117.062 3.85705C117.062 4.15673 116.98 4.43391 116.817 4.68432C116.654 4.93616 116.432 5.12351 116.153 5.24925C116.547 5.36473 116.849 5.55948 117.062 5.83524C117.273 6.111 117.378 6.43483 117.378 6.80799C117.378 7.1017 117.311 7.38646 117.173 7.66377C117.036 7.94114 116.849 8.16285 116.61 8.32922C116.374 8.49408 116.08 8.59603 115.732 8.63491C115.515 8.65746 114.988 8.67243 114.153 8.6784H111.944V2.23979ZM113.258 3.30995V4.79365H114.115C114.624 4.79365 114.941 4.78626 115.065 4.7711C115.288 4.74576 115.464 4.66935 115.593 4.54188C115.721 4.41453 115.785 4.24817 115.785 4.04124C115.785 3.8419 115.728 3.68168 115.618 3.55713C115.508 3.43282 115.344 3.35785 115.127 3.33244C114.996 3.31747 114.624 3.30995 114.009 3.30995H113.258ZM113.258 5.86375V7.59035H114.471C114.942 7.59035 115.243 7.5768 115.369 7.55146C115.565 7.51537 115.723 7.42995 115.845 7.29365C115.968 7.15575 116.029 6.97441 116.029 6.74512C116.029 6.55019 115.983 6.38675 115.887 6.25188C115.794 6.11702 115.657 6.01819 115.478 5.95675C115.3 5.89531 114.912 5.86375 114.316 5.86375H113.258ZM123.134 5.49805C123.134 4.84155 123.234 4.29004 123.431 3.84351C123.577 3.51526 123.78 3.21993 124.035 2.95915C124.29 2.69836 124.569 2.50517 124.873 2.3777C125.277 2.20829 125.744 2.12287 126.272 2.12287C127.229 2.12287 127.993 2.41819 128.568 3.00723C129.141 3.59763 129.429 4.41751 129.429 5.4681C129.429 6.50968 129.143 7.32496 128.574 7.91263C128.005 8.5016 127.242 8.79537 126.29 8.79537C125.325 8.79537 124.557 8.50303 123.988 7.91698C123.419 7.33254 123.134 6.52621 123.134 5.49805ZM124.483 5.45456C124.483 6.18442 124.654 6.73755 124.994 7.11524C125.333 7.49139 125.765 7.68036 126.287 7.68036C126.811 7.68036 127.239 7.493 127.576 7.11965C127.911 6.74512 128.079 6.18442 128.079 5.43661C128.079 4.69768 127.916 4.14616 127.588 3.78363C127.262 3.41928 126.829 3.23788 126.287 3.23788C125.747 3.23788 125.31 3.42227 124.98 3.78959C124.649 4.15815 124.483 4.71265 124.483 5.45456ZM136.001 2.23979H140.476V7.59035H141.046V10.0812H139.951V8.6784H135.884V10.0812H134.788V7.59035H135.341C135.609 7.04026 135.787 6.4019 135.873 5.6764C135.959 4.94952 136.001 4.03086 136.001 2.92026V2.23979ZM137.252 3.3279C137.252 5.27634 137.071 6.69704 136.708 7.59035H139.162V3.3279H137.252ZM147.073 8.6784V2.23979H148.386V4.7757H150.941V2.23979H152.254V8.6784H150.941V5.86375H148.386V8.6784H147.073ZM158.487 5.49805C158.487 4.84155 158.587 4.29004 158.785 3.84351C158.931 3.51526 159.134 3.21993 159.388 2.95915C159.644 2.69836 159.923 2.50517 160.226 2.3777C160.631 2.20829 161.098 2.12287 161.626 2.12287C162.583 2.12287 163.346 2.41819 163.921 3.00723C164.495 3.59763 164.782 4.41751 164.782 5.4681C164.782 6.50968 164.497 7.32496 163.928 7.91263C163.358 8.5016 162.596 8.79537 161.644 8.79537C160.679 8.79537 159.911 8.50303 159.342 7.91698C158.773 7.33254 158.487 6.52621 158.487 5.49805ZM159.837 5.45456C159.837 6.18442 160.008 6.73755 160.347 7.11524C160.687 7.49139 161.118 7.68036 161.641 7.68036C162.165 7.68036 162.593 7.493 162.93 7.11965C163.265 6.74512 163.433 6.18442 163.433 5.43661C163.433 4.69768 163.27 4.14616 162.942 3.78363C162.616 3.41928 162.183 3.23788 161.641 3.23788C161.1 3.23788 160.664 3.42227 160.334 3.78959C160.003 4.15815 159.837 4.71265 159.837 5.45456ZM175.098 6.30437L176.366 6.69108C176.171 7.40001 175.846 7.92599 175.393 8.27076C174.94 8.61398 174.367 8.78636 173.671 8.78636C172.809 8.78636 172.101 8.49408 171.545 7.90959C170.992 7.32496 170.714 6.52621 170.714 5.51159C170.714 4.43987 170.993 3.60664 171.55 3.0132C172.107 2.41963 172.841 2.12287 173.749 2.12287C174.544 2.12287 175.188 2.35676 175.683 2.82286C175.979 3.09861 176.199 3.49426 176.348 4.0113L175.052 4.31718C174.976 3.98434 174.815 3.72057 174.572 3.52725C174.328 3.33387 174.032 3.23788 173.685 3.23788C173.203 3.23788 172.812 3.40891 172.513 3.75207C172.213 4.09373 172.064 4.64822 172.064 5.41561C172.064 6.2279 172.211 6.80799 172.506 7.15276C172.801 7.49897 173.185 7.67116 173.657 7.67116C174.006 7.67116 174.307 7.56183 174.557 7.34155C174.808 7.12127 174.989 6.77643 175.098 6.30437ZM182.653 2.23979H187.807V8.6784H186.494V3.3279H183.967V8.6784H182.653V2.23979ZM194.02 5.49805C194.02 4.84155 194.119 4.29004 194.317 3.84351C194.463 3.51526 194.665 3.21993 194.921 2.95915C195.175 2.69836 195.455 2.50517 195.758 2.3777C196.163 2.20829 196.629 2.12287 197.157 2.12287C198.115 2.12287 198.879 2.41819 199.454 3.00723C200.027 3.59763 200.314 4.41751 200.314 5.4681C200.314 6.50968 200.029 7.32496 199.46 7.91263C198.891 8.5016 198.128 8.79537 197.176 8.79537C196.211 8.79537 195.443 8.50303 194.874 7.91698C194.304 7.33254 194.02 6.52621 194.02 5.49805ZM195.369 5.45456C195.369 6.18442 195.539 6.73755 195.879 7.11524C196.219 7.49139 196.651 7.68036 197.173 7.68036C197.697 7.68036 198.125 7.493 198.462 7.11965C198.797 6.74512 198.964 6.18442 198.964 5.43661C198.964 4.69768 198.802 4.14616 198.474 3.78363C198.148 3.41928 197.715 3.23788 197.173 3.23788C196.632 3.23788 196.196 3.42227 195.865 3.78959C195.535 4.15815 195.369 4.71265 195.369 5.45456ZM206.481 8.6784V2.23979H208.581C209.376 2.23979 209.895 2.27135 210.135 2.33577C210.507 2.43317 210.818 2.64308 211.068 2.96673C211.319 3.29038 211.444 3.70858 211.444 4.2212C211.444 4.61685 211.372 4.94809 211.229 5.21788C211.084 5.48767 210.901 5.69895 210.679 5.85319C210.457 6.00626 210.231 6.10802 210.002 6.15753C209.689 6.21896 209.238 6.25045 208.646 6.25045H207.795V8.6784H206.481ZM207.795 3.3279V5.16241H208.509C209.023 5.16241 209.366 5.12787 209.54 5.06046C209.713 4.993 209.849 4.88807 209.947 4.74277C210.045 4.5989 210.095 4.43248 210.095 4.24059C210.095 4.00534 210.025 3.81195 209.888 3.65913C209.749 3.50625 209.575 3.41028 209.363 3.37139C209.208 3.34288 208.895 3.3279 208.424 3.3279H207.795ZM219.006 8.6784V3.3279H217.086V2.23979H222.231V3.3279H220.32V8.6784H219.006ZM228.244 2.23979H229.467V6.52621L232.093 2.23979H233.397V8.6784H232.175V4.46106L229.548 8.6784H228.244V2.23979ZM239.881 2.23979H242.475C242.99 2.23979 243.371 2.26079 243.624 2.30266C243.878 2.3462 244.102 2.4346 244.302 2.56804C244.501 2.70297 244.667 2.88131 244.8 3.10457C244.932 3.3279 244.999 3.57968 244.999 3.85705C244.999 4.15673 244.917 4.43391 244.754 4.68432C244.591 4.93616 244.369 5.12351 244.09 5.24925C244.484 5.36473 244.786 5.55948 244.999 5.83524C245.21 6.111 245.316 6.43483 245.316 6.80799C245.316 7.1017 245.248 7.38646 245.111 7.66377C244.973 7.94114 244.786 8.16285 244.548 8.32922C244.311 8.49408 244.018 8.59603 243.669 8.63491C243.451 8.65746 242.925 8.67243 242.09 8.6784H239.881V2.23979ZM241.195 3.30995V4.79365H242.052C242.561 4.79365 242.878 4.78626 243.002 4.7711C243.225 4.74576 243.402 4.66935 243.53 4.54188C243.659 4.41453 243.722 4.24817 243.722 4.04124C243.722 3.8419 243.666 3.68168 243.556 3.55713C243.446 3.43282 243.281 3.35785 243.064 3.33244C242.934 3.31747 242.561 3.30995 241.947 3.30995H241.195ZM241.195 5.86375V7.59035H242.408C242.88 7.59035 243.18 7.5768 243.307 7.55146C243.502 7.51537 243.66 7.42995 243.782 7.29365C243.904 7.15575 243.966 6.97441 243.966 6.74512C243.966 6.55019 243.919 6.38675 243.824 6.25188C243.731 6.11702 243.593 6.01819 243.415 5.95675C243.237 5.89531 242.85 5.86375 242.253 5.86375H241.195ZM251.567 8.6784V2.23979H252.881V4.7757H255.435V2.23979H256.748V8.6784H255.435V5.86375H252.881V8.6784H251.567ZM263.29 2.23979H264.603V4.81161H266.352C266.812 4.81161 267.207 4.87465 267.537 4.99896C267.868 5.12351 268.144 5.34517 268.366 5.66602C268.587 5.98669 268.697 6.35544 268.697 6.77208C268.697 7.20824 268.582 7.58277 268.353 7.89903C268.122 8.21392 267.866 8.42221 267.584 8.52396C267.303 8.62752 266.892 8.6784 266.349 8.6784H263.29V2.23979ZM264.603 7.59035H265.88C266.286 7.59035 266.57 7.57078 266.731 7.53189C266.892 7.493 267.035 7.40299 267.16 7.26353C267.285 7.12425 267.347 6.95485 267.347 6.75407C267.347 6.46937 267.245 6.25486 267.041 6.11261C266.835 5.97017 266.465 5.89972 265.932 5.89972H264.603V7.59035ZM269.449 2.23979H270.761V8.6784H269.449V2.23979ZM277.284 2.23979H278.506V6.52621L281.133 2.23979H282.437V8.6784H281.214V4.46106L278.588 8.6784H277.284V2.23979ZM280.635 0.378326H281.242C281.207 0.775592 281.065 1.08868 280.819 1.31518C280.573 1.54142 280.254 1.65535 279.863 1.65535C279.471 1.65535 279.153 1.54142 278.907 1.31518C278.66 1.08868 278.518 0.775592 278.484 0.378326H279.091C279.112 0.585252 279.185 0.742482 279.311 0.849019C279.438 0.955433 279.622 1.00786 279.863 1.00786C280.104 1.00786 280.288 0.955433 280.415 0.849019C280.541 0.742482 280.614 0.585252 280.635 0.378326ZM299.005 2.23979H300.318V4.98244C300.609 4.9525 300.807 4.87907 300.91 4.75775C301.013 4.63785 301.172 4.30358 301.387 3.75511C301.657 3.05811 301.931 2.62351 302.204 2.45411C302.475 2.2847 302.912 2.19929 303.516 2.19929C303.546 2.19929 303.609 2.19792 303.706 2.19494V3.15707L303.52 3.15247C303.252 3.15247 303.055 3.18558 302.931 3.25143C302.807 3.31747 302.708 3.41786 302.631 3.55278C302.554 3.68765 302.441 3.96483 302.291 4.38459C302.211 4.60791 302.125 4.79365 302.031 4.94355C301.94 5.09339 301.775 5.23428 301.54 5.36616C301.831 5.44717 302.071 5.61352 302.261 5.86238C302.451 6.11099 302.66 6.46179 302.886 6.9159L303.769 8.6784H302.229L301.452 7.02088C301.44 6.99678 301.414 6.95186 301.376 6.8844C301.361 6.86185 301.307 6.7601 301.214 6.58168C301.047 6.26406 300.912 6.06608 300.806 5.98669C300.699 5.9073 300.537 5.8668 300.318 5.86375V8.6784H299.005V2.23979ZM310.126 2.23979H314.669V8.6784H313.355V3.3279H311.408V6.07671C311.408 6.86346 311.381 7.41355 311.328 7.72366C311.275 8.03551 311.147 8.27977 310.941 8.45358C310.736 8.62752 310.416 8.71437 309.98 8.71437C309.826 8.71437 309.548 8.6994 309.144 8.67088V7.66222L309.437 7.66675C309.71 7.66675 309.895 7.63085 309.989 7.55742C310.084 7.48399 310.131 7.30403 310.131 7.0179L310.127 5.91164L310.126 2.23979ZM320.494 2.23979H321.969L323.479 5.57303L324.771 2.23979H326.137L323.944 7.1332C323.705 7.66377 323.462 8.06688 323.215 8.34419C322.967 8.62156 322.649 8.7594 322.256 8.7594C321.87 8.7594 321.568 8.73387 321.35 8.68442V7.71626C321.536 7.72825 321.704 7.73422 321.853 7.73422C322.155 7.73422 322.372 7.67874 322.503 7.56941C322.634 7.45846 322.761 7.22023 322.879 6.85589L320.494 2.23979ZM331.966 2.23979H336.812V3.3279H333.28V4.82061H335.029C335.51 4.82061 335.912 4.87907 336.229 4.99598C336.548 5.11295 336.819 5.32883 337.044 5.6449C337.269 5.95973 337.382 6.32991 337.382 6.75407C337.382 7.18867 337.269 7.56183 337.041 7.87213C336.815 8.18081 336.556 8.3937 336.265 8.50763C335.975 8.62156 335.562 8.6784 335.026 8.6784H331.966V2.23979ZM333.28 7.59035H334.552C334.958 7.59035 335.245 7.57078 335.409 7.53189C335.574 7.493 335.719 7.4046 335.841 7.26514C335.963 7.12723 336.024 6.9564 336.024 6.75407C336.024 6.45881 335.916 6.24449 335.704 6.10963C335.489 5.97613 335.125 5.90867 334.609 5.90867H333.28V7.59035Z" fill="white"/>
</g>
<defs>
<clipPath id="clip0_4_539">
<rect width="341" height="41" fill="white"/>
</clipPath>
</defs>
</svg>
