<svg width="300" height="490" viewBox="0 0 300 490" fill="none" xmlns="http://www.w3.org/2000/svg">
<g clip-path="url(#clip0_507_95)">
<path d="M135.498 420.882L203.092 381.858L193.264 376.308L125.67 415.332L135.498 420.882Z" fill="#DEB298"/>
<path d="M172.227 254.205V399.715L166.571 402.956V254.205H172.227Z" fill="#AF745A"/>
<path d="M166.571 252.791V402.956L156.846 397.337V252.791H166.571Z" fill="#BF8466"/>
<path d="M135.498 424.432L203.092 385.443V381.858L135.498 420.881V424.432Z" fill="#BF8466"/>
<path d="M135.498 424.432L125.67 418.917V415.332L135.498 420.882V424.432Z" fill="#D39B7C"/>
<path d="M15.1397 350.901L82.7337 311.878L72.8705 306.328L5.31097 345.351L15.1397 350.901Z" fill="#DEB298"/>
<path d="M51.8336 185.292V329.735L46.2122 332.975V185.292H51.8336Z" fill="#AF745A"/>
<path d="M46.2123 184.189V332.975L36.487 327.356V184.189H46.2123Z" fill="#BF8466"/>
<path d="M15.1397 354.452L82.7337 315.463V311.877L15.1397 350.901V354.452Z" fill="#BF8466"/>
<path d="M15.1397 354.452L5.31097 348.902V345.351L15.1397 350.901V354.452Z" fill="#D39B7C"/>
<path d="M0 172.089L204.782 290.401V120.828L0 1.96484V172.089Z" fill="#D39B7C"/>
<path d="M8.17334 15.7197L8.51821 169.47L196.264 277.956L195.885 124.689L8.17334 15.7197Z" fill="white"/>
<path d="M8.58721 15.9954L6.48352 14.7544V168.332L196.333 278.025V275.578L8.58721 167.125V15.9954Z" fill="#EDE6CF"/>
<path d="M204.782 290.401L208.403 288.436V118.863L204.782 120.828V290.401Z" fill="#BF8466"/>
<path d="M3.62111 0L0 1.96496L204.782 120.828L208.403 118.863L3.62111 0Z" fill="#DEB298"/>
<path d="M147.569 107.832V112.21L185.573 134.376V129.791L147.569 107.832Z" fill="#EE4B4E"/>
<path d="M146.603 117.208V120.725L185.573 143.477V139.719L146.603 117.208Z" fill="#D6B199"/>
<path d="M155.708 131.48V135.066L185.573 152.475V148.717L155.708 131.48Z" fill="#D6B199"/>
<path d="M29.4517 39.8164V43.3327L68.4217 66.0849V62.3273L29.4517 39.8164Z" fill="#EE4B4E"/>
<path d="M29.4517 48.6069V52.1232L68.4217 74.8409V71.1178L29.4517 48.6069Z" fill="#D6B199"/>
<path d="M21.7956 164.471L20.2782 162.264L39.6942 121.621L51.3162 151.647L73.0774 117.898L91.7002 151.785L126.808 102.902L128.291 105.212L92.4934 155.094L73.8706 121.276L51.7646 155.577L40.2805 125.895L21.7956 164.471Z" fill="#EE4B4E"/>
<path d="M21.7956 164.505L20.2782 162.23L52.8337 112.279L65.8007 142.132L96.3904 99.7993L136.533 195.083L135.291 194.669L96.8732 103.488L66.318 145.786L53.3854 116.036L21.7956 164.505Z" fill="#2A78B7"/>
<path d="M21.7611 164.54L20.3127 162.196L50.3161 130.17L65.9041 178.881L81.0438 153.509L96.08 184.672L130.463 140.409L131.946 142.719L96.7008 188.085L81.7335 157.128L66.18 183.224L50.4196 133.997L21.7611 164.54Z" fill="#D6B199"/>
<path d="M135.291 228.418L21.8301 162.92V49.5377L20.2437 48.6069V163.816L135.291 230.245V228.418Z" fill="#563130"/>
<path d="M201.747 255.342C220.543 255.342 231.958 173.951 231.958 173.951L229.061 169.883C229.061 169.883 217.853 169.228 209.127 189.671C200.402 210.113 194.574 233.003 193.574 233.348C194.195 238.243 197.988 255.342 201.747 255.342Z" fill="#442626"/>
<path d="M204.334 439.531C204.334 439.531 200.264 443.944 194.85 449.253C189.815 454.148 188.263 455.561 183.607 460.112C180.883 462.766 183.124 465.214 188.332 465.007C192.884 464.834 203.23 462.628 208.99 460.525C213.093 459.043 220.612 454.906 224.474 452.459C228.302 450.046 229.061 446.667 229.061 446.667V438.497L204.334 439.531Z" fill="#563130"/>
<path d="M268.927 449.701C268.927 449.701 267.996 458.078 267.41 468.592C266.824 479.106 268.307 488.38 271.548 489.552C274.756 490.724 283.929 490.551 289.137 475.969C294.344 461.353 291.24 447.219 291.24 447.219L268.927 449.701Z" fill="#563130"/>
<path d="M279.342 305.845C281.274 275.888 264.755 260.134 264.755 260.134C266.065 250.033 219.232 264.167 219.232 264.167C219.232 264.167 209.196 318.462 204.955 347.04C200.126 379.514 202.23 437.498 202.23 437.498C202.23 437.498 202.851 444.564 214.956 444.496C224.233 444.461 231.889 436.911 231.889 436.911L232.854 369.206L243.614 315.808C243.614 315.808 245.442 365.621 252.27 379.996C264.755 406.299 264.755 452.631 264.755 452.631C264.755 452.631 280.48 458.25 291.24 452.872C302 447.495 299.897 441.496 299.897 441.496C299.897 441.496 297.172 405.541 283.343 374.446C282.136 350.832 278.446 319.6 279.342 305.845Z" fill="#442626"/>
<path d="M229.751 172.951C229.751 172.951 213.576 186.016 211.645 204.46C210.679 213.629 213.473 244.483 213.576 264.718C213.611 276.06 209.128 307.913 209.128 307.913C209.128 307.913 214.749 311.843 223.957 316.083C223.957 308.017 227.026 295.399 227.026 295.399C227.026 295.399 227.957 309.637 227.957 317.462C232.82 318.945 238.372 319.91 244.442 319.875C259.409 319.806 281.757 309.533 281.757 309.533C281.757 309.533 273.583 270.096 275.376 256.307C278.032 235.796 282.032 202.667 281.308 197.255C280.101 188.188 259.513 178.363 259.513 178.363C259.513 178.363 244.89 167.022 229.751 172.951Z" fill="#563130"/>
<path d="M236.82 171.228C236.82 171.228 227.992 178.226 221.715 186.775C217.991 191.808 216.956 195.324 216.956 195.324L221.715 199.978L214.956 203.219C214.956 203.219 211.162 228.694 216.301 237.278C221.439 245.827 227.647 267.269 227.647 267.269C227.647 267.269 234.786 245.138 237.924 239.657C241.062 234.141 252.891 218.904 252.891 218.904L246.925 209.941L256.581 206.769C256.581 206.769 270.203 189.705 268.79 184.534C266.134 174.882 256.892 172.951 256.892 172.951L236.82 171.228Z" fill="#442626"/>
<path d="M228.026 188.844C228.026 188.844 224.198 200.461 222.095 210.975C219.956 221.49 227.612 256.48 227.612 256.48C227.612 256.48 231.027 222.282 237.889 212.561C246.028 201.047 256.581 190.085 256.581 190.085C256.581 190.085 235.027 186.155 228.026 188.844Z" fill="white"/>
<path d="M232.027 190.981L230.889 199.978C230.889 199.978 225.578 205.115 224.44 211.389C223.302 217.663 224.509 240.38 224.509 240.38L227.612 256.479L228.957 245.689C228.957 245.689 231.406 231.728 233.475 223.109C233.785 219.317 234.096 216.215 234.406 215.284C235.855 211.044 236.131 202.322 236.131 202.322L241.752 195.6L236.406 189.36L232.027 190.981Z" fill="#39E991"/>
<path d="M235.544 172.4L234.579 186.603C234.579 186.603 236.441 189.395 241.269 193.463C246.408 191.877 258.34 180.811 258.34 180.811L254.374 158.749L235.544 172.4Z" fill="#FFAD97"/>
<path d="M256.512 134.479C251.167 127.654 235.786 121.931 225.785 136.755C215.301 152.302 225.198 177.674 234.406 176.192C239.545 175.364 251.167 170.676 256.236 162.368C261.961 153.06 260.685 139.788 256.512 134.479Z" fill="#FFC5B3"/>
<path d="M250.684 126.93C241.648 116.002 221.991 125.758 220.37 134.79C218.37 145.924 218.37 145.924 213.68 150.303C228.509 160.127 246.511 145.89 246.58 145.856C245.718 154.026 250.339 156.887 251.339 156.542C252.27 152.991 253.788 152.164 255.512 153.646C257.478 155.336 257.202 161.851 257.202 161.851C257.202 161.851 264.617 155.439 264.582 144.752C264.582 138.065 262.996 127.895 250.684 126.93Z" fill="#563130"/>
<path d="M235.165 177.881L236.441 189.395L227.061 193.221C227.061 193.221 225.991 180.914 235.165 177.881Z" fill="#F7F1E2"/>
<path d="M257.478 176.261C257.478 176.261 254.581 181.673 247.856 185.465C244.407 187.396 236.441 189.395 236.441 189.395L239.959 199.978C239.959 199.978 251.098 195.462 256.581 191.119C256.581 191.119 263.823 182.5 257.478 176.261Z" fill="#F7F1E2"/>
<path d="M273.204 306.914C273.204 306.914 272.721 310.602 268.445 315.842C267.445 317.083 264.72 322.392 261.996 324.322C259.892 325.839 259.306 327.804 261.202 328.183C263.272 328.563 267.1 324.185 268.203 324.322C270.169 324.529 266.548 333.251 266.479 338.181C266.41 343.11 269.341 350.763 275.376 343.007C281.412 335.285 282.584 328.183 283.929 321.496C285.067 315.808 287.102 312.085 287.102 312.085L273.204 306.914Z" fill="#FFC5B3"/>
<path d="M291.447 317.6C293.999 309.292 295.862 270.062 297.241 259.858C297.379 245.552 295.379 230.384 292.344 217.56C288.171 199.978 285.964 190.498 276.584 189.671C272.445 192.325 268.893 205.46 268.893 219.214L272.514 259.824L268.893 310.189C272.135 312.016 282.998 320.806 291.447 317.6Z" fill="#442626"/>
<path d="M173.158 182.294C173.158 182.294 173.675 173.262 174.123 169.401C174.779 163.988 178.469 163.988 179.021 170.607C179.538 176.743 179.71 182.742 179.745 183.707C179.779 184.672 188.884 207.7 188.884 207.7L178.469 213.285C178.469 213.285 176.331 207.873 172.537 205.149C169.813 203.184 165.226 201.116 164.088 197.462C163.226 194.704 163.502 192.118 165.467 190.085C166.364 185.5 168.675 181.708 173.158 182.294Z" fill="#FFC5B3"/>
<path d="M187.194 199.978C187.194 199.978 200.747 219.524 203.575 227.729C206.403 235.968 208.093 249.792 203.575 254.17C199.057 258.513 190.539 250.791 185.745 245.586C181.4 240.932 174.468 208.907 174.468 208.907C174.468 208.907 178.296 208.907 182.987 204.942C186.021 202.391 187.194 199.978 187.194 199.978Z" fill="#442626"/>
</g>
<defs>
<clipPath id="clip0_507_95">
<rect width="300" height="490" fill="white"/>
</clipPath>
</defs>
</svg>
