<svg width="701" height="260" viewBox="0 0 701 260" fill="none" xmlns="http://www.w3.org/2000/svg">
<g clip-path="url(#clip0_125_66)">
<path d="M636.153 43.9412C609.158 43.9412 588.688 25.9139 575.422 9.01743C557.75 31.8082 537.182 43.8214 515.739 43.8289H515.731C494.273 43.8289 473.712 31.8156 456.033 9.01743C438.442 31.8306 417.875 43.8589 396.334 43.8663H396.326C369.631 43.8663 349.489 25.7042 336.628 9.01743C318.926 31.8306 299.136 43.5368 277.767 43.8214C277.505 43.8214 277.251 43.8289 276.997 43.8289C255.479 43.8289 234.911 31.8381 217.246 9.03241C199.244 32.1452 179.177 43.8589 157.54 43.8663C157.532 43.8663 157.532 43.8663 157.525 43.8663C135.939 43.8663 115.88 32.1527 97.8261 9.02492C74.6245 38.5562 36.7433 56.3964 1.42846 31.5161C-0.0978629 30.4451 -0.464479 28.333 0.612924 26.8126C1.69033 25.2847 3.78528 24.9178 5.3116 25.9963C38.2771 49.2289 74.1457 30.4076 95.0727 1.44548C95.7012 0.569206 96.7113 0.0524269 97.7962 0.0449373C97.8036 0.0449373 97.8036 0.0449373 97.8111 0.0449373C98.881 0.0449373 99.8911 0.554227 100.535 1.42302C117.938 25.105 137.114 37.1108 157.517 37.1108C157.525 37.1108 157.525 37.1108 157.532 37.1108C177.995 37.1033 197.172 25.0975 214.522 1.42302C215.158 0.554227 216.168 0.0449373 217.246 0.0449373C217.253 0.0449373 217.253 0.0449373 217.253 0.0449373C218.331 0.0449373 219.341 0.561717 219.977 1.438C231.813 17.7428 251.274 37.0733 276.989 37.0733C277.221 37.0733 277.446 37.0733 277.678 37.0658C297.916 36.7962 316.838 24.7904 333.912 1.39306C334.548 0.524269 335.558 0.00748956 336.635 0.00748956C336.643 0.00748956 336.643 0.00748956 336.643 0.00748956C337.728 0.0149791 338.738 0.531759 339.374 1.40804C351.105 17.6978 370.514 37.1108 396.326 37.1108C396.334 37.1108 396.334 37.1108 396.334 37.1108C422.117 37.1033 441.54 17.6903 453.287 1.40804C453.915 0.524269 454.933 0 456.01 0H456.018C457.095 0 458.113 0.51678 458.749 1.39306C475.942 25.0676 495.118 37.0658 515.731 37.0658C515.739 37.0658 515.739 37.0658 515.739 37.0658C536.336 37.0583 555.49 25.0676 572.684 1.42302C573.32 0.554227 574.33 0.0374478 575.407 0.0299582C575.415 0.0299582 575.415 0.0299582 575.415 0.0299582C576.485 0.0299582 577.495 0.539248 578.138 1.40804C590.843 18.7089 611.882 39.0056 639.827 37.0583C653.983 36.0997 664.458 28.2356 670.75 21.8096C672.014 20.5289 673.294 18.9561 674.648 17.3084C679.945 10.8673 687.165 2.05214 698.164 3.78223C700.004 4.07432 701.261 5.80441 700.97 7.64684C700.678 9.48927 698.964 10.7475 697.109 10.4554C689.941 9.3245 684.823 15.5633 679.863 21.5999C678.374 23.4124 676.96 25.1275 675.576 26.543C668.46 33.8154 656.564 42.7055 640.291 43.8064C638.877 43.8963 637.508 43.9412 636.153 43.9412Z" fill="url(#paint0_linear_125_66)" fill-opacity="0.1"/>
<path d="M636.154 97.9559C609.159 97.9559 588.688 79.9285 575.423 63.0321C557.75 85.8228 537.182 97.836 515.739 97.8435H515.732C494.273 97.8435 473.713 85.8303 456.033 63.0321C438.443 85.8453 417.875 97.8735 396.334 97.881C396.327 97.881 396.327 97.881 396.319 97.881C369.624 97.881 349.49 79.7188 336.621 63.0321C318.919 85.8453 299.129 97.5589 277.76 97.8435C277.498 97.8435 277.244 97.851 276.99 97.851C255.472 97.851 234.896 85.8528 217.239 63.0545C199.237 86.1673 179.171 97.881 157.533 97.8885C157.525 97.8885 157.525 97.8885 157.518 97.8885C135.932 97.8885 115.873 86.1748 97.8191 63.047C74.6251 92.5859 36.7439 110.426 1.43651 85.5457C-0.0898062 84.4747 -0.456422 82.3626 0.62098 80.8422C1.69838 79.3144 3.79333 78.9549 5.31965 80.0259C38.2852 103.258 74.1537 84.4372 95.0807 55.4751C95.7092 54.5988 96.8315 54.1045 97.8117 54.0746C98.8816 54.0746 99.8916 54.5838 100.535 55.4526C117.938 79.1346 137.114 91.1404 157.518 91.1404C157.525 91.1404 157.525 91.1404 157.533 91.1404C177.996 91.1329 197.172 79.1271 214.523 55.4526C215.159 54.5838 216.169 54.0746 217.246 54.0746C218.181 53.9323 219.341 54.5913 219.977 55.4676C231.814 71.7724 251.274 91.1104 276.99 91.1104C277.222 91.1104 277.446 91.1104 277.678 91.1029C297.917 90.8333 316.839 78.8275 333.912 55.4227C334.548 54.5539 335.558 54.0371 336.636 54.0371C336.643 54.0371 336.643 54.0371 336.643 54.0371C337.728 54.0446 338.738 54.5614 339.374 55.4377C351.106 71.7274 370.514 91.1404 396.319 91.1404C396.327 91.1404 396.327 91.1404 396.334 91.1404C422.117 91.1329 441.54 71.72 453.287 55.4377C453.923 54.5539 454.941 54.0371 456.018 54.0371H456.026C457.103 54.0371 458.121 54.5539 458.756 55.4302C475.95 79.1047 495.126 91.1029 515.739 91.1029C515.747 91.1029 515.747 91.1029 515.747 91.1029C536.344 91.0954 555.498 79.1047 572.692 55.4601C573.328 54.5913 574.338 54.0746 575.415 54.0671C575.423 54.0671 575.423 54.0671 575.423 54.0671C576.493 54.0671 577.503 54.5764 578.146 55.4451C590.85 72.746 611.89 93.0203 639.835 91.0954C653.991 90.1443 664.466 82.2802 670.758 75.8467C672.022 74.566 673.302 72.9932 674.656 71.3455C679.946 64.9045 687.226 56.0818 698.164 57.8193C700.005 58.1114 701.262 59.8415 700.97 61.6839C700.678 63.5264 698.965 64.7771 697.109 64.4925C689.934 63.3691 684.824 69.6004 679.863 75.637C678.374 77.4495 676.953 79.1646 675.569 80.5801C668.453 87.8525 656.557 96.7501 640.284 97.8435C638.877 97.9109 637.508 97.9559 636.154 97.9559Z" fill="url(#paint1_linear_125_66)" fill-opacity="0.1"/>
<path d="M636.154 151.971C609.159 151.971 588.688 133.943 575.423 117.047C557.75 139.837 537.182 151.851 515.739 151.858C515.732 151.858 515.732 151.858 515.724 151.858C494.273 151.858 473.706 139.845 456.026 117.047C438.436 139.86 417.868 151.888 396.327 151.896C396.32 151.896 396.32 151.896 396.312 151.896C369.616 151.896 349.483 133.733 336.614 117.047C318.911 139.86 299.121 151.574 277.753 151.858C277.491 151.858 277.237 151.866 276.982 151.866C255.464 151.866 234.889 139.867 217.231 117.069C199.222 140.182 179.163 151.896 157.525 151.903C157.518 151.903 157.518 151.903 157.51 151.903C135.925 151.903 115.866 140.189 97.8117 117.062C74.6251 146.593 36.7514 164.448 1.42907 139.56C-0.0972525 138.489 -0.463869 136.377 0.613534 134.857C1.69094 133.329 3.78589 132.962 5.31221 134.041C38.2852 157.273 74.1537 138.444 95.0733 109.482C95.7018 108.606 96.7119 108.089 97.7968 108.082C98.6721 108.037 99.8917 108.591 100.528 109.46C117.931 133.142 137.107 145.148 157.51 145.148C157.518 145.148 157.518 145.148 157.525 145.148C177.981 145.14 197.165 133.134 214.515 109.46C215.151 108.591 216.161 108.082 217.239 108.082C218.174 108.029 219.334 108.599 219.97 109.475C231.806 125.78 251.267 145.118 276.982 145.118C277.214 145.118 277.439 145.118 277.671 145.11C297.909 144.841 316.831 132.835 333.905 109.43C334.541 108.561 335.551 108.044 336.629 108.044C336.636 108.044 336.636 108.044 336.636 108.044C337.721 108.044 338.731 108.569 339.367 109.445C351.099 125.735 370.507 145.148 396.312 145.148C396.32 145.148 396.32 145.148 396.327 145.148C422.11 145.14 441.533 125.727 453.28 109.445C453.916 108.561 454.933 108.044 456.011 108.044H456.018C457.096 108.044 458.113 108.561 458.749 109.437C475.943 133.112 495.119 145.11 515.724 145.11C515.732 145.11 515.732 145.11 515.739 145.11C536.337 145.103 555.491 133.112 572.684 109.467C573.32 108.599 574.33 108.082 575.408 108.074C576.687 108.029 577.503 108.584 578.139 109.452C590.843 126.753 611.882 147.005 639.828 145.103C653.983 144.151 664.458 136.287 670.75 129.854C672.015 128.566 673.294 127 674.649 125.353C679.946 118.912 687.218 110.074 698.164 111.827C700.005 112.119 701.262 113.849 700.97 115.691C700.678 117.534 698.965 118.784 697.109 118.5C689.994 117.361 684.824 123.608 679.864 129.644C678.375 131.457 676.961 133.172 675.576 134.587C668.461 141.86 656.565 150.757 640.291 151.851C638.877 151.926 637.508 151.971 636.154 151.971Z" fill="url(#paint2_linear_125_66)" fill-opacity="0.1"/>
<path d="M636.154 205.985C609.159 205.985 588.688 187.958 575.423 171.062C557.75 193.852 537.182 205.866 515.739 205.873C515.732 205.873 515.732 205.873 515.724 205.873C494.273 205.873 473.706 193.86 456.026 171.062C438.443 193.875 417.868 205.903 396.327 205.91H396.32C369.624 205.91 349.483 187.748 336.621 171.062C318.919 193.875 299.136 205.588 277.76 205.873C277.499 205.873 277.244 205.88 276.99 205.88C255.472 205.88 234.896 193.882 217.239 171.084C199.237 194.197 179.171 205.91 157.533 205.918H157.525C135.94 205.918 115.881 194.197 97.8267 171.069C74.6326 200.608 36.7515 218.448 1.44408 193.568C-0.0822379 192.497 -0.448854 190.385 0.628549 188.864C1.70595 187.336 3.8009 186.977 5.32722 188.048C38.3002 211.28 74.1613 192.459 95.0883 163.49C95.7168 162.613 96.8391 162.194 97.8192 162.089C98.8892 162.089 99.8992 162.598 100.543 163.467C117.946 187.149 137.122 199.162 157.533 199.162C157.54 199.162 157.54 199.162 157.54 199.162C178.003 199.155 197.18 187.149 214.53 163.475C215.166 162.606 216.176 162.097 217.254 162.097C218.189 162.134 219.349 162.613 219.985 163.49C231.821 179.794 251.282 199.132 276.997 199.132C277.229 199.132 277.454 199.132 277.686 199.125C297.924 198.855 316.846 186.85 333.92 163.445C334.556 162.576 335.566 162.059 336.643 162.059C336.651 162.059 336.651 162.059 336.651 162.059C337.736 162.059 338.746 162.583 339.382 163.46C351.114 179.749 370.522 199.162 396.335 199.162C396.342 199.162 396.342 199.162 396.342 199.162C422.125 199.155 441.548 179.742 453.295 163.46C453.931 162.583 454.948 162.059 456.026 162.059H456.033C457.111 162.059 458.128 162.576 458.764 163.452C475.958 187.127 495.134 199.125 515.739 199.125C515.747 199.125 515.747 199.125 515.754 199.125C536.352 199.117 555.506 187.127 572.699 163.482C573.335 162.613 574.345 162.097 575.423 162.089C575.43 162.089 575.43 162.089 575.43 162.089C576.5 162.089 577.51 162.598 578.154 163.467C590.858 180.768 611.897 201.042 639.843 199.117C653.998 198.166 664.473 190.302 670.766 183.869C672.03 182.58 673.309 181.015 674.664 179.367C679.961 172.926 687.173 164.081 698.179 165.841C700.02 166.133 701.277 167.863 700.985 169.706C700.693 171.548 698.98 172.822 697.124 172.514C689.934 171.369 684.839 177.63 679.878 183.659C678.39 185.471 676.976 187.187 675.591 188.602C668.476 195.874 656.58 204.772 640.306 205.866C638.877 205.933 637.508 205.985 636.154 205.985Z" fill="url(#paint3_linear_125_66)" fill-opacity="0.1"/>
<path d="M636.154 260C609.166 260 588.688 241.973 575.423 225.076C557.75 247.867 537.182 259.88 515.739 259.888H515.732C494.273 259.888 473.706 247.874 456.033 225.076C438.451 247.889 417.875 259.918 396.335 259.925H396.327C369.631 259.925 349.49 241.763 336.629 225.076C318.926 247.889 299.144 259.603 277.768 259.888C277.506 259.888 277.252 259.895 276.997 259.895C255.479 259.895 234.911 247.904 217.246 225.099C199.245 248.211 179.178 259.925 157.54 259.933C157.533 259.933 157.533 259.933 157.525 259.933C135.947 259.933 115.881 248.219 97.8267 225.091C74.6326 254.63 36.7515 272.47 1.44408 247.59C-0.0822379 246.519 -0.448854 244.407 0.628549 242.886C1.70595 241.358 3.8009 240.991 5.32722 242.07C38.2927 265.303 74.1613 246.481 95.0883 217.519C95.7168 216.643 96.8391 215.991 97.8192 216.119C98.8892 216.119 99.8992 216.628 100.543 217.497C117.946 241.179 137.122 253.184 157.525 253.184C157.533 253.184 157.533 253.184 157.54 253.184C178.003 253.177 197.18 241.171 214.53 217.497C215.166 216.628 216.176 216.119 217.254 216.119C218.189 216.246 219.349 216.635 219.985 217.512C231.821 233.817 251.282 253.147 276.997 253.147C277.229 253.147 277.454 253.147 277.686 253.14C297.924 252.87 316.846 240.864 333.92 217.459C334.556 216.591 335.566 216.074 336.643 216.074C336.651 216.074 336.651 216.074 336.651 216.074C337.736 216.074 338.746 216.598 339.382 217.474C351.114 233.764 370.522 253.177 396.335 253.177C396.342 253.177 396.342 253.177 396.342 253.177C422.125 253.17 441.548 233.757 453.295 217.474C453.931 216.598 454.948 216.074 456.026 216.074H456.033C457.111 216.074 458.128 216.59 458.764 217.467C475.958 241.141 495.134 253.147 515.747 253.147C515.754 253.147 515.754 253.147 515.754 253.147C536.352 253.14 555.506 241.149 572.699 217.504C573.335 216.635 574.345 216.119 575.423 216.111C575.43 216.111 575.43 216.111 575.43 216.111C576.5 216.111 577.51 216.62 578.154 217.489C590.866 234.79 611.875 255.064 639.843 253.14C653.998 252.188 664.473 244.317 670.766 237.891C672.03 236.603 673.309 235.037 674.664 233.39C679.961 226.949 687.181 218.118 698.179 219.863C700.02 220.156 701.277 221.886 700.985 223.728C700.693 225.57 698.98 226.836 697.124 226.537C689.957 225.413 684.839 231.645 679.878 237.681C678.39 239.494 676.976 241.209 675.591 242.624C668.476 249.897 656.58 258.787 640.306 259.888C638.885 259.955 637.508 260 636.154 260Z" fill="url(#paint4_linear_125_66)" fill-opacity="0.1"/>
</g>
<defs>
<linearGradient id="paint0_linear_125_66" x1="350.499" y1="279.784" x2="350.499" y2="27.6841" gradientUnits="userSpaceOnUse">
<stop offset="0.1312" stop-color="#005BA5"/>
<stop offset="0.3495" stop-color="#0071BA"/>
<stop offset="0.7749" stop-color="#0096DE"/>
<stop offset="1" stop-color="#00A4EC"/>
</linearGradient>
<linearGradient id="paint1_linear_125_66" x1="350.5" y1="279.783" x2="350.5" y2="27.6833" gradientUnits="userSpaceOnUse">
<stop offset="0.1312" stop-color="#005BA5"/>
<stop offset="0.3495" stop-color="#0071BA"/>
<stop offset="0.7749" stop-color="#0096DE"/>
<stop offset="1" stop-color="#00A4EC"/>
</linearGradient>
<linearGradient id="paint2_linear_125_66" x1="350.5" y1="279.783" x2="350.5" y2="27.6834" gradientUnits="userSpaceOnUse">
<stop offset="0.1312" stop-color="#005BA5"/>
<stop offset="0.3495" stop-color="#0071BA"/>
<stop offset="0.7749" stop-color="#0096DE"/>
<stop offset="1" stop-color="#00A4EC"/>
</linearGradient>
<linearGradient id="paint3_linear_125_66" x1="350.5" y1="279.783" x2="350.5" y2="27.6831" gradientUnits="userSpaceOnUse">
<stop offset="0.1312" stop-color="#005BA5"/>
<stop offset="0.3495" stop-color="#0071BA"/>
<stop offset="0.7749" stop-color="#0096DE"/>
<stop offset="1" stop-color="#00A4EC"/>
</linearGradient>
<linearGradient id="paint4_linear_125_66" x1="350.5" y1="279.783" x2="350.5" y2="27.6832" gradientUnits="userSpaceOnUse">
<stop offset="0.1312" stop-color="#005BA5"/>
<stop offset="0.3495" stop-color="#0071BA"/>
<stop offset="0.7749" stop-color="#0096DE"/>
<stop offset="1" stop-color="#00A4EC"/>
</linearGradient>
<clipPath id="clip0_125_66">
<rect width="701" height="260" fill="white"/>
</clipPath>
</defs>
</svg>
