<svg width="64" height="68" viewBox="0 0 64 68" fill="none" xmlns="http://www.w3.org/2000/svg">
<path d="M5.50306 5.472V16.416C7.16706 15.456 9.43906 14.976 12.3191 14.976H18.4631C20.1271 14.976 21.4231 14.56 22.3511 13.728C23.3111 12.896 23.7911 11.664 23.7911 10.032C23.7911 6.992 22.0151 5.472 18.4631 5.472H5.50306ZM5.50306 21.744V30.768H18.9911C20.6551 30.768 22.1591 30.32 23.5031 29.424C24.8791 28.496 25.5671 27.2 25.5671 25.536C25.5671 22.048 23.1991 20.304 18.4631 20.304H12.3191C9.56706 20.304 7.29506 20.784 5.50306 21.744ZM30.7511 26.208C30.7511 27.904 30.3991 29.408 29.6951 30.72C28.9911 32.032 28.0311 33.056 26.8151 33.792C25.6311 34.528 24.3351 35.088 22.9271 35.472C21.5191 35.824 20.0311 36 18.4631 36H0.319063V0.191998H18.4631C21.5671 0.191998 24.0951 1.056 26.0471 2.784C28.0311 4.512 29.0231 6.912 29.0231 9.984C29.0231 13.312 27.9511 15.664 25.8071 17.04C27.1831 17.68 28.3511 18.8 29.3111 20.4C30.2711 21.968 30.7511 23.904 30.7511 26.208ZM63.0768 5.376L47.3808 36H41.1408L57.1248 5.472H37.0128V0.191998H63.0768V5.376ZM10.2116 55.28V59.84C10.9049 59.44 11.8516 59.24 13.0516 59.24H15.6116C16.3049 59.24 16.8449 59.0667 17.2316 58.72C17.6316 58.3733 17.8316 57.86 17.8316 57.18C17.8316 55.9133 17.0916 55.28 15.6116 55.28H10.2116ZM10.2116 62.06V65.82H15.8316C16.5249 65.82 17.1516 65.6333 17.7116 65.26C18.2849 64.8733 18.5716 64.3333 18.5716 63.64C18.5716 62.1867 17.5849 61.46 15.6116 61.46H13.0516C11.9049 61.46 10.9582 61.66 10.2116 62.06ZM20.7316 63.92C20.7316 64.6267 20.5849 65.2533 20.2916 65.8C19.9982 66.3467 19.5982 66.7733 19.0916 67.08C18.5982 67.3867 18.0582 67.62 17.4716 67.78C16.8849 67.9267 16.2649 68 15.6116 68H8.05156V53.08H15.6116C16.9049 53.08 17.9582 53.44 18.7716 54.16C19.5982 54.88 20.0116 55.88 20.0116 57.16C20.0116 58.5467 19.5649 59.5267 18.6716 60.1C19.2449 60.3667 19.7316 60.8333 20.1316 61.5C20.5316 62.1533 20.7316 62.96 20.7316 63.92ZM29.0006 54.66L28.1806 52.82H30.5806L37.7606 68H35.3206L34.3406 65.82H29.8006C28.5606 65.82 27.5473 65.9733 26.7606 66.28C25.974 66.5867 25.4806 66.9267 25.2806 67.3L24.9006 68H22.5406L29.0006 54.66ZM30.6006 63.62H33.3606L30.1006 57.32L26.8006 64.46C27.454 63.9 28.7206 63.62 30.6006 63.62ZM42.7316 55.26V60.22C43.3982 59.8333 44.3382 59.64 45.5516 59.64H48.3916C49.1782 59.64 49.7982 59.4533 50.2516 59.08C50.7049 58.7067 50.9316 58.1333 50.9316 57.36C50.9316 55.96 50.0849 55.26 48.3916 55.26H42.7316ZM49.1116 65.64L47.2916 61.82H45.5516C44.3916 61.82 43.4516 62.0133 42.7316 62.4V68H40.5516V53.08H48.3916C49.7916 53.08 50.9249 53.4733 51.7916 54.26C52.6582 55.0333 53.0916 56.1067 53.0916 57.48C53.0916 58.6 52.7916 59.52 52.1916 60.24C51.5916 60.96 50.7449 61.46 49.6516 61.74L50.8116 64.12C51.2916 64.8267 51.6649 65.2867 51.9316 65.5C52.2116 65.7 52.5849 65.8 53.0516 65.8H53.2716L53.7516 65.78V68C53.2849 68 52.9316 67.9933 52.6916 67.98C52.4516 67.9667 52.1249 67.92 51.7116 67.84C51.3116 67.76 50.9782 67.6467 50.7116 67.5C50.4582 67.34 50.1782 67.1067 49.8716 66.8C49.5782 66.48 49.3249 66.0933 49.1116 65.64Z" fill="white"/>
</svg>
