<svg width="1360" height="600" viewBox="0 0 1360 600" fill="none" xmlns="http://www.w3.org/2000/svg">
<path d="M748.073 126.28C581.16 47.4701 590.668 91.199 519.265 71.8185C515.892 70.8985 514.971 65.808 518.284 64.1521C552.575 46.5501 600.544 57.2217 636.737 65.1947C710.961 81.6314 764.207 133.947 748.073 126.28Z" fill="#209BD6" fill-opacity="0.1"/>
<path d="M164.644 178.35C335.912 198.712 431.975 372.094 554.844 404.171C576.989 409.936 624.468 419.319 636.675 399.693C639.681 333.763 598.152 271.941 515.769 239.374C492.581 242.502 473.197 236.308 467.86 214.045C421.915 218.829 408.971 191.966 435.287 157.559C379.588 157.436 340.329 59.7363 472.768 16.866C595.146 -22.6924 720.899 11.3462 824.016 82.2447C931.795 156.332 1008.6 270.898 1080.43 377.921C1268.01 657.344 1391.5 556.026 1492.16 572.34C1509.89 575.222 1394.44 598.283 1315.31 591.414C1264.21 586.998 1217.04 558.663 1177.59 527.936C1089.38 459.246 1039.27 351.855 970.747 265.808C837.818 98.9267 661.274 -19.0126 462.155 53.9098C445.654 59.9816 429.46 69.7332 418.848 83.962C397.684 112.481 430.135 140.141 458.414 135.725C491.477 122.416 525.829 125.606 513.438 130.757C490.128 140.448 446.084 163.631 442.894 189.083C441.483 200.675 468.842 194.358 473.627 193.438C479.699 192.211 486.018 196.136 485.895 202.76C485.588 224.839 524.418 217.847 534.049 214.781C551.348 202.208 579.013 197.915 598.336 191.352C601.526 190.248 628.271 182.521 631.216 184.177C648.085 182.643 664.832 184.667 681.823 190.862C686.179 192.456 650.539 193.928 616.616 205.336C624.407 208.218 650.293 213.799 678.818 212.879C686.117 212.634 690.411 219.81 689.062 226.311C675.751 291.628 765.065 240.662 791.197 268.629C794.878 268.568 799.356 269.243 804.693 270.898C773.101 308.188 819.844 315.854 828.494 319.105C853.583 328.611 879.715 319.289 879.715 339.896C879.715 377.124 893.456 352.837 908.853 366.084C974.305 372.769 998.781 446.795 1040.56 489.298C1102.57 552.407 1231.82 600.061 1230.1 600C1166.55 599.08 1074.48 549.218 1030.19 507.452C1003.14 481.877 983.323 441.46 963.693 418.399C980.685 467.28 963.877 516.774 960.196 507.022C946.088 469.488 957.559 429.684 926.581 398.589C934.923 423.796 940.751 450.107 939.831 506.593C939.769 511.009 933.267 511.99 932.101 507.636C921.121 465.072 919.649 410.058 895.787 381.601C914.926 424.348 916.336 477.216 908.914 520.699C908.055 525.974 900.817 524.011 900.326 519.534C895.48 474.64 889.775 436.553 874.562 399.816C884.561 445.998 881.8 498.927 872.17 530.941C870.881 535.235 864.625 534.315 864.441 529.899C861.926 465.256 857.509 386.385 814.14 335.051C813.956 334.989 813.772 334.989 813.587 334.928C842.296 400.429 874.255 513.769 835.794 578.841C833.217 583.195 826.653 580.252 827.758 575.468C841.928 516.283 828.187 440.172 808.557 385.097C823.832 447.961 820.213 518.675 803.527 570.316C801.38 577.001 791.197 574.302 792.976 567.433C810.398 498.252 801.074 414.719 768.807 346.949C788.437 417.786 795.982 498.865 765.618 565.9C763.593 570.316 756.171 567.188 757.766 562.588C774.206 516.038 765.004 450.414 757.52 402.944C742.798 309.108 717.096 304.385 701.085 279.791C700.594 279.73 700.165 279.607 699.674 279.546C715.807 305.55 727.524 335.909 735.008 356.332C758.502 420.362 763.102 486.354 732.186 547.93C729.793 552.714 721.512 549.279 723.537 544.312C752.245 472.309 715.501 350.629 677.468 295.492C718.077 375.406 744.7 490.279 675.076 544.434C669.371 548.85 661.274 541.368 666.917 536.277C726.481 483.41 686.976 352.407 647.165 292.855C686.67 365.348 691.822 448.39 649.557 514.382C645.938 520.025 637.043 514.873 640.54 509.108C655.017 485.618 659.74 456.976 659.065 428.274C631.952 569.887 400.997 601.779 368.179 510.334C348.856 456.547 403.083 446.979 440.87 463.294C442.894 464.213 441.422 467.341 439.397 466.789C373.699 449.065 360.756 508.004 422.773 531.003C487.858 555.106 613.672 520.393 633.731 429.684C615.267 439.252 589.257 437.412 570.609 434.775C490.312 423.551 437.68 372.708 377.135 322.539C301.008 259.43 191.45 177.676 86.3091 214.229C55.3924 224.962 25.5799 254.584 25.7639 288.807C26.0092 332.045 86.7385 332.72 120.109 333.763C132.684 319.841 156.73 314.443 174.949 312.91C176.544 312.787 176.728 315.179 175.317 315.609C166.3 318.491 111.276 346.274 134.095 363.263C149.063 374.425 197.278 357.375 205.068 358.663C248.99 349.893 268.619 348.789 277.269 357.375C294.077 373.996 303.585 398.589 335.667 398.589C340.82 398.589 327.324 404.355 322.969 406.93C315.179 411.653 308.308 413.616 302.174 413.432C313.154 435.94 320.577 463.784 316.589 487.642C316.099 490.463 311.743 490.279 311.13 487.642C305.425 462.374 297.45 439.62 284.262 417.173C282.851 414.719 281.317 412.389 279.722 410.058C299.352 451.579 303.217 506.838 278.496 534.499C276.165 537.136 272.668 534.253 273.159 531.432C281.072 482.919 272.913 446.428 250.585 410.672C272.668 466.605 261.381 545.661 210.099 569.641C207.522 570.868 204.578 567.679 206.847 565.471C245.187 529.102 246.659 459.552 229.422 420.914C254.879 538.178 157.344 570.255 171.207 558.724C212.368 524.44 226.968 464.765 208.504 416.069C215.313 485.434 174.09 539.282 137.224 537.933C136.058 537.872 135.199 536.339 136.181 535.419C153.97 520.086 195.376 490.034 192.984 434.897C195.315 518.001 28.279 549.77 37.051 475.437C37.4804 472.064 42.5718 471.818 42.5105 475.437C41.7744 515.915 112.502 495.063 131.335 486.047C174.52 465.563 182.617 419.258 150.596 386.569C124.832 386.017 107.166 374.118 112.012 349.341C-68.4583 367.617 -16.3785 156.762 164.644 178.35ZM192.186 425.268C192.309 426.066 192.432 426.863 192.493 427.66C192.371 426.863 192.309 426.066 192.186 425.268Z" fill="#209BD6" fill-opacity="0.1"/>
<path d="M143.787 256.24C140.107 256.056 137.653 250.291 141.702 248.574C213.411 217.909 280.888 306.286 334.563 338.362C336.771 339.712 335.299 343.76 332.722 342.717C304.689 331.371 281.317 314.137 257.394 295.983C220.527 267.955 189.365 258.326 143.787 256.24Z" fill="#209BD6" fill-opacity="0.1"/>
<path d="M522.333 447.041C536.073 453.113 570.364 456.179 559.752 460.166C519.818 475.192 422.344 404.477 445.041 406.256C469.885 408.096 482.46 429.439 522.333 447.041Z" fill="#209BD6" fill-opacity="0.1"/>
<path d="M64.7778 299.479C70.728 303.527 77.9665 305.366 85.1436 305.121C93.3635 304.876 95.3878 299.111 101.645 295.615C105.141 293.652 109.251 296.167 109.435 300.092C109.742 310.028 97.2894 315.057 89.1308 315.977C50.1783 320.086 26.6227 271.021 61.4653 253.91C70.0533 249.617 40.4861 283.165 64.7778 299.479Z" fill="#209BD6" fill-opacity="0.1"/>
</svg>
