<svg width="100" height="100" viewBox="0 0 100 100" fill="none" xmlns="http://www.w3.org/2000/svg">
<g clip-path="url(#clip0_630_6045)">
<path d="M19.1016 4.04298C18.9453 4.23829 14.5703 10.1758 9.39453 17.2266L0 30.0781L25 63.0273C38.7695 81.1719 50.0781 96.0156 50.1758 96.0547C50.2539 96.0742 61.5039 81.25 75.1562 63.0859L100 30.0586L90.3711 16.9336L80.7422 3.8086L50.0781 3.75001C21.0547 3.71095 19.375 3.73048 19.1016 4.04298ZM32.5391 11.5625C32.1875 12.6758 30.8984 16.6211 29.668 20.3516L27.4414 27.1484H18.5156C13.5938 27.1484 9.57031 27.0899 9.57031 27.0313C9.57031 26.9531 12.4414 23.0078 15.9375 18.2422L22.2852 9.57032H27.7344H33.1641L32.5391 11.5625ZM63.457 18.1055C65 22.8125 66.3086 26.7774 66.3477 26.8945C66.4258 27.0899 63.1055 27.1484 50 27.1484C36.1719 27.1484 33.5742 27.1094 33.6523 26.875C33.7109 26.7383 35.0195 22.7734 36.543 18.0859L39.3359 9.57032H50H60.6641L63.457 18.1055ZM84.0625 18.2422C87.5586 23.0078 90.4297 26.9531 90.4297 27.0313C90.4297 27.0899 86.4062 27.1484 81.5039 27.1484H72.5586L70.7227 21.5234C69.707 18.4375 68.418 14.4922 67.8516 12.7344L66.8359 9.57032H72.2656H77.7148L84.0625 18.2422ZM34.4336 53.8477C38.2812 65.293 41.3867 74.707 41.3477 74.7461C41.3086 74.7852 35.6836 67.4414 28.8672 58.457C22.0312 49.4531 14.9023 40.0391 13.0078 37.5391L9.55078 33.0078H18.5156H27.4609L34.4336 53.8477ZM66.3086 33.2422C66.2695 33.3789 62.6172 44.4336 58.2031 57.793C53.8086 71.1719 50.1758 82.1289 50.1367 82.1484C50.1172 82.168 46.3867 71.1328 41.8555 57.5977L33.6133 33.0078H50C63.0273 33.0078 66.3672 33.0664 66.3086 33.2422ZM90.293 33.2422C90.1758 33.3789 83.125 42.7734 74.6094 54.1016C66.0938 65.4297 59.0039 74.8242 58.8672 74.9805C58.7305 75.1367 60.1562 70.6055 62.0312 64.9219C63.9062 59.2383 67.0312 49.7266 68.9844 43.7891L72.5391 33.0078H81.5039C88.6523 33.0078 90.4297 33.0664 90.293 33.2422Z" fill="#89CFF0"/>
</g>
<defs>
<clipPath id="clip0_630_6045">
<rect width="100" height="100" fill="white"/>
</clipPath>
</defs>
</svg>
