<svg width="100" height="100" viewBox="0 0 100 100" fill="none" xmlns="http://www.w3.org/2000/svg">
<g clip-path="url(#clip0_630_6048)">
<path d="M47.2656 15.1758C46.6797 15.2149 45.1367 15.3711 43.8477 15.5469C35.5664 16.582 29.9805 18.9453 28.4961 22.0117C28.0664 22.8906 28.0664 22.9883 28.2031 28.2617L28.3203 33.6133L27.3047 33.457C25.3711 33.1641 20.7227 33.2813 19.043 33.6719C12.0117 35.2734 6.50393 39.3164 3.0469 45.4102C-0.722631 52.0117 -0.937475 60.7617 2.48049 67.5781C4.19924 70.957 7.1094 74.375 10.0196 76.4453C18.1836 82.207 29.0625 82.3047 37.2852 76.6797L38.9258 75.5469L40.4492 75.8594C42.5 76.2695 46.2696 76.7188 49.1602 76.875L51.543 77.0117L52.0508 78.0469C53.4375 80.8789 58.0664 83.0274 65.2539 84.1602C76.1524 85.8984 88.6719 84.7656 95.6055 81.4258C97.3438 80.5859 99.4141 78.5938 99.7657 77.4219C99.9414 76.8359 100 73.457 100 64.9219V53.2227L99.5313 52.2461C98.3399 49.668 94.4336 47.6172 88.418 46.3867C86.2305 45.9375 82.4805 45.4883 78.6719 45.1953L77.1485 45.0781V34.4141C77.1485 24.9414 77.1094 23.6524 76.8164 22.8516C76.1524 21.0547 75 19.8828 72.6563 18.6719C69.4727 17.0117 63.8086 15.7031 57.9297 15.2344C55.6055 15.0586 49.8047 15.0195 47.2656 15.1758ZM55.5469 19.1406C59.4727 19.3555 61.2891 19.5508 64.2578 20.1367C69.043 21.0938 73.2031 23.0274 72.793 24.1016C72.4414 25.0195 69.4922 26.3867 66.0742 27.2266C58.8281 29.0234 48.086 29.1992 40.3321 27.6172C36.6992 26.875 32.9883 25.332 32.2656 24.2578C31.9922 23.8477 32.0117 23.7695 32.4414 23.3203C33.1641 22.5391 34.2969 21.9531 36.5235 21.2109C40 20.0586 43.7696 19.4141 48.7305 19.1602C50.2344 19.0625 51.6016 18.9844 51.7578 18.9844C51.9141 18.9649 53.6328 19.043 55.5469 19.1406ZM72.8125 35.0977C72.2656 36.2109 68.6133 37.793 64.8438 38.5742C59.8633 39.6094 53.9453 40.0195 48.6914 39.6875C42.0703 39.2578 39.2774 38.6914 37.3633 37.3828C36.6406 36.875 35.2539 36.0742 34.2774 35.6055C32.5391 34.7656 32.5196 34.7461 32.3828 33.9258C32.3242 33.4766 32.2461 32.207 32.2461 31.1133L32.2266 29.1211L33.4571 29.6875C40.1367 32.7149 54.8828 33.5742 65 31.5234C67.5586 31.0156 71.1133 29.9219 72.2656 29.3164L72.9492 28.9453L73.0078 31.7774C73.0469 33.7695 72.9883 34.7461 72.8125 35.0977ZM27.8321 37.6367C33.711 38.7695 38.8477 42.7344 41.6602 48.3399C44.6875 54.3945 44.3164 61.7383 40.6836 67.5586C39.5899 69.3164 37.0899 71.9727 35.4297 73.1641C31.5625 75.9375 26.4063 77.2852 21.836 76.7578C17.1875 76.2305 13.4375 74.4727 10.1172 71.3281C6.66018 68.0274 4.53127 63.6133 4.12112 58.8281C2.96878 45.5274 14.6289 35.0977 27.8321 37.6367ZM73.0469 42.6367V45.2539L70.5664 45.3711C65.6641 45.625 60.1758 46.7188 56.9531 48.0469C55.4102 48.6914 53.418 49.9024 52.9492 50.4492C52.7344 50.7227 52.2852 50.7813 50.293 50.7813C47.5781 50.7813 46.6797 50.6641 46.6797 50.2734C46.6797 49.707 45.2344 46.4063 44.3164 44.8828C43.7891 44.0039 43.3594 43.2813 43.3594 43.2617C43.3594 43.2617 43.8672 43.3008 44.4922 43.3984C46.7383 43.7109 55.3516 43.8086 58.2227 43.5742C64.375 43.0469 68.4375 42.0899 73.0078 40.0586C73.0274 40.0391 73.0469 41.2109 73.0469 42.6367ZM80.3711 49.4141C87.2461 49.9219 93.1836 51.4453 95.293 53.2422C96.25 54.082 96.1914 54.3359 94.7657 55.2539C89.1407 58.8477 72.8711 59.9805 62.3633 57.5195C58.9063 56.6992 55.8008 55.293 55.2735 54.2969C55.0781 53.9453 55.1367 53.8086 55.6641 53.3203C57.6758 51.4258 63.3985 49.9609 70.9961 49.3555C72.7735 49.1992 78.0078 49.2383 80.3711 49.4141ZM51.0547 54.9024C51.0938 54.9414 51.1914 56.543 51.2696 58.457L51.4063 61.9531L49.3946 61.8164C48.2813 61.7383 47.3438 61.6406 47.3047 61.6211C47.2656 61.6016 47.3438 61.0156 47.461 60.332C47.5586 59.6484 47.6563 58.0859 47.6563 56.8555V54.6289L49.336 54.7461C50.2539 54.7852 51.0352 54.8633 51.0547 54.9024ZM96.0938 61.7969C96.0938 63.2227 95.9961 64.668 95.8789 65C95.1563 67.0899 88.418 69.1211 80.0782 69.7461C70.4102 70.4883 58.75 68.6133 55.8203 65.8594L55.2735 65.3516V62.3633C55.2735 60.4297 55.3516 59.375 55.4688 59.375C55.586 59.375 55.9961 59.5313 56.4063 59.7461C57.3633 60.2344 60.0196 61.0547 62.0899 61.5234C72.3242 63.7695 86.6211 63.0469 94.2188 59.8828C95.0977 59.5313 95.8594 59.2188 95.9571 59.1992C96.0352 59.1992 96.0938 60.3516 96.0938 61.7969ZM51.2891 65.8984C51.3086 65.8984 51.3477 67.5 51.3867 69.4336L51.4649 72.9492L49.6094 72.8906C47.8516 72.832 42.5586 72.3047 42.4219 72.1875C42.4024 72.1484 42.8516 71.4063 43.4571 70.5469C44.043 69.6875 44.9024 68.2227 45.3321 67.3047L46.1328 65.625L48.711 65.7422C50.1172 65.8203 51.2891 65.8789 51.2891 65.8984ZM95.7422 76.543C94.5117 78.2031 88.7891 79.9805 82.4219 80.6836C79.2383 81.0352 71.4258 80.9961 68.2227 80.6055C62.0899 79.8438 57.3047 78.3203 55.9375 76.7188C55.4883 76.1719 55.4688 76.0352 55.4688 73.3203C55.4688 71.7774 55.5274 70.5078 55.625 70.5078C55.7031 70.5078 56.3867 70.7617 57.1485 71.0938C61.0156 72.7149 66.6797 73.6328 73.6914 73.7695C82.3438 73.9649 89.375 72.9688 94.2383 70.8984L95.9961 70.1563L96.0547 73.1055C96.0938 75.7227 96.0547 76.1133 95.7422 76.543Z" fill="#89CFF0"/>
<path d="M18.048 65V48.2H25.32C27.56 48.2 29.336 48.672 30.648 49.616C31.96 50.56 32.616 51.976 32.616 53.864C32.616 55.736 31.96 57.144 30.648 58.088C29.336 59.032 27.56 59.504 25.32 59.504H20.208L21.96 57.776V65H18.048ZM21.96 58.184L20.208 56.456H25.296C26.368 56.456 27.2 56.24 27.792 55.808C28.384 55.36 28.68 54.72 28.68 53.888C28.68 53.072 28.384 52.448 27.792 52.016C27.2 51.584 26.368 51.368 25.296 51.368H20.208L21.96 49.52V58.184ZM15.72 62.84V60.848H27.144V62.84H15.72Z" fill="#89CFF0"/>
</g>
<defs>
<clipPath id="clip0_630_6048">
<rect width="100" height="100" fill="white"/>
</clipPath>
</defs>
</svg>
