<svg width="30" height="30" viewBox="0 0 30 30" fill="none" xmlns="http://www.w3.org/2000/svg">
<g clip-path="url(#clip0_11_25)">
<path d="M22.7714 5.625C21.7846 5.625 21.0444 6.36513 21.0444 7.35197C21.0444 8.33882 21.7846 9.07895 22.7714 9.07895C23.7582 9.07895 24.4984 8.33882 24.4984 7.35197C24.4984 6.36513 23.7582 5.625 22.7714 5.625Z" fill="#97BC50"/>
<path d="M15 7.8454C10.9293 7.8454 7.72205 11.176 7.72205 15.1234C7.72205 19.0707 11.0526 22.4013 15 22.4013C18.9474 22.4013 22.278 19.0707 22.278 15.1234C22.278 11.176 19.0707 7.8454 15 7.8454ZM15 19.8109C12.4095 19.8109 10.3125 17.7138 10.3125 15.1234C10.3125 12.5329 12.4095 10.4359 15 10.4359C17.5905 10.4359 19.6875 12.5329 19.6875 15.1234C19.6875 17.7138 17.5905 19.8109 15 19.8109Z" fill="#97BC50"/>
<path d="M20.9211 0.197357H9.20232C4.14476 0.197357 0.197388 4.14473 0.197388 9.07894V20.7977C0.197388 25.7319 4.14476 29.6793 9.07897 29.6793H20.7977C25.7319 29.6793 29.6793 25.7319 29.6793 20.7977V9.07894C29.8026 4.14473 25.8553 0.197357 20.9211 0.197357ZM26.9655 20.921C26.9655 24.2516 24.2517 27.0888 20.7977 27.0888H9.07897C5.74837 27.0888 2.9112 24.375 2.9112 20.921V9.20229C2.9112 5.8717 5.62502 3.03453 9.07897 3.03453H20.7977C24.1283 3.03453 26.9655 5.74834 26.9655 9.20229V20.921Z" fill="#97BC50"/>
</g>
<defs>
<clipPath id="clip0_11_25">
<rect width="30" height="30" fill="white"/>
</clipPath>
</defs>
</svg>
