<svg width="400" height="400" viewBox="0 0 400 400" fill="none" xmlns="http://www.w3.org/2000/svg">
<path d="M277.587 143.107L248.891 121.833C256.365 107.034 252.094 88.5342 238.079 78.0953C230.338 72.4133 220.995 70.0348 211.518 71.3562C202.308 72.6776 194.167 77.4346 188.694 84.8343C177.215 100.162 180.552 122.097 196.302 133.726C202.575 138.35 210.05 140.861 217.658 140.861C219.393 140.861 221.128 140.729 222.73 140.465C229.804 139.408 236.344 136.368 241.416 131.611L270.113 152.886C271.181 153.678 272.515 154.075 273.85 154.075C274.117 154.075 274.384 154.075 274.784 154.075C276.386 153.811 277.854 153.018 278.789 151.696C280.791 149.054 280.257 145.222 277.587 143.107ZM221.929 135.311C213.921 136.5 205.912 134.386 199.372 129.497C186.025 119.587 183.088 100.955 192.965 88.0057C197.637 81.7952 204.444 77.6989 212.319 76.6418C213.787 76.3775 215.255 76.3775 216.724 76.3775C223.264 76.3775 229.537 78.4917 234.876 82.4559C248.223 92.3662 251.16 110.998 241.283 123.947C236.611 130.158 229.804 134.122 221.929 135.311ZM274.517 148.525C274.384 148.789 274.117 148.789 273.984 148.789C273.85 148.789 273.583 148.789 273.316 148.657L245.02 127.647L245.554 126.987L246.088 126.326L274.384 147.336C274.651 147.732 274.784 148.129 274.517 148.525Z" fill="#39E991"/>
<path d="M234.209 108.884H225.533V90.252C225.533 88.7985 224.332 87.6093 222.863 87.6093H211.518C210.05 87.6093 208.849 88.7985 208.849 90.252V93.9519H200.173C199.506 93.9519 198.838 94.2162 198.304 94.7447C197.77 95.2733 197.503 95.934 197.503 96.5947V121.437C197.503 122.89 198.705 124.079 200.173 124.079H211.518H222.863H234.209C234.876 124.079 235.543 123.815 236.077 123.287C236.611 122.758 236.878 122.097 236.878 121.437V111.526C236.878 110.073 235.677 108.884 234.209 108.884ZM220.194 93.0269V118.926H214.188V112.98V93.1591L220.194 93.0269ZM202.709 99.2374H208.715V118.794H202.709V99.2374ZM231.539 118.794H225.533V117.737V114.169H231.539V118.794Z" fill="#39E991"/>
<path d="M136.907 111.923L137.441 109.941C138.108 107.034 139.309 104.127 140.777 101.219C147.451 88.9306 159.597 81.0023 175.747 78.6238C179.218 78.0953 182.822 77.9631 186.425 77.9631C188.027 78.0953 189.095 76.906 189.228 75.4525C189.228 73.999 188.16 72.8097 186.692 72.6776C182.688 72.5455 178.817 72.8097 175.08 73.3383C157.061 76.1132 143.714 84.8343 136.106 98.7089C134.371 102.012 133.17 105.316 132.369 108.619L131.835 110.601L131.434 113.508C130.767 118.001 130.767 122.229 131.301 126.326V127.647C131.301 128.704 131.034 130.026 130.5 131.083L120.757 151.3C119.555 153.811 119.822 156.982 121.29 159.228C122.892 161.607 125.562 163.06 128.231 163.06H130.9V186.713C130.9 192.131 135.172 196.359 140.511 196.359L155.86 196.623C155.993 196.623 156.26 196.888 156.26 197.02V204.287C156.26 205.741 157.462 206.93 158.93 206.93C160.398 206.93 161.599 205.741 161.599 204.287V197.02C161.599 193.981 158.93 191.338 155.993 191.338L140.644 191.074C138.108 191.074 136.239 189.224 136.239 186.713V157.643H128.231C127.297 157.643 126.362 157.114 125.695 156.189C125.161 155.396 125.028 154.339 125.428 153.414L135.172 133.197C135.972 131.347 136.506 129.365 136.506 127.515V126.326V125.797C136.106 121.965 136.106 118.265 136.64 114.169L136.907 111.923Z" fill="#39E991"/>
<path d="M239.014 140.729C237.679 140.332 236.077 140.993 235.677 142.447C233.141 149.846 228.603 156.982 222.196 163.589L221.662 163.985C219.794 165.703 216.724 168.478 214.722 173.499C211.118 181.56 211.652 191.602 216.457 203.23L216.857 204.155C217.258 205.212 218.325 205.741 219.26 205.741C219.66 205.741 219.927 205.609 220.327 205.477C221.662 204.948 222.33 203.363 221.796 202.041L221.395 201.116C217.258 190.941 216.59 182.22 219.66 175.481C221.395 171.517 223.798 169.271 225.399 167.685L225.933 167.157C233.007 159.889 237.946 152.093 240.615 144.032C241.149 142.711 240.348 141.257 239.014 140.729Z" fill="#39E991"/>
<path d="M27.7605 230.428L55.5209 282.104H43.5445L39.5293 274.428H15.9225L12.0457 282.104H0L27.7605 230.428ZM34.2679 265.176L27.7605 252.085L21.3223 265.176H34.2679ZM50.4673 244.546H61.9592L70.8204 262.983L79.6815 244.546H91.2426L70.8204 283.749L50.4673 244.546ZM106.334 238.824C105.227 239.897 103.888 240.434 102.319 240.434C100.704 240.434 99.3308 239.897 98.2001 238.824C97.0693 237.75 96.504 236.436 96.504 234.883C96.504 233.375 97.0693 232.084 98.2001 231.011C99.3308 229.937 100.704 229.4 102.319 229.4C103.888 229.4 105.227 229.937 106.334 231.011C107.442 232.084 107.996 233.375 107.996 234.883C107.996 236.436 107.442 237.75 106.334 238.824ZM97.127 244.478H107.511V282.104H97.127V244.478ZM130.564 268.671C130.564 270.27 130.841 271.607 131.395 272.68C131.949 273.754 133.241 274.291 135.272 274.291C136.195 274.291 137.072 274.245 137.902 274.154V282.789C136.241 282.972 134.695 283.064 133.264 283.064C130.31 283.064 127.922 282.824 126.099 282.344C124.276 281.864 122.857 280.939 121.841 279.568C120.826 278.198 120.318 276.233 120.318 273.674V252.771H115.68V243.793H120.318V233.718H130.564V243.793H138.179V252.771H130.564V268.671ZM154.621 280.356C151.46 278.597 148.956 276.21 147.11 273.194C145.264 270.179 144.341 266.889 144.341 263.325C144.341 259.807 145.264 256.54 147.11 253.525C148.956 250.509 151.46 248.122 154.621 246.363C157.782 244.604 161.232 243.724 164.971 243.724C168.709 243.724 172.17 244.604 175.355 246.363C178.539 248.122 181.066 250.509 182.935 253.525C184.804 256.54 185.739 259.807 185.739 263.325C185.739 266.889 184.804 270.179 182.935 273.194C181.066 276.21 178.539 278.597 175.355 280.356C172.17 282.115 168.709 282.995 164.971 282.995C161.232 282.995 157.782 282.115 154.621 280.356ZM159.709 254.107C158.094 255.044 156.825 256.323 155.902 257.945C154.979 259.567 154.517 261.361 154.517 263.325C154.517 265.381 154.967 267.22 155.867 268.842C156.767 270.464 158.013 271.744 159.605 272.68C161.198 273.617 162.986 274.085 164.971 274.085C166.909 274.085 168.674 273.617 170.267 272.68C171.859 271.744 173.116 270.453 174.039 268.808C174.963 267.163 175.424 265.336 175.424 263.325C175.424 261.361 174.963 259.567 174.039 257.945C173.116 256.323 171.859 255.044 170.267 254.107C168.674 253.171 166.909 252.702 164.971 252.702C163.078 252.702 161.325 253.171 159.709 254.107ZM194.808 282.104V232.004H217.307C220.907 232.004 224.091 232.735 226.861 234.198C229.63 235.66 231.776 237.716 233.299 240.366C234.822 243.016 235.583 246.031 235.583 249.412C235.583 253.022 234.66 256.243 232.814 259.076C230.968 261.909 228.453 263.988 225.268 265.313C228.545 269.425 232.906 275.022 238.352 282.104H225.268C222.315 278.449 218.276 273.24 213.153 266.478H205.677V282.104H194.808ZM217.307 257.088C219.199 257.088 220.907 256.415 222.43 255.067C223.953 253.719 224.714 251.834 224.714 249.412C224.714 247.448 224.184 245.62 223.122 243.93C222.061 242.239 220.122 241.394 217.307 241.394H205.677V257.088H217.307ZM251.679 280.356C248.517 278.597 246.014 276.21 244.168 273.194C242.321 270.179 241.398 266.889 241.398 263.325C241.398 259.807 242.321 256.54 244.168 253.525C246.014 250.509 248.517 248.122 251.679 246.363C254.84 244.604 258.29 243.724 262.028 243.724C265.767 243.724 269.228 244.604 272.413 246.363C275.597 248.122 278.124 250.509 279.993 253.525C281.862 256.54 282.797 259.807 282.797 263.325C282.797 266.889 281.862 270.179 279.993 273.194C278.124 276.21 275.597 278.597 272.413 280.356C269.228 282.115 265.767 282.995 262.028 282.995C258.29 282.995 254.84 282.115 251.679 280.356ZM256.767 254.107C255.152 255.044 253.883 256.323 252.959 257.945C252.036 259.567 251.575 261.361 251.575 263.325C251.575 265.381 252.025 267.22 252.925 268.842C253.825 270.464 255.071 271.744 256.663 272.68C258.255 273.617 260.044 274.085 262.028 274.085C263.967 274.085 265.732 273.617 267.324 272.68C268.917 271.744 270.174 270.453 271.097 268.808C272.02 267.163 272.482 265.336 272.482 263.325C272.482 261.361 272.02 259.567 271.097 257.945C270.174 256.323 268.917 255.044 267.324 254.107C265.732 253.171 263.967 252.702 262.028 252.702C260.136 252.702 258.382 253.171 256.767 254.107ZM299.723 280.356C296.562 278.597 294.058 276.21 292.212 273.194C290.366 270.179 289.443 266.889 289.443 263.325C289.443 259.807 290.366 256.54 292.212 253.525C294.058 250.509 296.562 248.122 299.723 246.363C302.885 244.604 306.334 243.724 310.073 243.724C313.811 243.724 317.272 244.604 320.457 246.363C323.641 248.122 326.168 250.509 328.037 253.525C329.907 256.54 330.841 259.807 330.841 263.325C330.841 266.889 329.907 270.179 328.037 273.194C326.168 276.21 323.641 278.597 320.457 280.356C317.272 282.115 313.811 282.995 310.073 282.995C306.334 282.995 302.885 282.115 299.723 280.356ZM304.811 254.107C303.196 255.044 301.927 256.323 301.004 257.945C300.081 259.567 299.619 261.361 299.619 263.325C299.619 265.381 300.069 267.22 300.969 268.842C301.869 270.464 303.115 271.744 304.708 272.68C306.3 273.617 308.088 274.085 310.073 274.085C312.011 274.085 313.776 273.617 315.369 272.68C316.961 271.744 318.219 270.453 319.142 268.808C320.065 267.163 320.526 265.336 320.526 263.325C320.526 261.361 320.065 259.567 319.142 257.945C318.219 256.323 316.961 255.044 315.369 254.107C313.776 253.171 312.011 252.702 310.073 252.702C308.18 252.702 306.427 253.171 304.811 254.107ZM396.089 247.973C398.696 250.806 400 254.758 400 259.83V282.104H389.547V259.83C389.547 257.134 388.866 255.192 387.504 254.004C386.143 252.816 384.354 252.222 382.139 252.222C380.293 252.222 378.632 252.908 377.155 254.279C375.678 255.649 374.916 257.934 374.87 261.132V282.104H364.417V259.83C364.417 257.134 363.736 255.192 362.375 254.004C361.013 252.816 359.248 252.222 357.079 252.222C355.094 252.222 353.375 252.954 351.921 254.416C350.467 255.878 349.74 258.459 349.74 262.16L349.671 282.104H339.356V244.409H349.671V247.836C351.01 246.648 352.625 245.666 354.517 244.889C356.409 244.112 358.14 243.724 359.709 243.724C365.063 243.724 369.147 245.437 371.963 248.864C373.393 247.265 375.17 246.009 377.293 245.095C379.416 244.181 381.724 243.724 384.216 243.724C389.524 243.724 393.481 245.14 396.089 247.973Z" fill="white"/>
<path d="M40 324.446V306.78H54.2653V324.446H51.8795V308.847H42.3858V324.446H40ZM72.7506 315.047H77.6216C80.1566 315.047 81.2004 313.964 81.2004 311.947C81.2004 309.929 80.1566 308.847 77.6216 308.847H72.7506V315.047ZM70.3647 324.446V306.78H77.8702C81.772 306.78 83.5862 308.847 83.5862 311.947C83.5862 315.047 81.772 317.114 77.8702 317.114H72.7506V324.446H70.3647ZM115.889 315.613C115.889 320.189 113.131 324.889 107.191 324.889C101.251 324.889 98.4927 320.189 98.4927 315.613C98.4927 310.126 101.699 306.337 107.191 306.337C112.683 306.337 115.889 310.126 115.889 315.613ZM113.504 315.613C113.504 311.406 111.192 308.404 107.191 308.404C103.19 308.404 100.879 311.406 100.879 315.613C100.879 319.919 102.941 322.822 107.191 322.822C111.441 322.822 113.504 319.919 113.504 315.613ZM131.964 328.235H129.727V322.379H131.343C132.039 320.853 132.486 319.377 132.884 315.834C133.331 312.07 133.381 308.404 133.405 306.78H144.017V322.379H145.782V328.235H143.545V324.446H131.964V328.235ZM141.557 308.847H135.642C135.642 311.135 135.418 313.423 135.17 315.711C134.797 319.353 134.474 320.583 133.828 322.379H141.557V308.847ZM160.117 324.446V306.78H166.504C167.896 306.78 168.915 306.829 169.834 307.075C171.574 307.543 173.015 308.921 173.015 311.233C173.015 312.439 172.419 314.186 170.629 314.924C172.071 315.416 173.86 316.548 173.86 319.23C173.86 321.567 172.245 324.446 167.647 324.446H160.117ZM162.503 322.379H167.299C170.406 322.379 171.474 321.149 171.474 319.303C171.474 317.458 170.406 316.228 167.299 316.228H162.503V322.379ZM162.503 314.309H166.951C170.083 314.309 170.629 313.054 170.629 311.479C170.629 309.831 169.685 308.847 166.951 308.847H162.503V314.309ZM189.115 324.446V306.78H191.5V321.075H191.55L200.621 306.78H203.38V324.446H200.994V310.077H200.944L191.873 324.446H189.115ZM231.284 306.78V314.358H232.03L238.914 306.78H242.294L234.267 315.195L242.294 324.446H238.914L232.03 316.351H231.284V324.446H228.898V316.351H228.153L221.244 324.446H217.889L226.065 315.293L217.988 306.78H221.194L228.153 314.358H228.898V306.78H231.284ZM256.803 324.446V306.78H269.825V308.847H259.189V314.309H269.005V316.376H259.189V322.379H269.999V324.446H256.803ZM285.801 324.446V306.78H288.186V314.063H297.68V306.78H300.066V324.446H297.68V316.13H288.186V324.446H285.801ZM316.165 324.446V306.78H318.551V321.075H318.601L327.672 306.78H330.431V324.446H328.045V310.077H327.995L318.924 324.446H316.165ZM360 322.33V324.446H346.828V306.78H359.826V308.896H349.239V314.309H359.006V316.425H349.239V322.33H360Z" fill="white"/>
</svg>
