<svg width="128" height="439" viewBox="0 0 128 439" fill="none" xmlns="http://www.w3.org/2000/svg">
<g clip-path="url(#clip0_510_185)">
<path d="M20.9553 252.509C23.2241 252.343 23.0178 238.265 22.3166 235.086C22.0278 233.682 21.8628 231.576 21.7391 230.049C22.2341 228.026 22.6466 226.003 22.9353 223.98C23.2653 221.544 24.2553 218.53 23.6366 216.053C23.6366 216.053 19.264 211.759 12.6227 213.864C6.06391 224.558 3.46513 231.287 7.26016 239.132C10.1889 245.16 16.3765 253.541 20.9553 252.509C20.9553 252.55 20.9553 252.55 20.9553 252.509Z" fill="#F3BC97"/>
<path d="M23.6365 228.521C24.2141 227.324 25.3691 224.227 25.2453 222.658C24.9566 219.397 23.3065 217.539 20.7903 216.465C15.1802 214.029 8.1264 213.616 7.13639 219.727C7.01264 220.429 6.47637 222.245 6.84763 222.947C9.0339 227.117 22.234 229.759 23.6365 228.521Z" fill="#EDEFE8"/>
<path d="M9.48763 155.031C14.0664 141.324 10.2301 68.3705 35.3929 74.5222C43.3129 76.4626 50.3668 83.8116 50.8618 95.9912C51.8518 121.754 44.0142 167.376 44.0142 167.376C42.4054 172.578 36.4241 223.484 36.4241 223.484C33.4954 232.65 -1.97999 220.842 0.123779 212.172L9.48763 155.031Z" fill="url(#paint0_linear_510_185)"/>
<path d="M59.0706 386.153C59.0706 386.153 59.2356 387.763 59.4006 388.506C59.2768 390.406 59.4831 394.245 57.9568 395.649C54.2855 398.952 50.9855 399.654 46.3654 402.833C43.2304 404.98 38.1979 409.728 34.5266 411.09C30.814 412.453 24.9565 413.98 20.9964 413.774C15.7576 413.485 11.7976 411.792 11.3026 406.218C11.0138 402.874 13.3651 400.108 13.3651 400.108C16.0464 398.167 27.4315 397.383 32.9591 394.658C38.8166 391.727 44.7567 389.002 50.3667 385.864C52.883 384.336 60.0193 380.827 59.0706 386.153Z" fill="#C19259"/>
<path d="M56.8018 391.933C61.6281 387.557 58.7818 379.795 58.2456 373.313C57.9156 369.762 58.5343 366.212 59.2768 362.702L37.1666 359.978C37.0016 362.29 36.7954 364.602 36.6716 366.914C36.3004 372.611 35.8878 378.474 33.4128 383.635C31.0203 388.589 12.2101 393.709 11.2614 404.319C11.0964 406.342 12.5401 408.448 14.3964 409.232C21.0789 411.957 29.989 409.15 36.2179 405.517C41.3329 402.503 45.2517 397.672 50.6142 395.154C52.7593 394.122 55.0693 393.502 56.8018 391.933Z" fill="#161616"/>
<path d="M94.3397 403.081C94.3397 403.081 94.9584 404.196 95.2059 404.856C95.2884 406.755 95.6597 410.719 94.6697 412.536C89.1421 423.105 81.0983 436.152 72.642 438.257C65.0931 440.156 57.4618 438.298 55.4818 434.128C54.863 432.807 54.698 430.454 55.1105 428.183C55.7705 424.426 58.7406 421.371 62.2881 419.967C64.7219 419.018 67.3619 417.696 69.5894 415.095C73.8382 410.141 80.4383 407.499 85.6771 403.7C87.9871 402.008 94.6697 397.672 94.3397 403.081Z" fill="#C19259"/>
<path d="M93.2671 410.182C96.7734 405.517 94.4634 397.92 93.5146 391.479C93.5146 391.438 93.5146 391.397 93.5146 391.355C92.6071 385.286 88.0283 380.456 81.882 380.084L71.6519 379.465C71.6107 381.777 71.6107 384.089 71.5694 386.401C71.5694 392.14 71.5282 398.003 69.3832 403.328C67.6094 407.746 57.8743 419.761 55.2755 427.027C54.368 429.587 56.7193 432.601 59.2356 433.509C62.3706 434.582 66.6194 435.119 69.9194 434.665C80.4383 433.261 91.8646 412.04 93.2671 410.182Z" fill="#161616"/>
<path d="M34.5266 220.099C40.4254 225.012 101.6 221.296 108.695 223.319C113.315 245.779 96.8972 271.129 95.3297 309.195C99.3722 344.206 95.6184 401.058 95.6184 401.058C93.7209 408.035 69.4657 407.044 68.8469 401.677C68.4344 400.851 59.6068 317.494 59.6068 317.494C59.6068 317.494 68.5994 299.947 67.7331 292.474C64.6806 315.305 61.7518 372.363 60.3493 385.121C59.5243 392.718 34.4441 390.034 32.5878 384.048C31.8865 379.589 28.7103 305.768 28.7103 305.768C28.7103 305.768 30.4015 264.606 34.5266 220.099Z" fill="#202021"/>
<path d="M99.991 108.914C95.8247 97.1883 59.4418 82.449 41.6216 79.0222C37.2491 78.1965 32.629 79.3525 29.329 82.3252C23.6365 87.486 20.7077 94.4634 20.5427 113.786C20.4602 124.892 12.6226 273.069 9.36382 318.36C8.66255 328.187 14.1901 337.352 23.1827 341.316C33.4128 345.857 44.9217 350.316 44.9217 350.316C59.6068 355.642 110.51 363.074 114.181 339.045C112.737 309.154 109.19 203.708 108.489 195.161C105.601 160.15 109.025 134.346 99.991 108.914Z" fill="#28282A"/>
<path opacity="0.2" d="M65.7119 155.031L61.6693 330.54C61.9993 330.582 62.3294 330.623 62.6181 330.664L66.6606 155.155C66.6606 154.866 66.4544 154.659 66.2069 154.618C65.9181 154.577 65.7119 154.742 65.7119 155.031ZM21.0377 133.81C29.989 144.008 65.3819 156.889 86.5021 155.403C86.7908 155.361 86.9971 155.609 87.0383 155.857C87.0796 156.146 86.9146 156.352 86.6258 156.394C83.7383 156.6 80.6033 156.517 77.3032 156.228C71.0744 155.692 64.2681 154.329 57.5443 152.513L50.903 328.187C50.573 328.104 50.243 328.022 49.9542 327.939L56.5955 152.265C53.048 151.274 49.583 150.118 46.2004 148.879L41.7041 324.801C41.4154 324.678 41.0854 324.512 40.7554 324.389L45.2517 148.549C42.1579 147.393 39.1879 146.154 36.4241 144.875L31.8453 319.888C31.5153 319.723 31.2265 319.517 30.8965 319.31L35.4341 144.379C32.2166 142.852 29.2465 141.241 26.7715 139.631L22.7702 313.695C22.4402 313.448 22.1102 313.159 21.8215 312.87L25.8227 138.929C23.554 137.402 21.6565 135.833 20.3364 134.347C20.1302 134.14 19.8827 133.851 19.7177 133.645C19.6352 132.901 19.8414 132.282 19.7589 131.622C20.1302 132.365 20.4189 133.067 21.0377 133.81Z" fill="url(#paint1_linear_510_185)"/>
<path d="M40.8379 89.0963C41.1679 87.7752 41.4979 86.6191 41.8691 85.9173C44.6742 80.4674 74.2094 88.477 75.777 89.6331C82.1295 94.3397 81.057 97.5601 79.6132 100.368C73.5494 109.162 45.4992 125.387 45.4992 125.387C45.4992 125.387 42.0754 114.405 40.5491 106.189C39.4766 100.533 39.5178 94.7113 40.8379 89.0963Z" fill="#D6D6D4"/>
<mask id="mask0_510_185" style="mask-type:luminance" maskUnits="userSpaceOnUse" x="39" y="84" width="42" height="42">
<path d="M40.8379 89.0963C41.1679 87.7752 41.4979 86.6191 41.8691 85.9173C44.6742 80.4674 74.2094 88.477 75.777 89.6331C82.1295 94.3397 81.057 97.5601 79.6132 100.368C73.5494 109.162 45.4992 125.387 45.4992 125.387C45.4992 125.387 42.0754 114.405 40.5491 106.189C39.4766 100.533 39.5178 94.7113 40.8379 89.0963Z" fill="white"/>
</mask>
<g mask="url(#mask0_510_185)">
<path d="M45.3342 108.997C44.2617 106.478 43.1479 102.969 43.4367 100.161C43.6842 97.7666 43.4367 95.1243 45.9117 95.9913C48.3455 96.8583 52.4292 98.6336 54.1618 100.203C56.4718 102.267 56.0593 104.29 55.688 106.85C54.9455 111.432 47.3554 113.786 45.3342 108.997Z" fill="#5E6E9E"/>
<path d="M46.0354 107.428L50.6967 110.194L51.5217 188.804C51.563 190.372 51.1505 191.9 50.3255 193.221L43.6429 204.08C43.2304 204.74 42.2404 204.575 42.0341 203.832L37.0841 183.519C36.8366 182.528 36.7953 181.537 36.9191 180.505L46.0354 107.428Z" fill="#5E6E9E"/>
</g>
<path d="M45.2929 87.156C45.3754 86.867 45.4579 86.6193 45.5404 86.3303C45.8704 85.3394 48.3042 81.541 48.1804 80.5088C48.0979 79.4354 47.1492 80.2198 44.3442 84.0182C38.1978 92.3168 42.1991 105.405 42.1991 105.405C42.1991 105.405 49.3767 97.6428 49.5005 97.1886C49.748 96.1565 45.1692 92.2755 45.0042 91.1195C44.7979 89.7983 44.9629 88.4359 45.2929 87.156Z" fill="#EDEFE8"/>
<path d="M76.5195 70.022C75.0757 67.6687 70.7444 68.5357 68.1456 68.4944C64.0206 68.4118 59.8955 68.3705 55.8118 68.577C54.7805 68.6183 49.7067 68.4944 49.418 69.9807C48.8404 72.5818 45.4579 78.0729 45.1692 80.7152C43.4779 89.4267 44.3029 95.0004 49.5417 97.1886L53.2542 99.5006C65.2168 107.799 74.0444 95.4545 75.9832 94.0921C75.1582 84.3897 77.5507 74.8525 76.932 71.2193C76.8907 70.7239 76.7257 70.3523 76.5195 70.022Z" fill="#EFB289"/>
<path d="M49.5417 97.1884L55.193 111.474C65.0106 111.35 82.2533 104.001 79.3657 89.5917C76.602 84.5134 75.9832 85.2978 75.9832 84.9263C75.3644 95.2479 68.1869 97.7664 64.0206 98.4683C60.9268 99.005 52.4705 98.5921 49.5417 97.1884Z" fill="#EDEFE8"/>
<path d="M41.2091 81.2105C42.1991 85.3804 43.1892 90.9954 47.2729 91.8624C54.698 93.4726 70.5794 89.4265 72.5594 83.8941C75.9007 74.6047 79.1183 64.9849 74.952 53.0118C73.2607 48.1813 85.4708 38.1486 81.2633 34.6393C78.252 32.1208 68.2694 19.9 64.5981 19.611C43.0242 17.8769 37.5791 30.3042 37.0428 40.5845C36.7541 45.7866 36.3003 50.6997 36.6303 55.9018C37.6616 72.4165 39.7654 75.1414 41.2091 81.2105Z" fill="#F3BC97"/>
<path d="M47.9742 19.4457C46.3242 19.3632 45.3342 21.5513 42.1166 21.7578C39.9304 21.9229 39.1054 23.4505 37.0841 26.6709C36.0941 28.2811 36.3003 30.0151 35.6403 31.5014C35.1866 32.5749 34.4028 32.8226 33.9078 34.5566C33.4953 35.8778 33.6603 38.9743 33.5366 39.8413C33.1241 42.4423 32.0103 42.6901 32.6703 45.5801C33.5366 49.5023 34.0728 57.3881 36.8778 59.3698C36.1766 51.6905 36.8366 37.2815 45.4167 36.7861C48.923 36.5796 51.5217 37.5705 54.4918 39.4697C57.9981 41.6992 63.6494 43.8048 65.6706 47.727C66.9906 50.3281 65.8769 50.7822 65.5469 53.3007C65.1344 56.4385 65.9181 59.535 66.7431 62.5489C66.9494 63.2921 67.8981 63.4159 68.3106 62.7553C69.6307 60.691 72.3119 58.5854 75.0345 61.1864C77.8807 63.9114 76.7257 68.4116 75.777 72.499C74.9107 76.1322 74.0032 80.426 74.0032 80.426C77.3445 79.3938 81.0158 76.3799 83.1195 71.8797C83.7795 70.4759 83.7383 69.196 84.1921 67.751C84.4396 66.9253 84.9758 66.306 85.1821 65.439C85.3471 64.7784 85.2233 64.0765 85.3883 63.4572C85.6771 62.3425 86.5021 61.7645 86.9146 60.7736C87.1208 60.2369 86.9146 59.4524 87.2033 58.9157C87.5746 58.2551 88.3996 58.1725 88.7296 57.4706C89.1421 56.6036 88.6471 50.8648 88.9358 49.7914C89.6784 46.8187 90.3384 45.0021 89.3071 41.9056C88.5646 39.7174 88.6471 37.6944 88.1108 35.5062C87.5333 33.0703 85.7596 34.7218 85.0583 32.3271C84.4808 30.2628 83.7795 28.6113 82.212 27.125C79.0357 24.1111 75.5295 19.3632 71.4457 19.5696C68.1869 19.7347 65.2169 17.6704 61.7518 17.9181C57.1318 18.2484 52.6767 19.6934 47.9742 19.4457Z" fill="#493129"/>
<path d="M48.5929 286.322L49.3767 287.561L125.731 278.891V228.067L48.5929 235.54V286.322Z" fill="#542C2C"/>
<path d="M49.3768 287.561L126.474 280.129V229.306L49.3768 236.779V287.561Z" fill="#633333"/>
<path d="M94.6697 278.932C94.5872 278.519 94.216 278.271 93.8447 278.106C91.4522 277.198 88.0696 281.037 85.5534 279.097C82.9958 277.115 88.1109 274.803 92.4422 271.418C94.2572 269.973 96.1547 268.28 96.2785 265.927C96.361 263.986 96.4847 261.674 96.5672 260.353C96.7322 258 97.6397 257.752 99.1248 255.688C99.1248 255.688 105.477 253.004 111.5 257.917C111.954 258.289 111.995 260.89 112.077 261.468C112.449 263.862 111.954 266.752 112.119 269.188C112.49 274.514 112.614 282.152 108.736 284.712C104.652 287.437 92.1534 290.657 85.5534 284.093C88.1521 283.473 93.4322 282.73 94.4222 281.946C94.9997 281.533 94.8347 279.675 94.6697 278.932Z" fill="#F3BC97"/>
<path d="M113.356 265.638C113.645 264.316 113.562 262.665 113.067 261.179C111.995 258.041 109.974 256.678 107.292 256.224C101.27 255.192 94.3397 256.472 94.7934 262.624C95.2059 268.404 110.84 271.831 113.356 265.638Z" fill="#EDEFE8"/>
<path d="M91.5759 190.166C92.8547 175.798 72.2295 105.694 98.1347 105.859C106.302 105.9 114.882 111.432 118.141 123.158C125.071 148.012 128 194.171 128 194.171C127.629 199.62 124.081 259.28 124.081 259.28C123.38 268.858 85.8421 264.771 85.8421 255.894L91.5759 190.166Z" fill="url(#paint2_linear_510_185)"/>
<path d="M40.8791 33.7724C52.1405 40.2544 70.3319 40.2544 81.5933 33.7724C87.1621 30.5933 89.9671 26.3821 90.0084 22.1708V41.9058C89.9259 46.117 87.1208 50.287 81.5933 53.5073C70.3319 59.9893 52.1405 59.9893 40.8791 53.5073C35.1866 50.2044 32.3815 45.9106 32.464 41.5755V21.8818C32.3815 26.1756 35.1866 30.5107 40.8791 33.7724Z" fill="url(#paint3_linear_510_185)"/>
<path d="M15.5514 25.9277V28.1159L60.1019 54.0439V51.8557L15.5514 25.9277Z" fill="#28282A"/>
<path d="M60.1019 51.8557V54.0439L104.982 28.1159V25.9277L60.1019 51.8557Z" fill="#151517"/>
<path d="M15.5514 25.928L60.1019 51.8559L104.982 25.928L60.3906 0L15.5514 25.928Z" fill="#363638"/>
<path d="M82.9546 87.0732C83.4083 87.0732 83.7383 86.7016 83.7383 86.2888V39.6763C83.7383 38.7267 83.2021 37.8184 82.3771 37.3229L60.0194 24.4002C59.6481 24.1938 59.1531 24.3177 58.9056 24.6892C58.6993 25.0608 58.8231 25.5563 59.1943 25.804L81.5521 38.7267C81.8821 38.9331 82.1296 39.3047 82.1296 39.7175V86.2888C82.1708 86.7016 82.5421 87.0732 82.9546 87.0732Z" fill="#D9A32B"/>
<path d="M59.6481 27.0841C57.7344 27.0841 56.183 26.1969 56.183 25.1024C56.183 24.0079 57.7344 23.1206 59.6481 23.1206C61.5617 23.1206 63.1131 24.0079 63.1131 25.1024C63.1131 26.1969 61.5617 27.0841 59.6481 27.0841Z" fill="url(#paint4_radial_510_185)"/>
<path d="M85.3058 90.1702C85.5946 90.1702 85.8421 89.9637 85.8833 89.6335C86.1308 86.537 85.2233 82.7386 83.4908 79.7247C83.3258 79.4357 82.9958 79.3531 82.7071 79.5183C82.4183 79.6834 82.3358 80.0137 82.5008 80.3027C84.1096 83.1102 84.9758 86.6608 84.7283 89.5509C84.6871 89.8812 84.9346 90.1289 85.2646 90.1702C85.3058 90.1702 85.3058 90.1702 85.3058 90.1702Z" fill="#D9A32B"/>
<path d="M83.8621 89.5918C83.9033 89.5918 83.9033 89.5918 83.9446 89.5918C84.2746 89.5505 84.4808 89.2615 84.4396 88.9312C84.1096 86.454 83.8621 83.9768 83.6971 81.4996C83.6971 81.1693 83.4496 81.0042 83.0783 80.9629C82.7483 81.0042 82.5421 81.2519 82.5421 81.5822C82.7071 84.0594 82.9546 86.5779 83.2846 89.0963C83.3258 89.3853 83.5733 89.5918 83.8621 89.5918Z" fill="#D9A32B"/>
<path d="M84.5221 90.7481C84.8521 90.7481 85.0996 90.5004 85.0996 90.1701C85.1409 87.1974 84.9346 84.5138 84.5221 82.3256C84.4809 82.0366 84.1509 81.8302 83.8621 81.8715C83.5321 81.954 83.3671 82.243 83.4083 82.5321C83.8209 84.6377 83.9859 87.28 83.9446 90.1701C83.9446 90.5004 84.1921 90.7481 84.5221 90.7481Z" fill="#D9A32B"/>
<path d="M81.9233 88.6425C82.212 88.6425 82.4596 88.436 82.5008 88.147C82.6246 87.3213 82.5833 86.4956 82.5833 85.6698C82.5833 84.5551 82.5421 83.4817 82.8308 82.4908C82.9958 81.9128 83.2433 81.376 83.6146 80.8806C83.7796 80.6329 83.7383 80.2613 83.4908 80.0962C83.2433 79.931 82.8721 79.9723 82.7071 80.22C82.2946 80.8393 81.9645 81.4999 81.7583 82.1605C81.4283 83.3165 81.4695 84.5138 81.4695 85.6698C81.4695 86.4956 81.5108 87.2387 81.387 87.9819C81.3458 88.3122 81.552 88.6012 81.882 88.6425H81.9233Z" fill="#D9A32B"/>
<path d="M80.9333 90.5827C80.9745 90.5827 80.9745 90.5827 80.9333 90.5827C81.3045 90.5414 81.5108 90.2937 81.5108 89.9634C81.387 88.023 81.4696 86.3715 81.7996 84.8026C82.2533 82.6144 82.5008 81.541 83.3671 80.0546C83.5321 79.7656 83.4083 79.4354 83.1608 79.2702C82.9133 79.1051 82.5421 79.1876 82.3771 79.4766C81.387 81.2107 81.0983 82.4906 80.6858 84.5549C80.3558 86.2063 80.2733 87.9817 80.397 90.0047C80.397 90.335 80.6445 90.5827 80.9333 90.5827Z" fill="#D9A32B"/>
<path d="M82.4183 91.1194C82.7071 91.1194 82.9546 90.913 82.9958 90.5827C83.2021 88.3532 83.2846 85.587 83.2021 83.3575C83.2021 83.0272 82.8721 82.8208 82.6246 82.8208C82.2946 82.8208 82.0471 83.1098 82.0883 83.3988C82.1708 85.587 82.0883 88.3119 81.8821 90.5001C81.8408 90.8304 82.0883 91.0781 82.4183 91.1194C82.3771 91.1194 82.3771 91.1194 82.4183 91.1194Z" fill="#D9A32B"/>
<path d="M83.5321 91.1195C83.8621 91.1195 84.1096 90.8718 84.1096 90.5415C84.1508 88.89 84.1096 86.3716 83.9858 84.844C83.9446 84.5137 83.6558 84.266 83.3671 84.3485C83.0371 84.3898 82.8308 84.6788 82.8721 84.9678C83.0371 86.4541 83.0371 88.89 82.9958 90.5415C82.9546 90.8718 83.2021 91.1195 83.5321 91.1195Z" fill="#D9A32B"/>
<path d="M81.7171 90.5829C82.0058 90.5829 82.2946 90.3352 82.2946 90.0462C82.3358 88.8902 82.5008 87.1148 82.6246 85.9588C82.6658 85.6285 82.4183 85.3395 82.1296 85.3395C81.7996 85.2569 81.5521 85.546 81.5108 85.835C81.3871 86.991 81.2221 88.8076 81.1808 90.0049C81.1396 90.2939 81.3871 90.5416 81.7171 90.5829Z" fill="#D9A32B"/>
<path d="M86.0483 89.344C86.3784 89.344 86.6259 89.0963 86.6259 88.766C86.6259 82.862 83.6971 79.5178 83.5733 79.3939C83.3671 79.1462 82.9958 79.1462 82.7483 79.3527C82.5008 79.5591 82.5008 79.9307 82.7071 80.1784C82.7483 80.2197 85.4708 83.3575 85.4708 88.8073C85.4708 89.0963 85.7596 89.344 86.0483 89.344Z" fill="#D9A32B"/>
<path d="M80.1496 89.5094C80.4796 89.5094 80.7271 89.2617 80.7271 88.9314C80.7271 83.4403 83.2021 80.1373 83.2433 80.096C83.4496 79.8483 83.4083 79.4768 83.1196 79.2703C82.8721 79.0639 82.5008 79.1465 82.3358 79.3942C82.2121 79.5593 79.5721 83.0687 79.5721 88.9314C79.6133 89.2617 79.8608 89.5094 80.1496 89.5094Z" fill="#D9A32B"/>
</g>
<defs>
<linearGradient id="paint0_linear_510_185" x1="50.6515" y1="156.025" x2="2.4153" y2="143.431" gradientUnits="userSpaceOnUse">
<stop stop-color="#28282A"/>
<stop offset="1" stop-color="#363638"/>
</linearGradient>
<linearGradient id="paint1_linear_510_185" x1="53.2138" y1="149.23" x2="31.4638" y2="322.369" gradientUnits="userSpaceOnUse">
<stop stop-color="#343436"/>
<stop offset="0.1058" stop-color="#3A3A3C"/>
<stop offset="0.2516" stop-color="#4C4C4E"/>
<stop offset="0.4207" stop-color="#69696B"/>
<stop offset="0.6075" stop-color="#929293"/>
<stop offset="0.806" stop-color="#C5C5C6"/>
<stop offset="1" stop-color="white"/>
</linearGradient>
<linearGradient id="paint2_linear_510_185" x1="125.377" y1="185.81" x2="82.1658" y2="184.861" gradientUnits="userSpaceOnUse">
<stop stop-color="#28282A"/>
<stop offset="1" stop-color="#363638"/>
</linearGradient>
<linearGradient id="paint3_linear_510_185" x1="88.834" y1="40.1251" x2="31.9769" y2="40.1251" gradientUnits="userSpaceOnUse">
<stop stop-color="#151517"/>
<stop offset="1" stop-color="#28282A"/>
</linearGradient>
<radialGradient id="paint4_radial_510_185" cx="0" cy="0" r="1" gradientUnits="userSpaceOnUse" gradientTransform="translate(59.62 22.1842) rotate(180) scale(7.63999 7.64668)">
<stop stop-color="#4A4A4D"/>
<stop offset="1" stop-color="#28282A"/>
</radialGradient>
<clipPath id="clip0_510_185">
<rect width="128" height="439" fill="white" transform="matrix(-1 0 0 1 128 0)"/>
</clipPath>
</defs>
</svg>
