<svg width="181" height="439" viewBox="0 0 181 439" fill="none" xmlns="http://www.w3.org/2000/svg">
<g clip-path="url(#clip0_510_151)">
<path d="M107.485 56.287C107.485 56.287 119.243 54.6905 128.315 69.9597C142.188 93.2524 142.717 119.779 142.717 119.779C142.717 119.779 147.314 113.311 158.746 102.34C163.547 109.709 174.043 112.861 174.043 112.861C174.043 112.861 170.341 125.019 163.913 138.119C159.356 147.411 153.661 150.236 148.372 152.61C142.595 155.23 138.201 156.335 134.173 154.125C111.96 141.967 98.2908 65.252 98.2908 65.252L107.485 56.287Z" fill="#442626"/>
<path d="M44.0193 336.127C44.0193 336.127 43.2463 343.25 44.8737 348.653C47.274 356.595 52.6035 367.894 47.4774 369.326C38.8118 371.701 27.3392 367.279 22.2944 351.56C18.1447 338.624 10.9031 322.454 15.0935 316.437C18.2261 314.881 25.0202 312.998 25.0202 312.998L44.0193 336.127Z" fill="#563130"/>
<path d="M131.244 200.71C131.244 200.71 128.559 257.53 121.602 278.121C114.645 298.712 99.1451 303.215 85.7603 312.384C69.6497 323.437 50.4065 341.449 50.4065 341.449C50.4065 341.449 35.5571 339.361 30.5124 331.706C22.0503 318.975 23.8403 310.501 23.8403 310.501C23.8403 310.501 44.9143 293.185 55.8174 285.366C72.4976 273.413 80.7156 261.501 80.7156 261.501L78.478 194.201C78.5187 194.283 121.44 192.155 131.244 200.71Z" fill="#3A2020"/>
<path d="M134.621 408.748C134.621 408.748 139.422 413.988 145.809 420.292C151.749 426.105 153.579 427.783 159.072 433.187C162.286 436.339 159.641 439.246 153.498 439C148.128 438.795 135.923 436.175 129.129 433.678C124.287 431.918 115.419 427.006 110.862 424.099C106.346 421.193 105.451 417.222 105.451 417.222V407.52L134.621 408.748Z" fill="#563130"/>
<path d="M105.492 201.324C105.492 201.324 124.125 283.483 126.118 294.127C128.112 304.811 129.942 332.852 132.343 351.683C134.784 370.555 142.554 407.479 142.554 407.479C142.554 407.479 132.465 417.14 122.253 417.345C108.787 417.59 100.04 412.187 100.04 412.187C100.04 412.187 90.805 336.782 90.4389 327.08C90.0321 317.378 87.1842 302.519 87.1842 302.519C87.1842 302.519 62.2047 266.904 57.6482 248.687C53.0916 230.512 53.0103 217.781 53.0103 217.781L105.492 201.324Z" fill="#442626"/>
<path d="M111.147 61.3222C111.147 61.3222 130.227 76.837 132.505 98.7379C133.645 109.627 130.349 146.265 130.227 170.294C130.187 183.762 135.475 221.588 135.475 221.588C135.475 221.588 128.844 226.254 117.982 231.289C117.982 221.71 114.361 206.728 114.361 206.728C114.361 206.728 113.262 223.634 113.262 232.927C107.526 234.687 100.976 235.833 93.8156 235.792C76.1591 235.711 49.7963 223.512 49.7963 223.512C49.7963 223.512 46.4603 200.178 57.6889 160.552C64.3609 136.931 49.4708 96.6092 50.3252 90.1413C51.7491 79.3751 76.037 67.7083 76.037 67.7083C76.037 67.7083 93.3274 54.2402 111.147 61.3222Z" fill="#563130"/>
<path d="M102.847 59.2754C102.847 59.2754 113.262 67.5854 120.667 77.7376C125.06 83.7143 126.281 87.8898 126.281 87.8898L120.667 93.4162L128.641 97.2642C128.641 97.2642 133.116 127.516 127.054 137.709C120.992 147.861 113.669 173.324 113.669 173.324C113.669 173.324 105.248 147.084 101.545 140.534C97.8433 133.984 83.889 115.89 83.889 115.89L90.8865 105.288L79.4952 101.522C79.4952 101.522 63.4253 81.2581 65.0933 75.1177C68.2259 63.6556 79.129 61.3631 79.129 61.3631L102.847 59.2754Z" fill="#442626"/>
<path d="M113.222 80.1528C113.222 80.1528 117.737 93.9483 120.26 106.434C122.742 118.919 113.71 160.47 113.71 160.47C113.71 160.47 109.682 119.861 101.586 108.317C91.985 94.6442 79.5359 81.6265 79.5359 81.6265C79.5359 81.6265 104.963 76.9597 113.222 80.1528Z" fill="white"/>
<path d="M108.462 82.7322L109.804 93.4165C109.804 93.4165 116.069 99.516 117.412 106.966C118.755 114.417 117.331 141.394 117.331 141.394L113.669 160.552L112.082 147.739C112.082 147.739 109.194 131.16 106.753 120.926C106.387 116.423 106.021 112.738 105.655 111.633C103.946 106.598 103.62 96.2411 103.62 96.2411L96.989 88.2586L103.295 80.8491L108.462 82.7322Z" fill="#39E991"/>
<path d="M104.353 60.6263L105.492 77.492C105.492 77.492 103.295 80.8078 97.5993 85.6383C91.5374 83.7552 77.461 70.6147 77.461 70.6147L82.1396 44.4155L104.353 60.6263Z" fill="#FFAD97"/>
<path d="M79.5765 15.6374C85.8825 7.53203 104.027 0.736614 115.825 18.3392C128.193 36.8014 116.517 66.9305 105.655 65.1702C99.5927 64.1878 85.8825 58.6204 79.902 48.7548C73.1486 37.6611 74.6946 21.9416 79.5765 15.6374Z" fill="#FFC5B3"/>
<path d="M104.8 67.1763L103.295 80.849L114.361 85.3929C114.32 85.3929 115.581 70.7787 104.8 67.1763Z" fill="#F7F1E2"/>
<path d="M78.4373 65.2524C78.4373 65.2524 81.8547 71.6794 89.788 76.1824C93.8563 78.4748 103.254 80.8491 103.254 80.8491L99.1045 93.4166C99.1045 93.4166 85.9637 88.0539 79.4951 82.896C79.4951 82.896 70.9516 72.6619 78.4373 65.2524Z" fill="#F7F1E2"/>
<path d="M58.9907 282.705L54.8003 294.659L11.7167 270.22V299.735L-0.0407372 306.571V254.705C-0.0407372 252.863 0.447468 250.939 1.22045 249.138L58.9907 282.705Z" fill="#D6B199"/>
<path d="M5.85835 243.406C7.40432 242.506 8.78754 242.506 9.84531 243.243L62.2047 273.536L58.9907 282.705L1.26114 249.178C2.35958 246.681 3.98692 244.512 5.85835 243.406Z" fill="#DDB9A6"/>
<path d="M52.9697 337.192V285.325C52.9697 280.986 55.6141 275.91 58.8687 274.027C62.1234 272.144 64.7678 274.15 64.7678 278.489V330.355L52.9697 337.192Z" fill="#BF8466"/>
<path d="M-6.10352e-05 259.372L52.9696 289.992V337.191L-6.10352e-05 306.571V259.372Z" fill="#DEB298"/>
<path d="M19.4873 248.728C19.4873 248.728 17.3311 247.459 15.1749 246.027C12.4084 244.226 7.60778 247.582 10.3336 249.383C13.0187 251.144 14.3612 252.044 14.3612 252.044L19.4873 248.728Z" fill="#EDE6CF"/>
<path d="M47.1112 264.775C47.1112 264.775 44.5888 249.793 43.9379 247.418C43.287 245.044 36.5742 241.687 31.5295 238.986C26.4848 236.284 20.4636 234.605 17.4531 239.313C14.4425 244.021 14.3612 252.044 14.3612 252.044C14.3612 252.044 16.3546 250.939 17.331 250.284C18.9584 249.22 19.4872 248.769 19.4872 248.769C19.4872 248.769 20.3823 245.208 21.318 242.956C21.7655 241.892 22.6199 241.524 23.7997 241.892C27.5019 243.038 37.754 248.196 38.4457 251.225C39.3407 255.36 41.9851 268.091 41.9851 268.091L47.1112 264.775Z" fill="#BF8466"/>
<path d="M47.1113 264.775C47.1113 264.775 49.6336 266.044 51.7898 267.477C52.6849 268.091 49.3081 271.775 46.7858 270.547C43.8973 269.156 41.9852 268.091 41.9852 268.091L47.1113 264.775Z" fill="#EDE6CF"/>
<path d="M26.4849 301.454C26.4849 301.454 26.3221 308.659 22.0097 305.63C18.3075 303.01 19.3653 297.32 19.3653 297.32L26.4849 301.454Z" fill="#EDE6CF"/>
<path d="M52.9696 289.992C52.9696 289.992 48.3317 313.53 24.9795 301.904C1.62729 290.279 -6.10352e-05 259.413 -6.10352e-05 259.413L2.0748 260.6L50.9354 288.846C52.1153 289.501 52.9696 289.992 52.9696 289.992Z" fill="#D6B199"/>
<path d="M38.6491 231.248C38.6491 231.248 39.5442 235.219 40.1951 238.126C40.846 241.032 42.7581 243.652 41.0901 244.471C39.951 243.693 36.0861 241.442 36.0861 241.442C36.0861 241.442 31.733 245.576 33.8892 246.845C36.0454 248.114 36.5743 248.769 36.5743 248.769C36.5743 248.769 34.7435 251.635 31.4075 250.98C28.1121 250.325 25.427 248.769 23.759 246.968C22.0503 245.167 19.6093 238.903 22.1724 231.781C24.6947 224.658 38.6491 231.248 38.6491 231.248Z" fill="#FFC5B3"/>
<path d="M56.7125 84.3697C70.3414 89.5276 61.3504 120.312 56.5498 142.827C51.7492 165.342 46.9078 170.581 46.1349 174.757C45.3619 178.932 41.1715 231.863 41.1715 231.863C41.1715 231.863 32.7094 238.454 25.2643 237.062C15.9479 235.342 15.9479 228.711 15.9479 228.711C15.9479 228.711 16.6395 171.932 21.847 152.365C27.0137 132.756 37.388 77.0421 56.7125 84.3697Z" fill="#442626"/>
<path d="M154.027 106.106L160.292 77.8605C160.74 75.7727 162.57 73.644 164.32 73.0709L177.094 69.0592C177.867 68.8136 178.478 68.9773 178.884 69.3457L180.349 70.6966L179.291 72.5797L179.251 72.5387L173.148 100.048C172.701 102.136 170.87 104.264 169.12 104.837L156.915 108.685L156.061 110.118L154.474 108.644C153.946 108.194 153.783 107.294 154.027 106.106Z" fill="#DDD5BF"/>
<path d="M157.851 110.323L170.626 106.311C172.375 105.738 174.165 103.61 174.653 101.522L180.919 73.2758C181.366 71.1881 180.308 69.96 178.559 70.4921L165.784 74.5039C164.035 75.0361 162.245 77.2057 161.757 79.2934L155.492 107.539C155.044 109.627 156.102 110.855 157.851 110.323Z" fill="#EDE6CF"/>
<path d="M156.061 90.387C155.207 88.0946 155.41 86.1706 157.282 85.5975C158.136 82.4454 158.217 81.7904 161.431 83.0185C165.988 84.7787 171.684 88.0536 173.433 87.4396C176.077 86.4981 179.413 79.7026 179.413 79.7026C179.413 79.7026 181 85.4337 180.349 92.5566C179.983 96.5274 174.857 108.317 170.748 111.838C168.307 110.814 165.784 109.75 163.669 108.153C164.116 107.253 164.239 107.335 164.564 106.229C160.943 103.446 159.357 100.13 156.631 98.3286C155.207 97.428 155.044 97.3052 155.207 94.6034C153.905 92.3519 154.719 90.8373 156.061 90.387Z" fill="#FFC5B3"/>
<path d="M86.4519 5.7311C97.111 -7.24568 120.3 4.33927 122.213 15.0646C124.572 28.287 124.572 28.287 130.105 33.4859C112.611 45.1527 91.3746 28.246 91.2932 28.2051C92.3103 37.907 86.8588 41.3047 85.6789 40.8953C84.5805 36.6789 82.7904 35.6964 80.7563 37.4567C78.4373 39.4625 78.7628 47.1995 78.7628 47.1995C78.7628 47.1995 70.0159 39.5854 70.0566 26.8951C70.0566 18.9535 71.9687 6.87732 86.4519 5.7311Z" fill="#563130"/>
</g>
<defs>
<clipPath id="clip0_510_151">
<rect width="181" height="439" fill="white" transform="matrix(-1 0 0 1 181 0)"/>
</clipPath>
</defs>
</svg>
