<svg width="100" height="100" viewBox="0 0 100 100" fill="none" xmlns="http://www.w3.org/2000/svg">
<g clip-path="url(#clip0_305_9)">
<path d="M99.6235 44.3153C99.507 43.6415 99.348 42.9759 99.146 42.3225C98.5705 40.4203 97.5915 38.6652 96.2755 37.1778C95.978 36.8313 95.659 36.5036 95.3205 36.1967C94.9225 35.8349 94.488 35.5038 94.0965 35.2094C94.7365 34.6913 95.325 34.1122 95.853 33.4803L96.0735 33.2165C97.2065 31.8242 98.072 30.2338 98.626 28.5256C98.9865 27.4242 99.2405 26.2908 99.385 25.1409V24.9569C99.488 24.09 99.539 23.2177 99.538 22.3447V17.4391C99.538 11.669 98.1485 7.27859 95.3635 4.34139L95.2225 4.20649C92.456 1.43487 87.8715 0 81.634 0H29.1659C29.1169 6.69603 29.0863 13.668 29.0741 19.7202V20.7688C29.0741 21.1857 29.0741 21.6027 29.0741 21.9952V22.7739H44.2234V22.3263V16.0043C44.2234 15.2807 44.5233 15.2807 44.8355 15.2807H78.806C80.9855 15.2807 82.6135 15.7345 83.507 16.5501L83.648 16.6911C84.422 17.5512 84.8725 18.655 84.921 19.8122V22.1117C84.921 24.1168 84.462 25.5517 83.556 26.404C82.65 27.2563 81.0465 27.7101 78.782 27.7101H70.0655V43.0399H78.886H79.2225C81.236 43.0767 82.754 43.5305 83.605 44.3031L83.746 44.4441C84.5385 45.3361 84.988 46.4818 85.013 47.6756V51.5633C85.013 53.5623 84.554 55.003 83.648 55.8558C82.742 56.708 81.12 57.1739 78.8675 57.1799L44.2111 57.3945V49.7359H29.1169L28.866 72.5161H44.2234H82.889H83.25C85.93 72.604 88.6015 72.1884 91.1275 71.2894C93.1605 70.5462 94.9595 69.2769 96.3425 67.6106C97.691 65.9136 98.6485 63.9387 99.146 61.8281C99.7475 59.3583 100.034 56.8216 99.997 54.2799V48.3808C100.004 47.0167 99.8785 45.6552 99.6235 44.3153Z" fill="#242423" fill-opacity="0.25"/>
<path d="M49.686 84.6206H49.8449L32.3274 84.6633L15.2438 84.7066L15.1888 55.0654V50.073V47.0027C15.1826 46.9127 15.1826 46.8224 15.1888 46.7325C15.1888 45.6836 15.6035 44.6778 16.3417 43.9362C17.0799 43.1945 18.081 42.7779 19.125 42.7779H49.8572L49.8266 51.8538H64.9485V27.4569H49.9183H16.24C10.7391 27.549 6.74785 29.121 4.0585 32.265C1.36913 35.4091 0.0061122 39.5172 0 44.6754V52.0995C0 52.2468 0 52.4005 0 52.5538L0.08557 84.6327V99.9845H48.433C48.8486 99.9845 49.2642 99.9845 49.6554 99.9845C54.7715 99.7633 58.512 98.1915 61.0735 95.201C62.623 93.3819 63.7485 91.2377 64.368 88.9252C64.617 87.9649 64.7405 86.9759 64.7345 85.9839V77.5342H49.686V84.6206Z" fill="#242423" fill-opacity="0.25"/>
</g>
<defs>
<clipPath id="clip0_305_9">
<rect width="100" height="100" fill="white"/>
</clipPath>
</defs>
</svg>
