<svg width="170" height="48" viewBox="0 0 170 48" fill="none" xmlns="http://www.w3.org/2000/svg">
<g clip-path="url(#clip0_125_46)">
<path d="M57.7054 31.9884C55.773 31.9703 54.1743 31.7755 52.6248 31.2718C50.735 30.6574 49.0404 29.7044 47.5942 28.3329C45.6405 26.478 44.4098 24.212 43.7752 21.6106C43.4448 20.2077 43.3014 18.7673 43.3486 17.3269C43.3714 15.7527 43.6413 14.1919 44.1485 12.7013C45.0934 9.99766 46.6877 7.76898 49.0542 6.12063C50.5702 5.06928 52.2871 4.34139 54.0975 3.98246C54.893 3.81699 55.7011 3.71938 56.5131 3.6907C56.9535 3.67685 57.3951 3.65236 57.8355 3.66301C60.8963 3.74181 63.7075 4.58196 66.1721 6.44008C67.9454 7.77952 69.3414 9.55422 70.2247 11.5917C70.7909 12.8718 71.166 14.2279 71.338 15.6167C71.4702 16.6762 71.5059 17.7454 71.4447 18.8112C71.3103 21.2816 70.6587 23.6029 69.3448 25.7124C67.6715 28.401 65.2922 30.208 62.3061 31.2282C61.3467 31.5574 60.3515 31.7719 59.3414 31.867C58.6983 31.9277 58.0477 31.9639 57.7054 31.9884ZM67.9541 17.707C67.9645 16.7946 67.862 15.8844 67.6491 14.997C67.1628 12.9398 66.1998 11.1466 64.6406 9.69844C62.8842 8.06819 60.7918 7.19823 58.4114 6.99166C57.4409 6.91012 56.4641 6.94874 55.5031 7.10666C54.2561 7.30455 53.0574 7.73514 51.97 8.37593C49.9437 9.5696 48.5359 11.2989 47.6636 13.4701C46.6685 16.0756 46.597 18.9429 47.4609 21.5947C48.4208 24.3632 50.1858 26.4418 52.8594 27.7121C53.9826 28.239 55.1932 28.5555 56.431 28.646C57.5966 28.7411 58.7699 28.6614 59.9119 28.4096C63.2233 27.5907 65.6068 25.641 67.0082 22.5328C67.6854 21.0324 67.968 19.4437 67.9541 17.707Z" fill="#0E52B7"/>
<path d="M34.753 20.1104C34.7935 20.1839 34.8244 20.2446 34.8596 20.3021C36.5958 23.0919 38.3324 25.8814 40.0693 28.6705C40.2618 28.9541 40.4033 29.2691 40.4874 29.6012C40.6793 30.4861 40.1152 31.5807 38.9282 31.6158C38.6837 31.6341 38.4379 31.6136 38.1998 31.5551C37.7894 31.4429 37.4372 31.1791 37.2144 30.8172C36.8262 30.2028 36.4433 29.5842 36.0594 28.9676L31.2315 21.2029C31.2091 21.1667 31.1835 21.1337 31.1643 21.0964C31.1425 21.049 31.1062 21.0097 31.0606 20.9842C31.0149 20.9588 30.9624 20.9485 30.9105 20.9548C29.3343 20.9612 27.758 20.9612 26.1829 20.9633H25.8864C25.8778 21.0836 25.865 21.1848 25.865 21.2828C25.865 23.1143 25.865 24.9458 25.865 26.7773C25.865 27.7356 25.865 28.694 25.865 29.6523C25.8714 29.8408 25.8568 30.0293 25.8213 30.2145C25.6496 30.9599 25.1953 31.4497 24.4349 31.586C23.3546 31.7788 22.5505 31.2219 22.2817 30.3295C22.2388 30.1748 22.2166 30.0151 22.2156 29.8546C22.2081 29.3584 22.2156 28.8622 22.2156 28.3639C22.2156 20.849 22.2156 13.3342 22.2156 5.81937C22.2027 5.50288 22.2774 5.18897 22.4315 4.91209C22.5856 4.63521 22.8131 4.40607 23.089 4.24982C23.3173 4.11032 23.5777 4.03184 23.8452 4.02194C23.9433 4.02194 24.0403 4.01343 24.1384 4.01343H30.485C31.8863 4.01343 33.2439 4.24343 34.5258 4.82376C36.6918 5.80446 38.2158 7.38892 39.0103 9.6421C39.2847 10.4506 39.437 11.2954 39.4625 12.1487C39.5066 12.9443 39.4514 13.7423 39.2983 14.5243C39.0133 15.9233 38.3412 17.2144 37.3584 18.2512C36.6621 18.983 35.8372 19.5811 34.9247 20.0156C34.8767 20.0422 34.8212 20.0731 34.753 20.1104ZM25.9013 17.6081H26.1743C27.5394 17.6081 28.9055 17.6081 30.2706 17.6081C30.6407 17.6081 31.0107 17.5793 31.3797 17.5431C32.0775 17.4736 32.7554 17.2704 33.3762 16.9447C34.5173 16.3484 35.3235 15.4539 35.7352 14.2294C35.9993 13.399 36.0481 12.5153 35.877 11.661C35.6019 10.1213 34.7892 8.94357 33.4423 8.14175C32.5283 7.59656 31.5226 7.38786 30.47 7.37827C29.0207 7.36443 27.5703 7.37827 26.121 7.37827C26.0463 7.37827 25.9728 7.38786 25.9077 7.39212C25.8544 7.5774 25.8469 17.3472 25.9002 17.6081H25.9013Z" fill="#0E52B7"/>
<path d="M3.76893 22.0409V29.7683C3.77807 30.0136 3.73733 30.2582 3.64917 30.4874C3.561 30.7165 3.42724 30.9254 3.25596 31.1015C3.10148 31.2643 2.91522 31.3937 2.70868 31.4818C2.50214 31.5699 2.27971 31.6148 2.05512 31.6137C1.77358 31.6137 1.49416 31.6137 1.23074 31.4987C0.516212 31.1792 0.144016 30.6245 0.105624 29.8461C0.105624 29.7907 0.105624 29.7343 0.105624 29.6778C0.105624 21.7641 0.105624 13.8488 0.105624 5.93222C0.104553 5.71703 0.12962 5.5025 0.180276 5.29333C0.272999 4.94662 0.472475 4.63777 0.750527 4.4104C1.02858 4.18303 1.37115 4.04863 1.72985 4.02619C1.8365 4.0198 1.94314 4.0166 2.04979 4.0166H9.0682C10.3618 4.0166 11.6203 4.21466 12.8136 4.72684C15.3508 5.81509 16.9728 7.70836 17.7322 10.3491C17.9661 11.1992 18.0862 12.0764 18.0894 12.9579C18.1086 14.0845 17.9828 15.1941 17.6149 16.2589C16.7126 18.8486 14.9487 20.5938 12.3678 21.5096C11.3473 21.8618 10.2738 22.0369 9.19404 22.0271C7.49836 22.0271 5.80375 22.0271 4.10807 22.0271C4.00462 22.0271 3.90011 22.0356 3.76893 22.0409ZM3.78386 18.6526C3.88411 18.6526 3.97263 18.6654 4.06115 18.6654C5.72128 18.6654 7.38176 18.6654 9.04261 18.6654C9.53951 18.6728 10.0353 18.6158 10.5175 18.4961C12.5278 17.9637 13.8289 16.6997 14.3888 14.6989C14.648 13.7747 14.6373 12.8323 14.4699 11.8931C14.2733 10.7039 13.6861 9.61381 12.8008 8.79447C11.7514 7.8159 10.4834 7.38465 9.0682 7.374C7.38639 7.36229 5.70564 7.374 4.02382 7.374C3.94917 7.374 3.87451 7.38358 3.78493 7.3889L3.78386 18.6526Z" fill="#0E52B7"/>
<path d="M77.3903 20.3287C77.4425 20.2744 77.4969 20.2222 77.5449 20.1647C78.413 19.2373 79.455 18.5984 80.6995 18.3172C81.3223 18.1821 81.9618 18.1412 82.5968 18.1959C83.9072 18.2901 85.146 18.8289 86.1076 19.7228C87.1321 20.6498 87.8297 21.8822 88.0965 23.2367C88.3536 24.4741 88.361 25.7167 87.9718 26.9253C87.1922 29.3478 85.5594 30.9046 83.066 31.4625C81.5932 31.7926 80.1215 31.6755 78.7362 31.0259C76.7557 30.0953 75.5506 28.5289 75.0579 26.411C74.9374 25.8646 74.8798 25.3062 74.8862 24.7467C74.8862 21.1468 74.8862 17.547 74.8862 13.9472C74.884 13.8005 74.8958 13.654 74.9214 13.5096C74.968 13.2639 75.0946 13.0405 75.2815 12.8742C75.4684 12.7078 75.7051 12.6077 75.9548 12.5895C76.3377 12.5587 76.695 12.6236 76.985 12.9026C77.1009 13.015 77.1919 13.1504 77.2522 13.3C77.3124 13.4497 77.3406 13.6103 77.3348 13.7715C77.3348 14.618 77.3348 15.4635 77.3348 16.309V20.3074L77.3903 20.3287ZM77.2378 25.0427C77.2477 25.4752 77.3133 25.9047 77.4329 26.3205C78.0579 28.4374 79.9711 29.8046 82.3707 29.3957C83.7955 29.1529 84.7969 28.3074 85.4346 27.0265C85.8847 26.1214 85.9849 25.1588 85.8612 24.1674C85.7415 23.1141 85.2396 22.1409 84.4503 21.4319C83.483 20.5502 82.3344 20.218 81.0376 20.367C80.4786 20.4237 79.9372 20.5948 79.4473 20.8696C78.9574 21.1444 78.5295 21.5171 78.1901 21.9643C77.5183 22.8097 77.241 23.7979 77.2378 25.0427Z" fill="#0E52B7"/>
<path d="M102.185 29.4594C102.124 29.5244 102.062 29.5883 102.001 29.6543C101.199 30.5528 100.139 31.1827 98.9648 31.4581C98.2607 31.6158 97.5354 31.6561 96.8181 31.5774C95.3847 31.4336 94.1807 30.8192 93.1857 29.7959C92.2667 28.852 91.6581 27.6507 91.4409 26.3523C91.2394 25.2772 91.2692 24.1715 91.5284 23.1088C91.8322 21.9091 92.4709 20.8202 93.3704 19.9689C94.2698 19.1176 95.393 18.5388 96.609 18.3001C98.0893 18.0221 99.5439 18.1276 100.911 18.7941C102.865 19.745 104.072 21.3018 104.537 23.4219C104.637 23.9012 104.685 24.39 104.679 24.8796C104.679 26.682 104.679 28.4851 104.679 30.2889C104.679 30.6574 104.581 30.98 104.301 31.2292C103.898 31.5891 103.427 31.6317 102.948 31.4421C102.469 31.2526 102.252 30.8778 102.239 30.3773C102.233 30.1473 102.239 29.9162 102.239 29.6862C102.239 29.6181 102.233 29.551 102.229 29.4839L102.185 29.4594ZM98.0146 29.4733C98.293 29.4456 98.5745 29.4413 98.8475 29.3881C100.143 29.1357 101.11 28.418 101.747 27.2723C102.374 26.1446 102.484 24.9297 102.199 23.6955C101.698 21.5201 99.7615 19.9995 97.315 20.3797C95.8326 20.6107 94.7694 21.4573 94.1156 22.7979C93.6197 23.8212 93.5376 24.9073 93.7776 26.0105C94.2298 28.0752 96.0107 29.5063 98.0114 29.4765L98.0146 29.4733Z" fill="#0E52B7"/>
<path d="M136.385 25.739C136.431 25.952 136.455 26.1128 136.506 26.2714C137.039 27.9879 138.203 29.0517 139.951 29.4457C141.395 29.7704 142.724 29.4457 143.94 28.6204C144.113 28.5011 144.309 28.4188 144.516 28.3787C145.192 28.2445 145.872 28.7983 145.863 29.4712C145.858 29.5966 145.825 29.7194 145.766 29.8301C145.707 29.9409 145.623 30.0366 145.521 30.1101C145.128 30.4258 144.695 30.6889 144.233 30.8928C143.521 31.2213 142.765 31.4444 141.988 31.5551C141.405 31.6307 140.814 31.6372 140.229 31.5743C139.46 31.5133 138.708 31.321 138.005 31.0056C135.932 30.0473 134.664 28.4501 134.272 26.1905C134.023 24.7349 134.136 23.2984 134.742 21.9386C135.644 19.9155 137.205 18.6994 139.388 18.2842C139.918 18.1851 140.458 18.1469 140.996 18.1702C142.262 18.2224 143.438 18.5482 144.456 19.3415C145.344 20.0365 146.005 20.9805 146.352 22.0526C146.635 22.8958 146.771 23.7809 146.756 24.6699C146.756 25.3227 146.322 25.7348 145.668 25.7348H136.38L136.385 25.739ZM136.452 23.8223H144.53C144.535 23.7564 144.535 23.6902 144.53 23.6243C144.446 23.1132 144.28 22.6193 144.036 22.1623C143.533 21.2497 142.802 20.6193 141.775 20.3606C141.187 20.225 140.579 20.2001 139.982 20.2871C139.169 20.3759 138.403 20.7144 137.791 21.2561C137.064 21.895 136.662 22.7202 136.454 23.6498C136.449 23.705 136.448 23.7606 136.452 23.8159V23.8223Z" fill="#0E52B7"/>
<path d="M159.79 19.7249C159.832 19.6996 159.872 19.6715 159.91 19.6408C160.732 18.8788 161.768 18.3862 162.879 18.2289C164.266 18.0319 165.603 18.1724 166.856 18.8337C168.128 19.5035 168.951 20.5534 169.407 21.8993C169.646 22.6317 169.764 23.3982 169.756 24.1685C169.756 26.2023 169.756 28.2372 169.756 30.272C169.772 30.5961 169.663 30.9139 169.453 31.1612C169.09 31.569 168.499 31.6244 168.06 31.4646C167.834 31.3817 167.641 31.2297 167.506 31.0302C167.372 30.8308 167.305 30.5941 167.314 30.354C167.314 28.5289 167.314 26.7049 167.314 24.8798C167.314 24.4815 167.314 24.0822 167.274 23.6861C167.186 22.6862 166.81 21.8205 166.018 21.1689C165.534 20.7828 164.958 20.5295 164.346 20.4341C163.614 20.2902 162.859 20.3267 162.145 20.5406C161.421 20.7531 160.782 21.1887 160.32 21.7854C159.955 22.2529 159.76 22.8297 159.766 23.422C159.766 25.6454 159.766 27.8687 159.766 30.0921C159.767 30.2176 159.76 30.3431 159.747 30.468C159.672 31.1612 159.165 31.5754 158.467 31.5477C158.152 31.5404 157.853 31.4086 157.636 31.1812C157.418 30.9537 157.3 30.6493 157.307 30.3349C157.314 29.696 157.307 29.0571 157.307 28.4256C157.307 25.4903 157.307 22.5538 157.307 19.6163C157.303 19.4562 157.317 19.2962 157.35 19.1393C157.402 18.9049 157.53 18.6943 157.714 18.5402C157.899 18.3861 158.129 18.2972 158.369 18.2874C158.571 18.2715 158.774 18.2891 158.97 18.3396C159.411 18.4738 159.663 18.7932 159.73 19.25C159.76 19.3991 159.77 19.5493 159.79 19.7249Z" fill="#0E52B7"/>
<path d="M113.242 31.6423C111.913 31.6429 110.601 31.3593 109.392 30.8107C108.841 30.5676 108.336 30.2323 107.899 29.8193C107.781 29.7137 107.688 29.5827 107.629 29.4363C107.569 29.2898 107.544 29.1317 107.554 28.9739C107.567 28.6918 107.687 28.4253 107.89 28.2285C108.137 27.991 108.414 27.8026 108.768 27.7781C108.94 27.7613 109.113 27.7836 109.275 27.8431C109.437 27.9027 109.584 27.998 109.704 28.122C110.409 28.8386 111.28 29.2209 112.251 29.3998C112.805 29.4876 113.368 29.4973 113.925 29.4286C114.259 29.3976 114.588 29.3235 114.903 29.2081C115.18 29.1071 115.434 28.9513 115.65 28.7503C115.903 28.5238 116.06 28.2088 116.088 27.8701C116.116 27.5315 116.012 27.1951 115.799 26.9305C115.58 26.6558 115.3 26.4368 114.98 26.2916C114.42 26.0353 113.829 25.8524 113.222 25.7475C112.369 25.5803 111.525 25.4014 110.715 25.0766C110.067 24.8168 109.461 24.4888 108.971 23.9777C108.668 23.6662 108.435 23.2935 108.288 22.8847C108.141 22.4759 108.083 22.0404 108.118 21.6074C108.181 20.4201 108.811 19.6034 109.789 19.0071C110.395 18.6541 111.061 18.4152 111.753 18.3022C112.285 18.1982 112.827 18.1546 113.368 18.1723C114.542 18.2202 115.671 18.4555 116.695 19.0689C117.181 19.3531 117.608 19.7271 117.954 20.171C118.053 20.2855 118.124 20.4207 118.163 20.5665C118.202 20.7123 118.208 20.865 118.179 21.0132C118.066 21.5531 117.526 21.8427 117.016 21.782C116.595 21.7367 116.201 21.551 115.899 21.255C115.357 20.7498 114.664 20.4366 113.926 20.3637C113.35 20.2828 112.766 20.2828 112.19 20.3637C111.808 20.4159 111.438 20.5387 111.101 20.7257C110.916 20.829 110.76 20.9776 110.648 21.1576C110.536 21.3375 110.471 21.543 110.461 21.7547C110.45 21.9663 110.493 22.1772 110.587 22.3675C110.68 22.5578 110.82 22.7213 110.995 22.8426C111.338 23.0855 111.725 23.2608 112.135 23.3591C112.774 23.5273 113.424 23.6785 114.07 23.8233C114.761 23.9715 115.437 24.1829 116.089 24.4548C116.627 24.6781 117.121 24.9934 117.55 25.3865C118.076 25.8811 118.397 26.5548 118.45 27.2744C118.543 28.1023 118.345 28.9367 117.89 29.6351C117.534 30.1665 117.053 30.6021 116.488 30.9033C115.887 31.2377 115.226 31.4491 114.543 31.5252C114.106 31.5795 113.673 31.6061 113.242 31.6423Z" fill="#0E52B7"/>
<path d="M126.505 31.6179C125.072 31.6179 123.759 31.3612 122.518 30.766C122.025 30.5309 121.567 30.2285 121.157 29.8673C121.031 29.758 120.931 29.6223 120.864 29.47C120.797 29.3177 120.764 29.1524 120.768 28.986C120.772 28.8196 120.813 28.6562 120.888 28.5074C120.963 28.3586 121.07 28.2281 121.201 28.1252C121.431 27.9463 121.672 27.7951 121.971 27.7717C122.142 27.7544 122.316 27.7761 122.478 27.8351C122.64 27.8941 122.787 27.9889 122.907 28.1124C123.595 28.8013 124.489 29.2479 125.454 29.3849C126.307 29.5408 127.185 29.4893 128.013 29.2348C128.281 29.1499 128.53 29.0163 128.749 28.8408C129.463 28.2679 129.496 27.3277 128.825 26.7048C128.498 26.4179 128.114 26.2025 127.699 26.0722C127.148 25.8884 126.585 25.746 126.014 25.6463C125.091 25.4674 124.188 25.2204 123.347 24.7945C122.918 24.5862 122.528 24.3052 122.195 23.9639C121.897 23.661 121.667 23.2991 121.519 22.9015C121.37 22.504 121.307 22.0798 121.334 21.6564C121.364 20.9313 121.581 20.2881 122.08 19.7397C122.411 19.3768 122.804 19.076 123.241 18.8517C123.879 18.5303 124.567 18.3199 125.276 18.2298C125.712 18.166 126.154 18.1414 126.595 18.1563C127.726 18.2021 128.814 18.4193 129.812 18.9858C130.328 19.2723 130.783 19.656 131.152 20.1156C131.312 20.3027 131.406 20.5367 131.422 20.7822C131.427 21.0049 131.354 21.2224 131.216 21.3973C131.077 21.5722 130.883 21.6936 130.664 21.7405C130.117 21.847 129.641 21.6873 129.228 21.3306C128.981 21.1027 128.709 20.903 128.417 20.7353C127.949 20.4966 127.436 20.356 126.911 20.3222C126.416 20.2707 125.916 20.2822 125.424 20.3563C125.05 20.4127 124.688 20.5307 124.352 20.7055C124.164 20.8021 124.004 20.9448 123.887 21.1201C123.77 21.2955 123.699 21.4977 123.682 21.7079C123.664 21.918 123.701 22.1291 123.788 22.3213C123.875 22.5134 124.009 22.6804 124.178 22.8064C124.496 23.0362 124.852 23.2088 125.23 23.3165C125.902 23.539 126.597 23.6657 127.286 23.8191C128.127 24.0065 128.952 24.245 129.721 24.6464C130.051 24.8149 130.361 25.0215 130.644 25.2619C130.952 25.5225 131.203 25.844 131.381 26.2061C131.559 26.5682 131.66 26.9631 131.678 27.366C131.748 28.4489 131.433 29.3966 130.672 30.1771C130.137 30.7088 129.477 31.097 128.752 31.3059C128.024 31.5259 127.266 31.6312 126.505 31.6179Z" fill="#0E52B7"/>
<path d="M150.208 24.8882C150.208 23.1192 150.208 21.3509 150.208 19.5833C150.205 19.4367 150.218 19.2902 150.248 19.1467C150.3 18.9054 150.433 18.689 150.624 18.5326C150.816 18.3762 151.054 18.289 151.302 18.2852C151.49 18.273 151.679 18.2907 151.861 18.3374C152.305 18.4684 152.557 18.7846 152.63 19.2393C152.643 19.3293 152.648 19.4201 152.646 19.5109C152.646 23.0972 152.646 26.6821 152.646 30.2656C152.646 30.6404 152.553 30.9737 152.261 31.2239C151.86 31.5689 151.393 31.6126 150.924 31.4231C150.711 31.3449 150.527 31.2022 150.399 31.0149C150.271 30.8277 150.205 30.6052 150.21 30.3785C150.197 29.911 150.21 29.4425 150.21 28.974L150.208 24.8882Z" fill="#0E52B7"/>
<path d="M153.013 14.5114C153.044 15.2301 152.417 16.0916 151.414 16.0809C150.993 16.0753 150.592 15.9046 150.296 15.6056C150.001 15.3067 149.835 14.9036 149.835 14.4837C149.847 14.0618 150.022 13.661 150.325 13.3662C150.627 13.0713 151.033 12.9058 151.455 12.9045C152.284 12.912 153.058 13.6616 153.013 14.5114Z" fill="#0E52B7"/>
<path d="M103.826 41.2598C92.7015 49.4589 77.9875 49.9849 65.9951 41.2789C60.6937 45.1943 54.5348 47.6221 47.1634 47.62C39.8496 47.62 33.7452 45.2124 28.3776 41.2757C27.1565 42.0488 26.025 42.8336 24.8092 43.5225C18.1886 47.2739 10.9452 48.5591 3.02241 46.93C2.05619 46.7319 0.775362 46.3635 0.396766 45.765C-0.0842098 45.0037 -0.117271 43.8366 0.244261 43.0103C0.715639 41.9359 2.05725 41.5398 3.51405 41.8614C12.4788 43.8356 19.6774 41.4866 25.6965 36.1028C27.469 34.5152 29.2372 34.5471 31.0385 36.1656C34.7338 39.4858 39.1063 41.8635 44.7074 42.4311C51.5861 43.1275 57.265 41.0809 62.0908 37.2571C62.464 36.9621 62.8021 36.6395 63.1572 36.3318C65.2443 34.5418 66.8984 34.4981 68.9268 36.3158C71.8297 38.9171 75.2051 40.9542 79.4144 41.9072C87.3852 43.7174 94.0901 41.7581 99.8479 37.2358C100.268 36.9046 100.639 36.5341 101.047 36.1923C102.966 34.5801 104.689 34.5407 106.552 36.221C109.444 38.8288 112.797 40.8935 116.995 41.8731C124.944 43.728 131.672 41.8199 137.471 37.3295C137.8 37.075 138.094 36.7907 138.405 36.5202C140.795 34.4428 142.252 34.4971 144.743 36.5639C146.054 37.6543 147.449 38.7201 148.991 39.5837C153.976 42.3768 159.442 43.2638 165.414 42.0456C166.416 41.8412 167.86 41.7549 168.552 42.184C169.385 42.7005 170.133 43.8877 169.987 44.6693C169.845 45.4307 168.67 46.4274 167.698 46.6701C159.576 48.6933 152.065 47.4421 145.161 43.5821C143.932 42.8953 142.795 42.1031 141.472 41.2704C136.17 45.1932 130.011 47.6232 122.637 47.6168C115.321 47.6146 109.209 45.2188 103.826 41.2598Z" fill="#0E52B7"/>
<path d="M168.173 7.21196C167.54 6.78603 166.219 6.86908 165.303 7.07353C159.841 8.29169 154.844 7.40469 150.284 4.61165C148.874 3.74808 147.598 2.68219 146.399 1.5918C144.038 -0.555949 142.693 -0.530393 140.359 1.78454C140.077 2.06459 139.78 2.33505 139.47 2.59061C134.228 6.91274 128.166 8.72295 121.02 6.89996C117.181 5.92139 114.115 3.85669 111.47 1.24893C109.764 -0.431361 108.187 -0.391966 106.435 1.21912C106.063 1.56199 105.724 1.93255 105.339 2.26265C100.073 6.78603 93.9407 8.73998 86.6514 6.9351C82.8015 5.97676 79.714 3.94507 77.0596 1.3437C77.0511 1.33412 77.0415 1.3256 77.033 1.31708C76.1051 0.415177 74.5438 1.08602 74.5438 2.38191V6.43464H74.5524C85.4303 14.9532 98.7131 14.4411 108.814 6.41759C108.863 6.38153 108.922 6.36208 108.983 6.36208C109.044 6.36208 109.103 6.38153 109.152 6.41759C114.038 10.2914 119.572 12.6372 126.183 12.6436C132.852 12.6436 138.435 10.2733 143.247 6.42611C143.295 6.39152 143.352 6.37202 143.411 6.37012C143.47 6.36822 143.528 6.38402 143.578 6.41547C144.716 7.20451 145.711 7.95414 146.778 8.60901C153.091 12.4679 159.96 13.7202 167.388 11.697C168.278 11.4542 169.353 10.4565 169.483 9.6962C169.619 8.91355 168.931 7.7284 168.173 7.21196Z" fill="#89CFF0"/>
</g>
<defs>
<clipPath id="clip0_125_46">
<rect width="170" height="47.6328" fill="white"/>
</clipPath>
</defs>
</svg>
