<svg width="324" height="271" viewBox="0 0 324 271" fill="none" xmlns="http://www.w3.org/2000/svg">
<path d="M6.56862 249.263L6.50931 192.624L27.1268 192.603C33.4463 192.596 38.3056 193.75 41.7048 196.063C45.104 198.377 46.8058 201.64 46.8102 205.853C46.8134 208.908 45.7761 211.581 43.6983 213.874C41.6469 216.167 39.0154 217.763 35.8039 218.662L35.8041 218.82C39.8333 219.316 43.0473 220.8 45.446 223.273C47.8711 225.745 49.0855 228.759 49.0892 232.314C49.0947 237.501 47.2426 241.624 43.5331 244.682C39.8236 247.714 34.7563 249.234 28.3315 249.24L6.56862 249.263ZM19.2767 202.011L19.2908 215.44L24.8993 215.434C27.5325 215.432 29.5988 214.798 31.0984 213.532C32.6243 212.24 33.386 210.475 33.3837 208.237C33.3793 204.077 30.27 202 24.0558 202.006L19.2767 202.011ZM19.3007 224.92L19.3163 239.85L26.2283 239.842C29.1774 239.839 31.4807 239.152 33.1381 237.781C34.8219 236.41 35.6626 234.54 35.6601 232.17C35.6577 229.905 34.8264 228.129 33.1662 226.84C31.5323 225.552 29.2408 224.909 26.2917 224.912L19.3007 224.92ZM71.2253 249.195L58.4677 249.209L58.4084 192.57L71.166 192.557L71.2253 249.195ZM148.679 249.114L136.079 249.128L136.044 215.239C136.04 211.579 136.194 207.537 136.505 203.113L136.189 203.113C135.535 206.59 134.945 209.092 134.42 210.62L121.189 249.143L110.762 249.154L97.2139 211.054C96.8442 210.027 96.249 207.395 95.4283 203.156L95.0728 203.156C95.421 208.738 95.5973 213.636 95.6017 217.849L95.6345 249.17L84.1408 249.182L84.0815 192.543L102.764 192.524L114.371 226.084C115.296 228.769 115.97 231.467 116.394 234.179L116.631 234.179C117.339 231.044 118.086 228.318 118.874 226L130.412 192.495L148.62 192.476L148.679 249.114Z" fill="#86BD45"/>
<path d="M188.698 247.704C186.061 249.236 182.252 250.004 177.271 250.009C171.452 250.015 166.74 248.257 163.136 244.735C159.532 241.212 157.728 236.665 157.722 231.092C157.715 224.656 159.633 219.587 163.476 215.884C167.343 212.157 172.507 210.29 178.968 210.283C183.431 210.278 186.662 210.867 188.66 212.048L188.671 221.961C186.228 220.139 183.502 219.229 180.494 219.232C177.14 219.236 174.478 220.225 172.507 222.2C170.561 224.15 169.59 226.851 169.594 230.303C169.597 233.656 170.537 236.294 172.413 238.215C174.289 240.112 176.867 241.059 180.147 241.055C183.056 241.052 185.903 240.137 188.688 238.309L188.698 247.704ZM221.071 221.705C219.665 220.942 218.025 220.562 216.151 220.563C213.611 220.566 211.627 221.505 210.199 223.381C208.77 225.232 208.058 227.76 208.061 230.965L208.08 249.052L196.392 249.064L196.353 211.189L208.041 211.177L208.048 218.205L208.196 218.205C210.04 213.074 213.366 210.506 218.174 210.501C219.407 210.5 220.369 210.646 221.06 210.942L221.071 221.705ZM258.087 249L247.028 249.011L247.022 243.574L246.874 243.574C244.339 247.818 240.581 249.943 235.6 249.948C231.926 249.952 229.027 248.919 226.905 246.85C224.806 244.756 223.756 241.971 223.752 238.494C223.744 231.146 228.092 226.9 236.795 225.757L247.076 224.378C247.072 220.235 244.826 218.166 240.338 218.171C235.825 218.176 231.536 219.524 227.471 222.216L227.461 213.413C229.088 212.573 231.306 211.831 234.117 211.187C236.952 210.543 239.528 210.22 241.846 210.217C252.646 210.206 258.052 215.588 258.063 226.364L258.087 249ZM247.086 233.625L247.083 231.072L240.204 231.967C236.408 232.465 234.511 234.18 234.514 237.115C234.515 238.446 234.972 239.543 235.886 240.405C236.824 241.242 238.082 241.66 239.66 241.659C241.854 241.656 243.641 240.902 245.021 239.397C246.4 237.867 247.088 235.942 247.086 233.625ZM291.992 201.842C290.487 201.252 289.045 200.958 287.664 200.959C283.916 200.963 282.044 202.999 282.048 207.068L282.052 211.1L290.707 211.091L290.716 219.709L282.061 219.718L282.092 248.975L270.441 248.987L270.41 219.73L264.048 219.737L264.039 211.119L270.401 211.112L270.396 206.414C270.392 202.099 271.794 198.621 274.602 195.98C277.41 193.338 281.231 192.015 286.064 192.01C288.431 192.008 290.404 192.252 291.983 192.744L291.992 201.842ZM320.78 248.49C319.055 249.404 316.454 249.863 312.977 249.867C304.741 249.876 300.619 245.602 300.61 237.045L300.592 219.698L294.452 219.705L294.443 211.087L300.583 211.08L300.574 202.906L312.222 199.565L312.234 211.068L320.741 211.059L320.75 219.677L312.243 219.686L312.259 234.999C312.263 238.944 313.831 240.915 316.962 240.912C318.195 240.911 319.465 240.552 320.771 239.835L320.78 248.49Z" fill="#4E4D4D"/>
<path d="M230.154 70.0499C229.971 68.981 229.717 67.9255 229.394 66.89C228.486 63.8817 226.933 61.1073 224.844 58.76C224.375 58.2084 223.87 57.6872 223.334 57.2C222.704 56.64 222.024 56.11 221.384 55.64C222.4 54.8225 223.335 53.9081 224.174 52.9099L224.514 52.49C226.31 50.2911 227.683 47.7787 228.564 45.08C229.122 43.317 229.514 41.5058 229.734 39.6699V39.38C229.894 38.0092 229.975 36.6302 229.974 35.25V27.5399C229.974 18.4199 227.774 11.47 223.364 6.82996L223.144 6.60999C218.764 2.22999 211.504 0 201.574 0H118.494C118.414 10.6 118.364 21.6199 118.354 31.1899V32.84C118.354 33.51 118.354 34.16 118.354 34.84V36.08H142.354V25.38C142.354 24.22 142.834 24.22 143.304 24.22H197.124C200.574 24.22 203.124 24.93 204.574 26.22L204.794 26.4299C206.017 27.797 206.724 29.5476 206.794 31.38V35.01C206.794 38.18 206.064 40.45 204.634 41.83C203.204 43.21 200.634 43.8999 197.064 43.8999H183.314V68.1699H197.314H197.844C201.024 68.2299 203.444 68.9499 204.784 70.1699L205.004 70.39C206.252 71.8043 206.961 73.6141 207.004 75.5V81.6599C207.004 84.8199 206.274 87.1 204.844 88.46C203.414 89.82 200.844 90.5399 197.264 90.5499L142.354 90.89V78.6699H118.434L118.034 114.67H142.354H203.624H204.194C208.442 114.787 212.675 114.109 216.674 112.67C219.892 111.486 222.741 109.475 224.934 106.84C227.071 104.154 228.587 101.03 229.374 97.6899C230.304 93.817 230.744 89.8426 230.684 85.86V76.5299C230.715 74.3579 230.538 72.188 230.154 70.0499Z" fill="#86BD45"/>
<path d="M150.764 134.13H152.184H151.014L123.224 134.19L96.1143 134.26L96.0342 87.4498V79.5598V74.7098C96.0244 74.57 96.0244 74.4296 96.0342 74.2898C96.0342 72.6348 96.6916 71.0477 97.8618 69.8774C99.032 68.7072 100.619 68.0498 102.274 68.0498H151.034V82.3298H175.034V43.7998H97.7942C89.0542 43.9398 82.7341 46.4298 78.4741 51.3998C74.2141 56.3698 72.0442 62.8499 72.0342 70.9899V82.7499C72.0342 82.9799 72.0342 83.2298 72.0342 83.4598L72.1743 134.13V158.4H148.884C149.544 158.4 150.204 158.4 150.884 158.4C159.004 158.05 164.934 155.57 168.994 150.84C171.456 147.969 173.243 144.582 174.224 140.93C174.621 139.415 174.816 137.855 174.804 136.29V122.97H150.874L150.764 134.13Z" fill="#4E4D4D"/>
</svg>
