<svg width="75" height="44" viewBox="0 0 75 44" fill="none" xmlns="http://www.w3.org/2000/svg">
<path d="M52.0476 15.0826L46.667 11.0937C48.0685 8.31879 47.2676 4.85017 44.6399 2.89285C43.1884 1.82748 41.4366 1.38154 39.6597 1.62929C37.9329 1.87704 36.4063 2.76898 35.3802 4.15642C33.2279 7.03042 33.8536 11.1432 36.8067 13.3235C37.9829 14.1907 39.3844 14.6614 40.8109 14.6614C41.1363 14.6614 41.4616 14.6367 41.7619 14.5871C43.0883 14.3889 44.3146 13.819 45.2656 12.9271L50.6462 16.916C50.8464 17.0647 51.0966 17.139 51.3469 17.139C51.3969 17.139 51.447 17.139 51.5221 17.139C51.8224 17.0895 52.0977 16.9408 52.2729 16.693C52.6483 16.1975 52.5482 15.479 52.0476 15.0826ZM41.6117 13.6209C40.1101 13.8438 38.6086 13.4474 37.3823 12.5307C34.8797 10.6725 34.3291 7.1791 36.181 4.75104C37.0569 3.5866 38.3333 2.81854 39.8098 2.62029C40.0851 2.57073 40.3604 2.57073 40.6357 2.57073C41.862 2.57073 43.0382 2.96717 44.0393 3.71048C46.5419 5.56867 47.0924 9.06204 45.2405 11.4901C44.3646 12.6545 43.0883 13.3979 41.6117 13.6209ZM51.4721 16.0984C51.447 16.148 51.3969 16.148 51.3719 16.148C51.3469 16.148 51.2969 16.148 51.2468 16.1232L45.9413 12.1839L46.0414 12.06L46.1414 11.936L51.447 15.8754C51.4971 15.9498 51.5221 16.0241 51.4721 16.0984Z" fill="#39E991"/>
<path d="M43.9142 8.66563H42.2875V5.17226C42.2875 4.8997 42.0622 4.67676 41.7869 4.67676H39.6597C39.3844 4.67676 39.1592 4.8997 39.1592 5.17226V5.86601H37.5325C37.4074 5.86601 37.2822 5.91551 37.1821 6.01463C37.082 6.11376 37.032 6.23763 37.032 6.36151V11.0194C37.032 11.2919 37.2572 11.5149 37.5325 11.5149H39.6597H41.7869H43.9142C44.0393 11.5149 44.1644 11.4653 44.2645 11.3663C44.3647 11.2671 44.4147 11.1433 44.4147 11.0194V9.1612C44.4147 8.88863 44.1895 8.66563 43.9142 8.66563ZM41.2864 5.69257V10.5486H40.1602V9.43369V5.71732L41.2864 5.69257ZM38.008 6.85701H39.1342V10.5239H38.008V6.85701ZM43.4137 10.5239H42.2875V10.3256V9.65669H43.4137V10.5239Z" fill="#39E991"/>
<path d="M25.67 9.23537L25.7701 8.86375C25.8952 8.31868 26.1205 7.77362 26.3957 7.22856C27.647 4.92437 29.9245 3.43781 32.9526 2.99187C33.6033 2.89275 34.279 2.868 34.9547 2.868C35.255 2.89275 35.4552 2.66975 35.4803 2.39725C35.4803 2.12468 35.28 1.90168 35.0048 1.87693C34.254 1.85212 33.5282 1.90169 32.8275 2.00081C29.449 2.52112 26.9464 4.15631 25.5199 6.75781C25.1945 7.37719 24.9693 7.99656 24.8191 8.616L24.719 8.98762L24.6439 9.53268C24.5188 10.3751 24.5188 11.1679 24.6189 11.9359V12.1837C24.6189 12.3819 24.5689 12.6297 24.4687 12.8279L22.6419 16.6186C22.4166 17.0894 22.4667 17.684 22.7419 18.1052C23.0422 18.5511 23.5428 18.8237 24.0433 18.8237H24.5438V23.2586C24.5438 24.2744 25.3447 25.0672 26.3457 25.0672L29.2237 25.1167C29.2487 25.1167 29.2988 25.1663 29.2988 25.1911V26.5537C29.2988 26.8263 29.524 27.0493 29.7993 27.0493C30.0746 27.0493 30.2999 26.8263 30.2999 26.5537V25.1911C30.2999 24.6212 29.7993 24.1257 29.2487 24.1257L26.3707 24.0762C25.8952 24.0762 25.5449 23.7293 25.5449 23.2586V17.8079H24.0433C23.8681 17.8079 23.6929 17.7087 23.5678 17.5353C23.4677 17.3867 23.4427 17.1885 23.5177 17.0151L25.3447 13.2243C25.4948 12.8774 25.5949 12.5058 25.5949 12.1589V11.9359V11.8369C25.5199 11.1184 25.5199 10.4246 25.6199 9.65656L25.67 9.23537Z" fill="#39E991"/>
<path d="M44.8152 14.6365C44.5649 14.5621 44.2646 14.686 44.1895 14.9586C43.714 16.346 42.8631 17.6839 41.6619 18.9227L41.5617 18.9971C41.2114 19.3191 40.6358 19.8394 40.2604 20.7809C39.5847 22.2922 39.6848 24.1752 40.5857 26.3555L40.6608 26.5289C40.7359 26.7271 40.9361 26.8263 41.1113 26.8263C41.1864 26.8263 41.2364 26.8014 41.3115 26.7767C41.5617 26.6776 41.6869 26.3802 41.5867 26.1325L41.5117 25.9591C40.7359 24.0513 40.6107 22.4161 41.1864 21.1526C41.5117 20.4092 41.9622 19.9881 42.2625 19.6907L42.3626 19.5917C43.689 18.229 44.6149 16.7672 45.1155 15.2559C45.2156 15.0081 45.0654 14.7356 44.8152 14.6365Z" fill="#39E991"/>
<path d="M5.20509 31.4554L10.4102 41.1447H8.16456L7.41175 39.7054H2.98546L2.25857 41.1447H0L5.20509 31.4554ZM6.42525 37.9706L5.20509 35.5162L3.99793 37.9706H6.42525ZM9.46262 34.1026H11.6173L13.2788 37.5594L14.9403 34.1026H17.108L13.2788 41.4531L9.46262 34.1026ZM19.9377 33.0296C19.73 33.2309 19.4791 33.3316 19.1848 33.3316C18.8819 33.3316 18.6245 33.2309 18.4125 33.0296C18.2005 32.8283 18.0945 32.582 18.0945 32.2908C18.0945 32.008 18.2005 31.766 18.4125 31.5647C18.6245 31.3634 18.8819 31.2627 19.1848 31.2627C19.4791 31.2627 19.73 31.3634 19.9377 31.5647C20.1454 31.766 20.2493 32.008 20.2493 32.2908C20.2493 32.582 20.1454 32.8283 19.9377 33.0296ZM18.2113 34.0898H20.1584V41.1447H18.2113V34.0898ZM24.4808 38.626C24.4808 38.9259 24.5327 39.1764 24.6366 39.3778C24.7404 39.5791 24.9827 39.6798 25.3634 39.6798C25.5365 39.6798 25.7009 39.6712 25.8567 39.6541V41.2732C25.5452 41.3075 25.2552 41.3246 24.987 41.3246C24.4332 41.3246 23.9854 41.2796 23.6436 41.1897C23.3018 41.0998 23.0356 40.9263 22.8452 40.6693C22.6549 40.4123 22.5597 40.0439 22.5597 39.5641V35.6447H21.6901V33.9613H22.5597V32.0723H24.4808V33.9613H25.9086V35.6447H24.4808V38.626ZM28.9914 40.817C28.3987 40.4872 27.9292 40.0396 27.5831 39.4741C27.2369 38.9088 27.0639 38.2919 27.0639 37.6237C27.0639 36.964 27.2369 36.3515 27.5831 35.7861C27.9292 35.2206 28.3987 34.773 28.9914 34.4432C29.5842 34.1134 30.2311 33.9484 30.932 33.9484C31.6329 33.9484 32.2819 34.1134 32.879 34.4432C33.4761 34.773 33.9499 35.2206 34.3004 35.7861C34.6508 36.3515 34.8261 36.964 34.8261 37.6237C34.8261 38.2919 34.6508 38.9088 34.3004 39.4741C33.9499 40.0396 33.4761 40.4872 32.879 40.817C32.2819 41.1469 31.6329 41.3118 30.932 41.3118C30.2311 41.3118 29.5842 41.1469 28.9914 40.817ZM29.9455 35.8953C29.6426 36.0709 29.4046 36.3108 29.2316 36.6149C29.0585 36.9191 28.9719 37.2553 28.9719 37.6237C28.9719 38.0092 29.0563 38.354 29.2251 38.6581C29.3938 38.9623 29.6274 39.2021 29.926 39.3778C30.2246 39.5534 30.5599 39.6412 30.932 39.6412C31.2954 39.6412 31.6264 39.5534 31.925 39.3778C32.2235 39.2021 32.4593 38.9601 32.6324 38.6517C32.8055 38.3433 32.892 38.0006 32.892 37.6237C32.892 37.2553 32.8055 36.9191 32.6324 36.6149C32.4593 36.3108 32.2235 36.0709 31.925 35.8953C31.6264 35.7197 31.2954 35.6319 30.932 35.6319C30.5772 35.6319 30.2484 35.7197 29.9455 35.8953ZM36.5265 41.1447V31.751H40.7451C41.4201 31.751 42.0171 31.8881 42.5364 32.1623C43.0556 32.4364 43.4579 32.8219 43.7435 33.3188C44.0291 33.8157 44.1719 34.3811 44.1719 35.0151C44.1719 35.6918 43.9988 36.2958 43.6526 36.8269C43.3065 37.3581 42.8349 37.7479 42.2378 37.9964C42.8522 38.7674 43.6699 39.8168 44.6911 41.1447H42.2378C41.684 40.4594 40.9268 39.4827 39.9663 38.2148H38.5644V41.1447H36.5265ZM40.7451 36.4543C41.0999 36.4543 41.4201 36.3279 41.7056 36.0752C41.9912 35.8225 42.1339 35.4691 42.1339 35.0151C42.1339 34.6466 42.0344 34.304 41.8354 33.987C41.6364 33.67 41.2729 33.5116 40.7451 33.5116H38.5644V36.4543H40.7451ZM47.1898 40.817C46.597 40.4872 46.1276 40.0396 45.7814 39.4741C45.4352 38.9088 45.2622 38.2919 45.2622 37.6237C45.2622 36.964 45.4352 36.3515 45.7814 35.7861C46.1276 35.2206 46.597 34.773 47.1898 34.4432C47.7826 34.1134 48.4294 33.9484 49.1303 33.9484C49.8313 33.9484 50.4802 34.1134 51.0774 34.4432C51.6744 34.773 52.1483 35.2206 52.4987 35.7861C52.8492 36.3515 53.0244 36.964 53.0244 37.6237C53.0244 38.2919 52.8492 38.9088 52.4987 39.4741C52.1483 40.0396 51.6744 40.4872 51.0774 40.817C50.4802 41.1469 49.8313 41.3118 49.1303 41.3118C48.4294 41.3118 47.7826 41.1469 47.1898 40.817ZM48.1438 35.8953C47.8409 36.0709 47.603 36.3108 47.4299 36.6149C47.2568 36.9191 47.1703 37.2553 47.1703 37.6237C47.1703 38.0092 47.2547 38.354 47.4234 38.6581C47.5922 38.9623 47.8258 39.2021 48.1244 39.3778C48.4229 39.5534 48.7583 39.6412 49.1303 39.6412C49.4938 39.6412 49.8248 39.5534 50.1233 39.3778C50.4219 39.2021 50.6577 38.9601 50.8307 38.6517C51.0038 38.3433 51.0903 38.0006 51.0903 37.6237C51.0903 37.2553 51.0038 36.9191 50.8307 36.6149C50.6577 36.3108 50.4219 36.0709 50.1233 35.8953C49.8248 35.7197 49.4938 35.6319 49.1303 35.6319C48.7755 35.6319 48.4467 35.7197 48.1438 35.8953ZM56.1981 40.817C55.6053 40.4872 55.1359 40.0396 54.7897 39.4741C54.4436 38.9088 54.2705 38.2919 54.2705 37.6237C54.2705 36.964 54.4436 36.3515 54.7897 35.7861C55.1359 35.2206 55.6053 34.773 56.1981 34.4432C56.7909 34.1134 57.4377 33.9484 58.1386 33.9484C58.8396 33.9484 59.4886 34.1134 60.0857 34.4432C60.6827 34.773 61.1566 35.2206 61.507 35.7861C61.8575 36.3515 62.0327 36.964 62.0327 37.6237C62.0327 38.2919 61.8575 38.9088 61.507 39.4741C61.1566 40.0396 60.6827 40.4872 60.0857 40.817C59.4886 41.1469 58.8396 41.3118 58.1386 41.3118C57.4377 41.3118 56.7909 41.1469 56.1981 40.817ZM57.1521 35.8953C56.8493 36.0709 56.6113 36.3108 56.4382 36.6149C56.2651 36.9191 56.1786 37.2553 56.1786 37.6237C56.1786 38.0092 56.263 38.354 56.4318 38.6581C56.6004 38.9623 56.8341 39.2021 57.1327 39.3778C57.4312 39.5534 57.7665 39.6412 58.1386 39.6412C58.5021 39.6412 58.8331 39.5534 59.1316 39.3778C59.4302 39.2021 59.666 38.9601 59.8391 38.6517C60.0121 38.3433 60.0986 38.0006 60.0986 37.6237C60.0986 37.2553 60.0121 36.9191 59.8391 36.6149C59.666 36.3108 59.4302 36.0709 59.1316 35.8953C58.8331 35.7197 58.5021 35.6319 58.1386 35.6319C57.7838 35.6319 57.455 35.7197 57.1521 35.8953ZM74.2669 34.7452C74.7556 35.2763 75 36.0174 75 36.9683V41.1447H73.04V36.9683C73.04 36.4629 72.9125 36.0988 72.6569 35.876C72.4019 35.6533 72.0663 35.5419 71.6513 35.5419C71.305 35.5419 70.9931 35.6704 70.7162 35.9274C70.4394 36.1844 70.2969 36.6128 70.2881 37.2124V41.1447H68.3281V36.9683C68.3281 36.4629 68.2006 36.0988 67.945 35.876C67.69 35.6533 67.3587 35.5419 66.9525 35.5419C66.58 35.5419 66.2575 35.679 65.985 35.9531C65.7125 36.2273 65.5762 36.7113 65.5762 37.4053L65.5631 41.1447H63.6294V34.0769H65.5631V34.7195C65.8144 34.4968 66.1169 34.3126 66.4719 34.1669C66.8269 34.0213 67.1513 33.9484 67.4456 33.9484C68.4494 33.9484 69.215 34.2697 69.7431 34.9123C70.0113 34.6124 70.3444 34.3768 70.7425 34.2054C71.1406 34.0341 71.5731 33.9484 72.0406 33.9484C73.0356 33.9484 73.7775 34.214 74.2669 34.7452Z" fill="white"/>
</svg>
