<svg width="170" height="48" viewBox="0 0 170 48" fill="none" xmlns="http://www.w3.org/2000/svg">
<g clip-path="url(#clip0_614_5971)">
<path d="M57.7054 32.172C55.773 32.1539 54.1743 31.959 52.6248 31.4554C50.735 30.841 49.0404 29.888 47.5942 28.5165C45.6405 26.6615 44.4098 24.3956 43.7752 21.7942C43.4448 20.3913 43.3014 18.9509 43.3486 17.5104C43.3714 15.9363 43.6413 14.3754 44.1485 12.8848C45.0934 10.1812 46.6877 7.95254 49.0542 6.30419C50.5702 5.25284 52.2871 4.52496 54.0975 4.16602C54.893 4.00055 55.7011 3.90295 56.5131 3.87426C56.9535 3.86042 57.3951 3.83592 57.8355 3.84657C60.8963 3.92537 63.7075 4.76552 66.1721 6.62364C67.9454 7.96308 69.3414 9.73778 70.2247 11.7753C70.7909 13.0554 71.166 14.4115 71.338 15.8003C71.4702 16.8597 71.5059 17.9289 71.4447 18.9948C71.3103 21.4652 70.6587 23.7865 69.3448 25.8959C67.6715 28.5846 65.2922 30.3916 62.3061 31.4117C61.3467 31.741 60.3515 31.9555 59.3414 32.0506C58.6983 32.1113 58.0477 32.1475 57.7054 32.172ZM67.9541 17.8906C67.9645 16.9781 67.862 16.0679 67.6491 15.1806C67.1628 13.1233 66.1998 11.3302 64.6406 9.882C62.8842 8.25176 60.7918 7.3818 58.4114 7.17522C57.4409 7.09368 56.4641 7.13231 55.5031 7.29022C54.2561 7.48811 53.0574 7.9187 51.97 8.55949C49.9437 9.75316 48.5359 11.4824 47.6636 13.6536C46.6685 16.2592 46.597 19.1264 47.4609 21.7782C48.4208 24.5468 50.1858 26.6253 52.8594 27.8957C53.9826 28.4226 55.1932 28.7391 56.431 28.8295C57.5966 28.9247 58.7699 28.845 59.9119 28.5931C63.2233 27.7743 65.6068 25.8246 67.0082 22.7164C67.6854 21.216 67.968 19.6273 67.9541 17.8906Z" fill="#0E52B7"/>
<path d="M34.7529 20.2939C34.7934 20.3673 34.8244 20.428 34.8596 20.4855C36.5958 23.2754 38.3323 26.0649 40.0692 28.854C40.2617 29.1376 40.4032 29.4525 40.4873 29.7847C40.6793 30.6695 40.1151 31.7642 38.9281 31.7993C38.6836 31.8175 38.4378 31.7971 38.1997 31.7386C37.7894 31.6264 37.4371 31.3626 37.2143 31.0007C36.8261 30.3863 36.4433 29.7676 36.0593 29.1511L31.2314 21.3864C31.209 21.3502 31.1834 21.3172 31.1643 21.2799C31.1425 21.2325 31.1061 21.1932 31.0605 21.1677C31.0149 21.1423 30.9623 21.1319 30.9104 21.1383C29.3342 21.1447 27.758 21.1447 26.1828 21.1468H25.8863C25.8778 21.2671 25.865 21.3683 25.865 21.4662C25.865 23.2977 25.865 25.1292 25.865 26.9607C25.865 27.9191 25.865 28.8774 25.865 29.8358C25.8714 30.0242 25.8567 30.2128 25.8213 30.398C25.6496 31.1434 25.1952 31.6332 24.4349 31.7695C23.3545 31.9622 22.5504 31.4053 22.2817 30.513C22.2387 30.3583 22.2165 30.1986 22.2155 30.0381C22.2081 29.5419 22.2155 29.0457 22.2155 28.5473C22.2155 21.0325 22.2155 13.5177 22.2155 6.00284C22.2027 5.68635 22.2774 5.37244 22.4314 5.09556C22.5855 4.81868 22.813 4.58954 23.089 4.43329C23.3172 4.29379 23.5776 4.21532 23.8451 4.20541C23.9432 4.20541 24.0403 4.1969 24.1384 4.1969H30.4849C31.8863 4.1969 33.2439 4.4269 34.5258 5.00723C36.6917 5.98793 38.2157 7.5724 39.0102 9.82557C39.2846 10.6341 39.437 11.4789 39.4624 12.3322C39.5065 13.1278 39.4513 13.9258 39.2982 14.7078C39.0132 16.1067 38.3412 17.3979 37.3583 18.4347C36.662 19.1665 35.8371 19.7646 34.9246 20.1991C34.8766 20.2257 34.8212 20.2566 34.7529 20.2939ZM25.9012 17.7915H26.1743C27.5393 17.7915 28.9055 17.7915 30.2706 17.7915C30.6406 17.7915 31.0107 17.7628 31.3797 17.7266C32.0775 17.6571 32.7553 17.4539 33.3761 17.1281C34.5172 16.5318 35.3235 15.6374 35.7351 14.4128C35.9992 13.5825 36.048 12.6988 35.877 11.8445C35.6018 10.3047 34.7892 9.12704 33.4422 8.32522C32.5283 7.78003 31.5226 7.57133 30.47 7.56175C29.0207 7.5479 27.5703 7.56175 26.1209 7.56175C26.0463 7.56175 25.9727 7.57133 25.9076 7.57559C25.8543 7.76087 25.8469 17.5306 25.9002 17.7915H25.9012Z" fill="#0E52B7"/>
<path d="M3.7689 22.2244V29.9518C3.77804 30.1971 3.7373 30.4417 3.64914 30.6708C3.56097 30.9 3.42721 31.1089 3.25593 31.285C3.10145 31.4478 2.91519 31.5772 2.70865 31.6653C2.50211 31.7534 2.27968 31.7982 2.05509 31.7972C1.77355 31.7972 1.49413 31.7972 1.23071 31.6822C0.516181 31.3627 0.143986 30.8079 0.105593 30.0296C0.105593 29.9742 0.105593 29.9177 0.105593 29.8613C0.105593 21.9475 0.105593 14.0323 0.105593 6.11569C0.104522 5.9005 0.129589 5.68597 0.180245 5.4768C0.272969 5.1301 0.472444 4.82124 0.750496 4.59387C1.02855 4.3665 1.37112 4.2321 1.72982 4.20966C1.83647 4.20327 1.94311 4.20007 2.04976 4.20007H9.06817C10.3618 4.20007 11.6202 4.39813 12.8136 4.91031C15.3507 5.99856 16.9728 7.89183 17.7321 10.5326C17.9661 11.3826 18.0862 12.2599 18.0894 13.1414C18.1086 14.268 17.9828 15.3776 17.6148 16.4424C16.7126 19.032 14.9487 20.7773 12.3678 21.693C11.3473 22.0453 10.2738 22.2204 9.19401 22.2105C7.49833 22.2105 5.80372 22.2105 4.10804 22.2105C4.00459 22.2105 3.90008 22.2191 3.7689 22.2244ZM3.78383 18.8361C3.88408 18.8361 3.9726 18.8489 4.06111 18.8489C5.72125 18.8489 7.38173 18.8489 9.04258 18.8489C9.53948 18.8562 10.0352 18.7993 10.5175 18.6796C12.5278 18.1472 13.8289 16.8832 14.3888 14.8824C14.6479 13.9581 14.6373 13.0158 14.4698 12.0766C14.2733 10.8874 13.6861 9.79728 12.8008 8.97795C11.7514 7.99937 10.4834 7.56812 9.06817 7.55747C7.38635 7.54576 5.7056 7.55747 4.02379 7.55747C3.94914 7.55747 3.87448 7.56705 3.7849 7.57237L3.78383 18.8361Z" fill="#0E52B7"/>
<path d="M77.3902 20.5121C77.4425 20.4578 77.4969 20.4057 77.5449 20.3482C78.413 19.4207 79.4549 18.7818 80.6995 18.5007C81.3222 18.3656 81.9618 18.3246 82.5967 18.3793C83.9072 18.4735 85.146 19.0123 86.1075 19.9063C87.1321 20.8333 87.8296 22.0656 88.0965 23.4202C88.3535 24.6575 88.361 25.9002 87.9717 27.1087C87.1921 29.5312 85.5594 31.088 83.066 31.646C81.5932 31.9761 80.1214 31.8589 78.7361 31.2094C76.7557 30.2787 75.5506 28.7124 75.0579 26.5944C74.9374 26.048 74.8797 25.4896 74.8862 24.9301C74.8862 21.3303 74.8862 17.7305 74.8862 14.1306C74.884 13.984 74.8957 13.8374 74.9214 13.693C74.968 13.4474 75.0945 13.224 75.2814 13.0576C75.4683 12.8912 75.705 12.7912 75.9548 12.773C76.3376 12.7421 76.6949 12.8071 76.985 13.086C77.1008 13.1984 77.1918 13.3338 77.2521 13.4835C77.3123 13.6331 77.3405 13.7937 77.3348 13.9549C77.3348 14.8015 77.3348 15.647 77.3348 16.4924V20.4908L77.3902 20.5121ZM77.2377 25.2261C77.2477 25.6587 77.3133 26.0881 77.4329 26.5039C78.0578 28.6208 79.9711 29.988 82.3706 29.5791C83.7954 29.3364 84.7968 28.4909 85.4346 27.2099C85.8846 26.3048 85.9849 25.3422 85.8612 24.3508C85.7414 23.2975 85.2395 22.3244 84.4502 21.6153C83.483 20.7336 82.3344 20.4014 81.0375 20.5505C80.4785 20.6072 79.9371 20.7783 79.4472 21.0531C78.9573 21.3279 78.5294 21.7005 78.1901 22.1477C77.5182 22.9932 77.2409 23.9813 77.2377 25.2261Z" fill="#0E52B7"/>
<path d="M102.184 29.643C102.124 29.708 102.062 29.7719 102.001 29.8379C101.199 30.7364 100.139 31.3663 98.9648 31.6417C98.2607 31.7994 97.5353 31.8397 96.818 31.761C95.3847 31.6172 94.1807 31.0028 93.1856 29.9795C92.2667 29.0356 91.658 27.8343 91.4409 26.5359C91.2394 25.4608 91.2692 24.3551 91.5284 23.2924C91.8321 22.0927 92.4709 21.0038 93.3704 20.1525C94.2698 19.3012 95.3929 18.7224 96.609 18.4837C98.0893 18.2057 99.5439 18.3112 100.911 18.9777C102.865 19.9286 104.072 21.4854 104.537 23.6055C104.637 24.0848 104.685 24.5736 104.679 25.0632C104.679 26.8656 104.679 28.6687 104.679 30.4725C104.679 30.841 104.581 31.1636 104.301 31.4128C103.898 31.7727 103.427 31.8153 102.948 31.6257C102.469 31.4362 102.252 31.0614 102.239 30.5609C102.232 30.3309 102.239 30.0998 102.239 29.8698C102.239 29.8017 102.232 29.7346 102.229 29.6675L102.184 29.643ZM98.0146 29.6569C98.293 29.6292 98.5745 29.6249 98.8475 29.5717C100.143 29.3193 101.109 28.6016 101.747 27.4559C102.374 26.3282 102.484 25.1133 102.199 23.8791C101.698 21.7037 99.7615 20.1831 97.315 20.5633C95.8326 20.7943 94.7693 21.6409 94.1156 22.9815C93.6197 24.0048 93.5376 25.0909 93.7775 26.1941C94.2297 28.2587 96.0107 29.6899 98.0114 29.6601L98.0146 29.6569Z" fill="#0E52B7"/>
<path d="M136.385 25.9225C136.431 26.1355 136.455 26.2963 136.505 26.455C137.039 28.1715 138.203 29.2352 139.951 29.6292C141.395 29.954 142.724 29.6292 143.94 28.804C144.113 28.6846 144.309 28.6023 144.516 28.5622C145.192 28.4281 145.872 28.9818 145.863 29.6548C145.858 29.7802 145.825 29.9029 145.766 30.0137C145.707 30.1244 145.623 30.2202 145.521 30.2937C145.128 30.6094 144.695 30.8725 144.233 31.0763C143.521 31.4048 142.765 31.6279 141.988 31.7386C141.404 31.8143 140.814 31.8207 140.229 31.7578C139.46 31.6969 138.708 31.5045 138.005 31.1892C135.932 30.2308 134.664 28.6336 134.272 26.374C134.023 24.9184 134.136 23.482 134.742 22.1222C135.644 20.099 137.205 18.883 139.388 18.4677C139.918 18.3686 140.458 18.3304 140.996 18.3538C142.262 18.4059 143.438 18.7318 144.456 19.5251C145.344 20.22 146.005 21.164 146.352 22.2361C146.635 23.0793 146.771 23.9644 146.756 24.8535C146.756 25.5062 146.322 25.9183 145.668 25.9183H136.38L136.385 25.9225ZM136.452 24.0059H144.53C144.535 23.9399 144.535 23.8737 144.53 23.8078C144.446 23.2967 144.28 22.8028 144.036 22.3458C143.532 21.4332 142.802 20.8029 141.775 20.5441C141.187 20.4085 140.579 20.3836 139.982 20.4706C139.169 20.5594 138.403 20.898 137.791 21.4396C137.064 22.0785 136.662 22.9038 136.454 23.8334C136.449 23.8886 136.448 23.9441 136.452 23.9995V24.0059Z" fill="#0E52B7"/>
<path d="M159.79 19.9084C159.832 19.883 159.872 19.8549 159.91 19.8243C160.732 19.0623 161.768 18.5696 162.879 18.4123C164.266 18.2153 165.603 18.3559 166.856 19.0171C168.128 19.6869 168.951 20.7368 169.407 22.0828C169.646 22.8151 169.764 23.5816 169.756 24.3519C169.756 26.3857 169.756 28.4206 169.756 30.4555C169.772 30.7795 169.663 31.0974 169.453 31.3446C169.09 31.7524 168.499 31.8078 168.06 31.6481C167.834 31.5652 167.641 31.4131 167.506 31.2137C167.372 31.0142 167.305 30.7775 167.314 30.5375C167.314 28.7124 167.314 26.8883 167.314 25.0632C167.314 24.665 167.314 24.2657 167.274 23.8695C167.186 22.8697 166.81 22.004 166.018 21.3523C165.534 20.9662 164.958 20.713 164.346 20.6176C163.614 20.4736 162.859 20.5102 162.145 20.724C161.421 20.9365 160.782 21.3722 160.32 21.9688C159.955 22.4363 159.76 23.0132 159.766 23.6055C159.766 25.8288 159.766 28.0522 159.766 30.2755C159.767 30.4011 159.76 30.5266 159.747 30.6514C159.672 31.3446 159.165 31.7588 158.467 31.7311C158.152 31.7239 157.853 31.592 157.636 31.3646C157.418 31.1372 157.3 30.8328 157.307 30.5183C157.314 29.8794 157.307 29.2405 157.307 28.6091C157.307 25.6737 157.307 22.7373 157.307 19.7998C157.303 19.6397 157.317 19.4796 157.35 19.3227C157.402 19.0883 157.53 18.8777 157.714 18.7236C157.899 18.5696 158.129 18.4807 158.369 18.4709C158.571 18.4549 158.774 18.4725 158.97 18.5231C159.411 18.6572 159.663 18.9767 159.73 19.4335C159.76 19.5826 159.77 19.7327 159.79 19.9084Z" fill="#0E52B7"/>
<path d="M113.242 31.8259C111.914 31.8265 110.601 31.5429 109.392 30.9943C108.841 30.7512 108.336 30.4159 107.899 30.0029C107.781 29.8973 107.688 29.7663 107.629 29.6199C107.569 29.4734 107.544 29.3152 107.554 29.1575C107.567 28.8754 107.687 28.6089 107.89 28.4121C108.138 28.1746 108.414 27.9862 108.768 27.9617C108.94 27.9449 109.113 27.9672 109.275 28.0267C109.437 28.0863 109.584 28.1816 109.704 28.3056C110.409 29.0222 111.28 29.4045 112.251 29.5834C112.805 29.6712 113.369 29.6809 113.925 29.6121C114.259 29.5812 114.588 29.5071 114.903 29.3917C115.18 29.2906 115.434 29.1349 115.65 28.9339C115.903 28.7074 116.06 28.3924 116.088 28.0537C116.116 27.7151 116.012 27.3787 115.799 27.1141C115.58 26.8394 115.3 26.6204 114.98 26.4752C114.42 26.2189 113.829 26.036 113.222 25.931C112.369 25.7639 111.525 25.585 110.715 25.2602C110.067 25.0004 109.461 24.6724 108.971 24.1613C108.668 23.8498 108.435 23.4771 108.288 23.0683C108.141 22.6595 108.083 22.224 108.118 21.791C108.181 20.6037 108.812 19.787 109.789 19.1907C110.395 18.8377 111.061 18.5988 111.753 18.4858C112.285 18.3818 112.827 18.3382 113.369 18.3559C114.542 18.4038 115.671 18.6391 116.695 19.2525C117.181 19.5367 117.608 19.9107 117.954 20.3546C118.053 20.4691 118.124 20.6043 118.163 20.7501C118.202 20.8959 118.208 21.0486 118.179 21.1968C118.066 21.7367 117.526 22.0263 117.016 21.9656C116.595 21.9203 116.202 21.7346 115.899 21.4385C115.357 20.9334 114.664 20.6202 113.926 20.5473C113.35 20.4664 112.766 20.4664 112.19 20.5473C111.808 20.5995 111.439 20.7223 111.101 20.9093C110.916 21.0126 110.76 21.1612 110.648 21.3412C110.536 21.5211 110.471 21.7266 110.461 21.9383C110.45 22.1499 110.493 22.3608 110.587 22.5511C110.68 22.7414 110.821 22.9049 110.995 23.0262C111.338 23.2691 111.725 23.4444 112.135 23.5426C112.775 23.7109 113.424 23.8621 114.07 24.0069C114.761 24.1551 115.437 24.3665 116.089 24.6383C116.627 24.8617 117.121 25.177 117.55 25.5701C118.076 26.0647 118.398 26.7384 118.45 27.458C118.543 28.2859 118.345 29.1203 117.89 29.8187C117.534 30.3501 117.053 30.7857 116.488 31.0869C115.887 31.4213 115.226 31.6327 114.543 31.7088C114.107 31.7631 113.674 31.7897 113.242 31.8259Z" fill="#0E52B7"/>
<path d="M126.505 31.8014C125.072 31.8014 123.759 31.5448 122.518 30.9496C122.025 30.7145 121.567 30.412 121.157 30.0508C121.031 29.9416 120.931 29.8059 120.864 29.6536C120.797 29.5012 120.764 29.336 120.768 29.1696C120.772 29.0032 120.813 28.8397 120.888 28.6909C120.963 28.5421 121.07 28.4116 121.201 28.3088C121.431 28.1299 121.672 27.9787 121.971 27.9553C122.142 27.938 122.316 27.9596 122.478 28.0186C122.64 28.0776 122.787 28.1725 122.907 28.296C123.595 28.9849 124.489 29.4315 125.454 29.5685C126.307 29.7243 127.185 29.6728 128.013 29.4183C128.281 29.3335 128.53 29.1999 128.749 29.0243C129.463 28.4515 129.496 27.5112 128.825 26.8883C128.498 26.6015 128.114 26.3861 127.699 26.2558C127.148 26.0719 126.585 25.9296 126.014 25.8299C125.091 25.651 124.188 25.4039 123.347 24.978C122.918 24.7698 122.528 24.4887 122.195 24.1475C121.897 23.8446 121.667 23.4826 121.519 23.0851C121.37 22.6876 121.307 22.2633 121.334 21.84C121.364 21.1148 121.581 20.4717 122.08 19.9233C122.411 19.5603 122.804 19.2596 123.241 19.0352C123.879 18.7138 124.567 18.5035 125.276 18.4134C125.712 18.3496 126.154 18.325 126.595 18.3399C127.726 18.3857 128.814 18.6029 129.812 19.1694C130.328 19.4558 130.783 19.8395 131.152 20.2992C131.312 20.4863 131.406 20.7202 131.422 20.9658C131.427 21.1885 131.354 21.406 131.216 21.5809C131.077 21.7558 130.883 21.8771 130.664 21.9241C130.117 22.0306 129.641 21.8709 129.228 21.5141C128.981 21.2862 128.709 21.0866 128.417 20.9189C127.949 20.6801 127.436 20.5396 126.911 20.5058C126.416 20.4543 125.916 20.4657 125.424 20.5398C125.05 20.5962 124.688 20.7142 124.352 20.8891C124.164 20.9857 124.004 21.1283 123.887 21.3037C123.77 21.479 123.699 21.6813 123.682 21.8914C123.664 22.1015 123.701 22.3126 123.788 22.5048C123.875 22.697 124.009 22.864 124.178 22.99C124.496 23.2198 124.852 23.3924 125.23 23.5C125.902 23.7226 126.597 23.8493 127.286 24.0026C128.127 24.1901 128.952 24.4286 129.721 24.83C130.052 24.9985 130.361 25.205 130.644 25.4455C130.952 25.7061 131.203 26.0275 131.381 26.3896C131.559 26.7517 131.66 27.1467 131.678 27.5496C131.748 28.6325 131.433 29.5802 130.672 30.3607C130.137 30.8924 129.477 31.2806 128.752 31.4894C128.024 31.7094 127.266 31.8147 126.505 31.8014Z" fill="#0E52B7"/>
<path d="M150.209 25.0717C150.209 23.3027 150.209 21.5344 150.209 19.7668C150.205 19.6202 150.218 19.4738 150.248 19.3302C150.3 19.0889 150.433 18.8725 150.624 18.7161C150.816 18.5597 151.054 18.4725 151.302 18.4687C151.49 18.4565 151.679 18.4742 151.862 18.5209C152.305 18.6519 152.557 18.9682 152.63 19.4228C152.643 19.5128 152.648 19.6036 152.646 19.6944C152.646 23.2807 152.646 26.8656 152.646 30.4491C152.646 30.8239 152.553 31.1572 152.261 31.4074C151.86 31.7524 151.393 31.7961 150.924 31.6066C150.711 31.5284 150.528 31.3857 150.399 31.1984C150.271 31.0112 150.205 30.7887 150.21 30.562C150.197 30.0945 150.21 29.626 150.21 29.1575L150.209 25.0717Z" fill="#0E52B7"/>
<path d="M153.013 14.695C153.044 15.4138 152.417 16.2752 151.414 16.2646C150.993 16.259 150.592 16.0882 150.296 15.7893C150.001 15.4903 149.835 15.0873 149.835 14.6673C149.847 14.2455 150.022 13.8446 150.325 13.5498C150.627 13.255 151.033 13.0894 151.455 13.0882C152.284 13.0956 153.058 13.8453 153.013 14.695Z" fill="#0E52B7"/>
<path d="M103.826 41.4434C92.7015 49.6426 77.9875 50.1686 65.9951 41.4626C60.6937 45.3779 54.5348 47.8058 47.1634 47.8036C39.8496 47.8036 33.7451 45.396 28.3776 41.4594C27.1565 42.2325 26.025 43.0172 24.8092 43.7062C18.1886 47.4575 10.9452 48.7428 3.02237 47.1136C2.05616 46.9156 0.775331 46.5471 0.396736 45.9487C-0.0842403 45.1873 -0.117302 44.0203 0.24423 43.194C0.715608 42.1196 2.05722 41.7235 3.51402 42.045C12.4787 44.0192 19.6774 41.6702 25.6965 36.2865C27.469 34.6988 29.2372 34.7308 31.0384 36.3493C34.7337 39.6694 39.1063 42.0472 44.7073 42.6147C51.586 43.3111 57.265 41.2645 62.0907 37.4407C62.464 37.1458 62.8021 36.8231 63.1572 36.5154C65.2443 34.7254 66.8984 34.6818 68.9268 36.4994C71.8297 39.1008 75.2051 41.1378 79.4144 42.0908C87.3852 43.901 94.09 41.9418 99.8479 37.4194C100.268 37.0883 100.639 36.7177 101.047 36.3759C102.966 34.7638 104.689 34.7244 106.552 36.4047C109.444 39.0124 112.797 41.0771 116.995 42.0568C124.944 43.9117 131.672 42.0035 137.471 37.5132C137.8 37.2587 138.093 36.9744 138.405 36.7039C140.795 34.6264 142.252 34.6807 144.743 36.7475C146.054 37.8379 147.449 38.9038 148.991 39.7674C153.976 42.5604 159.442 43.4474 165.414 42.2293C166.416 42.0248 167.86 41.9386 168.552 42.3677C169.385 42.8841 170.133 44.0714 169.987 44.853C169.845 45.6143 168.67 46.611 167.698 46.8538C159.576 48.877 152.065 47.6258 145.161 43.7658C143.932 43.079 142.794 42.2868 141.472 41.4541C136.17 45.3769 130.011 47.8068 122.637 47.8004C115.321 47.7983 109.209 45.4024 103.826 41.4434Z" fill="#0E52B7"/>
<path d="M168.173 7.39564C167.54 6.96971 166.219 7.05277 165.303 7.25722C159.841 8.47538 154.844 7.58838 150.284 4.79534C148.874 3.93177 147.598 2.86587 146.399 1.77549C144.038 -0.372264 142.693 -0.346708 140.359 1.96822C140.077 2.24827 139.78 2.51874 139.47 2.7743C134.228 7.09642 128.166 8.90663 121.02 7.08365C117.181 6.10507 114.115 4.04038 111.47 1.43262C109.764 -0.247676 108.187 -0.208281 106.435 1.4028C106.063 1.74567 105.724 2.11624 105.339 2.44633C100.073 6.96971 93.9407 8.92366 86.6514 7.11878C82.8015 6.16044 79.714 4.12876 77.0596 1.52739C77.0511 1.51781 77.0415 1.50929 77.033 1.50077C76.1051 0.598862 74.5438 1.2697 74.5438 2.56559V6.61832H74.5524C85.4303 15.1369 98.7131 14.6247 108.814 6.60128C108.863 6.56522 108.922 6.54576 108.983 6.54576C109.044 6.54576 109.103 6.56522 109.152 6.60128C114.038 10.4751 119.572 12.8209 126.183 12.8273C132.852 12.8273 138.435 10.457 143.247 6.6098C143.295 6.5752 143.352 6.5557 143.411 6.5538C143.47 6.55191 143.528 6.5677 143.578 6.59915C144.716 7.38819 145.711 8.13783 146.778 8.79269C153.091 12.6516 159.96 13.9039 167.388 11.8807C168.278 11.6379 169.353 10.6402 169.483 9.87988C169.619 9.09724 168.931 7.91208 168.173 7.39564Z" fill="#89CFF0"/>
</g>
<defs>
<clipPath id="clip0_614_5971">
<rect width="170" height="47.6328" fill="white" transform="translate(0 0.183563)"/>
</clipPath>
</defs>
</svg>
