<svg width="200" height="199" viewBox="0 0 200 199" fill="none" xmlns="http://www.w3.org/2000/svg">
<path d="M199.247 88.1875C199.014 86.8465 198.696 85.522 198.292 84.2217C197.141 80.4363 195.183 76.9438 192.551 73.9838C191.956 73.2942 191.318 72.6421 190.641 72.0314C189.845 71.3114 188.976 70.6525 188.193 70.0668C189.473 69.0356 190.65 67.8832 191.706 66.6257L192.147 66.1009C194.413 63.3301 196.144 60.1652 197.252 56.766C197.973 54.5742 198.481 52.3187 198.77 50.0303V49.6642C198.976 47.9391 199.078 46.2032 199.076 44.4659V34.7039C199.076 23.2214 196.297 14.4844 190.727 8.63937L190.445 8.37092C184.912 2.85539 175.743 0 163.268 0H58.3318C58.2338 13.3251 58.1726 27.1994 58.1482 39.2432V41.3299C58.1482 42.1596 58.1482 42.9894 58.1482 43.7704V45.3201H88.4467V44.4293V31.8485C88.4467 30.4086 89.0465 30.4086 89.6709 30.4086H157.612C161.971 30.4086 165.227 31.3116 167.014 32.9346L167.296 33.2152C168.844 34.9269 169.745 37.1235 169.842 39.4263V44.0022C169.842 47.9924 168.924 50.8478 167.112 52.544C165.3 54.2401 162.093 55.1431 157.564 55.1431H140.131V85.6494H157.772H158.445C162.472 85.7226 165.508 86.6256 167.21 88.1631L167.492 88.4437C169.077 90.2188 169.976 92.4987 170.026 94.8744V102.611C170.026 106.589 169.108 109.456 167.296 111.153C165.484 112.849 162.24 113.776 157.735 113.788L88.4222 114.215V98.9745H58.2338L57.7319 144.307H88.4467H165.778H166.5C171.86 144.482 177.203 143.655 182.255 141.866C186.321 140.387 189.919 137.861 192.685 134.545C195.382 131.168 197.297 127.238 198.292 123.038C199.495 118.123 200.067 113.075 199.994 108.017V96.2777C200.008 93.5633 199.757 90.8538 199.247 88.1875Z" fill="#242423" fill-opacity="0.3"/>
<path d="M99.372 168.395H99.6898L64.6547 168.48L30.4876 168.566L30.3775 109.58V99.6453V93.5353C30.3651 93.3563 30.3651 93.1766 30.3775 92.9976C30.3775 90.9104 31.207 88.9088 32.6834 87.433C34.1598 85.9571 36.1621 85.128 38.2501 85.128H99.7143L99.6532 103.189H129.897V54.6392H99.8365H32.4801C21.4782 54.8225 13.4957 57.9508 8.117 64.2074C2.73826 70.464 0.0122244 78.6392 0 88.9039V103.678C0 103.971 0 104.277 0 104.582L0.17114 168.419V198.969H96.866C97.6973 198.969 98.5285 198.969 99.3109 198.969C109.543 198.529 117.024 195.401 122.147 189.45C125.246 185.83 127.497 181.563 128.736 176.961C129.234 175.05 129.481 173.082 129.469 171.108V154.293H99.372V168.395Z" fill="#242423" fill-opacity="0.3"/>
</svg>
