<svg width="150" height="50" viewBox="0 0 150 50" fill="none" xmlns="http://www.w3.org/2000/svg">
<g clip-path="url(#clip0_164_3)">
<path d="M36.3886 25.9273L29.7622 20.9895C31.4881 17.5546 30.5019 13.2609 27.2657 10.838C25.4781 9.5192 23.3207 8.96715 21.1324 9.27384C19.0058 9.58054 17.1258 10.6846 15.8621 12.4021C13.2116 15.9598 13.9821 21.0509 17.6189 23.7498C19.0675 24.8232 20.7934 25.4059 22.5502 25.4059C22.9509 25.4059 23.3515 25.3753 23.7214 25.3139C25.3548 25.0686 26.8651 24.3632 28.0362 23.2591L34.6626 28.1969C34.9092 28.3809 35.2174 28.4729 35.5256 28.4729C35.5872 28.4729 35.6489 28.4729 35.7413 28.4729C36.1112 28.4115 36.4502 28.2275 36.666 27.9208C37.1283 27.3074 37.005 26.418 36.3886 25.9273ZM23.5364 24.1178C21.6872 24.3938 19.838 23.9031 18.3278 22.7684C15.2457 20.4682 14.5677 16.1438 16.8484 13.1382C17.9271 11.6967 19.499 10.746 21.3174 10.5006C21.6564 10.4393 21.9954 10.4393 22.3344 10.4393C23.8446 10.4393 25.2932 10.93 26.526 11.8501C29.6081 14.1503 30.2861 18.4747 28.0054 21.4803C26.9267 22.9217 25.3549 23.8418 23.5364 24.1178ZM35.6797 27.1848C35.6489 27.2461 35.5872 27.2461 35.5564 27.2461C35.5256 27.2461 35.464 27.2461 35.4023 27.2154L28.8684 22.339L28.9917 22.1857L29.1149 22.0323L35.6489 26.9087C35.7105 27.0007 35.7413 27.0928 35.6797 27.1848Z" fill="#39E991"/>
<path d="M26.3721 17.984H24.3688V13.6596C24.3688 13.3222 24.0914 13.0462 23.7524 13.0462H21.1326C20.7936 13.0462 20.5162 13.3222 20.5162 13.6596V14.5183H18.5129C18.3588 14.5183 18.2047 14.5797 18.0814 14.7023C17.9581 14.825 17.8965 14.9784 17.8965 15.1317V20.8976C17.8965 21.2349 18.1739 21.511 18.5129 21.511H21.1326H23.7524H26.3721C26.5262 21.511 26.6803 21.4496 26.8036 21.3269C26.9269 21.2043 26.9885 21.0509 26.9885 20.8976V18.5974C26.9885 18.26 26.7111 17.984 26.3721 17.984ZM23.136 14.3036V20.3148H21.749V18.9347V14.3343L23.136 14.3036ZM19.0985 15.7451H20.4854V20.2842H19.0985V15.7451ZM25.7557 20.2842H24.3688V20.0388V19.2107H25.7557V20.2842Z" fill="#39E991"/>
<path d="M3.90396 18.6893L4.02725 18.2293C4.18135 17.5545 4.45873 16.8798 4.79776 16.2051C6.33878 13.3528 9.14344 11.5127 12.8727 10.9606C13.674 10.838 14.5062 10.8073 15.3384 10.8073C15.7082 10.838 15.9548 10.5619 15.9856 10.2246C15.9856 9.8872 15.739 9.61118 15.4 9.58051C14.4754 9.54984 13.5816 9.61118 12.7186 9.73386C8.55785 10.3779 5.47581 12.4021 3.71904 15.6224C3.31837 16.3891 3.04099 17.1558 2.85607 17.9226L2.73279 18.3826L2.64032 19.0573C2.48622 20.1001 2.48622 21.0815 2.6095 22.0323V22.339C2.6095 22.5843 2.54786 22.891 2.42458 23.1364L0.174688 27.8288C-0.102696 28.4115 -0.0410553 29.1476 0.29797 29.669C0.667815 30.221 1.28422 30.5584 1.90063 30.5584H2.51704V36.0482C2.51704 37.3056 3.5033 38.287 4.73612 38.287L8.28047 38.3484C8.31129 38.3484 8.37293 38.4097 8.37293 38.4404V40.1272C8.37293 40.4646 8.65031 40.7406 8.98934 40.7406C9.32836 40.7406 9.60575 40.4646 9.60575 40.1272V38.4404C9.60575 37.735 8.98934 37.1216 8.31129 37.1216L4.76694 37.0603C4.18135 37.0603 3.74986 36.6309 3.74986 36.0482V29.3009H1.90063C1.68489 29.3009 1.46915 29.1782 1.31504 28.9636C1.19176 28.7795 1.16094 28.5342 1.2534 28.3195L3.5033 23.6271C3.68822 23.1977 3.8115 22.7377 3.8115 22.3083V22.0323V21.9096C3.71904 21.0202 3.71904 20.1614 3.84232 19.2107L3.90396 18.6893Z" fill="#39E991"/>
<path d="M27.4814 25.3753C27.1732 25.2833 26.8034 25.4366 26.7109 25.774C26.1253 27.4915 25.0774 29.1476 23.5981 30.6811L23.4748 30.7731C23.0433 31.1718 22.3344 31.8159 21.8721 32.9813C21.04 34.8521 21.1632 37.183 22.2728 39.8819L22.3652 40.0966C22.4577 40.342 22.7043 40.4646 22.92 40.4646C23.0125 40.4646 23.0741 40.434 23.1666 40.4033C23.4748 40.2806 23.6289 39.9126 23.5056 39.6059L23.4131 39.3912C22.4577 37.0297 22.3036 35.0055 23.0125 33.4413C23.4131 32.5213 23.9679 31.9999 24.3378 31.6318L24.461 31.5092C26.0945 29.8224 27.2349 28.0129 27.8513 26.142C27.9746 25.8353 27.7896 25.498 27.4814 25.3753Z" fill="#39E991"/>
<path d="M45.4433 0H44.335V50H45.4433V0Z" fill="white"/>
<path d="M57.3956 12.7386L63.8058 24.7326H61.0403L60.1131 22.951H54.662L53.7668 24.7326H50.9854L57.3956 12.7386ZM58.8982 20.8036L57.3956 17.7653L55.9089 20.8036H58.8982ZM62.6388 16.0155H65.2924L67.3386 20.2945L69.3847 16.0155H72.0543L67.3386 25.1144L62.6388 16.0155ZM75.5392 14.6872C75.2834 14.9365 74.9743 15.0611 74.612 15.0611C74.239 15.0611 73.922 14.9365 73.6609 14.6872C73.3998 14.438 73.2692 14.1331 73.2692 13.7726C73.2692 13.4226 73.3998 13.123 73.6609 12.8738C73.922 12.6246 74.239 12.5 74.612 12.5C74.9743 12.5 75.2834 12.6246 75.5392 12.8738C75.7949 13.123 75.9228 13.4226 75.9228 13.7726C75.9228 14.1331 75.7949 14.438 75.5392 14.6872ZM73.4131 15.9996H75.8109V24.7326H73.4131V15.9996ZM81.1341 21.6148C81.1341 21.986 81.1981 22.2962 81.3259 22.5454C81.4538 22.7946 81.7522 22.9192 82.2211 22.9192C82.4343 22.9192 82.6367 22.9086 82.8286 22.8874V24.8917C82.4449 24.9341 82.0879 24.9553 81.7575 24.9553C81.0755 24.9553 80.524 24.8997 80.103 24.7883C79.6821 24.677 79.3544 24.4622 79.1199 24.1441C78.8855 23.8259 78.7682 23.3699 78.7682 22.776V17.9244H77.6972V15.8405H78.7682V13.5022H81.1341V15.8405H82.8925V17.9244H81.1341V21.6148ZM86.6891 24.327C85.9591 23.9187 85.3809 23.3646 84.9547 22.6647C84.5284 21.9648 84.3152 21.2012 84.3152 20.3741C84.3152 19.5575 84.5284 18.7992 84.9547 18.0993C85.3809 17.3994 85.9591 16.8453 86.6891 16.437C87.4191 16.0287 88.2157 15.8246 89.0789 15.8246C89.9421 15.8246 90.7414 16.0287 91.4768 16.437C92.2121 16.8453 92.7956 17.3994 93.2272 18.0993C93.6588 18.7992 93.8746 19.5575 93.8746 20.3741C93.8746 21.2012 93.6588 21.9648 93.2272 22.6647C92.7956 23.3646 92.2121 23.9187 91.4768 24.327C90.7414 24.7353 89.9421 24.9394 89.0789 24.9394C88.2157 24.9394 87.4191 24.7353 86.6891 24.327ZM87.864 18.2345C87.491 18.4519 87.198 18.7489 86.9848 19.1253C86.7717 19.5018 86.6651 19.9181 86.6651 20.3741C86.6651 20.8513 86.769 21.2781 86.9768 21.6546C87.1846 22.0311 87.4724 22.328 87.84 22.5454C88.2077 22.7628 88.6207 22.8715 89.0789 22.8715C89.5265 22.8715 89.9342 22.7628 90.3018 22.5454C90.6695 22.328 90.9599 22.0284 91.173 21.6466C91.3862 21.2649 91.4927 20.8407 91.4927 20.3741C91.4927 19.9181 91.3862 19.5018 91.173 19.1253C90.9599 18.7489 90.6695 18.4519 90.3018 18.2345C89.9342 18.0171 89.5265 17.9084 89.0789 17.9084C88.642 17.9084 88.237 18.0171 87.864 18.2345ZM95.9687 24.7326V13.1045H101.164C101.995 13.1045 102.731 13.2742 103.37 13.6135C104.009 13.9529 104.505 14.4301 104.857 15.0452C105.208 15.6602 105.384 16.3601 105.384 17.1449C105.384 17.9827 105.171 18.7303 104.745 19.3878C104.318 20.0453 103.738 20.5278 103.002 20.8354C103.759 21.7898 104.766 23.0889 106.024 24.7326H103.002C102.32 23.8842 101.388 22.6753 100.205 21.1058H98.4784V24.7326H95.9687ZM101.164 18.9265C101.601 18.9265 101.995 18.7701 102.347 18.4572C102.699 18.1444 102.874 17.707 102.874 17.1449C102.874 16.6889 102.752 16.2647 102.507 15.8723C102.262 15.4799 101.814 15.2838 101.164 15.2838H98.4784V18.9265H101.164ZM109.101 24.327C108.371 23.9187 107.793 23.3646 107.366 22.6647C106.94 21.9648 106.727 21.2012 106.727 20.3741C106.727 19.5575 106.94 18.7992 107.366 18.0993C107.793 17.3994 108.371 16.8453 109.101 16.437C109.831 16.0287 110.627 15.8246 111.491 15.8246C112.354 15.8246 113.153 16.0287 113.889 16.437C114.624 16.8453 115.207 17.3994 115.639 18.0993C116.071 18.7992 116.286 19.5575 116.286 20.3741C116.286 21.2012 116.071 21.9648 115.639 22.6647C115.207 23.3646 114.624 23.9187 113.889 24.327C113.153 24.7353 112.354 24.9394 111.491 24.9394C110.627 24.9394 109.831 24.7353 109.101 24.327ZM110.276 18.2345C109.903 18.4519 109.61 18.7489 109.397 19.1253C109.183 19.5018 109.077 19.9181 109.077 20.3741C109.077 20.8513 109.181 21.2781 109.389 21.6546C109.596 22.0311 109.884 22.328 110.252 22.5454C110.619 22.7628 111.032 22.8715 111.491 22.8715C111.938 22.8715 112.346 22.7628 112.714 22.5454C113.081 22.328 113.372 22.0284 113.585 21.6466C113.798 21.2649 113.904 20.8407 113.904 20.3741C113.904 19.9181 113.798 19.5018 113.585 19.1253C113.372 18.7489 113.081 18.4519 112.714 18.2345C112.346 18.0171 111.938 17.9084 111.491 17.9084C111.054 17.9084 110.649 18.0171 110.276 18.2345ZM120.195 24.327C119.465 23.9187 118.887 23.3646 118.46 22.6647C118.034 21.9648 117.821 21.2012 117.821 20.3741C117.821 19.5575 118.034 18.7992 118.46 18.0993C118.887 17.3994 119.465 16.8453 120.195 16.437C120.925 16.0287 121.721 15.8246 122.585 15.8246C123.448 15.8246 124.247 16.0287 124.982 16.437C125.718 16.8453 126.301 17.3994 126.733 18.0993C127.165 18.7992 127.38 19.5575 127.38 20.3741C127.38 21.2012 127.165 21.9648 126.733 22.6647C126.301 23.3646 125.718 23.9187 124.982 24.327C124.247 24.7353 123.448 24.9394 122.585 24.9394C121.721 24.9394 120.925 24.7353 120.195 24.327ZM121.37 18.2345C120.997 18.4519 120.704 18.7489 120.491 19.1253C120.277 19.5018 120.171 19.9181 120.171 20.3741C120.171 20.8513 120.275 21.2781 120.483 21.6546C120.69 22.0311 120.978 22.328 121.346 22.5454C121.713 22.7628 122.126 22.8715 122.585 22.8715C123.032 22.8715 123.44 22.7628 123.808 22.5454C124.175 22.328 124.466 22.0284 124.679 21.6466C124.892 21.2649 124.998 20.8407 124.998 20.3741C124.998 19.9181 124.892 19.5018 124.679 19.1253C124.466 18.7489 124.175 18.4519 123.808 18.2345C123.44 18.0171 123.032 17.9084 122.585 17.9084C122.148 17.9084 121.743 18.0171 121.37 18.2345ZM142.447 16.8108C143.049 17.4683 143.35 18.3857 143.35 19.5628V24.7326H140.936V19.5628C140.936 18.9371 140.779 18.4864 140.464 18.2107C140.15 17.935 139.737 17.7971 139.226 17.7971C138.799 17.7971 138.416 17.9562 138.075 18.2743C137.734 18.5925 137.558 19.1227 137.547 19.865V24.7326H135.133V19.5628C135.133 18.9371 134.976 18.4864 134.662 18.2107C134.347 17.935 133.94 17.7971 133.439 17.7971C132.981 17.7971 132.584 17.9668 132.248 18.3061C131.912 18.6455 131.744 19.2447 131.744 20.1036L131.728 24.7326H129.347V15.9837H131.728V16.779C132.037 16.5033 132.41 16.2753 132.847 16.095C133.284 15.9147 133.684 15.8246 134.046 15.8246C135.283 15.8246 136.226 16.2223 136.876 17.0176C137.206 16.6465 137.616 16.3548 138.107 16.1427C138.597 15.9307 139.13 15.8246 139.705 15.8246C140.931 15.8246 141.845 16.1534 142.447 16.8108Z" fill="white"/>
<path d="M50.9854 36.556V32.4558H54.2794V36.556H53.7285V32.9354H51.5363V36.556H50.9854ZM58.5478 34.3745H59.6726C60.258 34.3745 60.499 34.1232 60.499 33.655C60.499 33.1867 60.258 32.9354 59.6726 32.9354H58.5478V34.3745ZM57.9969 36.556V32.4558H59.73C60.631 32.4558 61.0499 32.9354 61.0499 33.655C61.0499 34.3745 60.631 34.8542 59.73 34.8542H58.5478V36.556H57.9969ZM68.5091 34.5059C68.5091 35.568 67.8721 36.6587 66.5005 36.6587C65.129 36.6587 64.492 35.568 64.492 34.5059C64.492 33.2324 65.2323 32.353 66.5005 32.353C67.7688 32.353 68.5091 33.2324 68.5091 34.5059ZM67.9582 34.5059C67.9582 33.5293 67.4245 32.8327 66.5005 32.8327C65.5766 32.8327 65.0429 33.5293 65.0429 34.5059C65.0429 35.5052 65.5192 36.1791 66.5005 36.1791C67.4818 36.1791 67.9582 35.5052 67.9582 34.5059ZM72.2209 37.4354H71.7044V36.0763H72.0774C72.2381 35.7222 72.3414 35.3796 72.4332 34.5572C72.5365 33.6835 72.548 32.8327 72.5537 32.4558H75.0041V36.0763H75.4116V37.4354H74.8951V36.556H72.2209V37.4354ZM74.436 32.9354H73.0702C73.0702 33.4665 73.0186 33.9976 72.9612 34.5287C72.8751 35.3739 72.8005 35.6594 72.6513 36.0763H74.436V32.9354ZM78.7217 36.556V32.4558H80.1965C80.5179 32.4558 80.7532 32.4672 80.9655 32.5243C81.3672 32.6328 81.7001 32.9526 81.7001 33.4894C81.7001 33.7692 81.5623 34.1746 81.1492 34.346C81.482 34.4602 81.8952 34.7229 81.8952 35.3453C81.8952 35.8878 81.5222 36.556 80.4605 36.556H78.7217ZM79.2726 36.0763H80.3802C81.0975 36.0763 81.3443 35.7907 81.3443 35.3624C81.3443 34.9341 81.0975 34.6486 80.3802 34.6486H79.2726V36.0763ZM79.2726 34.2032H80.2998C81.0229 34.2032 81.1492 33.912 81.1492 33.5465C81.1492 33.1639 80.9311 32.9354 80.2998 32.9354H79.2726V34.2032ZM85.4176 36.556V32.4558H85.9685V35.7736H85.98L88.0746 32.4558H88.7116V36.556H88.1607V33.221H88.1492L86.0546 36.556H85.4176ZM95.1551 32.4558V34.2146H95.3272L96.9168 32.4558H97.6973L95.8437 34.4088L97.6973 36.556H96.9168L95.3272 34.6772H95.1551V36.556H94.6041V34.6772H94.432L92.8366 36.556H92.0619L93.9499 34.4316L92.0848 32.4558H92.8251L94.432 34.2146H94.6041V32.4558H95.1551ZM101.048 36.556V32.4558H104.055V32.9354H101.598V34.2032H103.865V34.6829H101.598V36.0763H104.095V36.556H101.048ZM107.743 36.556V32.4558H108.294V34.1461H110.487V32.4558H111.038V36.556H110.487V34.6258H108.294V36.556H107.743ZM114.755 36.556V32.4558H115.306V35.7736H115.317L117.412 32.4558H118.049V36.556H117.498V33.221H117.487L115.392 36.556H114.755ZM124.877 36.0648V36.556H121.835V32.4558H124.837V32.9469H122.392V34.2032H124.647V34.6943H122.392V36.0648H124.877Z" fill="white"/>
</g>
<defs>
<clipPath id="clip0_164_3">
<rect width="150" height="50" fill="white"/>
</clipPath>
</defs>
</svg>
