<svg width="233" height="64" viewBox="0 0 233 64" fill="none" xmlns="http://www.w3.org/2000/svg">
<g clip-path="url(#clip0_41_4727)">
<path d="M88.3755 1.32267L68.4053 53.4677H79.1317L83.2363 42.5728H104.427L108.548 53.4677H119.196L99.3493 1.32267H88.3755ZM86.9184 33.0027L93.8944 14.656L100.841 33.0027H86.9184ZM132.017 40.0213L123.356 16.8363H113.122L127.072 53.4656H137.216L150.918 16.8363H140.685L132.017 40.0213ZM163.789 16.8363H154.05V53.4656H163.789V16.8363ZM158.914 14.1973C160.797 14.1973 162.602 13.4494 163.934 12.1182C165.265 10.7869 166.013 8.98135 166.013 7.09867C166.013 5.21598 165.265 3.41041 163.934 2.07915C162.602 0.747893 160.797 0 158.914 0C157.031 0 155.226 0.747893 153.895 2.07915C152.563 3.41041 151.815 5.21598 151.815 7.09867C151.815 8.98135 152.563 10.7869 153.895 12.1182C155.226 13.4494 157.031 14.1973 158.914 14.1973ZM183.089 7.06133H173.378V16.7723H167.682V25.6H173.378V41.1669C173.378 49.9947 178.242 53.792 185.094 53.792C187.406 53.822 189.699 53.3739 191.829 52.4757V43.4005C190.667 43.8272 189.44 44.0491 188.203 44.0619C185.227 44.0619 183.083 42.9056 183.083 38.9419V25.6021H191.829V16.8619H183.089V7.06347V7.06133ZM212.303 16.1707C209.81 16.1695 207.342 16.6594 205.038 17.6123C202.735 18.5653 200.641 19.9626 198.878 21.7244C197.114 23.4863 195.715 25.5783 194.76 27.8809C193.805 30.1836 193.313 32.6517 193.312 35.1445C193.311 37.6373 193.801 40.1059 194.754 42.4094C195.707 44.7129 197.104 46.8061 198.866 48.5696C200.628 50.3331 202.72 51.7323 205.022 52.6872C207.325 53.6422 209.793 54.1343 212.286 54.1355C217.285 54.0848 222.063 52.0638 225.581 48.5114C229.099 44.9591 231.073 40.1622 231.076 35.1626C231.078 30.163 229.108 25.3643 225.593 21.8088C222.078 18.2533 217.302 16.2259 212.303 16.1707ZM212.303 44.4245C210.474 44.4262 208.686 43.8855 207.165 42.8708C205.644 41.8561 204.458 40.4131 203.757 38.7241C203.056 37.0352 202.872 35.1763 203.227 33.3827C203.583 31.589 204.463 29.9411 205.755 28.6475C207.047 27.3539 208.695 26.4727 210.488 26.1153C212.281 25.7579 214.14 25.9405 215.83 26.6399C217.519 27.3393 218.964 28.5241 219.98 30.0444C220.996 31.5647 221.538 33.3522 221.538 35.1808C221.534 37.6264 220.559 39.9702 218.827 41.6969C217.095 43.4236 214.748 44.3917 212.303 44.3883V44.4245Z" fill="black"/>
<path d="M22.6027 18.24C26.5202 18.24 29.696 15.0642 29.696 11.1467C29.696 7.22914 26.5202 4.05334 22.6027 4.05334C18.6851 4.05334 15.5093 7.22914 15.5093 11.1467C15.5093 15.0642 18.6851 18.24 22.6027 18.24Z" fill="#965EEB"/>
<path d="M47.456 30.8693C55.9804 30.8693 62.8907 23.959 62.8907 15.4347C62.8907 6.91034 55.9804 0 47.456 0C38.9317 0 32.0214 6.91034 32.0214 15.4347C32.0214 23.959 38.9317 30.8693 47.456 30.8693Z" fill="#00AAFF"/>
<path d="M18.9867 58.6667C29.4727 58.6667 37.9733 50.1661 37.9733 39.68C37.9733 29.194 29.4727 20.6934 18.9867 20.6934C8.50062 20.6934 0 29.194 0 39.68C0 50.1661 8.50062 58.6667 18.9867 58.6667Z" fill="#04E061"/>
<path d="M51.8934 56.2773C58.2262 56.2773 63.36 51.1435 63.36 44.8107C63.36 38.4778 58.2262 33.344 51.8934 33.344C45.5605 33.344 40.4267 38.4778 40.4267 44.8107C40.4267 51.1435 45.5605 56.2773 51.8934 56.2773Z" fill="#FF4053"/>
</g>
<defs>
<clipPath id="clip0_41_4727">
<rect width="232.533" height="64" fill="white"/>
</clipPath>
</defs>
</svg>
