<svg width="293" height="64" viewBox="0 0 293 64" fill="none" xmlns="http://www.w3.org/2000/svg">
<path d="M122.38 47.6188H97.1068L129.372 4.88699C130.075 3.94869 129.879 2.58033 128.942 1.8766C128.59 1.60293 128.122 1.44655 127.653 1.44655H80.9744C76.8729 1.44655 73.5137 4.8088 73.5137 8.91387C73.5137 13.0189 76.8729 16.3812 80.9744 16.3812H101.95L69.5685 59.1521C68.8263 60.0904 69.0216 61.4197 69.9591 62.1625C70.3497 62.4753 70.8184 62.6316 71.2872 62.5925H122.34C126.442 62.3971 129.606 58.8784 129.411 54.7343C129.215 50.9029 126.169 47.8534 122.34 47.6579V47.6188H122.38ZM285.5 1.44655C281.399 1.44655 278.039 4.8088 278.039 8.91387V33.9743L237.728 1.9548C236.83 1.21197 235.462 1.32926 234.72 2.26756C234.408 2.65852 234.252 3.12767 234.252 3.63592V55.1252C234.252 59.2303 237.611 62.5925 241.712 62.5925C245.814 62.5925 249.173 59.2694 249.173 55.1252V30.0647L289.484 62.1234C290.422 62.8662 291.789 62.7098 292.531 61.7715C292.844 61.3806 293 60.9114 293 60.4423V8.91387C292.961 4.7697 289.641 1.44655 285.5 1.44655ZM178.823 49.0263C161.753 49.0263 149.019 40.0342 149.019 31.9805C149.019 23.9267 161.793 14.9346 178.823 14.9346C195.893 14.9346 208.627 23.9267 208.627 31.9805C208.627 40.0342 195.932 49.0263 178.823 49.0263ZM178.823 0C154.137 0 134.098 14.3091 134.098 31.9805C134.098 49.6518 154.137 63.9609 178.823 63.9609C203.51 63.9609 223.549 49.6518 223.549 31.9805C223.549 14.3091 203.51 0 178.823 0ZM31.9913 49.0654C22.5775 49.0654 14.9215 41.4417 14.9215 32.0195C14.9215 22.5974 22.5385 14.9346 31.9523 14.9346C41.3661 14.9346 49.0221 22.5583 49.0221 31.9805V32.0195C49.0221 41.4026 41.4051 49.0263 31.9913 49.0654ZM31.9913 0C14.3356 0 0.0390615 14.3091 0 31.9805C0 49.6518 14.2965 63.9609 31.9523 64C49.6081 64 63.9046 49.6909 63.9436 32.0195V31.9805C63.9046 14.3091 49.6081 0 31.9913 0Z" fill="#005BFF"/>
</svg>
