<svg width="298" height="64" viewBox="0 0 298 64" fill="none" xmlns="http://www.w3.org/2000/svg">
<g clip-path="url(#clip0_40_4712)">
<path d="M18.2504 6.37868L-0.630066 51.2747H6.09622L10.579 40.5867H32.6736L37.0073 51.2747H43.938L25.181 6.37868H18.2504ZM12.9438 34.688L21.5369 12.9856L30.2683 34.688H12.9438ZM77.3778 51.3408H106.552V45.5104H83.6529V31.7717H105.579V25.8133H83.655V12.3392H106.552V6.37868H77.3778V51.3408ZM66.0602 0.548279H64.9619C64.8594 2.51994 64.0272 4.38252 62.628 5.77226C61.2288 7.16201 59.3629 7.97911 57.3948 8.06401V9.16268C61.5987 9.35681 64.7022 12.5973 64.9619 16.8085H66.0602C66.136 14.8152 66.9561 12.9231 68.3579 11.507C69.7598 10.091 71.6412 9.25429 73.6294 9.16268V8.12801C71.6594 8.01606 69.7993 7.18172 68.4035 5.78394C67.0076 4.38616 66.1736 2.52261 66.0602 0.548279ZM68.5187 18.8181H62.4395V51.2768H68.5187V18.8181ZM53.7038 6.37868H47.5608V51.2747H53.706V6.37868H53.7038ZM221.625 18.1056C211.806 18.1056 204.937 25.3611 204.937 35.1424C204.937 45.12 212.119 52.3115 221.882 52.3115C227.512 52.3115 232.3 50.1077 235.209 45.9605L230.939 42.3339C229.871 43.7136 228.495 44.8245 226.923 45.5781C225.351 46.3317 223.625 46.7074 221.882 46.6752C216.322 46.6752 211.793 42.7861 211.142 37.4741H237.338C237.49 36.5758 237.554 35.6649 237.532 34.7541C237.538 25.4251 230.939 18.1056 221.625 18.1056ZM211.148 32.2283C211.793 27.0443 215.869 23.6779 221.625 23.6779C226.931 23.6779 230.682 27.0592 231.329 32.2283H211.148ZM248.666 27.3685C248.666 24.9088 251.316 23.4155 255.003 23.4155C258.624 23.4155 260.952 25.2288 262.119 27.0464L266.968 24C264.965 21.1499 261.342 18.1056 255.197 18.1056C247.889 18.1056 242.519 21.6683 242.519 27.6907C242.519 39.744 261.546 34.8843 261.546 42.2059C261.546 45.12 258.7 46.8672 254.69 46.8672C250.486 46.8672 247.632 44.3413 246.097 42.656L241.42 46.2187C242.583 47.9061 246.329 52.3115 254.679 52.3115C263.217 52.3115 267.681 47.9061 267.681 42.0757C267.681 29.376 248.666 34.1696 248.666 27.3685ZM278.353 27.3707C278.353 24.9109 281.005 23.4155 284.694 23.4155C288.315 23.4155 290.644 25.2288 291.808 27.0464L296.659 24.0107C294.656 21.1605 291.031 18.1141 284.888 18.1141C277.576 18.1141 272.21 21.6768 272.21 27.7013C272.21 39.7547 291.238 34.8928 291.238 42.2144C291.238 45.1285 288.39 46.8779 284.377 46.8779C280.173 46.8779 277.319 44.352 275.784 42.6667L271.127 46.2293C272.293 47.9168 276.037 52.3221 284.388 52.3221C292.928 52.3221 297.389 47.9168 297.389 42.0864C297.372 29.376 278.353 34.1739 278.353 27.3707ZM163.281 18.1056C154.937 18.1056 146.139 23.1573 146.139 36.4395V63.4539H152.221V47.3877C154.807 50.4341 158.947 52.2475 163.476 52.2475C173.298 52.2475 179.839 44.4715 179.839 35.2064C179.839 25.8133 173.892 18.1056 163.281 18.1056ZM163.102 46.6752C157.344 46.6752 152.106 42.592 152.106 35.1424C152.106 28.2752 157.344 23.6779 163.102 23.6779C169.241 23.6779 173.774 28.0811 173.774 35.1424C173.76 42.0757 169.241 46.6752 163.102 46.6752ZM191.354 23.4155V18.8821H185.275V51.3408H191.354V34.688C191.354 26.5899 196.265 23.9979 202.74 24.448V18.688C196.786 18.3616 193.1 20.8853 191.352 23.4133L191.354 23.4155ZM143.811 18.8181H136.371L127.123 30.4149L118.002 18.8181H110.111L123.304 35.1424L109.979 51.3408H117.225L126.865 39.4837L136.501 51.3408H143.94L130.616 34.9504L143.813 18.8181H143.811Z" fill="#DE2622"/>
</g>
<defs>
<clipPath id="clip0_40_4712">
<rect width="298" height="64" fill="white"/>
</clipPath>
</defs>
</svg>
