<svg width="548" height="64" viewBox="0 0 548 64" fill="none" xmlns="http://www.w3.org/2000/svg">
<g clip-path="url(#clip0_40_4678)">
<mask id="mask0_40_4678" style="mask-type:luminance" maskUnits="userSpaceOnUse" x="0" y="-42" width="548" height="148">
<path d="M548 -41.1429H0V105.143H548V-41.1429Z" fill="white"/>
</mask>
<g mask="url(#mask0_40_4678)">
<path d="M17.0117 62.8309L0.2854 1.1056H11.2574L24.1088 48.5138L37.8821 1.10148L48.1098 1.1056L61.9313 48.7657L74.8406 1.11726L85.8122 1.10148L69.0788 62.8199L56.3611 62.8069L43.0002 16.7113L29.6267 62.8187L17.0117 62.8309Z" fill="url(#paint0_linear_40_4678)"/>
<path d="M93.3792 1.1376H103.823V62.7909H93.3792V1.1376Z" fill="url(#paint1_linear_40_4678)"/>
<path d="M126.153 53.1198H151.58V62.7909H115.925V1.1376H126.153V53.1198Z" fill="url(#paint2_linear_40_4678)"/>
<path d="M183.706 1.20868C192.277 1.20868 199.408 4.19543 205.026 10.0976C210.717 15.9998 213.598 23.3243 213.598 31.9998C213.598 40.6043 210.717 47.9287 205.026 53.9019C199.408 59.8043 192.277 62.7909 183.706 62.7909H159.143V1.1376H183.706V1.20868ZM183.706 53.1909C189.612 53.1909 194.438 51.1998 198.039 47.2176C201.785 43.2354 203.658 38.1154 203.658 32.0709C203.658 25.8843 201.785 20.9065 198.039 16.9243C194.366 12.9419 189.54 10.9509 183.706 10.9509H169.444V53.1909H183.706Z" fill="url(#paint3_linear_40_4678)"/>
<path d="M268.7 45.1783C268.7 50.2297 266.901 54.4274 263.227 57.7714C259.553 61.1154 255.231 62.8229 249.902 62.8229H223.178V1.1376H247.956C253.071 1.1376 257.391 2.84526 260.921 6.04686C264.524 9.31954 266.253 13.3751 266.253 18.213C266.253 23.6203 264.09 27.747 259.914 30.8064C265.387 33.6523 268.7 38.7749 268.7 45.1783ZM233.478 10.6715V26.8933H248.027C252.566 26.8933 256.023 23.3358 256.023 18.7824C256.023 14.2288 252.566 10.6715 248.027 10.6715H233.478ZM249.972 53.2891C254.726 53.2891 258.473 49.5182 258.473 44.6802C258.473 39.8421 254.726 36.0713 249.972 36.0713H233.478V53.3602H249.972V53.2891Z" fill="url(#paint4_linear_40_4678)"/>
<path d="M288.652 53.1467H316.312V62.8229H278.425V1.1376H315.881V10.8137H288.652V26.8219H313.648V36.427H288.652V53.1467Z" fill="url(#paint5_linear_40_4678)"/>
<path d="M361.116 62.8229L347.861 40.3401H335.76V62.8229H325.533V1.1376H350.526C356.145 1.1376 360.899 3.05852 364.717 6.97166C368.605 10.7426 370.624 15.4384 370.624 20.9879C370.624 28.8142 365.653 36 358.234 38.8459L372.423 62.8229H361.116ZM335.76 10.6713V31.3042H350.455C355.928 31.3042 360.251 26.7509 360.251 20.9879C360.251 15.296 355.857 10.6713 350.455 10.6713H335.76Z" fill="url(#paint6_linear_40_4678)"/>
<path d="M415.786 62.8226L402.604 40.3282H390.503V62.8226H380.275V1.10537H405.269C410.888 1.10537 415.642 3.02743 419.46 6.94263C423.348 10.7154 425.367 15.4135 425.367 20.9659C425.367 28.7963 420.396 35.9861 412.977 38.8334L427.166 62.8226H415.786ZM390.503 10.6441V31.2878H405.198C410.671 31.2878 414.994 26.7319 414.994 20.9659C414.994 15.2713 410.6 10.6441 405.198 10.6441H390.503Z" fill="url(#paint7_linear_40_4678)"/>
<path d="M434.658 1.11246H444.887V62.8229H434.658V1.11246Z" fill="url(#paint8_linear_40_4678)"/>
<path d="M467.216 53.1467H494.876V62.8226H456.986V1.1376H494.442V10.8137H467.216V26.8219H492.209V36.427H467.216V53.1467Z" fill="url(#paint9_linear_40_4678)"/>
<path d="M502.007 48.7822L510.866 43.6622C513.387 50.6311 518.502 54.0443 526.352 54.0443C534.131 54.0443 537.949 50.7733 537.949 45.9378C537.949 43.3778 536.869 41.5289 534.853 40.2489C532.834 38.8978 529.089 37.4043 523.76 35.84C517.78 34.0622 514.828 32.9243 510.649 30.2222C506.617 27.3778 504.598 23.3243 504.598 17.7778C504.598 12.3022 506.544 8.03566 510.505 4.83566C514.396 1.56434 519.15 0 524.696 0C534.709 0 542.415 5.12 546.45 13.5822L537.805 18.4889C535.211 12.8 530.818 9.88434 524.696 9.88434C518.716 9.88434 514.898 12.8711 514.898 17.5643C514.898 22.1157 517.924 24.2489 527.505 27.1643C529.882 27.9467 531.61 28.5157 532.69 28.9422C533.843 29.2978 535.355 29.9378 537.3 30.72C539.319 31.5022 540.903 32.4267 541.84 33.2089C545.153 35.7689 548.68 39.9643 548.249 45.8667C548.249 51.4133 546.233 55.8933 542.127 59.1643C538.093 62.4357 532.763 64 526.137 64C514.035 63.9289 505.247 58.24 502.007 48.7822Z" fill="url(#paint10_linear_40_4678)"/>
</g>
</g>
<defs>
<linearGradient id="paint0_linear_40_4678" x1="7.10302e-07" y1="-5.71504e-06" x2="548" y2="64" gradientUnits="userSpaceOnUse">
<stop stop-color="#CB11AB"/>
<stop offset="1" stop-color="#481173"/>
</linearGradient>
<linearGradient id="paint1_linear_40_4678" x1="7.10302e-07" y1="-5.71504e-06" x2="548" y2="64" gradientUnits="userSpaceOnUse">
<stop stop-color="#CB11AB"/>
<stop offset="1" stop-color="#481173"/>
</linearGradient>
<linearGradient id="paint2_linear_40_4678" x1="7.10302e-07" y1="-5.71504e-06" x2="548" y2="64" gradientUnits="userSpaceOnUse">
<stop stop-color="#CB11AB"/>
<stop offset="1" stop-color="#481173"/>
</linearGradient>
<linearGradient id="paint3_linear_40_4678" x1="7.10302e-07" y1="-5.71504e-06" x2="548" y2="64" gradientUnits="userSpaceOnUse">
<stop stop-color="#CB11AB"/>
<stop offset="1" stop-color="#481173"/>
</linearGradient>
<linearGradient id="paint4_linear_40_4678" x1="7.10302e-07" y1="-5.71504e-06" x2="548" y2="64" gradientUnits="userSpaceOnUse">
<stop stop-color="#CB11AB"/>
<stop offset="1" stop-color="#481173"/>
</linearGradient>
<linearGradient id="paint5_linear_40_4678" x1="7.10302e-07" y1="-5.71504e-06" x2="548" y2="64" gradientUnits="userSpaceOnUse">
<stop stop-color="#CB11AB"/>
<stop offset="1" stop-color="#481173"/>
</linearGradient>
<linearGradient id="paint6_linear_40_4678" x1="7.10302e-07" y1="-5.71504e-06" x2="548" y2="64" gradientUnits="userSpaceOnUse">
<stop stop-color="#CB11AB"/>
<stop offset="1" stop-color="#481173"/>
</linearGradient>
<linearGradient id="paint7_linear_40_4678" x1="7.10302e-07" y1="-5.71504e-06" x2="548" y2="64" gradientUnits="userSpaceOnUse">
<stop stop-color="#CB11AB"/>
<stop offset="1" stop-color="#481173"/>
</linearGradient>
<linearGradient id="paint8_linear_40_4678" x1="7.10302e-07" y1="-5.71504e-06" x2="548" y2="64" gradientUnits="userSpaceOnUse">
<stop stop-color="#CB11AB"/>
<stop offset="1" stop-color="#481173"/>
</linearGradient>
<linearGradient id="paint9_linear_40_4678" x1="7.10302e-07" y1="-5.71504e-06" x2="548" y2="64" gradientUnits="userSpaceOnUse">
<stop stop-color="#CB11AB"/>
<stop offset="1" stop-color="#481173"/>
</linearGradient>
<linearGradient id="paint10_linear_40_4678" x1="7.10302e-07" y1="-5.71504e-06" x2="548" y2="64" gradientUnits="userSpaceOnUse">
<stop stop-color="#CB11AB"/>
<stop offset="1" stop-color="#481173"/>
</linearGradient>
<clipPath id="clip0_40_4678">
<rect width="548" height="64" fill="white"/>
</clipPath>
</defs>
</svg>
