<svg width="137" height="128" viewBox="0 0 137 128" fill="none" xmlns="http://www.w3.org/2000/svg">
<path d="M4.72 19V7.2H0.08V5H11.96V7.2H7.32V19H4.72ZM17.3775 19.14C16.2842 19.14 15.3108 18.9067 14.4575 18.44C13.6042 17.96 12.9308 17.3067 12.4375 16.48C11.9442 15.6533 11.6975 14.7133 11.6975 13.66C11.6975 12.5933 11.9442 11.6533 12.4375 10.84C12.9308 10.0133 13.6042 9.36667 14.4575 8.9C15.3108 8.43333 16.2842 8.2 17.3775 8.2C18.4842 8.2 19.4642 8.43333 20.3175 8.9C21.1842 9.36667 21.8575 10.0067 22.3375 10.82C22.8308 11.6333 23.0775 12.58 23.0775 13.66C23.0775 14.7133 22.8308 15.6533 22.3375 16.48C21.8575 17.3067 21.1842 17.96 20.3175 18.44C19.4642 18.9067 18.4842 19.14 17.3775 19.14ZM17.3775 17C17.9908 17 18.5375 16.8667 19.0175 16.6C19.4975 16.3333 19.8708 15.9467 20.1375 15.44C20.4175 14.9333 20.5575 14.34 20.5575 13.66C20.5575 12.9667 20.4175 12.3733 20.1375 11.88C19.8708 11.3733 19.4975 10.9867 19.0175 10.72C18.5375 10.4533 17.9975 10.32 17.3975 10.32C16.7842 10.32 16.2375 10.4533 15.7575 10.72C15.2908 10.9867 14.9175 11.3733 14.6375 11.88C14.3575 12.3733 14.2175 12.9667 14.2175 13.66C14.2175 14.34 14.3575 14.9333 14.6375 15.44C14.9175 15.9467 15.2908 16.3333 15.7575 16.6C16.2375 16.8667 16.7775 17 17.3775 17ZM25.4681 19V8.32H27.8481V11.26L27.5681 10.4C27.8881 9.68 28.3881 9.13333 29.0681 8.76C29.7615 8.38667 30.6215 8.2 31.6481 8.2V10.58C31.5415 10.5533 31.4415 10.54 31.3481 10.54C31.2548 10.5267 31.1615 10.52 31.0681 10.52C30.1215 10.52 29.3681 10.8 28.8081 11.36C28.2481 11.9067 27.9681 12.7267 27.9681 13.82V19H25.4681ZM39.8289 8.2C40.6822 8.2 41.4422 8.36667 42.1089 8.7C42.7889 9.03333 43.3222 9.54667 43.7089 10.24C44.0956 10.92 44.2889 11.8 44.2889 12.88V19H41.7889V13.2C41.7889 12.2533 41.5622 11.5467 41.1089 11.08C40.6689 10.6133 40.0489 10.38 39.2489 10.38C38.6622 10.38 38.1422 10.5 37.6889 10.74C37.2356 10.98 36.8822 11.34 36.6289 11.82C36.3889 12.2867 36.2689 12.88 36.2689 13.6V19H33.7689V8.32H36.1489V11.2L35.7289 10.32C36.1022 9.64 36.6422 9.12 37.3489 8.76C38.0689 8.38667 38.8956 8.2 39.8289 8.2ZM54.0403 19V16.84L53.9003 16.38V12.6C53.9003 11.8667 53.6803 11.3 53.2403 10.9C52.8003 10.4867 52.1336 10.28 51.2403 10.28C50.6403 10.28 50.047 10.3733 49.4603 10.56C48.887 10.7467 48.4003 11.0067 48.0003 11.34L47.0203 9.52C47.5936 9.08 48.2736 8.75333 49.0603 8.54C49.8603 8.31333 50.687 8.2 51.5403 8.2C53.087 8.2 54.2803 8.57333 55.1203 9.32C55.9736 10.0533 56.4003 11.1933 56.4003 12.74V19H54.0403ZM50.6803 19.14C49.8803 19.14 49.1803 19.0067 48.5803 18.74C47.9803 18.46 47.5136 18.08 47.1803 17.6C46.8603 17.1067 46.7003 16.5533 46.7003 15.94C46.7003 15.34 46.8403 14.8 47.1203 14.32C47.4136 13.84 47.887 13.46 48.5403 13.18C49.1936 12.9 50.0603 12.76 51.1403 12.76H54.2403V14.42H51.3203C50.467 14.42 49.8936 14.56 49.6003 14.84C49.307 15.1067 49.1603 15.44 49.1603 15.84C49.1603 16.2933 49.3403 16.6533 49.7003 16.92C50.0603 17.1867 50.5603 17.32 51.2003 17.32C51.8136 17.32 52.3603 17.18 52.8403 16.9C53.3336 16.62 53.687 16.2067 53.9003 15.66L54.3203 17.16C54.0803 17.7867 53.647 18.2733 53.0203 18.62C52.407 18.9667 51.627 19.14 50.6803 19.14ZM64.1483 19.14C63.1216 19.14 62.1949 18.9133 61.3683 18.46C60.5549 17.9933 59.9149 17.3533 59.4483 16.54C58.9816 15.7267 58.7483 14.7667 58.7483 13.66C58.7483 12.5533 58.9816 11.5933 59.4483 10.78C59.9149 9.96667 60.5549 9.33333 61.3683 8.88C62.1949 8.42667 63.1216 8.2 64.1483 8.2C65.0416 8.2 65.8416 8.4 66.5483 8.8C67.2549 9.18667 67.8149 9.78 68.2283 10.58C68.6416 11.38 68.8483 12.4067 68.8483 13.66C68.8483 14.9 68.6483 15.9267 68.2483 16.74C67.8483 17.54 67.2949 18.14 66.5883 18.54C65.8816 18.94 65.0683 19.14 64.1483 19.14ZM64.4483 17C65.0483 17 65.5816 16.8667 66.0483 16.6C66.5283 16.3333 66.9083 15.9467 67.1883 15.44C67.4816 14.9333 67.6283 14.34 67.6283 13.66C67.6283 12.9667 67.4816 12.3733 67.1883 11.88C66.9083 11.3733 66.5283 10.9867 66.0483 10.72C65.5816 10.4533 65.0483 10.32 64.4483 10.32C63.8483 10.32 63.3083 10.4533 62.8283 10.72C62.3616 10.9867 61.9816 11.3733 61.6883 11.88C61.4083 12.3733 61.2683 12.9667 61.2683 13.66C61.2683 14.34 61.4083 14.9333 61.6883 15.44C61.9816 15.9467 62.3616 16.3333 62.8283 16.6C63.3083 16.8667 63.8483 17 64.4483 17ZM67.6883 19V16.48L67.7883 13.64L67.5883 10.8V4.16H70.0683V19H67.6883ZM78.1588 19.14C77.0654 19.14 76.0921 18.9067 75.2388 18.44C74.3854 17.96 73.7121 17.3067 73.2188 16.48C72.7254 15.6533 72.4788 14.7133 72.4788 13.66C72.4788 12.5933 72.7254 11.6533 73.2188 10.84C73.7121 10.0133 74.3854 9.36667 75.2388 8.9C76.0921 8.43333 77.0654 8.2 78.1588 8.2C79.2654 8.2 80.2454 8.43333 81.0988 8.9C81.9654 9.36667 82.6388 10.0067 83.1188 10.82C83.6121 11.6333 83.8588 12.58 83.8588 13.66C83.8588 14.7133 83.6121 15.6533 83.1188 16.48C82.6388 17.3067 81.9654 17.96 81.0988 18.44C80.2454 18.9067 79.2654 19.14 78.1588 19.14ZM78.1588 17C78.7721 17 79.3188 16.8667 79.7988 16.6C80.2788 16.3333 80.6521 15.9467 80.9188 15.44C81.1988 14.9333 81.3388 14.34 81.3388 13.66C81.3388 12.9667 81.1988 12.3733 80.9188 11.88C80.6521 11.3733 80.2788 10.9867 79.7988 10.72C79.3188 10.4533 78.7788 10.32 78.1788 10.32C77.5654 10.32 77.0188 10.4533 76.5388 10.72C76.0721 10.9867 75.6988 11.3733 75.4188 11.88C75.1388 12.3733 74.9988 12.9667 74.9988 13.66C74.9988 14.34 75.1388 14.9333 75.4188 15.44C75.6988 15.9467 76.0721 16.3333 76.5388 16.6C77.0188 16.8667 77.5588 17 78.1588 17ZM98.4967 19.12C97.4434 19.12 96.4701 18.9467 95.5767 18.6C94.6834 18.24 93.9101 17.74 93.2567 17.1C92.6034 16.46 92.0901 15.7067 91.7167 14.84C91.3567 13.9733 91.1767 13.0267 91.1767 12C91.1767 10.9733 91.3567 10.0267 91.7167 9.16C92.0901 8.29333 92.6034 7.54 93.2567 6.9C93.9234 6.26 94.7034 5.76667 95.5967 5.42C96.4901 5.06 97.4634 4.88 98.5167 4.88C99.5301 4.88 100.483 5.05333 101.377 5.4C102.27 5.73333 103.023 6.24 103.637 6.92L102.697 7.86C102.123 7.27333 101.49 6.85333 100.797 6.6C100.103 6.33333 99.3567 6.2 98.5567 6.2C97.7167 6.2 96.9367 6.34667 96.2167 6.64C95.4967 6.92 94.8701 7.32667 94.3367 7.86C93.8034 8.38 93.3834 8.99333 93.0767 9.7C92.7834 10.3933 92.6367 11.16 92.6367 12C92.6367 12.84 92.7834 13.6133 93.0767 14.32C93.3834 15.0133 93.8034 15.6267 94.3367 16.16C94.8701 16.68 95.4967 17.0867 96.2167 17.38C96.9367 17.66 97.7167 17.8 98.5567 17.8C99.3567 17.8 100.103 17.6667 100.797 17.4C101.49 17.1333 102.123 16.7067 102.697 16.12L103.637 17.06C103.023 17.74 102.27 18.2533 101.377 18.6C100.483 18.9467 99.5234 19.12 98.4967 19.12ZM106.492 19V4.16H107.912V19H106.492ZM116.203 19.1C115.309 19.1 114.529 18.9333 113.863 18.6C113.196 18.2667 112.676 17.7667 112.303 17.1C111.943 16.4333 111.763 15.6 111.763 14.6V8.5H113.183V14.44C113.183 15.56 113.456 16.4067 114.003 16.98C114.563 17.54 115.343 17.82 116.343 17.82C117.076 17.82 117.709 17.6733 118.243 17.38C118.789 17.0733 119.203 16.6333 119.483 16.06C119.776 15.4867 119.923 14.8 119.923 14V8.5H121.343V19H119.983V16.12L120.203 16.64C119.869 17.4133 119.349 18.02 118.643 18.46C117.949 18.8867 117.136 19.1 116.203 19.1ZM130.72 19.1C129.8 19.1 128.974 18.8933 128.24 18.48C127.507 18.0533 126.927 17.44 126.5 16.64C126.074 15.84 125.86 14.8733 125.86 13.74C125.86 12.5933 126.074 11.6267 126.5 10.84C126.94 10.04 127.527 9.43333 128.26 9.02C128.994 8.60667 129.814 8.4 130.72 8.4C131.72 8.4 132.614 8.62667 133.4 9.08C134.2 9.52 134.827 10.14 135.28 10.94C135.734 11.74 135.96 12.6733 135.96 13.74C135.96 14.7933 135.734 15.7267 135.28 16.54C134.827 17.34 134.2 17.9667 133.4 18.42C132.614 18.8733 131.72 19.1 130.72 19.1ZM125.3 19V4.16H126.72V11.6L126.52 13.72L126.66 15.84V19H125.3ZM130.62 17.84C131.367 17.84 132.034 17.6733 132.62 17.34C133.207 16.9933 133.674 16.5133 134.02 15.9C134.367 15.2733 134.54 14.5533 134.54 13.74C134.54 12.9133 134.367 12.1933 134.02 11.58C133.674 10.9667 133.207 10.4933 132.62 10.16C132.034 9.81333 131.367 9.64 130.62 9.64C129.874 9.64 129.2 9.81333 128.6 10.16C128.014 10.4933 127.547 10.9667 127.2 11.58C126.867 12.1933 126.7 12.9133 126.7 13.74C126.7 14.5533 126.867 15.2733 127.2 15.9C127.547 16.5133 128.014 16.9933 128.6 17.34C129.2 17.6733 129.874 17.84 130.62 17.84Z" fill="white"/>
<g filter="url(#filter0_d_91_2)">
<path d="M64.6067 79.915C66.4997 83.3987 71.5003 83.3987 73.3933 79.915L99.6269 31.6373C101.437 28.3056 99.0254 24.25 95.2336 24.25H42.7664C38.9746 24.25 36.5627 28.3056 38.3731 31.6373L64.6067 79.915Z" fill="url(#paint0_linear_91_2)" shape-rendering="crispEdges"/>
</g>
<defs>
<filter id="filter0_d_91_2" x="17.7594" y="24.25" width="102.481" height="103.278" filterUnits="userSpaceOnUse" color-interpolation-filters="sRGB">
<feFlood flood-opacity="0" result="BackgroundImageFix"/>
<feColorMatrix in="SourceAlpha" type="matrix" values="0 0 0 0 0 0 0 0 0 0 0 0 0 0 0 0 0 0 127 0" result="hardAlpha"/>
<feOffset dy="25"/>
<feGaussianBlur stdDeviation="10"/>
<feComposite in2="hardAlpha" operator="out"/>
<feColorMatrix type="matrix" values="0 0 0 0 0.353026 0 0 0 0 0.135625 0 0 0 0 0.525 0 0 0 1 0"/>
<feBlend mode="normal" in2="BackgroundImageFix" result="effect1_dropShadow_91_2"/>
<feBlend mode="normal" in="SourceGraphic" in2="effect1_dropShadow_91_2" result="shape"/>
</filter>
<linearGradient id="paint0_linear_91_2" x1="69" y1="88" x2="69" y2="21" gradientUnits="userSpaceOnUse">
<stop stop-color="#9E00FF" stop-opacity="0.75"/>
<stop offset="1" stop-color="#8542BA"/>
</linearGradient>
</defs>
</svg>
