<svg width="50" height="50" viewBox="0 0 50 50" fill="none" xmlns="http://www.w3.org/2000/svg">
<path d="M24.707 2.14844C24.5703 2.1875 19.4922 4.70703 13.418 7.74414C2.99805 12.959 2.36328 13.291 2.20703 13.6035C2.06055 13.916 2.05078 14.9512 2.05078 25C2.05078 35.0488 2.06055 36.084 2.20703 36.3965C2.36328 36.709 2.99805 37.0508 13.5156 42.3047C21.875 46.4844 24.7461 47.8809 25 47.8809C25.2539 47.8809 28.125 46.4844 36.4844 42.3047C47.002 37.0508 47.6367 36.709 47.793 36.3965C47.9395 36.084 47.9492 35.0488 47.9492 25C47.9492 14.9512 47.9395 13.916 47.793 13.6035C47.6367 13.291 47.002 12.959 36.5332 7.72461C30.4297 4.67773 25.332 2.1582 25.1953 2.12891C25.0586 2.09961 24.8438 2.10938 24.707 2.14844ZM34.7168 9.15039C40.0586 11.8262 44.4336 14.0332 44.4336 14.0625C44.4336 14.0918 43.5254 14.5703 42.4023 15.127L40.3809 16.1328L30.6152 11.25L20.8496 6.37695L22.9004 5.3418C24.0332 4.77539 24.9609 4.30664 24.9707 4.30664C24.9902 4.29688 29.375 6.48438 34.7168 9.15039ZM35.0293 18.8086L32.0312 20.3125L22.3145 15.459C16.9727 12.7832 12.5977 10.5762 12.5977 10.5469C12.5977 10.5176 13.9258 9.83398 15.5566 9.02344L18.5059 7.54883L28.2715 12.4219L38.0371 17.3047L35.0293 18.8086ZM19.873 16.5723C25.2148 19.248 29.5898 21.4551 29.5898 21.4844C29.5898 21.5137 28.5547 22.0508 27.2949 22.6855L25 23.8281L15.2832 18.9746C9.94141 16.2988 5.56641 14.0918 5.56641 14.0625C5.56641 14.0234 10 11.7578 10.127 11.7285C10.1465 11.7188 14.5312 13.9062 19.873 16.5723ZM14.1113 20.7227L23.9258 25.6348V35.3711C23.9258 40.7324 23.9062 45.1172 23.877 45.1172C23.8477 45.1172 19.4141 42.9102 14.0137 40.2148L4.19922 35.3027V25.5664C4.19922 20.2051 4.21875 15.8203 4.24805 15.8203C4.27734 15.8203 8.71094 18.0273 14.1113 20.7227ZM45.8008 25.5664V35.3027L35.9863 40.2148C30.5859 42.9102 26.1523 45.1172 26.123 45.1172C26.0938 45.1172 26.0742 40.7324 26.0742 35.3711V25.6348L28.3691 24.4824C29.6289 23.8574 30.6836 23.3398 30.7129 23.3398C30.7422 23.3398 30.7617 25.625 30.7617 28.4277V33.5156L31.0449 33.7988C31.4844 34.2383 32.2559 34.1699 32.627 33.6621C32.7148 33.5449 33.6523 32.1973 34.707 30.6641C35.7715 29.1309 36.6699 27.8711 36.7188 27.8516C36.7578 27.832 37.4121 28.2617 38.1641 28.7988C38.916 29.3457 39.6484 29.8242 39.7949 29.8828C40.1465 30.0195 40.6543 29.8535 40.918 29.5215C41.1133 29.2773 41.1133 29.1406 41.1133 23.6914V18.1152L43.3887 16.9727C44.6289 16.3477 45.6836 15.8301 45.7324 15.8301C45.7715 15.8203 45.8008 20.2051 45.8008 25.5664ZM39.0625 23.0078V26.875L38.4082 26.4062C37.041 25.4297 36.8066 25.293 36.4551 25.293C36.2695 25.293 36.0352 25.3418 35.9375 25.3906C35.8398 25.4492 35.2148 26.2695 34.5605 27.2266C33.8965 28.1738 33.2324 29.1309 33.0859 29.3359L32.8125 29.7168V25.9961V22.2656L35.918 20.7129C37.6172 19.8535 39.0234 19.1504 39.043 19.1504C39.0527 19.1406 39.0625 20.8789 39.0625 23.0078Z" fill="#313131"/>
</svg>
