<svg width="350" height="350" viewBox="0 0 350 350" fill="none" xmlns="http://www.w3.org/2000/svg">
<path d="M163.784 251.072C149.107 251.072 135.965 247.488 124.36 240.32C112.755 232.981 103.624 222.4 96.968 208.576C90.312 194.752 86.984 178.027 86.984 158.4C86.984 138.773 90.312 122.048 96.968 108.224C103.624 94.4 112.755 83.904 124.36 76.736C135.965 69.3973 149.107 65.728 163.784 65.728C178.632 65.728 191.773 69.3973 203.208 76.736C214.813 83.904 223.944 94.4 230.6 108.224C237.256 122.048 240.584 138.773 240.584 158.4C240.584 178.027 237.256 194.752 230.6 208.576C223.944 222.4 214.813 232.981 203.208 240.32C191.773 247.488 178.632 251.072 163.784 251.072ZM163.784 216C170.781 216 176.84 214.037 181.96 210.112C187.251 206.187 191.347 199.957 194.248 191.424C197.32 182.891 198.856 171.883 198.856 158.4C198.856 144.917 197.32 133.909 194.248 125.376C191.347 116.843 187.251 110.613 181.96 106.688C176.84 102.763 170.781 100.8 163.784 100.8C156.957 100.8 150.899 102.763 145.608 106.688C140.488 110.613 136.392 116.843 133.32 125.376C130.419 133.909 128.968 144.917 128.968 158.4C128.968 171.883 130.419 182.891 133.32 191.424C136.392 199.957 140.488 206.187 145.608 210.112C150.899 214.037 156.957 216 163.784 216ZM287.382 248V84.16L305.302 102.08H251.542V68.8H328.854V248H287.382Z" fill="#C2C2C2"/>
<g clip-path="url(#clip0_30_3580)">
<path d="M53.8053 276.492L105.677 284.475L210.539 220.847L162.484 193.458L151.866 191.22L53.8053 276.492Z" fill="#C2A49D"/>
<path d="M53.8053 125.881V276.492L33.993 265.068L23.3235 258.915L0 245.458V94.8475L23.3235 108.288V108.305L33.993 114.458L53.8053 125.881Z" fill="#CDAD8A"/>
<path d="M157.548 216.644L53.8053 276.492V125.881L157.548 66.0339V216.644Z" fill="#A48465"/>
<path d="M157.548 66.0339L53.8053 125.881L33.993 114.458L23.3235 108.288L0 94.8475L103.726 35L127.067 48.4576L137.736 54.6102L157.548 66.0339Z" fill="#F0CFA8"/>
<path d="M135.344 53.017L31.6013 112.847L20.9318 106.695L124.675 46.8475L135.344 53.017Z" fill="#F0DCC5"/>
<path d="M23.985 87.3898C23.7985 87.2543 23.5271 87.1187 23.5271 87.1187C23.5271 87.1187 23.4083 87.4576 23.5101 87.6271C23.5101 87.6441 23.5271 87.6441 23.5271 87.661C21.3728 89.0848 23.2557 90.3221 23.2557 90.3221L23.2726 90.3051C23.1539 90.1865 23.1878 90.0339 23.3574 89.9322C23.5271 89.8305 23.7985 89.8136 24.019 89.8814L24.0699 89.8644C23.9511 89.7458 23.985 89.5932 24.1547 89.4915C24.3243 89.3899 24.5957 89.3729 24.8162 89.4407L24.8671 89.4237C24.7484 89.3051 24.7823 89.1526 24.9519 89.0509C25.1215 88.9492 25.3929 88.9322 25.6135 89L25.6643 88.9831C25.5965 88.9153 25.5795 88.8305 25.6135 88.7627L28.3614 90.339C28.5141 90.4238 28.5141 90.5593 28.3784 90.6271C28.2426 90.7119 28.0221 90.6949 27.8695 90.6102L27.4284 90.356C27.3097 90.2882 27.1231 90.2882 27.0213 90.339C26.9196 90.4068 26.9196 90.5085 27.0383 90.5763L27.4793 90.8305C27.8695 91.0509 28.4632 91.0678 28.8194 90.8644C29.1756 90.661 29.1417 90.3221 28.7685 90.1017L26.0206 88.5254C26.1563 88.5085 26.292 88.5254 26.4107 88.5593L26.4616 88.5424C26.3428 88.4237 26.3768 88.2712 26.5464 88.1695C26.716 88.0678 26.9874 88.0509 27.2079 88.1187L27.2419 88.1017C27.1231 87.9831 27.157 87.8305 27.3267 87.7288C27.4963 87.6271 27.7677 87.6102 27.9882 87.678L28.0391 87.661C27.9204 87.5424 27.9543 87.3899 28.1239 87.2882C28.2935 87.1865 28.5649 87.1695 28.7855 87.2373L28.8024 87.2204C28.7176 87.1695 26.4446 86.0848 23.985 87.3898Z" fill="#7F6B59"/>
<path d="M22.4245 88.1701C22.5941 88.1362 22.6789 88.0344 22.5602 87.8648C22.4415 87.6951 21.9665 87.4746 21.9665 87.4746C21.9665 87.4746 21.8478 87.8139 21.9495 87.9835C22.0513 88.1362 22.2549 88.204 22.4245 88.1701Z" fill="#7F6B59"/>
<path d="M22.8825 87.4243C23.0521 87.3904 23.1369 87.2886 23.0182 87.119C22.9164 86.9493 22.4245 86.7288 22.4245 86.7288C22.4245 86.7288 22.3057 87.0681 22.4075 87.2377C22.5093 87.3904 22.6959 87.4412 22.8825 87.4243Z" fill="#7F6B59"/>
<path d="M24.6805 85.9665C24.7823 86.1361 24.9858 86.204 25.1555 86.1701C25.3251 86.1361 25.4099 86.0344 25.2912 85.8647C25.1724 85.6951 24.6975 85.4746 24.6975 85.4746C24.6975 85.4746 24.5618 85.8139 24.6805 85.9665Z" fill="#7F6B59"/>
<path d="M25.8509 86.492C25.9697 86.6616 26.1563 86.7295 26.3259 86.6955C26.4955 86.6616 26.5803 86.5598 26.4616 86.3902C26.3429 86.2206 25.8679 86.0001 25.8679 86.0001C25.8679 86.0001 25.7492 86.3223 25.8509 86.492Z" fill="#7F6B59"/>
<path d="M23.3235 86.5429C23.4931 86.509 23.578 86.4072 23.4592 86.2376C23.3574 86.068 22.8655 85.8475 22.8655 85.8475C22.8655 85.8475 22.7468 86.1867 22.8486 86.3563C22.9673 86.509 23.1539 86.5769 23.3235 86.5429Z" fill="#7F6B59"/>
<path d="M24.0699 86.7462C24.1886 86.9158 24.3752 86.9837 24.5448 86.9497C24.7145 86.9158 24.7993 86.814 24.6805 86.6444C24.5618 86.4748 24.0868 86.2543 24.0868 86.2543C24.0868 86.2543 23.9681 86.5766 24.0699 86.7462Z" fill="#7F6B59"/>
<path d="M23.8663 85.7294C24.036 85.6955 24.1208 85.5937 24.002 85.4241C23.8833 85.2544 23.4083 85.0339 23.4083 85.0339C23.4083 85.0339 23.2896 85.3732 23.3914 85.5428C23.5101 85.6955 23.6967 85.7633 23.8663 85.7294Z" fill="#7F6B59"/>
<path d="M34.5527 88.678L25.834 93.7119C25.7492 93.7628 25.6135 93.7628 25.5287 93.7119L16.1144 88.2543C16.0296 88.2034 16.0296 88.1187 16.0975 88.0848L24.8162 83.0509C24.901 83 25.0367 83 25.1216 83.0509L34.5527 88.4916C34.6376 88.5424 34.6376 88.6272 34.5527 88.678ZM25.6813 93.4407L34.1117 88.5763L25.0028 83.3221L16.5724 88.1865L25.6813 93.4407Z" fill="#7F6B59"/>
<path d="M13.2647 89.6611L4.54596 94.678C4.46115 94.7289 4.47811 94.7967 4.56293 94.8475L13.9941 100.288C14.0789 100.339 14.2146 100.339 14.2994 100.288L23.0182 95.2543C23.103 95.2034 23.0861 95.1356 23.0012 95.0848L13.5701 89.6611C13.4852 89.6272 13.3495 89.6102 13.2647 89.6611ZM22.5602 95.1865L14.1298 100.051L5.02092 94.7966L13.4513 89.9322L22.5602 95.1865Z" fill="#7F6B59"/>
<path d="M13.1969 94.9323L15.9448 96.5085L15.2493 97.4068L16.3858 96.7628L16.8099 96.5085L17.9803 95.8306L16.3858 96.2543L13.6379 94.678C14.1637 94.3221 14.4182 93.8645 14.3842 93.4068C14.3503 92.8984 13.9771 92.3899 13.2986 92.0001L10.3302 93.7119L10.4998 94.1187L11.2122 93.9492L11.4836 95.0679L10.7373 94.4916L10.2454 94.5255L9.75347 94.0509L8.61697 94.7119C9.90613 95.4577 11.8908 95.5424 13.1969 94.9323Z" fill="#7F6B59"/>
<path d="M33.3823 79.7797L32.8056 81.1865L35.2652 80.8644L35.8249 79.4576L33.3823 79.7797Z" fill="#7F6B59"/>
<path d="M34.4679 82.1875L36.9106 81.8652L35.2821 80.9323L32.8395 81.2545L34.4679 82.1875Z" fill="#7F6B59"/>
<path d="M35.9267 79.4746L35.3669 80.8814L36.9953 81.8136L37.5551 80.4068L35.9267 79.4746Z" fill="#7F6B59"/>
<path d="M34.8072 82.5932C34.6545 82.5932 34.5188 82.6441 34.5188 82.7458C34.5019 82.8136 34.5358 82.8475 34.6036 82.8983C34.6884 82.9492 34.8072 82.9831 34.9259 83L36.4695 83.0678C36.5543 83.0678 36.6391 83.1186 36.6561 83.1695C36.6561 83.2034 36.6391 83.2203 36.6052 83.2542C36.5713 83.2712 36.5204 83.2881 36.4695 83.2881L34.9429 83.2203C34.8581 83.2203 34.7733 83.1864 34.7054 83.1525L34.0608 82.7797C33.976 82.7288 33.8742 82.678 33.7725 82.6102L32.8056 82.0509C32.6021 81.9322 32.2628 81.9153 32.0762 82.0339C31.8896 82.1525 31.8896 82.339 32.1101 82.4576L33.8912 83.4746C34.2135 83.661 34.6206 83.7797 35.0447 83.8305L36.9784 84.0509C37.2328 84.0848 37.4533 84.1525 37.6399 84.2542L38.7764 84.9153L39.896 84.2712L37.9453 83.1356C37.5042 82.8814 36.9445 82.7288 36.3508 82.6949L34.8072 82.5932Z" fill="#7F6B59"/>
<path d="M37.2328 79.0339C37.0462 79.1526 37.0462 79.339 37.2668 79.4576L39.1666 80.5424C39.2344 80.5763 39.2683 80.6271 39.2853 80.678L39.3871 81.5593C39.3871 81.5932 39.3701 81.6102 39.3362 81.6271C39.3023 81.6441 39.2514 81.661 39.2005 81.661C39.1157 81.661 39.0309 81.6102 39.0309 81.5593L38.9121 80.678C38.9121 80.6102 38.8443 80.5424 38.7425 80.4915C38.6577 80.4577 38.6068 80.4407 38.4881 80.4407C38.3354 80.4407 38.2167 80.5254 38.2336 80.6102L38.3693 81.4746C38.4202 81.8136 38.6916 82.1526 39.1326 82.3899L41.0833 83.5254L42.2029 82.8814L41.0664 82.2204C40.8798 82.1187 40.761 81.9831 40.7102 81.8305L40.337 80.7119C40.2522 80.4576 40.0317 80.2373 39.7263 80.0509L37.9453 79.0339C37.7587 78.9322 37.4364 78.9153 37.2328 79.0339Z" fill="#7F6B59"/>
<path d="M46.1552 82.1356L37.4364 87.1525C37.3516 87.2034 37.2159 87.2034 37.1311 87.1525L27.6999 81.7119C27.6151 81.661 27.6151 81.5763 27.6829 81.5424L36.4017 76.5085C36.4865 76.4576 36.6222 76.4576 36.707 76.5085L46.1382 81.9492C46.24 82.0169 46.24 82.0847 46.1552 82.1356ZM37.2837 86.8983L45.7141 82.0339L36.6052 76.7797L28.1748 81.6441L37.2837 86.8983Z" fill="#7F6B59"/>
<path d="M52.2447 75.2204L49.2593 73.5085L49.9208 73.1187L46.4605 72.5424L47.4613 74.5424L48.1228 74.1526L51.1082 75.8814L49.4968 76.7967L46.5114 75.0848L47.1729 74.695L43.7295 74.1187L44.7303 76.1187L45.3918 75.7289L48.3772 77.4577L47.4782 77.9661L48.8861 78.7797L54.5686 75.4916L53.1607 74.695L52.2447 75.2204Z" fill="#7F6B59"/>
<path d="M57.6558 75.5254L48.937 80.5593C48.8522 80.6102 48.7165 80.6102 48.6317 80.5593L39.2005 75.1187C39.1157 75.0678 39.1157 74.9831 39.1835 74.9492L47.9023 69.9153C47.9871 69.8644 48.1228 69.8644 48.2076 69.9153L57.6388 75.3559C57.7236 75.4068 57.7236 75.4746 57.6558 75.5254ZM48.7674 80.2882L57.1978 75.4237L48.0889 70.1695L39.6585 75.0339L48.7674 80.2882Z" fill="#7F6B59"/>
<path d="M129.102 50.3729C128.763 50.1864 128.22 50.1864 127.898 50.3729C103.523 64.322 49.3271 95.7627 27.174 108.627C26.8348 108.814 26.8348 109.136 27.174 109.322C27.5133 109.508 28.0561 109.508 28.3784 109.322C50.5484 96.4576 104.727 65.0169 129.102 51.0847C129.441 50.8813 129.441 50.5763 129.102 50.3729Z" fill="#E6D3BD"/>
<path d="M0.8651 96.661L52.9571 126.712C53.0928 126.797 53.1946 126.746 53.1946 126.61C53.1946 126.475 53.0928 126.305 52.9571 126.22L0.8651 96.1865C0.7294 96.1017 0.627625 96.1526 0.627625 96.2881C0.627625 96.4237 0.7294 96.5932 0.8651 96.661Z" fill="#B29778"/>
<path d="M31.6013 112.847V263.458L20.9318 257.322V106.695L31.6013 112.847Z" fill="#E0C5A4"/>
<path d="M114.446 109.661L101.046 117.39C98.807 118.678 96.992 117.915 96.992 115.678C96.992 113.441 98.807 110.576 101.046 109.288L114.446 101.559C116.686 100.271 118.501 101.034 118.501 103.271C118.501 105.508 116.686 108.373 114.446 109.661Z" fill="#63503D"/>
<path d="M95.5162 171.203L62.0321 190.508V171.322L95.5162 152.017V171.203Z" fill="#C5B9AB"/>
<path d="M87.9339 139.407L65.6112 152.288V150.119L87.9339 137.237V139.407Z" fill="#63503D"/>
<path d="M87.9339 142.729L65.6112 155.593V154.525L87.9339 141.644V142.729Z" fill="#63503D"/>
<path d="M87.9339 144.61L65.6112 157.492V156.407L87.9339 143.542V144.61Z" fill="#63503D"/>
<path d="M87.9339 146.509L65.6112 159.39V158.305L87.9339 145.424V146.509Z" fill="#63503D"/>
<path d="M81.7426 151.966L65.6112 161.271V160.186L81.7426 150.881V151.966Z" fill="#63503D"/>
<path d="M95.5162 168.237C97.1786 167.271 98.5356 167.847 98.5356 169.508C98.5356 171.169 97.1786 173.305 95.5162 174.271C93.8539 175.237 92.4969 174.661 92.4969 173C92.4799 171.339 93.8369 169.203 95.5162 168.237ZM95.5162 166.271C92.7513 167.864 90.5123 171.39 90.5123 174.153C90.5123 176.915 92.7513 177.847 95.5162 176.271C98.2811 174.678 100.52 171.153 100.52 168.39C100.503 165.627 98.2642 164.678 95.5162 166.271Z" fill="#917559"/>
<path d="M113.853 342.847L160.364 350L300 270.644L247.518 240.729L234.457 237.983L113.853 342.847Z" fill="#C2A49D"/>
<path d="M113.853 273.339V342.847L33.6028 296.559V227.034L113.853 273.339Z" fill="#CDAD8A"/>
<path d="M243.701 267.949L113.853 342.847V273.322L243.701 198.424V267.949Z" fill="#A48465"/>
<path d="M243.701 198.424L122.317 268.441L113.853 273.339L33.6198 227.034L42.0841 222.153L163.451 152.136L243.701 198.424Z" fill="#F0CFA8"/>
<path d="M113.853 281.797V273.339L243.701 198.424V206.881L113.853 281.797Z" fill="#BB9673"/>
<path d="M113.853 273.339L105.388 268.441L235.22 193.542L243.701 198.424L113.853 273.339Z" fill="#F0DCC5"/>
<path d="M42.0841 231.932L33.6028 227.034L163.434 152.136L171.916 157.017L42.0841 231.932Z" fill="#F0DCC5"/>
<path d="M122.317 268.441L113.853 273.339L33.6198 227.034L42.0841 222.153L122.317 268.441Z" fill="#F0DCC5"/>
<path d="M243.701 198.424L235.237 203.305L154.987 157.017L163.451 152.136L243.701 198.424Z" fill="#F0DCC5"/>
<path d="M113.853 273.339V281.797L33.6028 235.492V227.034L113.853 273.339Z" fill="#E0C5A4"/>
<path d="M242.836 201L114.972 274.712C114.803 274.814 114.684 274.746 114.684 274.593C114.684 274.424 114.82 274.22 114.972 274.136L242.836 200.424C243.006 200.322 243.125 200.39 243.125 200.542C243.125 200.695 242.989 200.915 242.836 201Z" fill="#A48465"/>
<path d="M81.6917 271.847C81.7257 271.627 81.6917 271.322 81.6917 271.322C81.6917 271.322 81.3186 271.373 81.2337 271.542C81.2337 271.559 81.2168 271.559 81.2168 271.576C78.8081 270.356 78.6724 272.593 78.6724 272.593L78.6894 272.61C78.7402 272.458 78.8929 272.407 79.0795 272.508C79.2661 272.61 79.4018 272.831 79.4696 273.051L79.5205 273.085C79.5714 272.932 79.7241 272.881 79.9107 272.983C80.0972 273.085 80.2329 273.305 80.3008 273.525L80.3517 273.559C80.4026 273.407 80.5552 273.356 80.7418 273.458C80.9284 273.559 81.0811 273.78 81.132 274L81.1829 274.034C81.2168 273.949 81.2846 273.881 81.3525 273.881V277.017C81.3525 277.186 81.2337 277.254 81.098 277.169C80.9623 277.085 80.8436 276.881 80.8436 276.729V276.22C80.8436 276.085 80.7588 275.915 80.6401 275.847C80.5213 275.78 80.4365 275.83 80.4365 275.983V276.492C80.4365 276.932 80.7418 277.458 81.098 277.678C81.4712 277.898 81.7596 277.712 81.7596 277.271V274.136C81.8444 274.237 81.9122 274.373 81.9292 274.492L81.9801 274.525C82.031 274.373 82.1836 274.322 82.3702 274.424C82.5568 274.525 82.6925 274.746 82.7604 274.966L82.8113 274.983C82.8621 274.83 83.0148 274.78 83.2014 274.881C83.388 274.983 83.5406 275.203 83.5915 275.424L83.6424 275.458C83.6933 275.305 83.846 275.254 84.0326 275.356C84.2192 275.458 84.3549 275.678 84.4227 275.898L84.4397 275.915C84.3549 275.864 84.1683 273.373 81.6917 271.847Z" fill="#7F6B59"/>
<path d="M80.1821 270.848C80.3008 270.984 80.4365 271.001 80.5383 270.831C80.6401 270.661 80.5722 270.119 80.5722 270.119C80.5722 270.119 80.199 270.17 80.1142 270.339C80.0294 270.509 80.0633 270.712 80.1821 270.848Z" fill="#7F6B59"/>
<path d="M81.115 270.882C81.2337 271.018 81.3694 271.035 81.4712 270.865C81.573 270.695 81.5051 270.153 81.5051 270.153C81.5051 270.153 81.132 270.203 81.0472 270.373C80.9454 270.543 80.9963 270.746 81.115 270.882Z" fill="#7F6B59"/>
<path d="M83.3371 271.78C83.2353 271.949 83.2862 272.153 83.4049 272.289C83.5237 272.424 83.6594 272.441 83.7612 272.272C83.8629 272.102 83.7951 271.559 83.7951 271.559C83.7951 271.559 83.4389 271.61 83.3371 271.78Z" fill="#7F6B59"/>
<path d="M83.4898 273.051C83.388 273.221 83.4389 273.424 83.5576 273.56C83.6764 273.696 83.8121 273.713 83.9138 273.543C84.0156 273.373 83.9478 272.831 83.9478 272.831C83.9478 272.831 83.5916 272.864 83.4898 273.051Z" fill="#7F6B59"/>
<path d="M82.1328 270.865C82.2515 271.001 82.3872 271.018 82.489 270.848C82.5907 270.678 82.5229 270.136 82.5229 270.136C82.5229 270.136 82.1497 270.187 82.0649 270.356C81.9801 270.526 82.014 270.729 82.1328 270.865Z" fill="#7F6B59"/>
<path d="M82.3363 271.61C82.2345 271.78 82.2854 271.984 82.4042 272.119C82.5229 272.255 82.6586 272.272 82.7604 272.102C82.8621 271.933 82.7943 271.39 82.7943 271.39C82.7943 271.39 82.4211 271.441 82.3363 271.61Z" fill="#7F6B59"/>
<path d="M83.1505 270.95C83.2693 271.086 83.405 271.103 83.5067 270.933C83.6085 270.763 83.5407 270.22 83.5407 270.22C83.5407 270.22 83.1675 270.271 83.0827 270.441C82.9809 270.628 83.0318 270.814 83.1505 270.95Z" fill="#7F6B59"/>
<path d="M86.0511 281.661L76.9931 276.441C76.9083 276.39 76.8404 276.271 76.8404 276.169V265.373C76.8404 265.271 76.9083 265.237 76.9931 265.288L86.0511 270.508C86.1359 270.559 86.2038 270.678 86.2038 270.78V281.576C86.2038 281.678 86.1359 281.712 86.0511 281.661ZM77.1458 276.169L85.8984 281.22V270.78L77.1458 265.729V276.169Z" fill="#7F6B59"/>
<path d="M86.0511 283.627L76.9931 278.407C76.9083 278.356 76.8404 278.407 76.8404 278.492V289.288C76.8404 289.39 76.9083 289.508 76.9931 289.559L86.0511 294.78C86.1359 294.83 86.2038 294.78 86.2038 294.695V283.898C86.2038 283.78 86.1359 283.661 86.0511 283.627ZM85.8984 294.322L77.1458 289.271V278.83L85.8984 283.881V294.322Z" fill="#7F6B59"/>
<path d="M81.2507 286.051V289.186L80.0803 289L81.2507 289.678L81.6917 289.932L82.8961 290.627L81.6917 289.441V286.305C82.3024 286.61 82.8452 286.61 83.2353 286.373C83.6763 286.102 83.9308 285.542 83.9308 284.746L80.8436 282.966L80.5722 283.288L81.0811 283.83L80.199 284.593L80.3517 283.678L80.0463 283.254L80.216 282.593L79.0286 281.915C79.0795 283.424 80.0294 285.203 81.2507 286.051Z" fill="#7F6B59"/>
<path d="M93.4468 276.441L91.8862 276.61L93.4468 278.593L95.0073 278.424L93.4468 276.441Z" fill="#7F6B59"/>
<path d="M91.8353 278.526L93.4128 280.509V278.644L91.8353 276.661V278.526Z" fill="#7F6B59"/>
<path d="M95.0582 278.526L93.4977 278.695V280.559L95.0582 280.39V278.526Z" fill="#7F6B59"/>
<path d="M91.6487 279.017C91.5809 278.881 91.4452 278.797 91.3604 278.831C91.2925 278.848 91.2756 278.881 91.2756 278.966C91.2586 279.068 91.2925 279.187 91.3604 279.288L92.1067 280.661C92.1576 280.746 92.1576 280.831 92.1067 280.864C92.0898 280.881 92.0559 280.881 92.005 280.864C91.971 280.848 91.9371 280.814 91.9202 280.763L91.1908 279.407C91.1399 279.322 91.1229 279.237 91.1229 279.17V278.441C91.1229 278.339 91.1229 278.237 91.1229 278.102V277C91.1229 276.763 90.9533 276.475 90.7497 276.356C90.5462 276.237 90.3766 276.339 90.3766 276.576V278.61C90.3766 278.966 90.4783 279.39 90.648 279.78L91.4622 281.559C91.5639 281.797 91.6148 282.034 91.6148 282.237V283.542L92.7852 284.22V281.983C92.7852 281.492 92.6326 280.915 92.3442 280.373L91.6487 279.017Z" fill="#7F6B59"/>
<path d="M96.1269 279.458C95.9233 279.339 95.7537 279.441 95.7537 279.678V281.848C95.7537 281.915 95.7367 281.983 95.6858 282.017L94.9565 282.525C94.9395 282.542 94.9056 282.542 94.8716 282.525C94.8377 282.509 94.8038 282.475 94.7699 282.424C94.719 282.339 94.7359 282.254 94.7699 282.22L95.5162 281.712C95.5671 281.678 95.601 281.593 95.601 281.475C95.601 281.39 95.5671 281.322 95.5162 281.237C95.4314 281.102 95.3127 281.034 95.2279 281.102L94.5154 281.627C94.2271 281.831 94.0744 282.22 94.0744 282.729V284.966L95.2448 285.644V284.339C95.2448 284.136 95.2957 283.949 95.3975 283.848L96.2117 283C96.3983 282.814 96.4831 282.509 96.4831 282.153V280.119C96.5001 279.864 96.3304 279.576 96.1269 279.458Z" fill="#7F6B59"/>
<path d="M97.9758 288.695L88.9178 283.475C88.833 283.424 88.7651 283.305 88.7651 283.203V272.407C88.7651 272.305 88.833 272.271 88.9178 272.322L97.9758 277.542C98.0606 277.593 98.1284 277.712 98.1284 277.814V288.61C98.1284 288.712 98.0606 288.746 97.9758 288.695ZM89.0704 283.203L97.8231 288.254V277.814L89.0704 272.763V283.203Z" fill="#7F6B59"/>
<path d="M107.356 290.746V287.322L108.052 287.729L106.779 284.441L105.507 286.254L106.186 286.644V290.068L104.523 289.102V285.678L105.202 286.085L103.93 282.797L102.657 284.61L103.336 285V288.424L102.42 287.898V289.492L108.323 292.898V291.305L107.356 290.746Z" fill="#7F6B59"/>
<path d="M109.9 295.61L100.842 290.39C100.758 290.339 100.69 290.22 100.69 290.119V279.322C100.69 279.22 100.758 279.187 100.842 279.237L109.9 284.458C109.985 284.509 110.053 284.627 110.053 284.729V295.525C110.053 295.61 109.985 295.644 109.9 295.61ZM100.995 290.102L109.748 295.153V284.712L100.995 279.661V290.102Z" fill="#7F6B59"/>
<path d="M226.857 244.695C226.586 244.848 226.365 245.187 226.365 245.458C226.365 245.492 226.264 248.085 221.955 250.559C219.496 251.966 218.393 251.797 217.307 251.627C216.459 251.492 215.594 251.356 214.186 252.017C214.169 251.203 213.966 250.542 213.61 250.051C215.034 249.237 215.815 249.356 216.714 249.492C217.867 249.678 219.156 249.881 221.938 248.271C227.197 245.237 227.315 241.695 227.315 241.661C227.315 241.39 227.112 241.288 226.84 241.441C226.586 241.576 226.349 241.932 226.349 242.203C226.349 242.305 226.196 244.848 221.938 247.322C219.479 248.729 218.376 248.559 217.291 248.39C216.324 248.237 215.34 248.085 213.559 249.102C213.355 249.22 213.169 249.339 212.982 249.458C212.015 248.848 210.573 248.932 208.945 249.881C206.061 251.542 203.72 255.237 203.72 258.119C203.72 261 206.061 261.983 208.945 260.322C211.523 258.831 213.661 255.712 214.085 253.017C215.204 252.492 215.917 252.593 216.697 252.712C217.85 252.898 219.139 253.102 221.921 251.492C227.18 248.458 227.298 244.915 227.298 244.881C227.332 244.644 227.112 244.559 226.857 244.695ZM208.962 259.39C206.621 260.746 204.704 259.932 204.704 257.593C204.704 255.254 206.621 252.237 208.962 250.881C210.081 250.237 211.099 250.085 211.862 250.356C209.182 252.627 207.588 255.712 207.503 255.881C207.35 256.187 207.401 256.458 207.622 256.492C207.707 256.509 207.808 256.475 207.91 256.424C208.063 256.339 208.216 256.187 208.3 256C208.317 255.966 209.929 252.814 212.558 250.814C212.965 251.22 213.203 251.831 213.219 252.61C209.708 254.831 207.605 258.949 207.503 259.119C207.35 259.424 207.401 259.695 207.622 259.729C207.842 259.763 208.148 259.525 208.3 259.22C208.317 259.186 210.183 255.576 213.135 253.627C212.711 255.78 210.997 258.203 208.962 259.39Z" fill="#63503D"/>
<path d="M173.493 270.542L146.421 286.17V283.542L173.493 267.915V270.542Z" fill="#63503D"/>
<path d="M173.493 274.576L146.421 290.203V288.881L173.493 273.254V274.576Z" fill="#63503D"/>
<path d="M173.493 276.864L146.421 292.492V291.186L173.493 275.559V276.864Z" fill="#63503D"/>
<path d="M173.493 279.153L146.421 294.78V293.475L173.493 277.848V279.153Z" fill="#63503D"/>
<path d="M165.996 285.78L146.421 297.085V295.763L165.996 284.475V285.78Z" fill="#63503D"/>
<path d="M155.411 244.153L162.518 245.254L243.701 198.424L230.131 190.593L223.516 182.678L155.411 244.153Z" fill="#C2A49D"/>
<path d="M155.411 171.831V244.153L118.059 222.61L108.34 217L80.7079 201.051V128.729L108.34 144.678L118.059 150.288L155.411 171.831Z" fill="#CDAD8A"/>
<path d="M230.131 128.729V201.051L201.566 217.542L191.847 223.136L155.411 244.153V171.831L191.847 150.814L201.566 145.22L230.131 128.729Z" fill="#A48465"/>
<path d="M230.131 128.729L155.411 171.831L118.331 150.441L108.611 144.847L80.7079 128.729L117.33 107.61L127.05 102L155.411 85.6271L183.331 101.746L193.051 107.339L230.131 128.729Z" fill="#F0CFA8"/>
<path d="M118.059 150.288V222.61L108.34 217V144.678L118.059 150.288Z" fill="#E0C5A4"/>
<path d="M201.566 145.203L191.847 150.814L154.953 129.525L145.234 123.932L117.059 107.712L126.778 102.102L154.953 118.322L164.673 123.932L201.566 145.203Z" fill="#F0DCC5"/>
<path d="M192.932 107.22L164.554 123.593L154.851 129.203H154.834L118.229 150.322H118.212L117.941 150.492L108.238 144.881L108.51 144.729L145.115 123.593L154.851 117.983L183.213 101.627L192.932 107.22Z" fill="#F0DCC5"/>
<path d="M229.096 131.254L156.768 172.983C156.581 173.085 156.429 173.034 156.429 172.848C156.429 172.661 156.581 172.424 156.768 172.322L229.08 130.61C229.266 130.509 229.419 130.559 229.419 130.746C229.419 130.932 229.283 131.153 229.096 131.254Z" fill="#8F6E4F"/>
<path d="M201.566 145.22V217.542L191.847 223.136V150.814L201.566 145.22Z" fill="#BB9673"/>
<path d="M196.24 147.898C196.002 148.034 195.612 148.034 195.358 147.898C177.615 137.746 138.211 114.881 122.097 105.525C121.859 105.39 121.859 105.153 122.097 105.017C122.334 104.881 122.741 104.881 122.979 105.017C139.093 114.373 178.514 137.237 196.24 147.39C196.477 147.525 196.477 147.763 196.24 147.898Z" fill="#E6D3BD"/>
<path d="M221.158 143.864C221.192 143.593 221.158 143.322 221.158 143.322C221.158 143.322 220.785 143.814 220.683 144.102C220.683 144.119 220.666 144.136 220.666 144.153C218.156 145.78 218.02 148.254 218.02 148.254L218.037 148.237C218.088 148 218.257 147.78 218.444 147.661C218.631 147.559 218.783 147.61 218.851 147.78L218.902 147.746C218.953 147.509 219.122 147.288 219.309 147.17C219.496 147.068 219.648 147.119 219.716 147.288L219.767 147.254C219.818 147.017 219.988 146.797 220.174 146.678C220.361 146.576 220.513 146.627 220.581 146.797L220.632 146.763C220.666 146.627 220.734 146.492 220.819 146.39V149.644C220.819 149.814 220.7 150.017 220.564 150.102C220.412 150.186 220.31 150.119 220.31 149.932V149.407C220.31 149.271 220.208 149.203 220.089 149.271C219.971 149.339 219.869 149.509 219.869 149.644V150.17C219.869 150.627 220.174 150.814 220.564 150.593C220.954 150.373 221.26 149.831 221.26 149.373V146.119C221.345 146.136 221.412 146.186 221.446 146.288L221.497 146.254C221.548 146.017 221.718 145.797 221.904 145.678C222.091 145.576 222.244 145.627 222.311 145.797L222.362 145.763C222.413 145.525 222.583 145.305 222.769 145.186C222.956 145.085 223.109 145.136 223.177 145.305L223.227 145.271C223.278 145.034 223.448 144.814 223.635 144.695C223.821 144.593 223.974 144.644 224.042 144.814L224.059 144.797C223.923 144.864 223.719 142.509 221.158 143.864Z" fill="#7F6B59"/>
<path d="M219.58 144.645C219.699 144.645 219.852 144.492 219.954 144.187C220.055 143.899 220.005 143.407 220.005 143.407C220.005 143.407 219.631 143.899 219.53 144.187C219.428 144.492 219.462 144.645 219.58 144.645Z" fill="#7F6B59"/>
<path d="M220.547 143.594C220.666 143.594 220.819 143.442 220.921 143.136C221.022 142.848 220.971 142.356 220.971 142.356C220.971 142.356 220.598 142.848 220.496 143.136C220.378 143.425 220.429 143.594 220.547 143.594Z" fill="#7F6B59"/>
<path d="M222.871 141.831C222.769 142.12 222.82 142.289 222.939 142.289C223.058 142.289 223.21 142.137 223.312 141.831C223.414 141.543 223.363 141.051 223.363 141.051C223.363 141.051 222.973 141.543 222.871 141.831Z" fill="#7F6B59"/>
<path d="M223.024 142.984C222.922 143.272 222.973 143.442 223.092 143.442C223.21 143.442 223.363 143.289 223.465 142.984C223.567 142.695 223.516 142.203 223.516 142.203C223.516 142.203 223.126 142.678 223.024 142.984Z" fill="#7F6B59"/>
<path d="M221.616 142.34C221.735 142.34 221.887 142.187 221.989 141.882C222.091 141.594 222.04 141.102 222.04 141.102C222.04 141.102 221.667 141.594 221.565 141.882C221.446 142.187 221.497 142.34 221.616 142.34Z" fill="#7F6B59"/>
<path d="M221.82 142.882C221.718 143.17 221.769 143.34 221.887 143.34C222.006 143.34 222.159 143.187 222.261 142.882C222.362 142.594 222.311 142.102 222.311 142.102C222.311 142.102 221.921 142.577 221.82 142.882Z" fill="#7F6B59"/>
<path d="M222.668 141.221C222.786 141.221 222.939 141.069 223.041 140.78C223.143 140.492 223.092 140 223.092 140C223.092 140 222.719 140.492 222.617 140.78C222.498 141.052 222.549 141.221 222.668 141.221Z" fill="#7F6B59"/>
<path d="M225.67 148.864L216.256 154.288C216.171 154.339 216.103 154.288 216.103 154.186V142.966C216.103 142.864 216.171 142.746 216.256 142.695L225.67 137.271C225.755 137.22 225.823 137.271 225.823 137.373V148.593C225.823 148.695 225.755 148.814 225.67 148.864ZM216.425 153.831L225.517 148.576V137.729L216.425 142.983V153.831Z" fill="#7F6B59"/>
<path d="M214.271 143.831L204.857 149.254C204.772 149.305 204.704 149.424 204.704 149.525V160.746C204.704 160.848 204.772 160.898 204.857 160.848L214.271 155.424C214.356 155.373 214.424 155.254 214.424 155.153V143.932C214.441 143.831 214.356 143.78 214.271 143.831ZM214.119 155.136L205.027 160.39V149.542L214.119 144.288V155.136Z" fill="#7F6B59"/>
<path d="M209.301 152.085V155.356L208.08 156.559L209.301 155.864L209.759 155.593L211.014 154.864L209.759 155.085V151.831C210.387 151.424 210.946 150.78 211.371 150.034C211.829 149.237 212.1 148.339 212.1 147.509L208.894 149.356L208.606 150.034L209.131 149.983L208.216 151.814L208.368 150.695L208.063 150.627L208.249 149.746L207.028 150.458C207.045 151.983 208.029 152.678 209.301 152.085Z" fill="#7F6B59"/>
<path d="M209.573 161.746L207.944 163.814L209.573 163.983L211.201 161.932L209.573 161.746Z" fill="#7F6B59"/>
<path d="M207.91 165.848L209.539 166.017V164.085L207.91 163.898V165.848Z" fill="#7F6B59"/>
<path d="M211.252 161.983L209.623 164.034V165.966L211.252 163.915V161.983Z" fill="#7F6B59"/>
<path d="M207.707 166.576C207.622 166.525 207.503 166.576 207.418 166.729C207.35 166.831 207.333 166.881 207.333 166.983C207.317 167.102 207.35 167.187 207.418 167.22L208.199 167.763C208.249 167.797 208.249 167.881 208.216 167.966C208.182 168.017 208.148 168.051 208.114 168.068C208.08 168.085 208.046 168.085 208.012 168.068L207.249 167.542C207.198 167.509 207.181 167.458 207.181 167.373V166.61C207.181 166.492 207.181 166.39 207.181 166.254V165.119C207.181 164.864 207.011 164.763 206.808 164.881C206.604 165 206.434 165.305 206.434 165.559V167.661C206.434 168.034 206.536 168.356 206.723 168.542L207.554 169.424C207.656 169.542 207.724 169.712 207.724 169.932V171.288L208.928 170.593V168.271C208.928 167.746 208.758 167.339 208.47 167.136L207.707 166.576Z" fill="#7F6B59"/>
<path d="M212.354 161.661C212.151 161.78 211.981 162.085 211.981 162.339V164.593C211.981 164.678 211.964 164.763 211.913 164.848L211.15 166.254C211.133 166.305 211.099 166.339 211.048 166.356C211.014 166.373 210.98 166.373 210.947 166.356C210.896 166.322 210.913 166.22 210.963 166.136L211.744 164.712C211.812 164.593 211.829 164.475 211.829 164.373C211.829 164.288 211.795 164.254 211.744 164.237C211.659 164.203 211.523 164.288 211.455 164.441L210.709 165.848C210.421 166.407 210.251 167 210.251 167.509V169.831L211.455 169.136V167.78C211.455 167.559 211.506 167.322 211.625 167.068L212.456 165.22C212.643 164.814 212.745 164.373 212.745 164V161.898C212.745 161.644 212.575 161.542 212.354 161.661Z" fill="#7F6B59"/>
<path d="M214.271 169.051L204.857 174.475C204.772 174.525 204.704 174.475 204.704 174.373V163.153C204.704 163.051 204.772 162.932 204.857 162.881L214.271 157.458C214.356 157.407 214.424 157.458 214.424 157.559V168.78C214.441 168.881 214.356 169.017 214.271 169.051ZM205.027 174.034L214.119 168.78V157.932L205.027 163.187V174.034Z" fill="#7F6B59"/>
<path d="M223.041 160.797V157.237L223.753 156.831L222.43 154.949L221.107 158.356L221.82 157.949V161.492L220.072 162.492V158.949L220.785 158.542L219.462 156.661L218.139 160.068L218.851 159.661V163.203L217.901 163.763V165.424L224.042 161.881V160.22L223.041 160.797Z" fill="#7F6B59"/>
<path d="M225.67 162.797L216.256 168.22C216.171 168.271 216.103 168.22 216.103 168.119V156.898C216.103 156.797 216.171 156.678 216.256 156.627L225.67 151.203C225.755 151.153 225.823 151.203 225.823 151.305V162.525C225.823 162.627 225.755 162.746 225.67 162.797ZM216.425 167.763L225.517 162.509V151.661L216.425 156.915V167.763Z" fill="#7F6B59"/>
<path d="M53.907 214.915H104.727L103.845 142.085L80.7079 128.729V199.864L53.907 214.915Z" fill="#C2A49D"/>
</g>
<defs>
<clipPath id="clip0_30_3580">
<rect width="300" height="315" fill="white" transform="translate(0 35)"/>
</clipPath>
</defs>
</svg>
