<svg width="350" height="350" viewBox="0 0 350 350" fill="none" xmlns="http://www.w3.org/2000/svg">
<path d="M112.784 251.072C98.1067 251.072 84.9653 247.488 73.36 240.32C61.7547 232.981 52.624 222.4 45.968 208.576C39.312 194.752 35.984 178.027 35.984 158.4C35.984 138.773 39.312 122.048 45.968 108.224C52.624 94.4 61.7547 83.904 73.36 76.736C84.9653 69.3973 98.1067 65.728 112.784 65.728C127.632 65.728 140.773 69.3973 152.208 76.736C163.813 83.904 172.944 94.4 179.6 108.224C186.256 122.048 189.584 138.773 189.584 158.4C189.584 178.027 186.256 194.752 179.6 208.576C172.944 222.4 163.813 232.981 152.208 240.32C140.773 247.488 127.632 251.072 112.784 251.072ZM112.784 216C119.781 216 125.84 214.037 130.96 210.112C136.251 206.187 140.347 199.957 143.248 191.424C146.32 182.891 147.856 171.883 147.856 158.4C147.856 144.917 146.32 133.909 143.248 125.376C140.347 116.843 136.251 110.613 130.96 106.688C125.84 102.763 119.781 100.8 112.784 100.8C105.957 100.8 99.8987 102.763 94.608 106.688C89.488 110.613 85.392 116.843 82.32 125.376C79.4187 133.909 77.968 144.917 77.968 158.4C77.968 171.883 79.4187 182.891 82.32 191.424C85.392 199.957 89.488 206.187 94.608 210.112C99.8987 214.037 105.957 216 112.784 216ZM207.198 248V221.12L276.318 155.84C281.779 150.891 285.79 146.453 288.35 142.528C290.91 138.603 292.617 135.019 293.47 131.776C294.494 128.533 295.006 125.547 295.006 122.816C295.006 115.648 292.531 110.187 287.582 106.432C282.803 102.507 275.721 100.544 266.334 100.544C258.825 100.544 251.827 101.995 245.342 104.896C239.027 107.797 233.651 112.32 229.214 118.464L199.006 99.008C205.833 88.768 215.39 80.6613 227.678 74.688C239.966 68.7147 254.131 65.728 270.174 65.728C283.486 65.728 295.091 67.9467 304.99 72.384C315.059 76.6507 322.825 82.7093 328.286 90.56C333.918 98.4107 336.734 107.797 336.734 118.72C336.734 124.523 335.966 130.325 334.43 136.128C333.065 141.76 330.163 147.733 325.726 154.048C321.459 160.363 315.145 167.445 306.782 175.296L249.438 229.312L241.502 214.208H342.622V248H207.198Z" fill="#C2C2C2"/>
<g clip-path="url(#clip0_30_3587)">
<path d="M55.7023 282.037L51.3472 279.512C51.3472 282.001 52.2255 283.757 53.6528 284.599L58.008 287.125C56.5807 286.283 55.7023 284.526 55.7023 282.037Z" fill="#9B9A9B"/>
<path d="M55.6657 272.083L51.3472 269.557V279.512L55.7023 282.037L55.6657 272.083Z" fill="#9B9A9B"/>
<path d="M189.249 89.275L184.894 86.7498C183.466 85.908 181.453 86.0178 179.258 87.2987L183.613 89.824C185.845 88.5431 187.822 88.4333 189.249 89.275Z" fill="#9B9A9B"/>
<path d="M55.4096 172.975L51.091 170.45L51.3472 269.557L55.6657 272.083L55.4096 172.975Z" fill="#9B9A9B"/>
<path d="M183.613 89.824L179.294 87.2987L58.9962 156.762L63.3148 159.287L183.613 89.824Z" fill="#9B9A9B"/>
<path d="M63.3147 159.287L58.9596 156.762C54.5678 159.287 51.0544 165.399 51.0544 170.45L55.4096 172.975C55.4096 167.924 58.9596 161.812 63.3147 159.287Z" fill="#9B9A9B"/>
<path d="M89.4824 312.45L61.924 296.53C59.0328 294.847 59.3988 291.919 62.7292 290.016L145.734 242.072C149.064 240.133 154.151 239.95 157.043 241.596L184.601 257.517C187.492 259.2 187.126 262.128 183.796 264.031L100.791 311.975C97.4608 313.914 92.3737 314.134 89.4824 312.45Z" fill="#F0F4F7"/>
<path d="M90.5438 272.595L120.042 255.467C122.457 254.076 125.458 254.04 127.874 255.467L156.494 272.01L161.215 272.266V275.816C161.215 276.438 160.885 277.097 160.263 277.463L127.874 296.274C125.458 297.665 122.457 297.701 120.042 296.274L87.6525 277.572C87.0303 277.206 86.701 276.584 86.701 275.926V272.376L90.5438 272.595Z" fill="#9B9A9B"/>
<path d="M127.874 251.881L160.263 270.582C161.544 271.314 161.544 273.144 160.263 273.876L127.874 292.724C125.458 294.115 122.457 294.151 120.042 292.724L87.6525 274.022C86.3716 273.29 86.3716 271.461 87.6525 270.729L120.042 251.881C122.457 250.49 125.422 250.49 127.874 251.881Z" fill="#CFCDCE"/>
<path d="M95.2283 278.414L134.388 255.65L144.05 204.376L104.927 227.104L95.2283 278.414Z" fill="#B5B3B4"/>
<path d="M135.816 248.074L144.05 204.376L104.927 227.104L96.6922 270.655L135.816 248.074Z" fill="#A3A1A2"/>
<path d="M103.353 222.749L93.1056 277.207L95.2283 278.414L104.89 227.104C103.902 225.969 103.28 224.395 103.316 223.078C103.353 222.968 103.353 222.858 103.353 222.749Z" fill="#949293"/>
<path d="M143.355 198.594C143.904 198.264 144.636 198.338 145.478 198.813L145.551 198.85C147.161 199.838 148.405 202.144 148.332 203.974C148.296 204.815 148.003 205.438 147.49 205.73L108.33 228.494C108.843 228.202 109.136 227.616 109.172 226.738C109.245 224.908 108.001 222.639 106.391 221.614L106.318 221.577C105.476 221.102 104.744 221.065 104.195 221.358L143.355 198.594Z" fill="#848B92"/>
<path d="M106.318 221.541C104.854 220.699 103.609 221.211 103.39 222.712C103.39 222.822 103.353 222.932 103.353 223.041C103.317 224.359 103.975 225.933 104.927 227.067C105.293 227.506 105.695 227.872 106.135 228.128C106.171 228.165 106.208 228.165 106.281 228.202C107.855 229.117 109.136 228.421 109.172 226.665C109.245 224.835 108.001 222.566 106.391 221.541C106.354 221.577 106.354 221.577 106.318 221.541Z" fill="#9FA7B0"/>
<mask id="mask0_30_3587" style="mask-type:luminance" maskUnits="userSpaceOnUse" x="53" y="280" width="7" height="9">
<path d="M55.5194 285.661L59.8745 288.186C58.4472 287.344 57.5689 285.587 57.5689 283.099L53.2137 280.573C53.2137 283.099 54.092 284.855 55.5194 285.661Z" fill="white"/>
</mask>
<g mask="url(#mask0_30_3587)">
<path d="M57.5689 283.099L53.2137 280.573C53.2137 283.062 54.092 284.819 55.5194 285.661L59.8745 288.186C58.4472 287.381 57.5689 285.624 57.5689 283.099Z" fill="#9B9A9B"/>
</g>
<path d="M57.5323 273.144L53.1771 270.619L53.2137 280.573L57.5689 283.099L57.5323 273.144Z" fill="#9B9A9B"/>
<path d="M193.677 194.531L189.322 192.006L53.1771 270.619L57.5323 273.144L193.677 194.531Z" fill="#908F90"/>
<path d="M57.5323 273.144L57.5689 283.099C57.5689 288.113 61.1555 290.162 65.5106 287.637L185.809 218.174C190.2 215.648 193.714 209.536 193.714 204.486L193.677 194.531L57.5323 273.144Z" fill="#BFBEBF"/>
<path d="M125.458 238.486C127.691 237.205 129.521 238.229 129.521 240.791C129.521 243.353 127.727 246.501 125.458 247.781C123.226 249.062 121.396 248.038 121.396 245.476C121.396 242.914 123.226 239.766 125.458 238.486Z" fill="#236AD9"/>
<path d="M125.312 239.51C127.069 238.522 128.459 239.327 128.459 241.304C128.459 243.317 127.069 245.732 125.312 246.757C123.555 247.745 122.165 246.94 122.165 244.963C122.165 242.951 123.592 240.535 125.312 239.51Z" fill="#BFBEBF"/>
<mask id="mask1_30_3587" style="mask-type:luminance" maskUnits="userSpaceOnUse" x="181" y="87" width="11" height="4">
<path d="M191.115 90.3364L186.76 87.8112C185.333 86.9694 183.32 87.0792 181.124 88.3602L185.479 90.8854C187.675 89.6411 189.688 89.5313 191.115 90.3364Z" fill="white"/>
</mask>
<g mask="url(#mask1_30_3587)">
<path d="M191.115 90.3364L186.76 87.8112C185.333 86.9694 183.32 87.0792 181.124 88.3602L185.479 90.8854C187.675 89.6411 189.688 89.5313 191.115 90.3364Z" fill="#707070"/>
</g>
<path d="M57.2761 174.036L52.9209 171.511L53.1771 270.619L57.5323 273.144L57.2761 174.036Z" fill="#707070"/>
<path d="M185.479 90.922L181.124 88.3967L60.8261 157.823L65.1813 160.349L185.479 90.922Z" fill="#707070"/>
<path d="M65.1813 160.349L60.8261 157.823C56.4343 160.349 52.9209 166.461 52.9209 171.511L57.2761 174.036C57.2761 169.022 60.7895 162.874 65.1813 160.349Z" fill="#001E4F"/>
<mask id="mask2_30_3587" style="mask-type:luminance" maskUnits="userSpaceOnUse" x="52" y="157" width="14" height="18">
<path d="M65.1813 160.349L60.8261 157.823C56.4343 160.349 52.9209 166.461 52.9209 171.511L57.2761 174.036C57.2761 169.022 60.7895 162.874 65.1813 160.349Z" fill="white"/>
</mask>
<g mask="url(#mask2_30_3587)">
<path d="M65.1813 160.349L60.8261 157.823C56.4343 160.349 52.9209 166.461 52.9209 171.511L57.2761 174.036C57.2761 169.022 60.7895 162.874 65.1813 160.349Z" fill="#707070"/>
</g>
<path d="M65.1813 160.349C60.7895 162.874 57.2761 168.986 57.2761 174.036L57.5323 273.144L193.677 194.531L193.421 95.4236C193.421 90.4096 189.834 88.3601 185.479 90.8854L65.1813 160.349Z" fill="#989898"/>
<path d="M191.115 95.8627V191.75L59.8379 267.508V173.304C59.8379 169.498 61.8508 165.985 65.1446 164.082L67.8529 162.508L69.0606 161.813L177.977 98.9369L187.199 93.5936C188.956 92.6055 191.115 93.8498 191.115 95.8627Z" fill="#C2C2C2"/>
<path d="M79.3081 226.921L107.745 210.525V173.304L79.3081 189.737V226.921Z" fill="#A2D9FF"/>
<path d="M79.3081 226.921L107.745 210.525L109.794 211.696L81.3576 228.128L79.3081 226.921Z" fill="#BBC4D4"/>
<path d="M107.745 173.304V210.525L109.794 211.696V174.512L107.745 173.304Z" fill="#BBC4D4"/>
<path d="M141.342 191.091L169.779 174.695L171.865 175.903L143.428 192.299L141.342 191.091Z" fill="#BBC4D4"/>
<path d="M169.779 137.475V174.695L171.865 175.903V138.683L169.779 137.475Z" fill="#BBC4D4"/>
<path d="M136.621 156.616V209.061L138.67 210.269V157.823L136.621 156.616Z" fill="#BBC4D4"/>
<path d="M112.466 223.005L136.621 209.061L138.67 210.269L114.552 224.212L112.466 223.005Z" fill="#BBC4D4"/>
<path d="M78.9421 189.517V232.301L112.21 213.087V170.303L78.9421 189.517ZM109.794 211.696L81.3576 228.128V190.908L109.794 174.512V211.696Z" fill="white"/>
<path d="M141.342 191.091L169.779 174.695V137.475L141.342 153.907V191.091Z" fill="#A2D9FF"/>
<path d="M140.976 153.724V196.508L174.244 177.294V134.51L140.976 153.724ZM171.865 175.903L143.428 192.335V155.079L171.865 138.646V175.903Z" fill="white"/>
<path d="M112.466 223.005L136.621 209.061V156.616L112.466 170.559V223.005Z" fill="#A2D9FF"/>
<path d="M112.466 202.802V197.349L136.621 183.405L138.158 184.32L112.466 202.802Z" fill="#BBC4D4"/>
<path d="M112.21 170.303V213.087V228.311L140.976 211.696V196.471V153.724L112.21 170.303ZM138.67 210.268L114.516 224.212V171.767L138.67 157.823V210.268Z" fill="#D5E0F1"/>
<path d="M114.003 203.681V198.264L138.158 184.32V189.774L114.003 203.681Z" fill="#D5E0F1"/>
<path d="M182.295 174.073L175.525 177.989L142.22 197.203V212.428L145.148 214.111L185.223 175.757L182.295 174.073Z" fill="#CC8674"/>
<path d="M145.148 198.887V214.111L142.22 212.428V197.203L145.148 198.887Z" fill="#B57767"/>
<path d="M140.976 196.471V211.732L142.22 212.428V197.203L140.976 196.471Z" fill="#B57767"/>
<path d="M174.28 144.721V177.257L175.525 177.989V145.453L174.28 144.721Z" fill="#C7A77E"/>
<path d="M140.976 196.471L174.28 177.257L175.525 177.989L142.22 197.203L140.976 196.471Z" fill="#CC8674"/>
<path d="M78.9421 232.301L112.21 213.087L113.454 213.819L80.1865 233.033L78.9421 232.301Z" fill="#CC8674"/>
<path d="M113.454 213.818L80.1865 233.032L73.4158 236.948V252.173L76.3071 253.857L116.382 230.727V215.502L113.454 213.818Z" fill="#CC8674"/>
<path d="M76.3071 238.632V253.857L73.4158 252.173V236.948L76.3071 238.632Z" fill="#B57767"/>
<path d="M73.4158 164.301V252.173L67.8529 248.989V162.508L69.0972 161.813L73.4158 164.301Z" fill="#B39671"/>
<path d="M182.295 101.426L73.4158 164.301L69.0972 161.813L177.977 98.937L182.295 101.426Z" fill="#DBC5A9"/>
<path d="M185.223 175.756L178.416 179.672L145.148 198.886V214.111L185.223 190.981V175.756Z" fill="#E69783"/>
<path d="M83.0777 234.716L76.3071 238.632V253.857L116.382 230.727V215.502L83.0777 234.716Z" fill="#E69783"/>
<path d="M73.4158 180.441V236.948L80.1865 233.032V190.249L113.454 171.035L142.22 154.42L175.525 135.206V177.989L182.295 174.073V117.565L73.4158 180.441Z" fill="#E6C393"/>
<path d="M101.121 196.691L91.8979 201.924V193.58V187.98L107.452 179.014V184.577C107.452 189.225 104.597 194.678 101.121 196.691Z" fill="#FDCC47"/>
<path d="M116.675 187.687L113.784 189.371C110.27 191.384 107.452 189.261 107.452 184.577V179.014L123.006 170.047V175.61C123.006 180.258 120.152 185.675 116.675 187.687Z" fill="#FD7C2B"/>
<path d="M132.229 178.721L129.338 180.404C125.824 182.417 123.006 180.295 123.006 175.61V170.047L138.56 161.081V166.643C138.56 171.291 135.706 176.708 132.229 178.721Z" fill="#FDCC47"/>
<path d="M147.783 169.718L144.892 171.401C141.379 173.414 138.56 171.292 138.56 166.607V161.044L154.115 152.078V157.64C154.115 162.288 151.297 167.705 147.783 169.718Z" fill="#FD7C2B"/>
<path d="M163.337 160.751L160.446 162.435C156.933 164.448 154.115 162.325 154.115 157.64V152.077L169.669 143.111V148.674C169.669 153.322 166.851 158.738 163.337 160.751Z" fill="#FDCC47"/>
<path d="M107.452 179.014L91.8979 187.98L73.4158 164.301L88.97 155.335L107.452 179.014Z" fill="#FDF077"/>
<path d="M91.8979 187.98V201.924L73.4158 191.237V164.301L91.8979 187.98Z" fill="#E66C00"/>
<path d="M123.006 170.011L107.452 179.014L88.97 155.335L104.524 146.332L123.006 170.011Z" fill="#FDAA77"/>
<path d="M138.56 161.044L123.006 170.011L104.524 146.332L120.078 137.365L138.56 161.044Z" fill="#FDF077"/>
<path d="M154.115 152.077L138.56 161.044L120.078 137.365L135.633 128.362L154.115 152.077Z" fill="#FDAA77"/>
<path d="M169.669 143.074L154.115 152.078L135.633 128.362L151.187 119.395L169.669 143.074Z" fill="#FDF077"/>
<path d="M178.892 151.785L176 153.468C172.487 155.481 169.669 153.358 169.669 148.674V143.111L185.223 134.144V139.707C185.223 144.319 182.405 149.735 178.892 151.785Z" fill="#FD7C2B"/>
<path d="M194.446 142.782L191.555 144.465C188.041 146.478 185.223 144.355 185.223 139.671V134.108L200.777 125.141V130.704C200.777 135.352 197.959 140.769 194.446 142.782Z" fill="#FDCC47"/>
<path d="M185.223 134.108L169.669 143.074L151.187 119.395L166.741 110.429L185.223 134.108Z" fill="#FDAA77"/>
<path d="M200.777 125.105L185.223 134.108L166.741 110.429L182.295 101.426L200.777 125.105Z" fill="#FDF077"/>
<path d="M121.14 196.544L116.089 199.435L115.064 198.85L120.115 195.922L121.14 196.544Z" fill="#BBC4D4"/>
<path d="M114.003 198.264L116.089 199.435L117.114 198.85L115.064 197.642L114.003 198.264Z" fill="#BBC4D4"/>
<path d="M114.003 209.756L116.089 210.927V199.435L114.003 198.264V209.756Z" fill="#CDD8E8"/>
<path d="M121.14 208.036L116.089 210.927V199.435L121.14 196.544V208.036Z" fill="#DDE8FA"/>
<path d="M252.051 91.3978L244.841 87.2256C237.375 82.9802 225.298 89.9705 217.832 102.816C210.366 115.699 210.366 129.57 217.832 133.815L225.042 137.987L227.165 134.327C233.35 132.351 240.047 126.495 244.841 118.224C249.636 109.953 251.356 101.243 249.965 94.9478L252.051 91.3978Z" fill="#989898"/>
<path d="M252.051 91.3978C259.517 95.6431 259.517 109.514 252.051 122.396C244.585 135.279 232.508 142.233 225.042 137.987C217.576 133.742 217.576 119.871 225.042 106.989C232.508 94.106 244.585 87.1158 252.051 91.3978Z" fill="#BCBCBC"/>
<path d="M247.806 97.7659C242.463 94.7282 233.789 99.7056 228.445 108.928C223.102 118.151 223.102 128.106 228.445 131.143C233.789 134.181 242.463 129.204 247.806 119.981C253.149 110.758 253.149 100.803 247.806 97.7659Z" fill="white"/>
<path d="M249.233 96.1922C243.304 92.8251 233.716 98.3515 227.823 108.562C221.894 118.773 221.894 129.753 227.823 133.156C233.752 136.523 243.341 130.997 249.233 120.786C255.162 110.575 255.162 99.5592 249.233 96.1922ZM228.848 131.363C223.505 128.325 223.505 118.371 228.848 109.148C234.191 99.9252 242.865 94.9112 248.208 97.9855C253.552 101.023 253.552 110.978 248.208 120.201C242.865 129.423 234.191 134.437 228.848 131.363Z" fill="#C9C8E0"/>
<path d="M240.01 113.357C240.01 114.564 239.169 116.028 238.107 116.614C237.046 117.2 236.204 116.724 236.204 115.553C236.204 114.345 237.046 112.881 238.107 112.295C239.169 111.673 240.01 112.149 240.01 113.357Z" fill="#5F6780"/>
<path d="M240.596 112.771L239.498 112.149L236.826 116.76L237.888 117.383L240.596 112.771Z" fill="#5F6780"/>
<path d="M238.071 113.247L237.266 113.027V101.499L238.986 100.511L239.791 100.987L238.071 113.247Z" fill="#6E7794"/>
<path d="M236.351 116.138L237.083 116.724L232.032 125.398L231.227 124.922L236.351 116.138Z" fill="#6E7794"/>
<path d="M239.791 114.821L238.071 115.809V101.975L239.791 100.987V114.821Z" fill="#7E87A8"/>
<path d="M238.583 114.125L239.791 114.821L233.276 126.093L232.032 125.398L238.583 114.125Z" fill="#7E87A8"/>
<path d="M240.706 113.723C240.706 114.93 239.864 116.394 238.803 116.98C237.741 117.566 236.9 117.09 236.9 115.919C236.9 114.711 237.741 113.247 238.803 112.661C239.827 112.076 240.706 112.552 240.706 113.723Z" fill="#5F6780"/>
<path d="M240.596 112.771L240.193 112.552L237.412 117.126L237.888 117.383L240.596 112.771Z" fill="#5F6780"/>
<path d="M238.034 129.423L237.632 129.204V125.178L238.62 124.629L239.022 124.848L238.034 129.423Z" fill="#6E7794"/>
<path d="M225.518 122.287V121.152L229.031 119.139L229.434 119.359L225.92 122.543L225.518 122.287Z" fill="#6E7794"/>
<path d="M250.734 106.586L251.136 106.842L247.659 109.99L247.257 109.77V108.599L250.734 106.586Z" fill="#6E7794"/>
<path d="M247.403 118.92L247.806 119.139L245.866 119.652L245.464 119.432L246.159 118.224L247.403 118.92Z" fill="#6E7794"/>
<path d="M228.885 109.99L229.58 108.745L230.824 109.477L231.227 109.697L229.251 110.209L228.885 109.99Z" fill="#6E7794"/>
<path d="M231.227 128.106L229.251 129.863L228.885 129.606L230.092 127.484L230.824 127.886L231.227 128.106Z" fill="#6E7794"/>
<path d="M246.708 98.8639L247.403 99.2665L247.806 99.4861L245.866 101.243L245.464 100.987L246.708 98.8639Z" fill="#6E7794"/>
<path d="M239.022 128.874L238.034 129.423V125.434L239.022 124.849V128.874Z" fill="#7E87A8"/>
<path d="M225.92 122.543V121.372L229.434 119.359V120.493L225.92 122.543Z" fill="#7E87A8"/>
<path d="M251.136 106.842V107.977L247.659 109.99V108.855L251.136 106.842Z" fill="#7E87A8"/>
<path d="M247.806 119.139L247.11 120.384L245.866 119.652L246.562 118.444L247.806 119.139Z" fill="#7E87A8"/>
<path d="M229.251 110.209L229.983 109.002L231.227 109.697L230.495 110.905L229.251 110.209Z" fill="#7E87A8"/>
<path d="M229.983 130.265L229.251 129.863L230.495 127.703L231.227 128.106L229.983 130.265Z" fill="#7E87A8"/>
<path d="M247.11 99.0835L247.806 99.4861L246.562 101.645L245.866 101.243L247.11 99.0835Z" fill="#7E87A8"/>
<path d="M241.108 113.979C241.108 115.187 240.267 116.651 239.205 117.236C238.144 117.822 237.302 117.346 237.302 116.175C237.302 114.967 238.144 113.503 239.205 112.918C240.23 112.295 241.108 112.771 241.108 113.979Z" fill="#7E87A8"/>
<path d="M240.047 114.272L239.791 114.125C239.644 114.052 239.461 114.052 239.205 114.162C238.766 114.418 238.4 115.04 238.4 115.516C238.4 115.772 238.473 115.919 238.62 116.028L238.876 116.175L238.949 116.065C239.022 116.065 239.095 116.028 239.205 115.955C239.644 115.699 240.01 115.077 240.01 114.601C240.01 114.528 240.01 114.455 239.974 114.382L240.047 114.272Z" fill="#E5E4FF"/>
<path d="M240.267 114.747C240.267 115.26 239.901 115.845 239.461 116.102C239.022 116.358 238.656 116.138 238.656 115.662C238.656 115.15 239.022 114.564 239.461 114.308C239.901 114.052 240.267 114.272 240.267 114.747Z" fill="#C9C8E0"/>
<path d="M45.894 302.166L38.6842 297.994C31.2182 293.749 19.1408 300.739 11.6748 313.585C4.20878 326.467 4.20878 340.338 11.6748 344.584L18.8846 348.756L21.0073 345.096C27.1924 343.12 33.8899 337.264 38.6842 328.993C43.4786 320.722 45.1987 312.011 43.8079 305.716L45.894 302.166Z" fill="#989898"/>
<path d="M45.894 302.166C53.3601 306.412 53.3601 320.282 45.894 333.165C38.428 346.047 26.3507 353.001 18.8846 348.756C11.4186 344.51 11.4186 330.64 18.8846 317.757C26.3507 304.911 38.428 297.921 45.894 302.166Z" fill="#BCBCBC"/>
<path d="M41.3559 319.99L23.3862 330.384C22.6176 330.823 22.0687 331.957 22.215 332.726L23.679 340.485C23.8986 341.619 24.8867 341.985 25.9847 341.326L38.7574 333.97C39.8919 333.311 40.8435 331.848 41.0631 330.457L42.5636 320.978C42.71 320.026 42.1244 319.551 41.3559 319.99ZM28.6563 335.361C28.6563 335.983 28.2537 336.752 27.778 337.008L27.7414 337.044C27.2656 337.337 26.863 337.008 26.863 336.386V332.14C26.863 331.518 27.2656 330.75 27.7414 330.493L27.778 330.457C28.2537 330.164 28.6563 330.457 28.6563 331.116V335.361ZM33.2677 332.689C33.2677 333.311 32.8651 334.08 32.3893 334.336L32.3527 334.373C31.877 334.666 31.4744 334.373 31.4744 333.714V329.469C31.4744 328.846 31.877 328.078 32.3527 327.822L32.3893 327.785C32.8651 327.492 33.2677 327.785 33.2677 328.444V332.689ZM37.879 330.054C37.879 330.676 37.4765 331.445 37.0007 331.701L36.9641 331.738C36.4883 332.03 36.0857 331.701 36.0857 331.079V326.834C36.0857 326.211 36.4883 325.443 36.9641 325.187L37.0007 325.15C37.4765 324.894 37.879 325.187 37.879 325.809V330.054Z" fill="white"/>
<path d="M43.1858 314.866L21.5563 327.346C20.8975 327.712 20.3485 328.737 20.3485 329.615C20.3485 330.493 20.8975 330.896 21.5563 330.53L43.1858 318.05C43.8445 317.684 44.3935 316.659 44.3935 315.781C44.3935 314.903 43.8445 314.5 43.1858 314.866Z" fill="white"/>
<path d="M34.5486 321.454C34.5486 322.808 33.5971 324.491 32.3893 325.187C31.1816 325.882 30.23 325.333 30.23 323.942C30.23 322.588 31.1816 320.905 32.3893 320.209C33.5971 319.514 34.5486 320.099 34.5486 321.454Z" fill="white"/>
<path d="M31.694 324.162C31.1816 324.015 31.1084 323.284 31.4744 322.478L37.1105 310.474C37.4765 309.706 38.1718 309.157 38.6842 309.303C39.1966 309.449 39.2698 310.181 38.9038 310.987L33.2677 322.991C32.9017 323.759 32.2063 324.272 31.694 324.162Z" fill="white"/>
<path d="M226.872 97.2168C225.774 97.656 224.529 97.1436 224.054 96.0457C218.637 83.5657 210.622 74.2698 200.228 68.3409C187.639 61.1676 171.938 59.4841 154.883 63.5099L153.895 59.2645C172.011 54.946 188.81 56.7759 202.351 64.5347C213.623 70.9393 222.26 80.9672 228.043 94.3621C228.555 95.4601 228.006 96.741 226.872 97.2168Z" fill="#989898"/>
<path d="M186.943 40.1604L180.502 36.464C180.392 36.3908 180.282 36.3176 180.173 36.2444C180.099 36.2078 179.99 36.1347 179.916 36.0981L179.77 36.0249C172.267 32.2553 160.483 39.2089 153.163 51.8352C145.843 64.4616 145.697 78.0761 152.761 82.5777V82.6143L159.97 86.7864L161.837 83.5292C168.168 81.7725 175.195 75.807 180.173 67.2431C185.15 58.6791 186.797 49.6394 185.15 43.3079L186.943 40.1604Z" fill="#989898"/>
<path d="M187.297 71.5284C194.806 58.6856 194.88 44.7597 187.464 40.4242C180.048 36.0886 167.95 42.9852 160.442 55.828C152.933 68.6709 152.859 82.5967 160.275 86.9322C167.691 91.2678 179.789 84.3713 187.297 71.5284Z" fill="#BCBCBC"/>
<path d="M182.625 59.96C182.551 60.6919 182.405 61.4605 182.222 62.1925L184.198 63.2172C183.796 64.3883 183.32 65.5961 182.734 66.7306L179.99 67.3894C179.624 67.975 179.258 68.5239 178.855 69.0729L179.148 72.0374C178.306 72.9889 177.428 73.9039 176.476 74.6724L174.902 72.8791C174.683 73.0255 174.463 73.1719 174.244 73.2817C174.024 73.3915 173.804 73.5013 173.585 73.6111L172.048 77.1977C171.096 77.5271 170.218 77.6735 169.376 77.6735L169.669 74.343C169.266 74.2698 168.9 74.16 168.534 73.9771L165.789 76.4657C165.204 75.9899 164.728 75.4044 164.326 74.6358L166.265 71.342C166.082 70.8296 165.936 70.2074 165.863 69.5853L163.264 69.7683C163.264 68.7435 163.374 67.7188 163.594 66.6574L166.302 64.9007C166.558 63.9492 166.887 62.9976 167.29 62.0461L166.119 59.8868C166.668 58.8986 167.253 57.9105 167.912 56.9955L170.108 57.5811C170.803 56.7027 171.609 55.8976 172.414 55.2388L173.073 51.7986C173.475 51.5424 173.841 51.2862 174.244 51.03C174.646 50.8104 175.049 50.5909 175.415 50.4079L176.074 53.0795C176.879 52.8233 177.684 52.7135 178.379 52.7867L180.575 49.6759C181.234 49.8223 181.856 50.1151 182.405 50.4811L181.161 54.1043C181.563 54.5435 181.929 55.129 182.185 55.7878L184.894 54.4337C185.113 55.2388 185.223 56.1538 185.223 57.1785L182.625 59.96ZM174.28 68.2311C176.513 66.9502 178.306 63.8394 178.269 61.3141C178.269 58.7522 176.44 57.7275 174.244 59.0084C172.011 60.2894 170.218 63.4002 170.254 65.9621C170.254 68.4873 172.084 69.5121 174.28 68.2311Z" fill="white"/>
<path d="M63.6807 131.07L60.2039 128.435C87.2499 92.7885 120.481 67.8651 151.699 59.777C152.87 59.4842 154.078 60.2161 154.334 61.3873C154.59 62.5584 153.895 63.693 152.761 63.9857C122.494 71.8543 90.1411 96.1921 63.6807 131.07Z" fill="#989898"/>
<path d="M97.351 92.3858L90.1411 88.2136C82.6751 83.9683 70.5978 90.9585 63.1317 103.804C55.6657 116.687 55.6657 130.558 63.1317 134.803L70.3416 138.975L72.4643 135.315C78.6493 133.339 85.3468 127.483 90.1411 119.212C94.9355 110.941 96.6556 102.231 95.2649 95.9358L97.351 92.3858Z" fill="#989898"/>
<path d="M97.2633 123.508C104.771 110.665 104.846 96.739 97.43 92.4034C90.014 88.0679 77.9155 94.9644 70.4074 107.807C62.8992 120.65 62.8246 134.576 70.2406 138.911C77.6567 143.247 89.7551 136.351 97.2633 123.508Z" fill="#BCBCBC"/>
<path d="M89.9216 114.601C90.2144 115.186 90.3608 115.992 90.3608 117.016C90.3608 118.81 89.9216 120.53 89.0432 122.104C88.1649 123.714 86.9205 125.068 85.2736 126.203V129.753L83.5535 130.741V127.264C81.687 128.289 80.0035 128.764 78.503 128.764V124.592C79.3081 124.665 80.1133 124.629 81.0282 124.446C81.9066 124.263 82.7483 123.97 83.5535 123.567V117.822L83.0411 117.858C81.3576 117.895 80.1865 117.639 79.5277 117.053C78.8689 116.467 78.503 115.406 78.503 113.942C78.503 112.222 78.9421 110.612 79.8205 109.075C80.6988 107.537 81.9432 106.183 83.5535 105.049V102.304L85.2736 101.316V104.024C86.8107 103.255 88.3113 102.853 89.8484 102.853L88.6772 107.171C87.3963 107.208 86.2984 107.428 85.3102 107.903V113.283C85.603 113.247 85.786 113.247 85.786 113.247C87.0303 113.137 87.9819 113.21 88.604 113.43C89.153 113.613 89.5922 114.015 89.9216 114.601ZM85.2736 122.433C86.335 121.591 86.8839 120.493 86.8839 119.102C86.8839 118.59 86.7741 118.224 86.5911 118.005C86.4082 117.785 85.969 117.675 85.2736 117.675V122.433ZM83.5169 113.283V108.818C82.4922 109.587 81.9798 110.612 81.9798 111.856C81.9798 112.442 82.0896 112.844 82.3458 113.064C82.5653 113.283 82.9679 113.357 83.5169 113.283Z" fill="#FDE247"/>
<path d="M15.9934 308.937C3.98921 279.366 6.88046 236.253 23.8986 192.921L27.961 194.531C11.3454 236.802 8.41758 278.707 20.0192 307.253C20.4584 308.351 19.9826 309.596 18.8846 310.108C17.7867 310.584 16.4692 310.071 15.9934 308.937Z" fill="#989898"/>
<path d="M39.8188 195.41L32.6089 191.237C25.1429 186.992 13.0655 193.982 5.59951 206.828C-1.8665 219.711 -1.8665 233.581 5.59951 237.827L12.8093 241.999L14.932 238.339C21.1171 236.363 27.8146 230.507 32.6089 222.236C37.4033 213.965 39.1234 205.255 37.7327 198.96L39.8188 195.41Z" fill="#989898"/>
<path d="M39.7274 226.536C47.2356 213.693 47.3102 199.767 39.8942 195.431C32.4781 191.096 20.3797 197.992 12.8715 210.835C5.36338 223.678 5.28872 237.604 12.7048 241.94C20.1208 246.275 32.2193 239.379 39.7274 226.536Z" fill="#BCBCBC"/>
<path d="M17.5671 219.272C16.7619 219.747 15.9202 220.553 15.2614 221.577C13.6877 223.956 13.4681 226.738 14.7856 227.799L20.5681 232.484C21.4465 233.179 22.6542 233.069 23.8986 232.374C24.9233 231.788 25.9481 230.763 26.7898 229.446L37.5131 212.135C39.0136 209.719 39.1234 206.975 37.7693 206.023C37.0373 205.511 36.0492 205.62 35.0244 206.206C34.146 206.718 33.2677 207.56 32.5723 208.695L24.1914 222.236L20.4218 219.162C19.6898 218.576 18.6284 218.649 17.5671 219.272Z" fill="#8EE600"/>
<path d="M25.9846 193.726C24.8501 193.287 24.3011 192.006 24.7403 190.871C29.4249 179.197 35.0976 167.632 41.612 156.396C47.2848 146.624 53.543 137.182 60.2039 128.398L63.6807 131.033C57.1296 139.671 50.9446 148.967 45.3816 158.592C38.977 169.608 33.4141 181.027 28.7661 192.482C28.3269 193.616 27.0826 194.165 25.9846 193.726Z" fill="#989898"/>
</g>
<defs>
<clipPath id="clip0_30_3587">
<rect width="257.651" height="315" fill="white" transform="translate(0 35)"/>
</clipPath>
</defs>
</svg>
