<svg width="50" height="50" viewBox="0 0 50 50" fill="none" xmlns="http://www.w3.org/2000/svg">
<path d="M0 25C0 11.1929 11.1929 0 25 0H50V50H0V25Z" fill="#97BC50"/>
<g clip-path="url(#clip0_355_32)">
<path d="M14.5125 23.0009H32.3364C32.3892 23.0004 32.4405 22.984 32.4837 22.9538C32.5269 22.9236 32.56 22.881 32.5786 22.8317C32.5972 22.7823 32.6004 22.7285 32.5879 22.6773C32.5753 22.6261 32.5476 22.5799 32.5083 22.5447L23.5114 14.628C23.2286 14.3613 23.0603 13.9953 23.0421 13.607C23.0239 13.2187 23.1571 12.8384 23.4137 12.5464C23.6703 12.2544 24.0303 12.0735 24.4177 12.0417C24.8052 12.0098 25.1898 12.1297 25.4906 12.3759L37.1375 22.6249C37.4035 22.8595 37.6165 23.148 37.7625 23.4713C37.9084 23.7946 37.9839 24.1452 37.9839 24.4999C37.9839 24.8546 37.9084 25.2052 37.7625 25.5285C37.6165 25.8518 37.4035 26.1403 37.1375 26.3749L25.4927 36.6218C25.1917 36.8649 24.8083 36.9823 24.4227 36.9494C24.0371 36.9166 23.6792 36.7359 23.4237 36.4453C23.1682 36.1547 23.0348 35.7766 23.0516 35.39C23.0683 35.0033 23.2338 34.6382 23.5135 34.3707L32.5104 26.4541C32.5497 26.4189 32.5774 26.3727 32.59 26.3215C32.6025 26.2702 32.5993 26.2164 32.5807 26.1671C32.5621 26.1177 32.529 26.0752 32.4858 26.045C32.4426 26.0148 32.3912 25.9983 32.3385 25.9978H14.5125C14.1216 25.9875 13.7503 25.825 13.4775 25.5449C13.2047 25.2648 13.052 24.8893 13.052 24.4983C13.052 24.1074 13.2047 23.7318 13.4775 23.4517C13.7503 23.1717 14.1216 23.0092 14.5125 22.9989V23.0009Z" fill="white"/>
</g>
<defs>
<clipPath id="clip0_355_32">
<rect width="25" height="25" fill="white" transform="matrix(-1 0 0 1 38 12)"/>
</clipPath>
</defs>
</svg>
