<svg width="100" height="100" viewBox="0 0 100 100" fill="none" xmlns="http://www.w3.org/2000/svg">
<g clip-path="url(#clip0_630_6042)">
<path d="M45.4102 0.195312C38.418 0.898438 31.4453 3.06641 25.7227 6.26953C6.46487 17.0898 -3.33982 38.6133 1.09378 60.3125C4.55081 77.2656 17.0117 91.4453 33.4375 97.168C45.3125 101.309 58.2813 100.84 69.9219 95.8789C81.1133 91.0742 90.6641 81.6602 95.6055 70.5273C104.082 51.4062 100.02 29.3359 85.3516 14.6484C77.4805 6.77734 67.4024 1.83594 56.25 0.390625C54.0039 0.0976562 47.5782 -0.0195312 45.4102 0.195312ZM55.9571 8.125C59.6094 8.63281 64.961 10.1758 67.461 11.4648L68.1641 11.8164L63.2032 16.7773L58.2422 21.7188L57.5977 21.5234C54.4336 20.5078 48.0469 20.293 44.4336 21.0547C43.3594 21.2891 42.3047 21.5234 42.0899 21.582C41.7774 21.6797 40.7227 20.7031 36.7578 16.7383L31.7969 11.7773L33.4375 11.0742C37.7344 9.23828 42.5391 8.125 47.7539 7.73438C49.3946 7.61719 53.6914 7.83203 55.9571 8.125ZM29.6485 20.5664L34.1992 25.1172L32.7735 26.0742C30.9375 27.3242 27.3242 30.9375 26.0742 32.7734L25.1172 34.1992L20.5664 29.6484C18.0664 27.1484 16.0157 25.0195 16.0157 24.9219C16.0157 24.6875 18.0078 22.2461 19.5117 20.6445C20.8985 19.1797 24.5703 16.0156 24.9024 16.0156C25.0196 16.0156 27.1485 18.0664 29.6485 20.5664ZM77.2461 17.6562C78.3203 18.5547 79.7657 19.8828 80.4883 20.6445C81.9922 22.2461 83.9844 24.6875 83.9844 24.9219C83.9844 25.0195 81.9336 27.1484 79.4336 29.6484L74.8828 34.1992L73.9453 32.8125C72.5781 30.8203 69.6485 27.8516 67.5977 26.3672L65.8399 25.0977L70.3711 20.5469C72.8711 18.0664 74.9805 16.0156 75.0977 16.0156C75.1953 16.0156 76.1719 16.7578 77.2461 17.6562ZM53.8086 28.5547C55.4492 28.8281 58.2617 29.7461 59.7657 30.5273C61.8164 31.5625 63.2617 32.5977 65.1172 34.375C72.6953 41.6602 73.9453 53.3008 68.0664 62.1094C60.4297 73.5742 44.0625 75.0781 34.4532 65.1953C26.8555 57.4023 26.1328 45.3516 32.7344 36.7188C37.5977 30.3516 45.7813 27.1875 53.8086 28.5547ZM21.5821 42.0898C20.293 46.582 20.2539 53.6523 21.5235 57.5977L21.7188 58.2422L16.7774 63.2031L11.8164 68.1641L11.4649 67.4609C10.1563 64.9219 8.65237 59.6484 8.08596 55.7617C7.65628 52.6562 7.65628 47.3438 8.08596 44.2383C8.63284 40.4102 9.82424 36.2109 11.2696 32.9492L11.7774 31.8164L16.7383 36.7578C20.7032 40.7227 21.6797 41.7773 21.5821 42.0898ZM89.5703 35.0195C90.5078 37.4414 91.5039 41.4062 91.9141 44.2383C92.3438 47.3438 92.3438 52.6562 91.9141 55.7617C91.3477 59.6484 89.8438 64.9219 88.5352 67.4609L88.1836 68.1641L83.2227 63.2031L78.2813 58.2422L78.4766 57.5977C79.7071 53.75 79.7071 46.25 78.4766 42.4023L78.2813 41.7578L83.2227 36.7969L88.1836 31.8359L88.5352 32.5391C88.7305 32.9102 89.1992 34.043 89.5703 35.0195ZM26.2696 67.4805C27.5196 69.2773 30.9766 72.6953 32.7735 73.9258L34.1992 74.8828L29.6485 79.4336C27.1485 81.9336 25.0196 83.9844 24.9219 83.9844C24.6875 83.9844 22.2461 81.9922 20.6446 80.4883C19.2969 79.2188 16.2696 75.7422 16.0742 75.2344C15.9375 74.9219 25.0196 65.7422 25.1953 65.9766C25.2735 66.0547 25.7422 66.7188 26.2696 67.4805ZM83.9844 75.0781C83.9844 75.3125 81.9922 77.7539 80.4883 79.3555C79.2188 80.7031 75.7422 83.7305 75.2344 83.9258C75.0586 84.0039 73.2031 82.2852 70.4102 79.4922L65.8399 74.9219L67.4414 73.7695C69.4727 72.3047 72.6563 69.082 73.9258 67.2266L74.8828 65.8008L79.4336 70.3516C81.9336 72.8516 83.9844 74.9805 83.9844 75.0781ZM44.4336 78.9453C48.0469 79.707 54.4336 79.4922 57.5977 78.4766L58.2422 78.2812L63.2032 83.2227L68.1641 88.1836L67.461 88.5352C64.9219 89.8438 59.6485 91.3477 55.7617 91.9141C52.6953 92.3438 47.3438 92.3438 44.336 91.9141C40.4688 91.3672 36.8164 90.3711 33.4375 88.9258L31.7969 88.2227L36.7578 83.2617C40.7227 79.2969 41.7774 78.3203 42.0899 78.418C42.3047 78.4766 43.3594 78.7109 44.4336 78.9453Z" fill="#89CFF0"/>
</g>
<defs>
<clipPath id="clip0_630_6042">
<rect width="100" height="100" fill="white"/>
</clipPath>
</defs>
</svg>
