<svg width="50" height="51" viewBox="0 0 50 51" fill="none" xmlns="http://www.w3.org/2000/svg">
<g clip-path="url(#clip0_3_36)">
<path d="M23.1738 0.597656C23.4375 0.646484 23.9844 0.841797 24.3945 1.03711C25.1367 1.38867 25.2734 1.51562 37.1191 13.3711C45.4688 21.7305 49.1699 25.4902 49.3457 25.8125C49.7949 26.6523 49.9414 27.2383 49.9414 28.2344C49.9414 29.2305 49.7949 29.8164 49.3457 30.6562C48.9941 31.3008 30.8008 49.4941 30.1562 49.8457C29.3164 50.2949 28.7305 50.4414 27.7344 50.4414C26.7383 50.4414 26.1523 50.2949 25.3125 49.8457C24.7559 49.543 1.23047 26.0957 0.771484 25.3828C0.371094 24.7676 0.0976562 23.9277 0.0292969 23.166C-0.0390625 22.2969 1.96289 6.60352 2.24609 5.8125C2.76367 4.30859 3.80859 3.27344 5.3125 2.74609C5.86914 2.54102 21.543 0.490234 22.3145 0.509766C22.5293 0.519531 22.9199 0.558594 23.1738 0.597656ZM14.1406 5.1875C9.0625 5.83203 6.45508 6.20312 6.25977 6.31055C6.09375 6.38867 5.88867 6.59375 5.80078 6.75977C5.6543 7.05273 3.7207 21.623 3.70117 22.6777C3.69141 22.9219 3.73047 23.2051 3.78906 23.3125C3.84766 23.4102 9.14062 28.7422 15.5469 35.1484L27.1973 46.7891H27.7344H28.2715L37.2754 37.7754L46.2891 28.7715V28.2344V27.6973L34.5898 15.998C22.2754 3.67383 22.7051 4.09375 21.9727 4.19141C21.8359 4.20117 18.3105 4.65039 14.1406 5.1875Z" fill="#313131"/>
<path d="M16.0059 9.64063C17.8809 10.1484 19.4727 11.7598 19.9707 13.6836C20.1953 14.5332 20.127 16.0371 19.834 16.8477C19.2578 18.4688 17.8125 19.9043 16.2598 20.3828C15.4883 20.627 13.9453 20.666 13.1836 20.4707C11.2402 19.9629 9.62891 18.3711 9.13086 16.457C8.94531 15.7246 8.94531 14.377 9.13086 13.6445C9.62891 11.7305 11.2305 10.1289 13.1445 9.63087C13.8574 9.44532 15.3027 9.44532 16.0059 9.64063ZM13.4766 13.4297C12.998 13.7422 12.7051 14.2402 12.627 14.8457C12.4707 16.1543 13.8477 17.3164 15.0879 16.9063C15.8496 16.6523 16.4941 15.8027 16.5039 15.041C16.5039 14.3086 15.791 13.3613 15.0781 13.166C14.6777 13.0488 13.8477 13.1856 13.4766 13.4297Z" fill="#313131"/>
</g>
<defs>
<clipPath id="clip0_3_36">
<rect width="50" height="50" fill="white" transform="matrix(-1 0 0 1 50 0.5)"/>
</clipPath>
</defs>
</svg>
