<svg width="75" height="75" viewBox="0 0 75 75" fill="none" xmlns="http://www.w3.org/2000/svg">
<path d="M29.151 28.2261L29.1524 28.2247C30.4154 26.9617 31.1432 26.2162 31.5476 25.6718C31.7564 25.3906 31.898 25.139 31.982 24.8753C32.0661 24.6111 32.0819 24.3668 32.082 24.1237M29.151 28.2261L18.4375 18.1446M29.151 28.2261C28.5091 28.8631 27.9098 29.4746 27.4623 29.9463C27.2382 30.1824 27.0547 30.381 26.9238 30.5289C26.858 30.6033 26.8086 30.6613 26.775 30.7031C26.7584 30.7238 26.7493 30.736 26.7454 30.7414M29.151 28.2261L26.7454 30.7414M32.082 24.1237C32.0845 23.8642 32.079 23.5954 31.9803 23.2961C31.8825 22.9996 31.7068 22.7114 31.4348 22.3671C30.9017 21.6924 29.8874 20.6696 28.0008 18.7782C26.9488 17.7212 26.0297 16.8217 25.338 16.1656C24.9924 15.8379 24.7014 15.5688 24.4778 15.3704C24.2744 15.19 24.0839 15.0284 23.9606 14.9575C22.9315 14.36 21.8252 14.4652 20.8101 15.1645L20.8031 15.1693L20.8031 15.1694C20.721 15.228 20.5826 15.3516 20.429 15.4933C20.2643 15.6452 20.0529 15.8454 19.8103 16.0794C19.3249 16.5477 18.709 17.1562 18.0812 17.7938M32.082 24.1237C32.082 24.1229 32.082 24.122 32.082 24.1212H31.5822L32.082 24.126C32.082 24.1252 32.082 24.1245 32.082 24.1237ZM18.0812 17.7938L18.4375 18.1446M18.0812 17.7938C18.0813 17.7937 18.0813 17.7937 18.0814 17.7936L18.4375 18.1446M18.0812 17.7938C16.0773 19.8266 15.7078 20.2271 15.3511 20.9728M18.4375 18.1446C16.4062 20.2052 16.1133 20.5372 15.8008 21.1915M15.3511 20.9728C15.3516 20.9717 15.3522 20.9706 15.3527 20.9696L15.8008 21.1915M15.3511 20.9728C15.3506 20.9739 15.3501 20.9749 15.3496 20.976L15.8008 21.1915M15.3511 20.9728C14.2458 23.2079 14.4473 26.135 15.7869 30.0258C18.6072 38.2491 25.3745 47.108 33.2482 52.9025C37.3336 55.9149 42.3074 58.5447 46.0397 59.6494C48.4707 60.3708 50.9414 60.6523 52.4808 60.3125L52.4836 60.3119C53.2428 60.1398 53.7499 59.9914 54.4203 59.5C55.0487 59.0395 55.8299 58.2707 57.1901 56.9057C58.5639 55.5271 59.3424 54.731 59.7682 54.151C59.989 53.8504 60.1344 53.5831 60.2183 53.3004C60.3018 53.0196 60.3144 52.7561 60.3144 52.4903C60.3144 52.0013 60.2315 51.6287 60.0256 51.2282C59.9793 51.1368 59.9024 51.0371 59.8389 50.9579C59.7644 50.8652 59.6685 50.7532 59.5565 50.6269C59.3321 50.3736 59.0308 50.0487 58.6797 49.679C57.9767 48.9387 57.0637 48.0077 56.1432 47.0878C55.2227 46.1679 54.2921 45.2565 53.5536 44.5556C53.1847 44.2055 52.8611 43.9054 52.6096 43.6823C52.4841 43.571 52.3731 43.4758 52.2816 43.402C52.2032 43.3389 52.1024 43.2608 52.0107 43.215L52.0074 43.2133C51.3264 42.879 50.4092 42.8866 49.6992 43.2053C49.5613 43.2661 49.4121 43.3699 49.2617 43.4871C49.1022 43.6114 48.9095 43.7764 48.6806 43.9836C48.2224 44.3982 47.598 45.0006 46.7669 45.8268L15.8008 21.1915M26.7454 30.7414L26.7427 30.7462C26.7052 30.8117 26.6614 30.9606 26.6905 31.4344L26.6905 31.4344L26.6908 31.4399C26.7039 31.7036 26.7258 31.8548 26.8021 32.0714C26.8872 32.3128 27.0401 32.6352 27.341 33.232L27.3411 33.2322C28.6583 35.8477 30.3995 38.1599 33.3166 41.1447L33.3166 41.1448C36.2074 44.1032 39.0752 46.2939 42.0156 47.8073C42.5561 48.085 42.8415 48.2238 43.0486 48.2969C43.2241 48.3589 43.3351 48.3714 43.5349 48.3674L43.5349 48.3673H43.5449C43.8205 48.3673 44.0739 48.3096 44.1886 48.255C44.1944 48.2507 44.2096 48.2396 44.2365 48.218C44.282 48.1816 44.3435 48.1296 44.4208 48.0619C44.5748 47.927 44.7794 47.7404 45.0211 47.5145C45.5038 47.0632 46.1251 46.4638 46.7668 45.8269L26.7454 30.7414ZM14.6628 19.1539L14.6613 19.1558C12.6498 21.7266 12.5369 25.8291 14.6279 31.3664L14.6281 31.367C17.1654 38.1106 21.9313 44.9612 27.9755 50.5308L27.9756 50.5309C32.1357 54.3669 37.0023 57.525 41.5378 59.5471C46.0994 61.5808 50.2301 62.4228 52.9582 61.7603L52.9601 61.7598C53.3441 61.6682 53.8814 61.4659 54.4118 61.2191C54.9438 60.9716 55.427 60.6987 55.7128 60.4811L55.7156 60.479C55.8488 60.3791 56.2218 60.0308 56.7454 59.5169C57.2556 59.0161 57.8798 58.3871 58.497 57.7541C59.1142 57.121 59.7225 56.486 60.2011 55.973C60.6955 55.4433 61.0159 55.0811 61.0921 54.9704L61.0924 54.9699C61.7776 53.9773 62.0378 52.6471 61.7791 51.5413C61.6959 51.1914 61.6359 50.9636 61.5342 50.7366C61.4344 50.5138 61.2845 50.2712 61.0021 49.9233C60.4234 49.2102 59.3594 48.1379 57.2241 45.9978C55.0692 43.8428 53.9885 42.7706 53.2686 42.1931C52.9178 41.9116 52.6736 41.7654 52.4501 41.6706C52.2218 41.5738 51.9922 41.5202 51.637 41.4467L51.6361 41.4466C50.6496 41.2407 49.6346 41.4141 48.6281 41.9904C48.6244 41.9929 48.6174 41.9978 48.6063 42.0059C48.5898 42.018 48.5684 42.0344 48.5419 42.0555C48.4887 42.0977 48.421 42.1539 48.3396 42.2238C48.1769 42.3632 47.9681 42.5497 47.7269 42.7709C47.2449 43.213 46.6417 43.7871 46.0357 44.3882L46.0348 44.3892L43.818 46.5767L43.5588 46.8324L43.2359 46.6643L42.5234 46.2934C40.7381 45.3658 39.4201 44.4757 37.4754 42.8765C35.4739 41.2317 32.6931 38.3624 31.1458 36.339L31.1455 36.3387C30.5796 35.5975 29.8885 34.5539 29.3388 33.6528C29.0635 33.2017 28.8197 32.7798 28.6425 32.4439C28.5543 32.2768 28.4791 32.1242 28.4243 31.9967C28.3969 31.9332 28.3718 31.8691 28.3524 31.8085C28.336 31.7571 28.3113 31.6711 28.3088 31.5761L28.3086 31.5761V31.5626C28.3086 31.4612 28.3394 31.3854 28.3489 31.3627C28.3625 31.3297 28.3772 31.3034 28.3867 31.2873C28.406 31.2546 28.427 31.2253 28.443 31.204C28.4764 31.1594 28.5189 31.1084 28.5646 31.0558C28.6578 30.9486 28.7879 30.8075 28.943 30.6443C29.2546 30.3166 29.6813 29.885 30.1483 29.4279L30.149 29.4272C32.1083 27.5169 32.8211 26.6804 33.2181 25.9224C33.7041 24.9755 33.7979 23.7693 33.4624 22.7889L33.4616 22.7864C33.292 22.282 33.1361 21.9466 32.5688 21.2765C31.9785 20.5793 30.9708 19.554 29.0991 17.6774C27.2486 15.8269 26.1998 14.7981 25.4831 14.1849C24.7863 13.5889 24.4351 13.4127 23.9786 13.2563L23.9785 13.2563L23.9712 13.2537C23.6664 13.144 23.2331 13.0687 22.7753 13.0458C22.319 13.023 21.8815 13.0544 21.5678 13.1313C20.8698 13.3129 20.1269 13.7169 19.34 14.3925C18.8996 14.7721 17.862 15.7919 16.8545 16.8177C15.841 17.8496 14.9091 18.836 14.6628 19.1539Z" fill="white" stroke="#EA00D4"/>
</svg>
