<svg width="100" height="100" viewBox="0 0 100 100" fill="none" xmlns="http://www.w3.org/2000/svg">
<g clip-path="url(#clip0_17_3336)">
<path d="M47.5586 0.117188C47.2461 0.15625 46.2891 0.292969 45.4297 0.410156C40.625 1.05469 34.8633 3.76953 30.957 7.22656C26.0156 11.582 22.5195 17.8711 21.4648 24.3164C21.0742 26.6602 21.1328 31.9336 21.5625 34.082C22.9492 41.1328 26.9336 47.6562 32.3047 51.7188L33.6328 52.7344L33.0859 52.9297C30.7227 53.8281 29.707 54.2773 27.6953 55.2734C19.0234 59.6289 11.9727 66.2109 6.95312 74.6094C2.85156 81.4844 0.546875 89.1602 0.078125 97.6562L-0.0585938 100H3.86719H7.8125V99.043C7.8125 92.4219 10.5664 83.2812 14.2578 77.6562C19.9414 68.9648 27.5586 63.0078 36.8359 59.9805C45.6641 57.0898 54.3359 57.0898 63.1641 59.9805C72.4414 63.0078 80.0586 68.9648 85.7422 77.6562C89.4336 83.2812 92.1875 92.4219 92.1875 99.043V100H96.1328H100.059L99.9219 97.6562C99.4531 89.1602 97.1484 81.4844 93.0469 74.6094C88.0273 66.2109 80.9766 59.6289 72.3047 55.2734C70.293 54.2773 69.2773 53.8281 66.9141 52.9297L66.3672 52.7344L67.6953 51.7188C73.0664 47.6562 77.0508 41.1328 78.4375 34.082C78.8672 31.9336 78.9258 26.6602 78.5352 24.3164C77.6953 19.1797 75.0977 13.7305 71.6602 9.82422C67.3828 5 61.3672 1.60156 55.0977 0.46875C53.5938 0.195312 48.6133 -0.0390625 47.5586 0.117188ZM53.3008 8.10547C64.7852 9.98047 72.6367 20.8008 70.8008 32.207C68.9258 43.6914 58.1055 51.543 46.6992 49.707C35.2148 47.832 27.3633 37.0117 29.1992 25.6055C31.0742 14.1211 41.8945 6.26953 53.3008 8.10547Z" fill="#313131"/>
</g>
<defs>
<clipPath id="clip0_17_3336">
<rect width="100" height="100" fill="white"/>
</clipPath>
</defs>
</svg>
