<svg width="1066" height="67" viewBox="0 0 1066 67" fill="none" xmlns="http://www.w3.org/2000/svg">
<path d="M21.59 65L20.6396 65.3109L20.865 66H21.59V65ZM0.98 2V0.999996H-0.399294L0.0295665 2.31092L0.98 2ZM16.1 2L17.0522 1.69438L16.8293 0.999996H16.1V2ZM34.01 57.8V58.8H35.3812L34.9622 57.4944L34.01 57.8ZM26.45 57.8L25.5019 57.4819L25.0597 58.8H26.45V57.8ZM45.17 2V0.999996H44.4507L44.2219 1.68193L45.17 2ZM58.67 2L59.6217 1.69299L59.3982 0.999996H58.67V2ZM76.67 57.8V58.8H78.0433L77.6217 57.493L76.67 57.8ZM69.38 57.8L68.4301 57.4875L67.9982 58.8H69.38V57.8ZM87.74 2V0.999996H87.0163L86.7901 1.68745L87.74 2ZM101.69 2L102.64 2.31092L103.069 0.999996H101.69V2ZM81.08 65V66H81.805L82.0304 65.3109L81.08 65ZM65.42 65L64.4691 65.3094L64.6938 66H65.42V65ZM49.49 16.04V15.04H48.113L48.5391 16.3494L49.49 16.04ZM53.63 16.04L54.5783 16.3573L55.019 15.04H53.63V16.04ZM37.25 65V66H37.9699L38.1983 65.3173L37.25 65ZM22.5404 64.6891L1.93043 1.68907L0.0295665 2.31092L20.6396 65.3109L22.5404 64.6891ZM0.98 3H16.1V0.999996H0.98V3ZM15.1478 2.30561L33.0578 58.1056L34.9622 57.4944L17.0522 1.69438L15.1478 2.30561ZM34.01 56.8H26.45V58.8H34.01V56.8ZM27.3981 58.1181L46.1181 2.31806L44.2219 1.68193L25.5019 57.4819L27.3981 58.1181ZM45.17 3H58.67V0.999996H45.17V3ZM57.7183 2.307L75.7183 58.107L77.6217 57.493L59.6217 1.69299L57.7183 2.307ZM76.67 56.8H69.38V58.8H76.67V56.8ZM70.3299 58.1125L88.6899 2.31254L86.7901 1.68745L68.4301 57.4875L70.3299 58.1125ZM87.74 3H101.69V0.999996H87.74V3ZM100.74 1.68907L80.1296 64.6891L82.0304 65.3109L102.64 2.31092L100.74 1.68907ZM81.08 64H65.42V66H81.08V64ZM66.3709 64.6906L50.4409 15.7306L48.5391 16.3494L64.4691 65.3094L66.3709 64.6906ZM49.49 17.04H53.63V15.04H49.49V17.04ZM52.6817 15.7227L36.3017 64.6827L38.1983 65.3173L54.5783 16.3573L52.6817 15.7227ZM37.25 64H21.59V66H37.25V64ZM123.239 27.38V26.38H122.239V27.38H123.239ZM153.569 27.38H154.569V26.38H153.569V27.38ZM153.569 38.72V39.72H154.569V38.72H153.569ZM123.239 38.72H122.239V39.72H123.239V38.72ZM124.319 53.3H123.319V54.3H124.319V53.3ZM158.609 53.3H159.609V52.3H158.609V53.3ZM158.609 65V66H159.609V65H158.609ZM109.829 65H108.829V66H109.829V65ZM109.829 2V0.999996H108.829V2H109.829ZM157.439 2H158.439V0.999996H157.439V2ZM157.439 13.7V14.7H158.439V13.7H157.439ZM124.319 13.7V12.7H123.319V13.7H124.319ZM123.239 28.38H153.569V26.38H123.239V28.38ZM152.569 27.38V38.72H154.569V27.38H152.569ZM153.569 37.72H123.239V39.72H153.569V37.72ZM124.239 38.72V27.38H122.239V38.72H124.239ZM124.319 54.3H158.609V52.3H124.319V54.3ZM157.609 53.3V65H159.609V53.3H157.609ZM158.609 64H109.829V66H158.609V64ZM110.829 65V2H108.829V65H110.829ZM109.829 3H157.439V0.999996H109.829V3ZM156.439 2V13.7H158.439V2H156.439ZM157.439 12.7H124.319V14.7H157.439V12.7ZM123.319 13.7V53.3H125.319V13.7H123.319ZM195.699 65H194.699V66H195.699V65ZM195.699 2V0.999996H194.699V2H195.699ZM210.279 2H211.279V0.999996H210.279V2ZM210.279 53.12H209.279V54.12H210.279V53.12ZM241.869 53.12H242.869V52.12H241.869V53.12ZM241.869 65V66H242.869V65H241.869ZM196.699 65V2H194.699V65H196.699ZM195.699 3H210.279V0.999996H195.699V3ZM209.279 2V53.12H211.279V2H209.279ZM210.279 54.12H241.869V52.12H210.279V54.12ZM240.869 53.12V65H242.869V53.12H240.869ZM241.869 64H195.699V66H241.869V64ZM250.015 65H249.015V66H250.015V65ZM250.015 2V0.999996H249.015V2H250.015ZM264.595 2H265.595V0.999996H264.595V2ZM264.595 65V66H265.595V65H264.595ZM251.015 65V2H249.015V65H251.015ZM250.015 3H264.595V0.999996H250.015V3ZM263.595 2V65H265.595V2H263.595ZM264.595 64H250.015V66H264.595V64ZM298.183 65L297.264 65.3961L297.525 66H298.183V65ZM271.002 2V0.999996H269.482L270.084 2.39613L271.002 2ZM286.753 2L287.673 1.60823L287.414 0.999996H286.753V2ZM310.513 57.8V58.8H312.025L311.433 57.4082L310.513 57.8ZM301.243 57.8L300.325 57.4032L299.721 58.8H301.243V57.8ZM325.363 2V0.999996H324.705L324.445 1.60322L325.363 2ZM339.853 2L340.77 2.39724L341.375 0.999996H339.853V2ZM312.583 65V66H313.239L313.5 65.3972L312.583 65ZM299.101 64.6039L271.921 1.60386L270.084 2.39613L297.264 65.3961L299.101 64.6039ZM271.002 3H286.753V0.999996H271.002V3ZM285.832 2.39176L309.592 58.1918L311.433 57.4082L287.673 1.60823L285.832 2.39176ZM310.513 56.8H301.243V58.8H310.513V56.8ZM302.16 58.1968L326.28 2.39677L324.445 1.60322L300.325 57.4032L302.16 58.1968ZM325.363 3H339.853V0.999996H325.363V3ZM338.935 1.60276L311.665 64.6028L313.5 65.3972L340.77 2.39724L338.935 1.60276ZM312.583 64H298.183V66H312.583V64ZM358.523 27.38V26.38H357.523V27.38H358.523ZM388.853 27.38H389.853V26.38H388.853V27.38ZM388.853 38.72V39.72H389.853V38.72H388.853ZM358.523 38.72H357.523V39.72H358.523V38.72ZM359.603 53.3H358.603V54.3H359.603V53.3ZM393.893 53.3H394.893V52.3H393.893V53.3ZM393.893 65V66H394.893V65H393.893ZM345.113 65H344.113V66H345.113V65ZM345.113 2V0.999996H344.113V2H345.113ZM392.723 2H393.723V0.999996H392.723V2ZM392.723 13.7V14.7H393.723V13.7H392.723ZM359.603 13.7V12.7H358.603V13.7H359.603ZM358.523 28.38H388.853V26.38H358.523V28.38ZM387.853 27.38V38.72H389.853V27.38H387.853ZM388.853 37.72H358.523V39.72H388.853V37.72ZM359.523 38.72V27.38H357.523V38.72H359.523ZM359.603 54.3H393.893V52.3H359.603V54.3ZM392.893 53.3V65H394.893V53.3H392.893ZM393.893 64H345.113V66H393.893V64ZM346.113 65V2H344.113V65H346.113ZM345.113 3H392.723V0.999996H345.113V3ZM391.723 2V13.7H393.723V2H391.723ZM392.723 12.7H359.603V14.7H392.723V12.7ZM358.603 13.7V53.3H360.603V13.7H358.603ZM430.982 65H429.982V66H430.982V65ZM430.982 2V0.999996H429.982V2H430.982ZM445.562 2H446.562V0.999996H445.562V2ZM445.562 65V66H446.562V65H445.562ZM431.982 65V2H429.982V65H431.982ZM430.982 3H445.562V0.999996H430.982V3ZM444.562 2V65H446.562V2H444.562ZM445.562 64H430.982V66H445.562V64ZM460.513 65H459.513V66H460.513V65ZM460.513 2V0.999996H459.513V2H460.513ZM472.573 2L473.346 1.36617L473.046 0.999996H472.573V2ZM509.743 47.36V48.36H511.855L510.516 46.7262L509.743 47.36ZM503.893 47.36H502.893V48.36H503.893V47.36ZM503.893 2V0.999996H502.893V2H503.893ZM518.293 2H519.293V0.999996H518.293V2ZM518.293 65V66H519.293V65H518.293ZM506.323 65L505.55 65.6347L505.85 66H506.323V65ZM469.063 19.64V18.64H466.947L468.29 20.2747L469.063 19.64ZM474.913 19.64H475.913V18.64H474.913V19.64ZM474.913 65V66H475.913V65H474.913ZM461.513 65V2H459.513V65H461.513ZM460.513 3H472.573V0.999996H460.513V3ZM471.799 2.63382L508.969 47.9938L510.516 46.7262L473.346 1.36617L471.799 2.63382ZM509.743 46.36H503.893V48.36H509.743V46.36ZM504.893 47.36V2H502.893V47.36H504.893ZM503.893 3H518.293V0.999996H503.893V3ZM517.293 2V65H519.293V2H517.293ZM518.293 64H506.323V66H518.293V64ZM507.096 64.3653L469.836 19.0053L468.29 20.2747L505.55 65.6347L507.096 64.3653ZM469.063 20.64H474.913V18.64H469.063V20.64ZM473.913 19.64V65H475.913V19.64H473.913ZM474.913 64H460.513V66H474.913V64ZM571.737 65H570.737V66H571.737V65ZM571.737 13.88H572.737V12.88H571.737V13.88ZM551.577 13.88H550.577V14.88H551.577V13.88ZM551.577 2V0.999996H550.577V2H551.577ZM606.477 2H607.477V0.999996H606.477V2ZM606.477 13.88V14.88H607.477V13.88H606.477ZM586.317 13.88V12.88H585.317V13.88H586.317ZM586.317 65V66H587.317V65H586.317ZM572.737 65V13.88H570.737V65H572.737ZM571.737 12.88H551.577V14.88H571.737V12.88ZM552.577 13.88V2H550.577V13.88H552.577ZM551.577 3H606.477V0.999996H551.577V3ZM605.477 2V13.88H607.477V2H605.477ZM606.477 12.88H586.317V14.88H606.477V12.88ZM585.317 13.88V65H587.317V13.88H585.317ZM586.317 64H571.737V66H586.317V64ZM657.522 2V0.999996H656.522V2H657.522ZM672.102 2H673.102V0.999996H672.102V2ZM672.102 65V66H673.102V65H672.102ZM657.522 65H656.522V66H657.522V65ZM628.902 65V66H629.902V65H628.902ZM614.322 65H613.322V66H614.322V65ZM614.322 2V0.999996H613.322V2H614.322ZM628.902 2H629.902V0.999996H628.902V2ZM658.602 39.17V40.17H659.602V39.17H658.602ZM627.822 39.17H626.822V40.17H627.822V39.17ZM627.822 26.84V25.84H626.822V26.84H627.822ZM658.602 26.84H659.602V25.84H658.602V26.84ZM657.522 3H672.102V0.999996H657.522V3ZM671.102 2V65H673.102V2H671.102ZM672.102 64H657.522V66H672.102V64ZM658.522 65V2H656.522V65H658.522ZM628.902 64H614.322V66H628.902V64ZM615.322 65V2H613.322V65H615.322ZM614.322 3H628.902V0.999996H614.322V3ZM627.902 2V65H629.902V2H627.902ZM658.602 38.17H627.822V40.17H658.602V38.17ZM628.822 39.17V26.84H626.822V39.17H628.822ZM627.822 27.84H658.602V25.84H627.822V27.84ZM657.602 26.84V39.17H659.602V26.84H657.602ZM700.417 27.38V26.38H699.417V27.38H700.417ZM730.747 27.38H731.747V26.38H730.747V27.38ZM730.747 38.72V39.72H731.747V38.72H730.747ZM700.417 38.72H699.417V39.72H700.417V38.72ZM701.497 53.3H700.497V54.3H701.497V53.3ZM735.787 53.3H736.787V52.3H735.787V53.3ZM735.787 65V66H736.787V65H735.787ZM687.007 65H686.007V66H687.007V65ZM687.007 2V0.999996H686.007V2H687.007ZM734.617 2H735.617V0.999996H734.617V2ZM734.617 13.7V14.7H735.617V13.7H734.617ZM701.497 13.7V12.7H700.497V13.7H701.497ZM700.417 28.38H730.747V26.38H700.417V28.38ZM729.747 27.38V38.72H731.747V27.38H729.747ZM730.747 37.72H700.417V39.72H730.747V37.72ZM701.417 38.72V27.38H699.417V38.72H701.417ZM701.497 54.3H735.787V52.3H701.497V54.3ZM734.787 53.3V65H736.787V53.3H734.787ZM735.787 64H687.007V66H735.787V64ZM688.007 65V2H686.007V65H688.007ZM687.007 3H734.617V0.999996H687.007V3ZM733.617 2V13.7H735.617V2H733.617ZM734.617 12.7H701.497V14.7H734.617V12.7ZM700.497 13.7V53.3H702.497V13.7H700.497ZM772.876 65H771.876V66H772.876V65ZM772.876 2V0.999996H771.876V2H772.876ZM784.936 2L785.71 1.36617L785.41 0.999996H784.936V2ZM822.106 47.36V48.36H824.219L822.88 46.7262L822.106 47.36ZM816.256 47.36H815.256V48.36H816.256V47.36ZM816.256 2V0.999996H815.256V2H816.256ZM830.656 2H831.656V0.999996H830.656V2ZM830.656 65V66H831.656V65H830.656ZM818.686 65L817.914 65.6347L818.214 66H818.686V65ZM781.426 19.64V18.64H779.311L780.654 20.2747L781.426 19.64ZM787.276 19.64H788.276V18.64H787.276V19.64ZM787.276 65V66H788.276V65H787.276ZM773.876 65V2H771.876V65H773.876ZM772.876 3H784.936V0.999996H772.876V3ZM784.163 2.63382L821.333 47.9938L822.88 46.7262L785.71 1.36617L784.163 2.63382ZM822.106 46.36H816.256V48.36H822.106V46.36ZM817.256 47.36V2H815.256V47.36H817.256ZM816.256 3H830.656V0.999996H816.256V3ZM829.656 2V65H831.656V2H829.656ZM830.656 64H818.686V66H830.656V64ZM819.459 64.3653L782.199 19.0053L780.654 20.2747L817.914 65.6347L819.459 64.3653ZM781.426 20.64H787.276V18.64H781.426V20.64ZM786.276 19.64V65H788.276V19.64H786.276ZM787.276 64H772.876V66H787.276V64ZM845.562 65H844.562V66H845.562V65ZM845.562 2V0.999996H844.562V2H845.562ZM860.142 2H861.142V0.999996H860.142V2ZM860.142 65V66H861.142V65H860.142ZM846.562 65V2H844.562V65H846.562ZM845.562 3H860.142V0.999996H845.562V3ZM859.142 2V65H861.142V2H859.142ZM860.142 64H845.562V66H860.142V64ZM891.743 63.74L891.379 64.6712L891.387 64.6744L891.395 64.6774L891.743 63.74ZM880.853 56.9L880.16 57.6211L880.167 57.6278L880.853 56.9ZM873.653 46.55L872.732 46.9406L872.738 46.9523L873.653 46.55ZM873.653 20.45L872.737 20.0477L872.732 20.0594L873.653 20.45ZM880.943 10.1L881.629 10.8278L881.629 10.8278L880.943 10.1ZM891.923 3.34999L892.271 4.28749L892.283 4.283L891.923 3.34999ZM920.813 3.71L920.427 4.63234L920.431 4.63416L920.813 3.71ZM932.153 11.81L932.831 12.5448L933.543 11.8883L932.91 11.156L932.153 11.81ZM922.793 20.45L922.068 21.1387L922.747 21.8534L923.471 21.1848L922.793 20.45ZM915.323 15.14L914.917 16.0538L914.925 16.0576L914.934 16.0612L915.323 15.14ZM891.563 18.92L890.868 18.2014L890.862 18.2071L890.856 18.2129L891.563 18.92ZM887.333 25.31L886.409 24.927L886.405 24.9367L886.401 24.9465L887.333 25.31ZM887.333 41.6L886.401 41.9635L886.405 41.9733L886.409 41.983L887.333 41.6ZM891.563 48.08L890.844 48.7754L890.856 48.7872L890.868 48.7986L891.563 48.08ZM898.043 52.22L897.679 53.1516L897.687 53.1545L898.043 52.22ZM914.693 52.31L915.009 53.2588L915.022 53.2545L914.693 52.31ZM922.703 47.54L923.489 46.9219L922.843 46.1003L922.051 46.782L922.703 47.54ZM930.983 58.07L931.585 58.8683L932.4 58.2539L931.769 57.4519L930.983 58.07ZM919.013 64.01L918.723 63.0529L918.72 63.0539L919.013 64.01ZM917.663 56.18H916.663V57.0481L917.523 57.1701L917.663 56.18ZM917.663 32.51V31.51H916.663V32.51H917.663ZM930.983 32.51H931.983V31.51H930.983V32.51ZM930.983 58.07L930.843 59.0601L931.983 59.2219V58.07H930.983ZM905.513 65.08C900.639 65.08 896.168 64.3168 892.091 62.8026L891.395 64.6774C895.718 66.2832 900.427 67.08 905.513 67.08V65.08ZM892.107 62.8088C888.082 61.2336 884.562 59.0212 881.539 56.1722L880.167 57.6278C883.384 60.6588 887.124 63.0064 891.379 64.6712L892.107 62.8088ZM881.546 56.1789C878.582 53.3314 876.257 49.9903 874.569 46.1477L872.738 46.9523C874.529 51.0297 877.004 54.5886 880.16 57.6211L881.546 56.1789ZM874.574 46.1594C872.951 42.335 872.133 38.1195 872.133 33.5H870.133C870.133 38.3605 870.995 42.845 872.732 46.9405L874.574 46.1594ZM872.133 33.5C872.133 28.8805 872.951 24.665 874.574 20.8405L872.732 20.0594C870.995 24.155 870.133 28.6395 870.133 33.5H872.133ZM874.569 20.8523C876.255 17.014 878.607 13.6749 881.629 10.8278L880.257 9.37221C877.039 12.4051 874.531 15.966 872.738 20.0477L874.569 20.8523ZM881.629 10.8278C884.647 7.98367 888.191 5.80297 892.271 4.28742L891.575 2.41257C887.255 4.01702 883.479 6.33632 880.257 9.37221L881.629 10.8278ZM892.283 4.283C896.355 2.71227 900.851 1.92 905.783 1.92V-0.0800011C900.635 -0.0800011 895.891 0.747728 891.563 2.41699L892.283 4.283ZM905.783 1.92C911.251 1.92 916.127 2.8311 920.427 4.63233L921.199 2.78766C916.619 0.8689 911.475 -0.0800011 905.783 -0.0800011V1.92ZM920.431 4.63416C924.793 6.43705 928.443 9.04686 931.397 12.464L932.91 11.156C929.743 7.49313 925.833 4.70294 921.195 2.78583L920.431 4.63416ZM931.475 11.0752L922.115 19.7152L923.471 21.1848L932.831 12.5448L931.475 11.0752ZM923.518 19.7612C921.156 17.2744 918.554 15.4188 915.712 14.2187L914.934 16.0612C917.492 17.1412 919.871 18.8256 922.068 21.1387L923.518 19.7612ZM915.729 14.2262C912.892 12.9651 909.812 12.34 906.503 12.34V14.34C909.554 14.34 912.354 14.9149 914.917 16.0538L915.729 14.2262ZM906.503 12.34C903.338 12.34 900.425 12.8368 897.777 13.8455L898.489 15.7145C900.881 14.8032 903.548 14.34 906.503 14.34V12.34ZM897.777 13.8455C895.136 14.8517 892.829 16.3032 890.868 18.2014L892.258 19.6386C894.017 17.9368 896.09 16.6283 898.489 15.7145L897.777 13.8455ZM890.856 18.2129C888.959 20.1099 887.477 22.3515 886.409 24.927L888.257 25.693C889.229 23.3485 890.567 21.3301 892.27 19.6271L890.856 18.2129ZM886.401 24.9465C885.391 27.537 884.893 30.3924 884.893 33.5H886.893C886.893 30.6076 887.356 28.003 888.265 25.6735L886.401 24.9465ZM884.893 33.5C884.893 36.5503 885.391 39.3753 886.401 41.9635L888.265 41.2365C887.355 38.9047 886.893 36.3297 886.893 33.5H884.893ZM886.409 41.983C887.476 44.5557 888.955 46.8225 890.844 48.7754L892.282 47.3846C890.572 45.6175 889.23 43.5643 888.257 41.217L886.409 41.983ZM890.868 48.7986C892.825 50.6928 895.098 52.1443 897.68 53.1516L898.407 51.2884C896.068 50.3757 894.021 49.0672 892.258 47.3614L890.868 48.7986ZM897.687 53.1545C900.333 54.1624 903.215 54.66 906.323 54.66V52.66C903.431 52.66 900.793 52.1976 898.399 51.2855L897.687 53.1545ZM906.323 54.66C909.309 54.66 912.206 54.1931 915.009 53.2587L914.377 51.3613C911.78 52.2269 909.097 52.66 906.323 52.66V54.66ZM915.022 53.2545C917.918 52.247 920.696 50.5867 923.355 48.298L922.051 46.782C919.551 48.9333 916.988 50.453 914.365 51.3655L915.022 53.2545ZM921.917 48.1581L930.197 58.6881L931.769 57.4519L923.489 46.9219L921.917 48.1581ZM930.381 57.2717C927.065 59.7732 923.183 61.7032 918.723 63.0529L919.303 64.9671C923.963 63.5568 928.061 61.5268 931.585 58.8683L930.381 57.2717ZM918.72 63.0539C914.31 64.4062 909.909 65.08 905.513 65.08V67.08C910.117 67.08 914.716 66.3738 919.306 64.9661L918.72 63.0539ZM918.663 56.18V32.51H916.663V56.18H918.663ZM917.663 33.51H930.983V31.51H917.663V33.51ZM929.983 32.51V58.07H931.983V32.51H929.983ZM931.124 57.0799L917.804 55.1899L917.523 57.1701L930.843 59.0601L931.124 57.0799ZM987.727 2V0.999996H986.727V2H987.727ZM1002.31 2H1003.31V0.999996H1002.31V2ZM1002.31 65V66H1003.31V65H1002.31ZM987.727 65H986.727V66H987.727V65ZM959.107 65V66H960.107V65H959.107ZM944.527 65H943.527V66H944.527V65ZM944.527 2V0.999996H943.527V2H944.527ZM959.107 2H960.107V0.999996H959.107V2ZM988.807 39.17V40.17H989.807V39.17H988.807ZM958.027 39.17H957.027V40.17H958.027V39.17ZM958.027 26.84V25.84H957.027V26.84H958.027ZM988.807 26.84H989.807V25.84H988.807V26.84ZM987.727 3H1002.31V0.999996H987.727V3ZM1001.31 2V65H1003.31V2H1001.31ZM1002.31 64H987.727V66H1002.31V64ZM988.727 65V2H986.727V65H988.727ZM959.107 64H944.527V66H959.107V64ZM945.527 65V2H943.527V65H945.527ZM944.527 3H959.107V0.999996H944.527V3ZM958.107 2V65H960.107V2H958.107ZM988.807 38.17H958.027V40.17H988.807V38.17ZM959.027 39.17V26.84H957.027V39.17H959.027ZM958.027 27.84H988.807V25.84H958.027V27.84ZM987.807 26.84V39.17H989.807V26.84H987.807ZM1030.26 65H1029.26V66H1030.26V65ZM1030.26 13.88H1031.26V12.88H1030.26V13.88ZM1010.1 13.88H1009.1V14.88H1010.1V13.88ZM1010.1 2V0.999996H1009.1V2H1010.1ZM1065 2H1066V0.999996H1065V2ZM1065 13.88V14.88H1066V13.88H1065ZM1044.84 13.88V12.88H1043.84V13.88H1044.84ZM1044.84 65V66H1045.84V65H1044.84ZM1031.26 65V13.88H1029.26V65H1031.26ZM1030.26 12.88H1010.1V14.88H1030.26V12.88ZM1011.1 13.88V2H1009.1V13.88H1011.1ZM1010.1 3H1065V0.999996H1010.1V3ZM1064 2V13.88H1066V2H1064ZM1065 12.88H1044.84V14.88H1065V12.88ZM1043.84 13.88V65H1045.84V13.88H1043.84ZM1044.84 64H1030.26V66H1044.84V64Z" fill="#FF9FF8"/>
</svg>
