<svg width="1191" height="230" viewBox="0 0 1191 230" fill="none" xmlns="http://www.w3.org/2000/svg">
<g filter="url(#filter0_d_4_548)">
<path d="M11.0467 223.766L55.8731 149.025L57.6214 169.009L2.87671 105.027L34.0377 102.3L71.9024 146.94L58.877 148.25L87.892 97.5888L117.698 94.9811L75.1305 166.282L73.4117 146.637L130.949 213.276L99.2796 216.047L59.9924 168.801L72.5245 167.705L42.5463 221.011L11.0467 223.766ZM198.948 209.375C189.578 210.195 180.751 209.431 172.468 207.084C164.298 204.727 157.036 201.04 150.681 196.021C144.439 190.992 139.355 184.896 135.429 177.731C131.616 170.556 129.324 162.565 128.553 153.759C127.783 144.952 128.652 136.685 131.162 128.957C133.784 121.219 137.788 114.327 143.175 108.281C148.562 102.235 155.074 97.3426 162.71 93.6028C170.347 89.863 178.794 87.5881 188.052 86.7781C197.423 85.9583 206.137 86.7318 214.194 89.0986C222.363 91.4555 229.569 95.1482 235.811 100.177C242.166 105.195 247.307 111.287 251.233 118.452C255.149 125.504 257.497 133.49 258.278 142.409C259.048 151.216 258.127 159.544 255.515 167.395C252.893 175.133 248.888 182.025 243.501 188.071C238.217 193.994 231.757 198.825 224.121 202.565C216.597 206.295 208.206 208.565 198.948 209.375ZM196.734 186.019C202.041 185.555 206.817 184.227 211.062 182.035C215.42 179.834 219.144 176.891 222.235 173.208C225.326 169.524 227.572 165.289 228.973 160.502C230.487 155.705 230.998 150.484 230.504 144.839C230.01 139.194 228.601 134.141 226.276 129.68C224.065 125.209 221.118 121.428 217.434 118.337C213.864 115.237 209.741 112.981 205.067 111.569C200.393 110.158 195.403 109.685 190.097 110.149C184.79 110.613 179.958 111.946 175.6 114.148C171.355 116.339 167.687 119.277 164.596 122.96C161.505 126.644 159.203 130.884 157.688 135.681C156.287 140.468 155.833 145.684 156.327 151.329C156.811 156.861 158.164 161.919 160.385 166.503C162.709 170.964 165.657 174.745 169.227 177.845C172.911 180.936 177.089 183.187 181.764 184.598C186.438 186.01 191.428 186.483 196.734 186.019ZM284.082 199.879L273.711 81.3318L301.146 78.9315L309.562 175.124L369.005 169.923L370.96 192.278L284.082 199.879ZM386.289 190.937L375.918 72.3898L403.353 69.9895L413.725 188.537L386.289 190.937ZM441.858 186.075L431.487 67.5281L485.341 62.8165C498.212 61.6904 509.776 63.1816 520.033 67.2899C530.28 71.2853 538.555 77.4442 544.858 85.7666C551.161 94.0889 554.84 104.29 555.897 116.371C556.944 128.339 555.092 139.024 550.34 148.427C545.578 157.718 538.503 165.276 529.116 171.103C519.718 176.818 508.584 180.238 495.713 181.364L441.858 186.075ZM467.323 161.151L492.387 158.958C500.29 158.267 506.993 156.201 512.494 152.762C518.098 149.2 522.239 144.515 524.916 138.706C527.706 132.887 528.775 126.252 528.123 118.801C527.462 111.236 525.256 104.888 521.508 99.7549C517.863 94.4993 512.976 90.6605 506.849 88.2387C500.824 85.6941 493.86 84.7675 485.957 85.459L460.893 87.6518L467.323 161.151ZM564.539 175.342L607.006 52.1722L634.102 49.8016L697.481 163.711L668.691 166.23L616.18 65.3628L627.019 64.4146L592.651 172.883L564.539 175.342ZM588.735 147.628L594.195 126.16L655.162 120.826L664.436 141.005L588.735 147.628ZM731.971 160.694L727.733 112.259L735.451 128.307L675.705 46.1618L704.833 43.6134L750.624 106.672L733.858 108.139L768.171 38.072L795.099 35.7162L750.524 126.988L755.169 109.858L759.406 158.293L731.971 160.694ZM815.957 153.346L805.585 34.7988L863.504 29.7315C878.407 28.4277 889.831 30.2723 897.777 35.2655C905.835 40.2488 910.269 47.3695 911.079 56.6274C911.622 62.837 910.572 68.3897 907.929 73.2854C905.276 78.0681 901.405 81.9336 896.316 84.8817C891.226 87.8298 885.238 89.6051 878.351 90.2076L880.962 82.9826C888.413 82.3307 895.127 82.9948 901.102 84.9749C907.067 86.8421 911.838 90.0083 915.414 94.4736C919.103 98.9291 921.249 104.6 921.852 111.487C922.74 121.648 919.429 129.959 911.917 136.418C904.394 142.764 892.843 146.619 877.263 147.982L815.957 153.346ZM841.415 130.299L873.423 127.499C880.536 126.877 885.8 125.279 889.215 122.704C892.733 120.008 894.27 116.119 893.826 111.038C893.391 106.071 891.207 102.564 887.274 100.519C883.444 98.3514 877.972 97.5787 870.859 98.201L836.82 101.179L835.071 81.1954L864.369 78.6322C871.03 78.0494 876.012 76.4759 879.315 73.9116C882.72 71.2246 884.215 67.5102 883.801 62.7683C883.396 58.1393 881.288 54.8538 877.477 52.9119C873.77 50.8471 868.586 50.1062 861.925 50.6889L834.659 53.0744L841.415 130.299ZM1003.21 139.011C993.839 139.831 985.013 139.067 976.73 136.72C968.56 134.363 961.298 130.676 954.943 125.657C948.701 120.629 943.617 114.532 939.691 107.367C935.877 100.192 933.585 92.2012 932.815 83.3949C932.045 74.5885 932.914 66.3213 935.423 58.5932C938.046 50.8552 942.05 43.9633 947.437 37.9174C952.824 31.8716 959.336 26.9788 966.972 23.239C974.609 19.4992 983.056 17.2243 992.314 16.4143C1001.68 15.5945 1010.4 16.368 1018.46 18.7348C1026.63 21.0917 1033.83 24.7844 1040.07 29.8128C1046.43 34.8314 1051.57 40.9232 1055.49 48.0883C1059.41 55.1405 1061.76 63.1262 1062.54 72.0454C1063.31 80.8518 1062.39 89.1804 1059.78 97.0313C1057.15 104.769 1053.15 111.661 1047.76 117.707C1042.48 123.63 1036.02 128.462 1028.38 132.201C1020.86 135.931 1012.47 138.201 1003.21 139.011ZM1001 115.655C1006.3 115.191 1011.08 113.863 1015.32 111.671C1019.68 109.47 1023.41 106.527 1026.5 102.844C1029.59 99.1606 1031.83 94.9254 1033.23 90.1384C1034.75 85.3415 1035.26 80.1205 1034.77 74.4754C1034.27 68.8303 1032.86 63.7772 1030.54 59.3161C1028.33 54.8452 1025.38 51.0643 1021.7 47.9736C1018.13 44.873 1014 42.617 1009.33 41.2057C1004.66 39.7944 999.665 39.3208 994.358 39.7851C989.052 40.2493 984.22 41.5822 979.862 43.7838C975.617 45.9754 971.949 48.9129 968.858 52.5963C965.767 56.2797 963.465 60.5199 961.95 65.3168C960.549 70.1038 960.095 75.3199 960.589 80.965C961.073 86.4972 962.426 91.5552 964.647 96.139C966.971 100.6 969.919 104.381 973.489 107.482C977.173 110.572 981.351 112.823 986.025 114.235C990.7 115.646 995.69 116.12 1001 115.655ZM1112.68 127.386L1108.45 78.9506L1116.17 94.999L1056.42 12.8537L1085.55 10.3053L1131.34 73.3644L1114.57 74.8312L1148.89 4.76391L1175.81 2.40809L1131.24 93.6804L1135.88 76.5504L1140.12 124.985L1112.68 127.386Z" fill="url(#paint0_linear_4_548)"/>
</g>
<defs>
<filter id="filter0_d_4_548" x="0.49733" y="0.375854" width="1189.86" height="229.423" filterUnits="userSpaceOnUse" color-interpolation-filters="sRGB">
<feFlood flood-opacity="0" result="BackgroundImageFix"/>
<feColorMatrix in="SourceAlpha" type="matrix" values="0 0 0 0 0 0 0 0 0 0 0 0 0 0 0 0 0 0 127 0" result="hardAlpha"/>
<feOffset dx="4" dy="4"/>
<feComposite in2="hardAlpha" operator="out"/>
<feColorMatrix type="matrix" values="0 0 0 0 0 0 0 0 0 0 0 0 0 0 0 0 0 0 0.25 0"/>
<feBlend mode="normal" in2="BackgroundImageFix" result="effect1_dropShadow_4_548"/>
<feBlend mode="normal" in="SourceGraphic" in2="effect1_dropShadow_4_548" result="shape"/>
</filter>
<linearGradient id="paint0_linear_4_548" x1="583.004" y1="9.10023" x2="601.045" y2="215.313" gradientUnits="userSpaceOnUse">
<stop stop-color="white"/>
<stop offset="1" stop-color="#8542BA"/>
</linearGradient>
</defs>
</svg>
