<svg width="25" height="25" viewBox="0 0 25 25" fill="none" xmlns="http://www.w3.org/2000/svg">
<path d="M3.90137 5.92773C3.62793 6.02539 3.43262 6.18652 3.28613 6.43555C3.16895 6.63086 3.14941 6.71875 3.14941 7.03613C3.14941 7.36328 3.16895 7.43164 3.2959 7.64648C3.38867 7.79297 3.53516 7.93945 3.68164 8.03223L3.9209 8.17871H12.5H21.0791L21.3184 8.03223C21.4648 7.93945 21.6113 7.79297 21.7041 7.64648C21.8359 7.43164 21.8506 7.36328 21.8506 7.03125C21.8506 6.69922 21.8359 6.63086 21.7041 6.41602C21.6113 6.26953 21.4648 6.12305 21.3184 6.03027L21.0791 5.88379L12.5781 5.87402C5.71289 5.86426 4.04297 5.87402 3.90137 5.92773Z" fill="#8B79F6"/>
<path d="M3.90137 11.3965C3.62793 11.4941 3.43262 11.6553 3.28613 11.9043C3.16895 12.0996 3.14941 12.1875 3.14941 12.5049C3.14941 12.832 3.16895 12.9004 3.2959 13.1152C3.38867 13.2617 3.53516 13.4082 3.68164 13.501L3.9209 13.6475H12.5H21.0791L21.3184 13.501C21.4648 13.4082 21.6113 13.2617 21.7041 13.1152C21.8359 12.9004 21.8506 12.832 21.8506 12.5C21.8506 12.168 21.8359 12.0996 21.7041 11.8848C21.6113 11.7383 21.4648 11.5918 21.3184 11.499L21.0791 11.3525L12.5781 11.3428C5.71289 11.333 4.04297 11.3428 3.90137 11.3965Z" fill="#8B79F6"/>
<path d="M3.90137 16.8652C3.62793 16.9629 3.43262 17.124 3.28613 17.373C3.16895 17.5684 3.14941 17.6563 3.14941 17.9736C3.14941 18.3008 3.16895 18.3691 3.2959 18.584C3.38867 18.7305 3.53516 18.877 3.68164 18.9697L3.9209 19.1162H12.5H21.0791L21.3184 18.9697C21.4648 18.877 21.6113 18.7305 21.7041 18.584C21.8359 18.3691 21.8506 18.3008 21.8506 17.9688C21.8506 17.6367 21.8359 17.5684 21.7041 17.3535C21.6113 17.207 21.4648 17.0605 21.3184 16.9678L21.0791 16.8213L12.5781 16.8115C5.71289 16.8018 4.04297 16.8115 3.90137 16.8652Z" fill="#8B79F6"/>
</svg>
