<svg width="30" height="30" viewBox="0 0 30 30" fill="none" xmlns="http://www.w3.org/2000/svg">
<g clip-path="url(#clip0_120_133)">
<path d="M13.6347 0.0644598C11.7304 0.2461 10.0429 0.732429 8.3261 1.5879C6.80266 2.34376 5.68938 3.14649 4.42961 4.38282C3.22844 5.57227 2.36125 6.77344 1.58782 8.32618C-0.246168 12.0059 -0.492262 16.1777 0.884691 20.0684C1.40032 21.5098 2.42571 23.3262 3.36321 24.4629C4.77532 26.1621 6.39836 27.4512 8.3261 28.4121C10.6113 29.5488 13.0429 30.082 15.5273 29.9824C17.7597 29.8887 19.6991 29.3965 21.6738 28.4121C24.0527 27.2344 26.0273 25.4883 27.5097 23.2617C28.0195 22.4941 28.7812 20.9941 29.0917 20.1328C30.1171 17.332 30.2636 14.1094 29.5019 11.209C29.2148 10.1191 28.9628 9.45118 28.4179 8.34962C27.6562 6.8086 26.8534 5.68946 25.6171 4.42969C22.5058 1.27735 18.0175 -0.357415 13.6347 0.0644598ZM9.8261 7.20704C10.0136 7.27735 12.8554 10.084 12.9843 10.3242C13.1835 10.7051 13.1425 10.7754 12.0761 11.8594C11.537 12.4102 11.0448 12.9492 10.9921 13.0488C10.7695 13.4883 10.8163 14.0098 11.1152 14.4609C12.0937 15.9141 14.6718 18.4043 15.8613 19.043C16.1308 19.1895 16.664 19.2012 16.9804 19.0723C17.1152 19.0137 17.5722 18.6094 18.164 18.0176C19.1425 17.0449 19.2948 16.9395 19.6171 17.0215C19.8163 17.0684 22.6933 19.916 22.8281 20.2031C23.0038 20.5781 22.8046 20.8945 21.873 21.709C20.8769 22.582 19.7695 22.9512 18.6327 22.793C17.1034 22.582 14.5898 21.3398 12.7734 19.8867C12.0937 19.3418 10.4296 17.6719 9.89055 16.9922C8.6718 15.4629 7.61711 13.5117 7.23039 12.0996C6.9843 11.1914 7.08977 10.2422 7.54094 9.31641C7.78703 8.81837 7.88664 8.6836 8.57219 7.98633C8.98821 7.5586 9.38664 7.20118 9.45696 7.18946C9.52141 7.17774 9.59758 7.16016 9.62102 7.1543C9.64446 7.1543 9.73235 7.17774 9.8261 7.20704Z" fill="white"/>
</g>
<defs>
<clipPath id="clip0_120_133">
<rect width="30" height="30" fill="white"/>
</clipPath>
</defs>
</svg>
