<svg width="30" height="30" viewBox="0 0 30 30" fill="none" xmlns="http://www.w3.org/2000/svg">
<g clip-path="url(#clip0_105_4)">
<path d="M13.6348 0.0644608C11.7305 0.246101 10.043 0.73243 8.32616 1.5879C6.80272 2.34376 5.68944 3.14649 4.42967 4.38282C3.2285 5.57227 2.36131 6.77345 1.58788 8.32618C-0.246107 12.0059 -0.492201 16.1777 0.884752 20.0684C1.40038 21.5098 2.42577 23.3262 3.36327 24.4629C4.77538 26.1621 6.39842 27.4512 8.32616 28.4121C10.6113 29.5488 13.043 30.082 15.5273 29.9824C17.7598 29.8887 19.6992 29.3965 21.6738 28.4121C24.0527 27.2344 26.0273 25.4883 27.5098 23.2617C28.0195 22.4941 28.7812 20.9941 29.0918 20.1328C30.1172 17.332 30.2637 14.1094 29.5019 11.209C29.2148 10.1191 28.9629 9.45118 28.418 8.34962C27.6562 6.8086 26.8535 5.68946 25.6172 4.4297C22.5058 1.27735 18.0176 -0.357414 13.6348 0.0644608ZM9.82616 7.20704C10.0137 7.27735 12.8555 10.084 12.9844 10.3242C13.1836 10.7051 13.1426 10.7754 12.0762 11.8594C11.5371 12.4102 11.0449 12.9492 10.9922 13.0488C10.7695 13.4883 10.8164 14.0098 11.1152 14.4609C12.0937 15.9141 14.6719 18.4043 15.8613 19.043C16.1308 19.1895 16.664 19.2012 16.9805 19.0723C17.1152 19.0137 17.5723 18.6094 18.164 18.0176C19.1426 17.0449 19.2949 16.9395 19.6172 17.0215C19.8164 17.0684 22.6933 19.916 22.8281 20.2031C23.0039 20.5781 22.8047 20.8945 21.873 21.709C20.8769 22.582 19.7695 22.9512 18.6328 22.793C17.1035 22.582 14.5898 21.3398 12.7734 19.8867C12.0937 19.3418 10.4297 17.6719 9.89061 16.9922C8.67186 15.4629 7.61717 13.5117 7.23046 12.0996C6.98436 11.1914 7.08983 10.2422 7.541 9.31641C7.7871 8.81837 7.88671 8.6836 8.57225 7.98634C8.98827 7.5586 9.38671 7.20118 9.45702 7.18946C9.52147 7.17774 9.59764 7.16016 9.62108 7.1543C9.64452 7.1543 9.73241 7.17774 9.82616 7.20704Z" fill="#8B79F6"/>
</g>
<defs>
<clipPath id="clip0_105_4">
<rect width="30" height="30" fill="white"/>
</clipPath>
</defs>
</svg>
