<svg width="60" height="60" viewBox="0 0 60 60" fill="none" xmlns="http://www.w3.org/2000/svg">
<path d="M27.7734 0.0703392C27.5508 0.0937767 26.8594 0.175808 26.25 0.24612C16.9805 1.30081 8.41406 7.11331 3.70312 15.5391C1.99219 18.6094 0.75 22.4297 0.222656 26.25C0.0117188 27.7149 0.0117188 32.2852 0.222656 33.75C1.45312 42.6797 6.21094 50.2617 13.6523 55.1485C23.4961 61.6172 36.5742 61.5938 46.4297 55.1016C49.6875 52.9453 52.793 49.8633 54.9375 46.6641C59.3086 40.1485 60.9141 32.2383 59.4727 24.4219C58.3828 18.5508 55.5 13.1133 51.1992 8.80081C46.5234 4.13675 40.8984 1.31253 34.2188 0.292995C33.0469 0.117214 28.6875 -0.0351295 27.7734 0.0703392ZM33.8672 3.80862C44.3789 5.42581 52.9922 13.1602 55.5938 23.3321C56.2383 25.8633 56.4141 27.2696 56.4141 30C56.4141 33.5391 55.8633 36.5508 54.6562 39.6094C49.7109 52.0782 36.457 58.8985 23.4961 55.6407C14.2266 53.3203 6.77344 45.9024 4.40625 36.668C3.76172 34.1367 3.58594 32.7305 3.58594 30C3.58594 26.461 4.13672 23.4492 5.34375 20.3907C9.04688 11.0625 17.4727 4.68753 27.4922 3.64456C28.9102 3.49221 32.3672 3.58596 33.8672 3.80862Z" fill="#200B9F"/>
<path d="M19.3945 17.8711C19.0781 17.9649 18.4219 18.2344 17.9414 18.4688C15.8672 19.5 14.1797 22.0547 14.1797 24.1875V24.7383L15.9023 24.7031L17.6133 24.668L17.7539 24.0235C17.918 23.1914 18.1406 22.793 18.7617 22.1719C19.4648 21.4805 20.3203 21.1758 21.3867 21.2344C22.7344 21.3281 23.7656 21.9961 24.3398 23.1797C24.7734 24.0703 24.7969 25.336 24.3867 26.1328C23.8008 27.2578 22.9805 27.9258 21.8906 28.1485L21.2109 28.2891V30V31.711L21.8906 31.8516C22.9805 32.0742 23.8008 32.7422 24.3867 33.8672C24.7969 34.6641 24.7734 35.9297 24.3398 36.8203C23.7656 38.0039 22.7344 38.6719 21.3867 38.7657C20.3203 38.8242 19.4648 38.5196 18.7617 37.8281C18.1406 37.2071 17.918 36.8086 17.7539 35.9766L17.6133 35.3321L15.9023 35.2969L14.1797 35.2617V35.8125C14.1797 38.0039 15.8789 40.5352 18.0586 41.5781C19.3711 42.211 20.0977 42.3516 21.5742 42.2813C23.4609 42.1875 24.8438 41.5781 26.1445 40.2539C28.7695 37.5821 28.9102 33.3867 26.4844 30.6797L25.875 30L26.4844 29.3321C28.4648 27.1055 28.7695 23.6836 27.2227 21.1172C26.3672 19.711 25.1484 18.6797 23.6133 18.0938C22.9219 17.8242 22.582 17.7657 21.3867 17.7422C20.4258 17.7188 19.793 17.7539 19.3945 17.8711Z" fill="#200B9F"/>
<path d="M36.9492 17.918C34.4062 18.6445 32.4727 20.707 31.9336 23.2617C31.6875 24.457 31.6875 35.543 31.9336 36.7383C32.2266 38.1094 32.8242 39.1758 33.9141 40.2539C34.9336 41.2617 35.8359 41.8008 37.0898 42.1289C37.9922 42.3633 39.668 42.3516 40.5937 42.1172C42.9727 41.5078 44.9883 39.4688 45.668 37.0195C45.8555 36.3516 45.8789 35.625 45.8789 30C45.8789 24.375 45.8555 23.6485 45.668 22.9805C44.9883 20.5195 42.9727 18.4922 40.5937 17.8828C39.6328 17.6367 37.8867 17.6485 36.9492 17.918ZM40.1133 21.4453C40.8164 21.7031 41.6133 22.4297 42 23.1445C42.2461 23.6133 42.2461 23.6953 42.2461 30C42.2461 36.3047 42.2461 36.3867 42 36.8555C40.875 38.9531 38.1914 39.4219 36.3984 37.8399C36.1641 37.6406 35.8359 37.1836 35.6602 36.8203L35.332 36.1524V30C35.332 23.9883 35.332 23.836 35.5781 23.3086C35.9414 22.5235 36.4922 21.9727 37.2891 21.5625C38.168 21.1289 39.1523 21.082 40.1133 21.4453Z" fill="#200B9F"/>
</svg>
