<svg width="60" height="60" viewBox="0 0 60 60" fill="none" xmlns="http://www.w3.org/2000/svg">
<path d="M27.8906 4.04296C22.957 5.14453 19.5703 9.55078 19.8398 14.5312C20.0156 17.8711 21.6797 20.7422 24.5273 22.5937C26.4375 23.8359 28.8867 24.4219 31.0898 24.1406C36.1641 23.5078 39.8906 19.5703 40.1602 14.5312C40.3359 11.1562 38.8008 7.86328 36.1055 5.87109C35.2031 5.1914 33.6914 4.45312 32.6367 4.16015C31.6523 3.8789 28.8984 3.82031 27.8906 4.04296Z" fill="#200B9F"/>
<path d="M7.7461 11.543C6.8086 11.8125 6.23438 12.0938 5.44923 12.6914C2.40235 15 2.08595 19.5469 4.8047 22.2656C6.08204 23.543 7.59376 24.1758 9.37501 24.1758C12.3867 24.1758 14.9531 22.1484 15.6445 19.1836C16.3711 16.0898 14.5664 12.7852 11.543 11.707C10.6172 11.3789 8.64845 11.2969 7.7461 11.543Z" fill="#200B9F"/>
<path d="M48.9961 11.543C48.0586 11.8125 47.4844 12.0938 46.6992 12.6914C43.6524 15 43.3359 19.5469 46.0547 22.2656C47.332 23.543 48.8438 24.1758 50.625 24.1758C53.6367 24.1758 56.2031 22.1484 56.8945 19.1836C57.6211 16.0898 55.8164 12.7852 52.793 11.707C51.8672 11.3789 49.8984 11.2969 48.9961 11.543Z" fill="#200B9F"/>
<path d="M27.4805 28.1953C24 28.6992 21.9727 29.4609 19.8047 31.1016C17.4258 32.8945 15.8555 35.0391 15 37.6992C14.1914 40.1953 13.9922 42.9023 14.1328 48.8672L14.2383 53.0273L14.5664 53.6953C15 54.5742 15.7148 55.2656 16.6406 55.7109L17.4023 56.0742H29.4141C42.1172 56.0742 42.4922 56.0625 43.7227 55.5352C44.4141 55.2305 45.0352 54.5625 45.457 53.6836L45.7617 53.0273L45.7969 47.2734C45.832 40.9805 45.7734 40.125 45.1641 38.2031C43.6172 33.2695 39.2695 29.2969 34.4531 28.4062C33.5977 28.2422 28.2305 28.0898 27.4805 28.1953Z" fill="#200B9F"/>
<path d="M6.03516 28.4297C3.48047 29.0508 1.24219 31.1367 0.398438 33.7031L0.0585938 34.7461V42.3047V49.8633L0.328125 50.3555C0.738281 51.1289 1.25391 51.6445 1.96875 51.9961L2.63672 52.3242L6.375 52.3594C8.42578 52.3828 10.2305 52.3711 10.3828 52.336L10.6641 52.2656L10.6406 47.25C10.6172 42.0469 10.6992 40.7344 11.1328 38.5899C11.7656 35.5664 13.2188 32.6953 15.2109 30.5625L15.7383 30L15.457 29.7656C14.9414 29.332 13.3125 28.5938 12.4805 28.418C11.3555 28.1836 7.03125 28.1953 6.03516 28.4297Z" fill="#200B9F"/>
<path d="M47.4727 28.4297C46.5938 28.6172 45.2227 29.2383 44.6836 29.6953L44.2969 30.0235L45 30.7969C46.9922 33.0352 48.2578 35.5664 48.8672 38.543C49.2773 40.582 49.3594 42.082 49.3477 47.25L49.3359 52.2656L49.6172 52.336C49.7695 52.3711 51.5508 52.3828 53.5664 52.3594C57.0352 52.3242 57.2812 52.3125 57.7852 52.0781C58.5352 51.7266 59.25 51.0469 59.625 50.3438L59.9414 49.7461V42.2461V34.7461L59.6016 33.7031C58.7461 31.1133 56.4961 29.0274 53.9062 28.418C52.8867 28.1836 48.5625 28.1836 47.4727 28.4297Z" fill="#200B9F"/>
</svg>
