<svg width="60" height="60" viewBox="0 0 60 60" fill="none" xmlns="http://www.w3.org/2000/svg">
<path d="M18.2227 0.164032C17.2383 0.410126 16.5 0.832001 15.75 1.582C14.9883 2.34372 14.5195 3.17575 14.3086 4.19528C14.2148 4.62888 14.1797 8.39059 14.1797 16.6172V28.4297L13.0547 28.6406C9.83203 29.2383 7.10156 30.7031 4.74609 33.0937C2.83593 35.0156 1.76953 36.75 0.949216 39.1992C-0.609378 43.8867 0.0820281 48.8906 2.87109 53.0859C3.1875 53.5664 4.03125 54.5508 4.74609 55.2656C7.01953 57.5625 9.39844 58.8867 12.7148 59.6836L13.7695 59.9297L34.3359 59.9765C49.4062 60 55.0898 59.9765 55.6055 59.8828C56.5547 59.6953 57.7734 59.039 58.4062 58.3593C59.0273 57.7031 59.5664 56.6718 59.7539 55.8047C59.8477 55.3593 59.8828 49.289 59.8828 34.1484C59.8828 15.1172 59.8594 13.0781 59.6953 12.7383C59.4375 12.2226 47.7422 0.503876 47.2031 0.222626C46.7812 0.0116882 46.3828 -3.05176e-05 32.7891 0.0116882C22.0195 0.023407 18.6797 0.0585632 18.2227 0.164032ZM44.6484 8.67184C44.6484 13.6172 44.6602 13.8515 44.8828 14.2968C45.0352 14.6015 45.2812 14.8476 45.5859 15C46.0312 15.2226 46.2656 15.2343 51.2109 15.2343H56.3672V35.1562C56.3672 54.9023 56.3672 55.0898 56.1328 55.5468C55.9805 55.8515 55.7344 56.0976 55.4297 56.25C54.9727 56.4843 54.7734 56.4843 40.4648 56.4843H25.957L27.1406 55.2773C29.4375 52.957 30.8906 50.2031 31.4766 47.0625L31.6875 45.9375H40.9805C50.0742 45.9375 50.2969 45.9375 50.7422 45.7031C51.2695 45.4336 51.6797 44.7656 51.6797 44.1797C51.6797 43.5937 51.2695 42.9258 50.7422 42.6562C50.2969 42.4218 50.0742 42.4218 40.9805 42.4218H31.6641L31.5937 41.8593C31.3477 40.1953 30.5625 37.9218 29.6953 36.4218C29.4141 35.9297 29.1797 35.4843 29.1797 35.4492C29.1797 35.414 33.9258 35.3906 39.7266 35.3906C50.0742 35.3906 50.2969 35.3906 50.7422 35.1562C51.2695 34.8867 51.6797 34.2187 51.6797 33.6328C51.6797 33.0468 51.2695 32.3789 50.7422 32.1093C50.2852 31.875 50.0742 31.875 38.0859 31.875H25.8867L25.2773 31.4297C23.3086 29.9648 20.6133 28.8515 18.2578 28.5234L17.6953 28.4531V16.6523C17.707 3.39841 17.6367 4.37106 18.5859 3.79684L19.043 3.51559H31.8516H44.6484V8.67184ZM51.0352 8.90622L53.8477 11.7187H51H48.1641V8.90622C48.1641 7.35934 48.1758 6.09372 48.1992 6.09372C48.2109 6.09372 49.4883 7.35934 51.0352 8.90622ZM18.75 32.2031C21.0703 32.8125 23.0273 33.914 24.6211 35.4961C26.2031 37.0781 27.2695 38.9765 27.9258 41.3672C28.1133 42.0937 28.1602 42.5859 28.1602 44.1797C28.1602 46.289 28.043 46.9336 27.3164 48.8086C26.2148 51.6562 23.4141 54.457 20.5664 55.5586C18.6914 56.2851 18.0469 56.4023 15.9375 56.4023C13.8281 56.4023 13.1836 56.2851 11.3086 55.5586C8.46093 54.457 5.66015 51.6562 4.55859 48.8086C3.84375 46.957 3.71484 46.2773 3.70312 44.2383C3.6914 42.1406 3.89062 41.1093 4.6289 39.3633C6.23437 35.5547 9.99609 32.6367 14.1211 31.9922C15.2227 31.8281 17.7305 31.9453 18.75 32.2031Z" fill="#200B9F"/>
<path d="M23.2969 21.5742C22.793 21.832 22.3828 22.5234 22.3828 23.0859C22.3828 23.6719 22.793 24.3398 23.3203 24.6094C23.7773 24.8438 23.9766 24.8438 37.0312 24.8438C50.0859 24.8438 50.2852 24.8438 50.7422 24.6094C51.2695 24.3398 51.6797 23.6719 51.6797 23.0859C51.6797 22.5 51.2695 21.832 50.7422 21.5625C50.2852 21.3281 50.0859 21.3281 37.0078 21.3281C24.0234 21.3398 23.7188 21.3398 23.2969 21.5742Z" fill="#200B9F"/>
<path d="M20.918 39.4453C20.7305 39.5507 18.9727 41.2265 17.0273 43.1601L13.4766 46.6992L12.2812 45.5039C11.6133 44.8593 10.9102 44.2382 10.6992 44.1328C9.26953 43.4179 7.67578 45.0117 8.39062 46.4414C8.64843 46.957 12.1523 50.4726 12.6797 50.7539C13.207 51.0234 13.7109 51.0351 14.2148 50.789C14.7305 50.5312 22.9336 42.3515 23.2148 41.8125C23.4961 41.25 23.4961 40.7695 23.2031 40.1953C22.793 39.3867 21.7148 39.0351 20.918 39.4453Z" fill="#200B9F"/>
</svg>
