<svg width="97" height="30" viewBox="0 0 97 30" fill="none" xmlns="http://www.w3.org/2000/svg">
<path d="M19.2383 0.5625V5.15234H6.42578V29H0.585938V0.5625H19.2383ZM44.9023 14.1172V15.4648C44.9023 17.6263 44.6094 19.5664 44.0234 21.2852C43.4375 23.0039 42.6107 24.4688 41.543 25.6797C40.4753 26.8776 39.1992 27.7956 37.7148 28.4336C36.2435 29.0716 34.6094 29.3906 32.8125 29.3906C31.0286 29.3906 29.3945 29.0716 27.9102 28.4336C26.4388 27.7956 25.1628 26.8776 24.082 25.6797C23.0013 24.4688 22.1615 23.0039 21.5625 21.2852C20.9766 19.5664 20.6836 17.6263 20.6836 15.4648V14.1172C20.6836 11.9427 20.9766 10.0026 21.5625 8.29688C22.1484 6.57812 22.9753 5.11328 24.043 3.90234C25.1237 2.69141 26.3997 1.76693 27.8711 1.12891C29.3555 0.490885 30.9896 0.171875 32.7734 0.171875C34.5703 0.171875 36.2044 0.490885 37.6758 1.12891C39.1602 1.76693 40.4362 2.69141 41.5039 3.90234C42.5846 5.11328 43.418 6.57812 44.0039 8.29688C44.6029 10.0026 44.9023 11.9427 44.9023 14.1172ZM38.9844 15.4648V14.0781C38.9844 12.5677 38.8477 11.2396 38.5742 10.0938C38.3008 8.94792 37.8971 7.98438 37.3633 7.20312C36.8294 6.42188 36.1784 5.83594 35.4102 5.44531C34.6419 5.04167 33.763 4.83984 32.7734 4.83984C31.7839 4.83984 30.9049 5.04167 30.1367 5.44531C29.3815 5.83594 28.737 6.42188 28.2031 7.20312C27.6823 7.98438 27.2852 8.94792 27.0117 10.0938C26.7383 11.2396 26.6016 12.5677 26.6016 14.0781V15.4648C26.6016 16.9622 26.7383 18.2904 27.0117 19.4492C27.2852 20.5951 27.6888 21.5651 28.2227 22.3594C28.7565 23.1406 29.4076 23.7331 30.1758 24.1367C30.944 24.5404 31.8229 24.7422 32.8125 24.7422C33.8021 24.7422 34.681 24.5404 35.4492 24.1367C36.2174 23.7331 36.862 23.1406 37.3828 22.3594C37.9036 21.5651 38.3008 20.5951 38.5742 19.4492C38.8477 18.2904 38.9844 16.9622 38.9844 15.4648ZM65.6055 19.5664H71.4453C71.3281 21.4805 70.8008 23.1797 69.8633 24.6641C68.9388 26.1484 67.6432 27.3073 65.9766 28.1406C64.3229 28.974 62.3307 29.3906 60 29.3906C58.1771 29.3906 56.543 29.0781 55.0977 28.4531C53.6523 27.8151 52.4154 26.9036 51.3867 25.7188C50.3711 24.5339 49.5964 23.1016 49.0625 21.4219C48.5286 19.7422 48.2617 17.8607 48.2617 15.7773V13.8047C48.2617 11.7214 48.5352 9.83984 49.082 8.16016C49.6419 6.46745 50.4362 5.02865 51.4648 3.84375C52.5065 2.65885 53.75 1.7474 55.1953 1.10938C56.6406 0.471354 58.2552 0.152344 60.0391 0.152344C62.4089 0.152344 64.4076 0.582031 66.0352 1.44141C67.6758 2.30078 68.9453 3.48568 69.8438 4.99609C70.7552 6.50651 71.3021 8.22526 71.4844 10.1523H65.625C65.5599 9.00651 65.332 8.03646 64.9414 7.24219C64.5508 6.4349 63.9583 5.82943 63.1641 5.42578C62.3828 5.00911 61.3411 4.80078 60.0391 4.80078C59.0625 4.80078 58.2096 4.98307 57.4805 5.34766C56.7513 5.71224 56.1393 6.26562 55.6445 7.00781C55.1497 7.75 54.7786 8.6875 54.5312 9.82031C54.2969 10.9401 54.1797 12.2552 54.1797 13.7656V15.7773C54.1797 17.2487 54.2904 18.5443 54.5117 19.6641C54.7331 20.7708 55.0716 21.7083 55.5273 22.4766C55.9961 23.2318 56.5951 23.8047 57.3242 24.1953C58.0664 24.5729 58.9583 24.7617 60 24.7617C61.224 24.7617 62.2331 24.5664 63.0273 24.1758C63.8216 23.7852 64.4271 23.2057 64.8438 22.4375C65.2734 21.6693 65.5273 20.7122 65.6055 19.5664ZM87.4219 0.5625V29H81.582V0.5625H87.4219ZM96.1719 0.5625V5.15234H72.9688V0.5625H96.1719Z" fill="#200B9F"/>
</svg>
